G04 #@! TF.FileFunction,Copper,L2,Inr,Plane*
%FSLAX46Y46*%
G04 Gerber Fmt 4.6, Leading zero omitted, Abs format (unit mm)*
G04 Created by KiCad (PCBNEW 4.0.7-e2-6376~58~ubuntu16.04.1) date Thu Aug  2 15:14:07 2018*
%MOMM*%
%LPD*%
G01*
G04 APERTURE LIST*
%ADD10C,0.100000*%
%ADD11R,1.700000X1.700000*%
%ADD12O,1.700000X1.700000*%
%ADD13C,0.457200*%
%ADD14C,0.609600*%
%ADD15C,0.558800*%
%ADD16C,0.970000*%
%ADD17C,6.400000*%
%ADD18C,0.800000*%
%ADD19C,0.127000*%
G04 APERTURE END LIST*
D10*
D11*
X117000000Y-60500000D03*
D12*
X117000000Y-63040000D03*
X117000000Y-65580000D03*
X117000000Y-68120000D03*
X117000000Y-70660000D03*
X117000000Y-73200000D03*
D13*
X137100000Y-70900000D03*
D14*
X131500000Y-70500000D03*
X133000000Y-70500000D03*
X133000000Y-67500000D03*
X131500000Y-67500000D03*
X130000000Y-67500000D03*
X130000000Y-70500000D03*
X133000000Y-69000000D03*
X131500000Y-69000000D03*
X130000000Y-69000000D03*
D13*
X133500000Y-57900000D03*
X124050000Y-56500000D03*
X125050000Y-56500000D03*
X126050000Y-56500000D03*
X134900000Y-46300000D03*
X135900000Y-46300000D03*
X134900000Y-40700000D03*
X135900000Y-40700000D03*
X141300000Y-47500000D03*
X142100000Y-47500000D03*
X143300000Y-46500000D03*
X143300000Y-45500000D03*
X159900000Y-40700000D03*
X159900000Y-43900000D03*
X159900000Y-43100000D03*
X159900000Y-42300000D03*
X159900000Y-41500000D03*
X155300000Y-39300000D03*
X156100000Y-39300000D03*
X156900000Y-39300000D03*
X153500000Y-66500000D03*
X157700000Y-72100000D03*
X156100000Y-72100000D03*
X155100000Y-73100000D03*
X159700000Y-73300000D03*
X149900000Y-55500000D03*
X162300000Y-55700000D03*
X149900000Y-54500000D03*
X162300000Y-54700000D03*
X149900000Y-53500000D03*
X162300000Y-53700000D03*
X149900000Y-52500000D03*
X162300000Y-52700000D03*
X149900000Y-51500000D03*
X162300000Y-51700000D03*
X164100000Y-67900000D03*
X165900000Y-61100000D03*
X163100000Y-63300000D03*
X162300000Y-59100000D03*
X154700000Y-57500000D03*
X151900000Y-58500000D03*
X151100000Y-62900000D03*
X138300000Y-70900000D03*
X139700000Y-70900000D03*
X140900000Y-70900000D03*
X142100000Y-70900000D03*
X148900000Y-70900000D03*
X150300000Y-70900000D03*
X151700000Y-70900000D03*
X153100000Y-70900000D03*
X136700000Y-65900000D03*
X137500000Y-65100000D03*
X139100000Y-65100000D03*
X140500000Y-65100000D03*
X141500000Y-66100000D03*
X143000000Y-66100000D03*
X144100000Y-66100000D03*
X145500000Y-66100000D03*
X146900000Y-66100000D03*
X148300000Y-66100000D03*
X149500000Y-66100000D03*
X157250000Y-63000000D03*
X151100000Y-59300000D03*
X160700000Y-57500000D03*
X162300000Y-64100000D03*
X166900000Y-66300000D03*
X164900000Y-67100000D03*
X162900000Y-67900000D03*
X161700000Y-67900000D03*
X164100000Y-61700000D03*
X159750000Y-57500000D03*
X163100000Y-59900000D03*
X163100000Y-60900000D03*
X163100000Y-62100000D03*
X161500000Y-64900000D03*
X153700000Y-57500000D03*
X152700000Y-57700000D03*
X166700000Y-60300000D03*
X161500000Y-58300000D03*
X151100000Y-60500000D03*
X151100000Y-61700000D03*
X151900000Y-63700000D03*
X152900000Y-64500000D03*
X157250000Y-64000000D03*
D15*
X158750000Y-69750000D03*
X158750000Y-68250000D03*
X157250000Y-68250000D03*
X155750000Y-68250000D03*
X158750000Y-66750000D03*
X157250000Y-66750000D03*
X155750000Y-66750000D03*
X155750000Y-69750000D03*
X157250000Y-69750000D03*
D11*
X117000000Y-51500000D03*
D12*
X117000000Y-54040000D03*
D11*
X124500000Y-85000000D03*
D12*
X127040000Y-85000000D03*
X129580000Y-85000000D03*
X132120000Y-85000000D03*
X134660000Y-85000000D03*
X137200000Y-85000000D03*
D11*
X141500000Y-85000000D03*
D12*
X144040000Y-85000000D03*
X146580000Y-85000000D03*
D16*
X167280000Y-67880000D03*
X167280000Y-59120000D03*
D17*
X118500000Y-83500000D03*
D18*
X120900000Y-83500000D03*
X120197056Y-85197056D03*
X118500000Y-85900000D03*
X116802944Y-85197056D03*
X116100000Y-83500000D03*
X116802944Y-81802944D03*
X118500000Y-81100000D03*
X120197056Y-81802944D03*
D17*
X118500000Y-43500000D03*
D18*
X120900000Y-43500000D03*
X120197056Y-45197056D03*
X118500000Y-45900000D03*
X116802944Y-45197056D03*
X116100000Y-43500000D03*
X116802944Y-41802944D03*
X118500000Y-41100000D03*
X120197056Y-41802944D03*
D17*
X168500000Y-43500000D03*
D18*
X170900000Y-43500000D03*
X170197056Y-45197056D03*
X168500000Y-45900000D03*
X166802944Y-45197056D03*
X166100000Y-43500000D03*
X166802944Y-41802944D03*
X168500000Y-41100000D03*
X170197056Y-41802944D03*
D17*
X168500000Y-83500000D03*
D18*
X170900000Y-83500000D03*
X170197056Y-85197056D03*
X168500000Y-85900000D03*
X166802944Y-85197056D03*
X166100000Y-83500000D03*
X166802944Y-81802944D03*
X168500000Y-81100000D03*
X170197056Y-81802944D03*
D13*
X135300000Y-69650000D03*
X129500000Y-72700000D03*
X127700000Y-67500000D03*
X133200000Y-65400000D03*
X134800000Y-65500000D03*
X135200000Y-67700000D03*
X135700000Y-71000000D03*
X131300000Y-61500000D03*
X130300000Y-61500000D03*
X133000000Y-61500000D03*
X138200000Y-66400000D03*
X146000000Y-47500000D03*
X141000000Y-63600000D03*
X135900000Y-61800000D03*
X134500000Y-61700000D03*
X126700000Y-63900000D03*
X126200000Y-73500000D03*
X137300000Y-71900000D03*
X116250000Y-49000000D03*
X171500000Y-54750000D03*
X129000000Y-47000000D03*
X148000000Y-48750000D03*
X144750000Y-45500000D03*
X146250000Y-40500000D03*
X163000000Y-45250000D03*
X131250000Y-58000000D03*
X129500000Y-58000000D03*
X136000000Y-66000000D03*
X165300000Y-74900000D03*
X169300000Y-74900000D03*
X162700000Y-81100000D03*
X160300000Y-83100000D03*
X142100000Y-58300000D03*
X148300000Y-52700000D03*
X139700000Y-50500000D03*
X141900000Y-50900000D03*
X171500000Y-52100000D03*
X134900000Y-76500000D03*
X131475000Y-62525000D03*
X127100000Y-75500000D03*
X121300000Y-78500000D03*
X133100000Y-46700000D03*
X133100000Y-39500000D03*
X150100000Y-65300000D03*
X152700000Y-74700000D03*
X157300000Y-74700000D03*
X159700000Y-74700000D03*
X158500000Y-71700000D03*
X143300000Y-70900000D03*
X149000000Y-68500000D03*
X157250000Y-62250000D03*
X155750000Y-57750000D03*
X157250000Y-57250000D03*
X158750000Y-57750000D03*
X158750000Y-61750000D03*
X155750000Y-61750000D03*
X153750000Y-68500000D03*
X153750000Y-70250000D03*
X154000000Y-71500000D03*
X159500000Y-71750000D03*
X160750000Y-67250000D03*
X157250000Y-64750000D03*
X159500000Y-64750000D03*
X160500000Y-65000000D03*
X154000000Y-65000000D03*
X148100000Y-76900000D03*
X122250000Y-64750000D03*
X126600000Y-81000000D03*
X154000000Y-72250000D03*
X157300000Y-83100000D03*
X146100000Y-56300000D03*
X123100000Y-46100000D03*
X127100000Y-77500000D03*
X132900000Y-79500000D03*
X132900000Y-57900000D03*
X143900000Y-76900000D03*
X147700000Y-73500000D03*
X148500000Y-56300000D03*
X143100000Y-43500000D03*
X133900000Y-42700000D03*
X133900000Y-43300000D03*
X157100000Y-42100000D03*
X167300000Y-74900000D03*
X131900000Y-65300000D03*
X129800000Y-74400000D03*
X132900000Y-73000000D03*
X131500000Y-44750000D03*
X123200000Y-44800000D03*
X133000000Y-73750000D03*
X130750000Y-42250000D03*
X127000000Y-76500000D03*
X131400000Y-64900000D03*
X134200000Y-60400000D03*
X141500000Y-72750000D03*
X146250000Y-65000000D03*
X166400000Y-51800000D03*
X135000000Y-75800000D03*
X137000000Y-77000000D03*
X166600000Y-54800000D03*
X137200000Y-80000000D03*
X124600000Y-79200000D03*
X134800000Y-80800000D03*
X127800000Y-80800000D03*
X135600000Y-77000000D03*
X131000000Y-74800000D03*
X129000000Y-61750000D03*
X129000000Y-65000000D03*
X129500000Y-64500000D03*
X129500000Y-62500000D03*
X124000000Y-76800000D03*
X158750000Y-78000000D03*
X154250000Y-79250000D03*
X157250000Y-79500000D03*
X134400000Y-74400000D03*
X151900000Y-74300000D03*
X136700000Y-55300000D03*
X135400000Y-70400000D03*
X128000000Y-57200000D03*
X126800000Y-69400000D03*
X134300000Y-52100000D03*
X127600000Y-69500000D03*
X124250000Y-78500000D03*
X160250000Y-78500000D03*
X164250000Y-77500000D03*
X138250000Y-77500000D03*
X130900000Y-64500000D03*
X143000000Y-77000000D03*
D19*
G36*
X154991063Y-38836769D02*
X154837309Y-38990255D01*
X154753995Y-39190897D01*
X154753805Y-39408149D01*
X154836769Y-39608937D01*
X154990255Y-39762691D01*
X155190897Y-39846005D01*
X155408149Y-39846195D01*
X155608937Y-39763231D01*
X155700024Y-39672303D01*
X155790255Y-39762691D01*
X155990897Y-39846005D01*
X156208149Y-39846195D01*
X156408937Y-39763231D01*
X156500024Y-39672303D01*
X156590255Y-39762691D01*
X156790897Y-39846005D01*
X157008149Y-39846195D01*
X157208937Y-39763231D01*
X157362691Y-39609745D01*
X157446005Y-39409103D01*
X157446195Y-39191851D01*
X157363231Y-38991063D01*
X157209745Y-38837309D01*
X157192625Y-38830200D01*
X168467479Y-38830200D01*
X170284580Y-39191643D01*
X171797474Y-40202528D01*
X172808357Y-41715422D01*
X173169800Y-43532521D01*
X173169800Y-83467479D01*
X172808357Y-85284578D01*
X171797474Y-86797472D01*
X170284580Y-87808357D01*
X168467479Y-88169800D01*
X118532521Y-88169800D01*
X116715422Y-87808357D01*
X115202528Y-86797474D01*
X114191643Y-85284580D01*
X113975232Y-84196604D01*
X114981891Y-84196604D01*
X115516270Y-85489901D01*
X116504895Y-86480253D01*
X117797256Y-87016888D01*
X119196604Y-87018109D01*
X120489901Y-86483730D01*
X121480253Y-85495105D01*
X121626511Y-85142875D01*
X123332500Y-85142875D01*
X123332500Y-85913155D01*
X123380837Y-86029850D01*
X123470151Y-86119164D01*
X123586846Y-86167500D01*
X124357125Y-86167500D01*
X124436500Y-86088125D01*
X124436500Y-85063500D01*
X124563500Y-85063500D01*
X124563500Y-86088125D01*
X124642875Y-86167500D01*
X125413154Y-86167500D01*
X125529849Y-86119164D01*
X125619163Y-86029850D01*
X125667500Y-85913155D01*
X125667500Y-85142875D01*
X125588125Y-85063500D01*
X124563500Y-85063500D01*
X124436500Y-85063500D01*
X123411875Y-85063500D01*
X123332500Y-85142875D01*
X121626511Y-85142875D01*
X121695335Y-84977127D01*
X125872500Y-84977127D01*
X125872500Y-85022873D01*
X125961371Y-85469656D01*
X126214453Y-85848420D01*
X126593217Y-86101502D01*
X127040000Y-86190373D01*
X127486783Y-86101502D01*
X127865547Y-85848420D01*
X128118629Y-85469656D01*
X128207500Y-85022873D01*
X128207500Y-84977127D01*
X128412500Y-84977127D01*
X128412500Y-85022873D01*
X128501371Y-85469656D01*
X128754453Y-85848420D01*
X129133217Y-86101502D01*
X129580000Y-86190373D01*
X130026783Y-86101502D01*
X130405547Y-85848420D01*
X130658629Y-85469656D01*
X130747500Y-85022873D01*
X130747500Y-84977127D01*
X130952500Y-84977127D01*
X130952500Y-85022873D01*
X131041371Y-85469656D01*
X131294453Y-85848420D01*
X131673217Y-86101502D01*
X132120000Y-86190373D01*
X132566783Y-86101502D01*
X132945547Y-85848420D01*
X133198629Y-85469656D01*
X133287500Y-85022873D01*
X133287500Y-84977127D01*
X133492500Y-84977127D01*
X133492500Y-85022873D01*
X133581371Y-85469656D01*
X133834453Y-85848420D01*
X134213217Y-86101502D01*
X134660000Y-86190373D01*
X135106783Y-86101502D01*
X135485547Y-85848420D01*
X135738629Y-85469656D01*
X135827500Y-85022873D01*
X135827500Y-84977127D01*
X136032500Y-84977127D01*
X136032500Y-85022873D01*
X136121371Y-85469656D01*
X136374453Y-85848420D01*
X136753217Y-86101502D01*
X137200000Y-86190373D01*
X137646783Y-86101502D01*
X138025547Y-85848420D01*
X138278629Y-85469656D01*
X138343630Y-85142875D01*
X140332500Y-85142875D01*
X140332500Y-85913155D01*
X140380837Y-86029850D01*
X140470151Y-86119164D01*
X140586846Y-86167500D01*
X141357125Y-86167500D01*
X141436500Y-86088125D01*
X141436500Y-85063500D01*
X141563500Y-85063500D01*
X141563500Y-86088125D01*
X141642875Y-86167500D01*
X142413154Y-86167500D01*
X142529849Y-86119164D01*
X142619163Y-86029850D01*
X142667500Y-85913155D01*
X142667500Y-85142875D01*
X142588125Y-85063500D01*
X141563500Y-85063500D01*
X141436500Y-85063500D01*
X140411875Y-85063500D01*
X140332500Y-85142875D01*
X138343630Y-85142875D01*
X138367500Y-85022873D01*
X138367500Y-84977127D01*
X142872500Y-84977127D01*
X142872500Y-85022873D01*
X142961371Y-85469656D01*
X143214453Y-85848420D01*
X143593217Y-86101502D01*
X144040000Y-86190373D01*
X144486783Y-86101502D01*
X144865547Y-85848420D01*
X145118629Y-85469656D01*
X145207500Y-85022873D01*
X145207500Y-84977127D01*
X145412500Y-84977127D01*
X145412500Y-85022873D01*
X145501371Y-85469656D01*
X145754453Y-85848420D01*
X146133217Y-86101502D01*
X146580000Y-86190373D01*
X147026783Y-86101502D01*
X147405547Y-85848420D01*
X147658629Y-85469656D01*
X147747500Y-85022873D01*
X147747500Y-84977127D01*
X147658629Y-84530344D01*
X147435632Y-84196604D01*
X164981891Y-84196604D01*
X165516270Y-85489901D01*
X166504895Y-86480253D01*
X167797256Y-87016888D01*
X169196604Y-87018109D01*
X170489901Y-86483730D01*
X171480253Y-85495105D01*
X172016888Y-84202744D01*
X172018109Y-82803396D01*
X171483730Y-81510099D01*
X170495105Y-80519747D01*
X169202744Y-79983112D01*
X167803396Y-79981891D01*
X166510099Y-80516270D01*
X165519747Y-81504895D01*
X164983112Y-82797256D01*
X164981891Y-84196604D01*
X147435632Y-84196604D01*
X147405547Y-84151580D01*
X147026783Y-83898498D01*
X146580000Y-83809627D01*
X146133217Y-83898498D01*
X145754453Y-84151580D01*
X145501371Y-84530344D01*
X145412500Y-84977127D01*
X145207500Y-84977127D01*
X145118629Y-84530344D01*
X144865547Y-84151580D01*
X144486783Y-83898498D01*
X144040000Y-83809627D01*
X143593217Y-83898498D01*
X143214453Y-84151580D01*
X142961371Y-84530344D01*
X142872500Y-84977127D01*
X138367500Y-84977127D01*
X138278629Y-84530344D01*
X138025547Y-84151580D01*
X137928665Y-84086845D01*
X140332500Y-84086845D01*
X140332500Y-84857125D01*
X140411875Y-84936500D01*
X141436500Y-84936500D01*
X141436500Y-83911875D01*
X141563500Y-83911875D01*
X141563500Y-84936500D01*
X142588125Y-84936500D01*
X142667500Y-84857125D01*
X142667500Y-84086845D01*
X142619163Y-83970150D01*
X142529849Y-83880836D01*
X142413154Y-83832500D01*
X141642875Y-83832500D01*
X141563500Y-83911875D01*
X141436500Y-83911875D01*
X141357125Y-83832500D01*
X140586846Y-83832500D01*
X140470151Y-83880836D01*
X140380837Y-83970150D01*
X140332500Y-84086845D01*
X137928665Y-84086845D01*
X137646783Y-83898498D01*
X137200000Y-83809627D01*
X136753217Y-83898498D01*
X136374453Y-84151580D01*
X136121371Y-84530344D01*
X136032500Y-84977127D01*
X135827500Y-84977127D01*
X135738629Y-84530344D01*
X135485547Y-84151580D01*
X135106783Y-83898498D01*
X134660000Y-83809627D01*
X134213217Y-83898498D01*
X133834453Y-84151580D01*
X133581371Y-84530344D01*
X133492500Y-84977127D01*
X133287500Y-84977127D01*
X133198629Y-84530344D01*
X132945547Y-84151580D01*
X132566783Y-83898498D01*
X132120000Y-83809627D01*
X131673217Y-83898498D01*
X131294453Y-84151580D01*
X131041371Y-84530344D01*
X130952500Y-84977127D01*
X130747500Y-84977127D01*
X130658629Y-84530344D01*
X130405547Y-84151580D01*
X130026783Y-83898498D01*
X129580000Y-83809627D01*
X129133217Y-83898498D01*
X128754453Y-84151580D01*
X128501371Y-84530344D01*
X128412500Y-84977127D01*
X128207500Y-84977127D01*
X128118629Y-84530344D01*
X127865547Y-84151580D01*
X127486783Y-83898498D01*
X127040000Y-83809627D01*
X126593217Y-83898498D01*
X126214453Y-84151580D01*
X125961371Y-84530344D01*
X125872500Y-84977127D01*
X121695335Y-84977127D01*
X122016888Y-84202744D01*
X122016989Y-84086845D01*
X123332500Y-84086845D01*
X123332500Y-84857125D01*
X123411875Y-84936500D01*
X124436500Y-84936500D01*
X124436500Y-83911875D01*
X124563500Y-83911875D01*
X124563500Y-84936500D01*
X125588125Y-84936500D01*
X125667500Y-84857125D01*
X125667500Y-84086845D01*
X125619163Y-83970150D01*
X125529849Y-83880836D01*
X125413154Y-83832500D01*
X124642875Y-83832500D01*
X124563500Y-83911875D01*
X124436500Y-83911875D01*
X124357125Y-83832500D01*
X123586846Y-83832500D01*
X123470151Y-83880836D01*
X123380837Y-83970150D01*
X123332500Y-84086845D01*
X122016989Y-84086845D01*
X122017755Y-83208149D01*
X156753805Y-83208149D01*
X156836769Y-83408937D01*
X156990255Y-83562691D01*
X157190897Y-83646005D01*
X157408149Y-83646195D01*
X157608937Y-83563231D01*
X157762691Y-83409745D01*
X157846005Y-83209103D01*
X157846195Y-82991851D01*
X157763231Y-82791063D01*
X157609745Y-82637309D01*
X157409103Y-82553995D01*
X157191851Y-82553805D01*
X156991063Y-82636769D01*
X156837309Y-82790255D01*
X156753995Y-82990897D01*
X156753805Y-83208149D01*
X122017755Y-83208149D01*
X122018109Y-82803396D01*
X121483730Y-81510099D01*
X121082481Y-81108149D01*
X126053805Y-81108149D01*
X126136769Y-81308937D01*
X126290255Y-81462691D01*
X126490897Y-81546005D01*
X126708149Y-81546195D01*
X126908937Y-81463231D01*
X127062691Y-81309745D01*
X127146005Y-81109103D01*
X127146180Y-80908149D01*
X127253805Y-80908149D01*
X127336769Y-81108937D01*
X127490255Y-81262691D01*
X127690897Y-81346005D01*
X127908149Y-81346195D01*
X128108937Y-81263231D01*
X128262691Y-81109745D01*
X128346005Y-80909103D01*
X128346005Y-80908149D01*
X134253805Y-80908149D01*
X134336769Y-81108937D01*
X134490255Y-81262691D01*
X134690897Y-81346005D01*
X134908149Y-81346195D01*
X135108937Y-81263231D01*
X135262691Y-81109745D01*
X135346005Y-80909103D01*
X135346195Y-80691851D01*
X135263231Y-80491063D01*
X135109745Y-80337309D01*
X134909103Y-80253995D01*
X134691851Y-80253805D01*
X134491063Y-80336769D01*
X134337309Y-80490255D01*
X134253995Y-80690897D01*
X134253805Y-80908149D01*
X128346005Y-80908149D01*
X128346195Y-80691851D01*
X128263231Y-80491063D01*
X128109745Y-80337309D01*
X127909103Y-80253995D01*
X127691851Y-80253805D01*
X127491063Y-80336769D01*
X127337309Y-80490255D01*
X127253995Y-80690897D01*
X127253805Y-80908149D01*
X127146180Y-80908149D01*
X127146195Y-80891851D01*
X127063231Y-80691063D01*
X126909745Y-80537309D01*
X126709103Y-80453995D01*
X126491851Y-80453805D01*
X126291063Y-80536769D01*
X126137309Y-80690255D01*
X126053995Y-80890897D01*
X126053805Y-81108149D01*
X121082481Y-81108149D01*
X120495105Y-80519747D01*
X119503867Y-80108149D01*
X136653805Y-80108149D01*
X136736769Y-80308937D01*
X136890255Y-80462691D01*
X137090897Y-80546005D01*
X137308149Y-80546195D01*
X137508937Y-80463231D01*
X137662691Y-80309745D01*
X137746005Y-80109103D01*
X137746195Y-79891851D01*
X137663231Y-79691063D01*
X137509745Y-79537309D01*
X137309103Y-79453995D01*
X137091851Y-79453805D01*
X136891063Y-79536769D01*
X136737309Y-79690255D01*
X136653995Y-79890897D01*
X136653805Y-80108149D01*
X119503867Y-80108149D01*
X119202744Y-79983112D01*
X117803396Y-79981891D01*
X116510099Y-80516270D01*
X115519747Y-81504895D01*
X114983112Y-82797256D01*
X114981891Y-84196604D01*
X113975232Y-84196604D01*
X113830200Y-83467479D01*
X113830200Y-78608149D01*
X123703805Y-78608149D01*
X123786769Y-78808937D01*
X123940255Y-78962691D01*
X124082675Y-79021829D01*
X124053995Y-79090897D01*
X124053805Y-79308149D01*
X124136769Y-79508937D01*
X124290255Y-79662691D01*
X124490897Y-79746005D01*
X124708149Y-79746195D01*
X124908937Y-79663231D01*
X124964115Y-79608149D01*
X132353805Y-79608149D01*
X132436769Y-79808937D01*
X132590255Y-79962691D01*
X132790897Y-80046005D01*
X133008149Y-80046195D01*
X133208937Y-79963231D01*
X133362691Y-79809745D01*
X133446005Y-79609103D01*
X133446195Y-79391851D01*
X133432270Y-79358149D01*
X153703805Y-79358149D01*
X153786769Y-79558937D01*
X153940255Y-79712691D01*
X154140897Y-79796005D01*
X154358149Y-79796195D01*
X154558937Y-79713231D01*
X154664202Y-79608149D01*
X156703805Y-79608149D01*
X156786769Y-79808937D01*
X156940255Y-79962691D01*
X157140897Y-80046005D01*
X157358149Y-80046195D01*
X157558937Y-79963231D01*
X157712691Y-79809745D01*
X157796005Y-79609103D01*
X157796195Y-79391851D01*
X157713231Y-79191063D01*
X157559745Y-79037309D01*
X157359103Y-78953995D01*
X157141851Y-78953805D01*
X156941063Y-79036769D01*
X156787309Y-79190255D01*
X156703995Y-79390897D01*
X156703805Y-79608149D01*
X154664202Y-79608149D01*
X154712691Y-79559745D01*
X154796005Y-79359103D01*
X154796195Y-79141851D01*
X154713231Y-78941063D01*
X154559745Y-78787309D01*
X154359103Y-78703995D01*
X154141851Y-78703805D01*
X153941063Y-78786769D01*
X153787309Y-78940255D01*
X153703995Y-79140897D01*
X153703805Y-79358149D01*
X133432270Y-79358149D01*
X133363231Y-79191063D01*
X133209745Y-79037309D01*
X133009103Y-78953995D01*
X132791851Y-78953805D01*
X132591063Y-79036769D01*
X132437309Y-79190255D01*
X132353995Y-79390897D01*
X132353805Y-79608149D01*
X124964115Y-79608149D01*
X125062691Y-79509745D01*
X125146005Y-79309103D01*
X125146195Y-79091851D01*
X125063231Y-78891063D01*
X124909745Y-78737309D01*
X124767325Y-78678171D01*
X124796005Y-78609103D01*
X124796005Y-78608149D01*
X159703805Y-78608149D01*
X159786769Y-78808937D01*
X159940255Y-78962691D01*
X160140897Y-79046005D01*
X160358149Y-79046195D01*
X160558937Y-78963231D01*
X160712691Y-78809745D01*
X160796005Y-78609103D01*
X160796195Y-78391851D01*
X160713231Y-78191063D01*
X160559745Y-78037309D01*
X160359103Y-77953995D01*
X160141851Y-77953805D01*
X159941063Y-78036769D01*
X159787309Y-78190255D01*
X159703995Y-78390897D01*
X159703805Y-78608149D01*
X124796005Y-78608149D01*
X124796195Y-78391851D01*
X124713231Y-78191063D01*
X124630462Y-78108149D01*
X158203805Y-78108149D01*
X158286769Y-78308937D01*
X158440255Y-78462691D01*
X158640897Y-78546005D01*
X158858149Y-78546195D01*
X159058937Y-78463231D01*
X159212691Y-78309745D01*
X159296005Y-78109103D01*
X159296195Y-77891851D01*
X159213231Y-77691063D01*
X159130462Y-77608149D01*
X163703805Y-77608149D01*
X163786769Y-77808937D01*
X163940255Y-77962691D01*
X164140897Y-78046005D01*
X164358149Y-78046195D01*
X164558937Y-77963231D01*
X164712691Y-77809745D01*
X164796005Y-77609103D01*
X164796195Y-77391851D01*
X164713231Y-77191063D01*
X164559745Y-77037309D01*
X164359103Y-76953995D01*
X164141851Y-76953805D01*
X163941063Y-77036769D01*
X163787309Y-77190255D01*
X163703995Y-77390897D01*
X163703805Y-77608149D01*
X159130462Y-77608149D01*
X159059745Y-77537309D01*
X158859103Y-77453995D01*
X158641851Y-77453805D01*
X158441063Y-77536769D01*
X158287309Y-77690255D01*
X158203995Y-77890897D01*
X158203805Y-78108149D01*
X124630462Y-78108149D01*
X124559745Y-78037309D01*
X124359103Y-77953995D01*
X124141851Y-77953805D01*
X123941063Y-78036769D01*
X123787309Y-78190255D01*
X123703995Y-78390897D01*
X123703805Y-78608149D01*
X113830200Y-78608149D01*
X113830200Y-76908149D01*
X123453805Y-76908149D01*
X123536769Y-77108937D01*
X123690255Y-77262691D01*
X123890897Y-77346005D01*
X124108149Y-77346195D01*
X124308937Y-77263231D01*
X124462691Y-77109745D01*
X124546005Y-76909103D01*
X124546195Y-76691851D01*
X124511611Y-76608149D01*
X126453805Y-76608149D01*
X126536769Y-76808937D01*
X126690255Y-76962691D01*
X126829954Y-77020699D01*
X126791063Y-77036769D01*
X126637309Y-77190255D01*
X126553995Y-77390897D01*
X126553805Y-77608149D01*
X126636769Y-77808937D01*
X126790255Y-77962691D01*
X126990897Y-78046005D01*
X127208149Y-78046195D01*
X127408937Y-77963231D01*
X127562691Y-77809745D01*
X127646005Y-77609103D01*
X127646005Y-77608149D01*
X137703805Y-77608149D01*
X137786769Y-77808937D01*
X137940255Y-77962691D01*
X138140897Y-78046005D01*
X138358149Y-78046195D01*
X138558937Y-77963231D01*
X138712691Y-77809745D01*
X138796005Y-77609103D01*
X138796195Y-77391851D01*
X138713231Y-77191063D01*
X138630462Y-77108149D01*
X142453805Y-77108149D01*
X142536769Y-77308937D01*
X142690255Y-77462691D01*
X142890897Y-77546005D01*
X143108149Y-77546195D01*
X143308937Y-77463231D01*
X143462691Y-77309745D01*
X143484638Y-77256890D01*
X143590255Y-77362691D01*
X143790897Y-77446005D01*
X144008149Y-77446195D01*
X144208937Y-77363231D01*
X144362691Y-77209745D01*
X144446005Y-77009103D01*
X144446195Y-76791851D01*
X144363231Y-76591063D01*
X144209745Y-76437309D01*
X144009103Y-76353995D01*
X143791851Y-76353805D01*
X143591063Y-76436769D01*
X143437309Y-76590255D01*
X143415362Y-76643110D01*
X143309745Y-76537309D01*
X143109103Y-76453995D01*
X142891851Y-76453805D01*
X142691063Y-76536769D01*
X142537309Y-76690255D01*
X142453995Y-76890897D01*
X142453805Y-77108149D01*
X138630462Y-77108149D01*
X138559745Y-77037309D01*
X138359103Y-76953995D01*
X138141851Y-76953805D01*
X137941063Y-77036769D01*
X137787309Y-77190255D01*
X137703995Y-77390897D01*
X137703805Y-77608149D01*
X127646005Y-77608149D01*
X127646195Y-77391851D01*
X127563231Y-77191063D01*
X127480462Y-77108149D01*
X135053805Y-77108149D01*
X135136769Y-77308937D01*
X135290255Y-77462691D01*
X135490897Y-77546005D01*
X135708149Y-77546195D01*
X135908937Y-77463231D01*
X136062691Y-77309745D01*
X136146005Y-77109103D01*
X136146005Y-77108149D01*
X136453805Y-77108149D01*
X136536769Y-77308937D01*
X136690255Y-77462691D01*
X136890897Y-77546005D01*
X137108149Y-77546195D01*
X137308937Y-77463231D01*
X137462691Y-77309745D01*
X137546005Y-77109103D01*
X137546195Y-76891851D01*
X137463231Y-76691063D01*
X137309745Y-76537309D01*
X137109103Y-76453995D01*
X136891851Y-76453805D01*
X136691063Y-76536769D01*
X136537309Y-76690255D01*
X136453995Y-76890897D01*
X136453805Y-77108149D01*
X136146005Y-77108149D01*
X136146195Y-76891851D01*
X136063231Y-76691063D01*
X135909745Y-76537309D01*
X135709103Y-76453995D01*
X135491851Y-76453805D01*
X135291063Y-76536769D01*
X135137309Y-76690255D01*
X135053995Y-76890897D01*
X135053805Y-77108149D01*
X127480462Y-77108149D01*
X127409745Y-77037309D01*
X127270046Y-76979301D01*
X127308937Y-76963231D01*
X127462691Y-76809745D01*
X127546005Y-76609103D01*
X127546195Y-76391851D01*
X127463231Y-76191063D01*
X127309745Y-76037309D01*
X127109103Y-75953995D01*
X126891851Y-75953805D01*
X126691063Y-76036769D01*
X126537309Y-76190255D01*
X126453995Y-76390897D01*
X126453805Y-76608149D01*
X124511611Y-76608149D01*
X124463231Y-76491063D01*
X124309745Y-76337309D01*
X124109103Y-76253995D01*
X123891851Y-76253805D01*
X123691063Y-76336769D01*
X123537309Y-76490255D01*
X123453995Y-76690897D01*
X123453805Y-76908149D01*
X113830200Y-76908149D01*
X113830200Y-75908149D01*
X134453805Y-75908149D01*
X134536769Y-76108937D01*
X134690255Y-76262691D01*
X134890897Y-76346005D01*
X135108149Y-76346195D01*
X135308937Y-76263231D01*
X135462691Y-76109745D01*
X135546005Y-75909103D01*
X135546195Y-75691851D01*
X135463231Y-75491063D01*
X135309745Y-75337309D01*
X135109103Y-75253995D01*
X134891851Y-75253805D01*
X134691063Y-75336769D01*
X134537309Y-75490255D01*
X134453995Y-75690897D01*
X134453805Y-75908149D01*
X113830200Y-75908149D01*
X113830200Y-74508149D01*
X129253805Y-74508149D01*
X129336769Y-74708937D01*
X129490255Y-74862691D01*
X129690897Y-74946005D01*
X129908149Y-74946195D01*
X130000227Y-74908149D01*
X130453805Y-74908149D01*
X130536769Y-75108937D01*
X130690255Y-75262691D01*
X130890897Y-75346005D01*
X131108149Y-75346195D01*
X131308937Y-75263231D01*
X131462691Y-75109745D01*
X131504877Y-75008149D01*
X166753805Y-75008149D01*
X166836769Y-75208937D01*
X166990255Y-75362691D01*
X167190897Y-75446005D01*
X167408149Y-75446195D01*
X167608937Y-75363231D01*
X167762691Y-75209745D01*
X167846005Y-75009103D01*
X167846195Y-74791851D01*
X167763231Y-74591063D01*
X167609745Y-74437309D01*
X167409103Y-74353995D01*
X167191851Y-74353805D01*
X166991063Y-74436769D01*
X166837309Y-74590255D01*
X166753995Y-74790897D01*
X166753805Y-75008149D01*
X131504877Y-75008149D01*
X131546005Y-74909103D01*
X131546195Y-74691851D01*
X131470291Y-74508149D01*
X133853805Y-74508149D01*
X133936769Y-74708937D01*
X134090255Y-74862691D01*
X134290897Y-74946005D01*
X134508149Y-74946195D01*
X134708937Y-74863231D01*
X134862691Y-74709745D01*
X134946005Y-74509103D01*
X134946093Y-74408149D01*
X151353805Y-74408149D01*
X151436769Y-74608937D01*
X151590255Y-74762691D01*
X151790897Y-74846005D01*
X152008149Y-74846195D01*
X152208937Y-74763231D01*
X152362691Y-74609745D01*
X152446005Y-74409103D01*
X152446195Y-74191851D01*
X152363231Y-73991063D01*
X152209745Y-73837309D01*
X152009103Y-73753995D01*
X151791851Y-73753805D01*
X151591063Y-73836769D01*
X151437309Y-73990255D01*
X151353995Y-74190897D01*
X151353805Y-74408149D01*
X134946093Y-74408149D01*
X134946195Y-74291851D01*
X134863231Y-74091063D01*
X134709745Y-73937309D01*
X134509103Y-73853995D01*
X134291851Y-73853805D01*
X134091063Y-73936769D01*
X133937309Y-74090255D01*
X133853995Y-74290897D01*
X133853805Y-74508149D01*
X131470291Y-74508149D01*
X131463231Y-74491063D01*
X131309745Y-74337309D01*
X131109103Y-74253995D01*
X130891851Y-74253805D01*
X130691063Y-74336769D01*
X130537309Y-74490255D01*
X130453995Y-74690897D01*
X130453805Y-74908149D01*
X130000227Y-74908149D01*
X130108937Y-74863231D01*
X130262691Y-74709745D01*
X130346005Y-74509103D01*
X130346195Y-74291851D01*
X130263231Y-74091063D01*
X130109745Y-73937309D01*
X129909103Y-73853995D01*
X129691851Y-73853805D01*
X129491063Y-73936769D01*
X129337309Y-74090255D01*
X129253995Y-74290897D01*
X129253805Y-74508149D01*
X113830200Y-74508149D01*
X113830200Y-73200000D01*
X115809627Y-73200000D01*
X115898498Y-73646783D01*
X116151580Y-74025547D01*
X116530344Y-74278629D01*
X116977127Y-74367500D01*
X117022873Y-74367500D01*
X117469656Y-74278629D01*
X117848420Y-74025547D01*
X118101502Y-73646783D01*
X118190373Y-73200000D01*
X118112429Y-72808149D01*
X128953805Y-72808149D01*
X129036769Y-73008937D01*
X129190255Y-73162691D01*
X129390897Y-73246005D01*
X129608149Y-73246195D01*
X129808937Y-73163231D01*
X129864115Y-73108149D01*
X132353805Y-73108149D01*
X132436769Y-73308937D01*
X132552610Y-73424980D01*
X132537309Y-73440255D01*
X132453995Y-73640897D01*
X132453805Y-73858149D01*
X132536769Y-74058937D01*
X132690255Y-74212691D01*
X132890897Y-74296005D01*
X133108149Y-74296195D01*
X133308937Y-74213231D01*
X133462691Y-74059745D01*
X133546005Y-73859103D01*
X133546195Y-73641851D01*
X133532270Y-73608149D01*
X147153805Y-73608149D01*
X147236769Y-73808937D01*
X147390255Y-73962691D01*
X147590897Y-74046005D01*
X147808149Y-74046195D01*
X148008937Y-73963231D01*
X148162691Y-73809745D01*
X148246005Y-73609103D01*
X148246195Y-73391851D01*
X148170291Y-73208149D01*
X154553805Y-73208149D01*
X154636769Y-73408937D01*
X154790255Y-73562691D01*
X154990897Y-73646005D01*
X155208149Y-73646195D01*
X155408937Y-73563231D01*
X155562691Y-73409745D01*
X155563353Y-73408149D01*
X159153805Y-73408149D01*
X159236769Y-73608937D01*
X159390255Y-73762691D01*
X159590897Y-73846005D01*
X159808149Y-73846195D01*
X160008937Y-73763231D01*
X160162691Y-73609745D01*
X160246005Y-73409103D01*
X160246195Y-73191851D01*
X160163231Y-72991063D01*
X160009745Y-72837309D01*
X159809103Y-72753995D01*
X159591851Y-72753805D01*
X159391063Y-72836769D01*
X159237309Y-72990255D01*
X159153995Y-73190897D01*
X159153805Y-73408149D01*
X155563353Y-73408149D01*
X155646005Y-73209103D01*
X155646195Y-72991851D01*
X155563231Y-72791063D01*
X155409745Y-72637309D01*
X155209103Y-72553995D01*
X154991851Y-72553805D01*
X154791063Y-72636769D01*
X154637309Y-72790255D01*
X154553995Y-72990897D01*
X154553805Y-73208149D01*
X148170291Y-73208149D01*
X148163231Y-73191063D01*
X148009745Y-73037309D01*
X147809103Y-72953995D01*
X147591851Y-72953805D01*
X147391063Y-73036769D01*
X147237309Y-73190255D01*
X147153995Y-73390897D01*
X147153805Y-73608149D01*
X133532270Y-73608149D01*
X133463231Y-73441063D01*
X133347390Y-73325020D01*
X133362691Y-73309745D01*
X133446005Y-73109103D01*
X133446195Y-72891851D01*
X133432270Y-72858149D01*
X140953805Y-72858149D01*
X141036769Y-73058937D01*
X141190255Y-73212691D01*
X141390897Y-73296005D01*
X141608149Y-73296195D01*
X141808937Y-73213231D01*
X141962691Y-73059745D01*
X142046005Y-72859103D01*
X142046195Y-72641851D01*
X141963231Y-72441063D01*
X141880462Y-72358149D01*
X153453805Y-72358149D01*
X153536769Y-72558937D01*
X153690255Y-72712691D01*
X153890897Y-72796005D01*
X154108149Y-72796195D01*
X154308937Y-72713231D01*
X154462691Y-72559745D01*
X154546005Y-72359103D01*
X154546137Y-72208149D01*
X155553805Y-72208149D01*
X155636769Y-72408937D01*
X155790255Y-72562691D01*
X155990897Y-72646005D01*
X156208149Y-72646195D01*
X156408937Y-72563231D01*
X156562691Y-72409745D01*
X156646005Y-72209103D01*
X156646005Y-72208149D01*
X157153805Y-72208149D01*
X157236769Y-72408937D01*
X157390255Y-72562691D01*
X157590897Y-72646005D01*
X157808149Y-72646195D01*
X158008937Y-72563231D01*
X158162691Y-72409745D01*
X158246005Y-72209103D01*
X158246195Y-71991851D01*
X158163231Y-71791063D01*
X158009745Y-71637309D01*
X157809103Y-71553995D01*
X157591851Y-71553805D01*
X157391063Y-71636769D01*
X157237309Y-71790255D01*
X157153995Y-71990897D01*
X157153805Y-72208149D01*
X156646005Y-72208149D01*
X156646195Y-71991851D01*
X156563231Y-71791063D01*
X156409745Y-71637309D01*
X156209103Y-71553995D01*
X155991851Y-71553805D01*
X155791063Y-71636769D01*
X155637309Y-71790255D01*
X155553995Y-71990897D01*
X155553805Y-72208149D01*
X154546137Y-72208149D01*
X154546195Y-72141851D01*
X154463231Y-71941063D01*
X154309745Y-71787309D01*
X154109103Y-71703995D01*
X153891851Y-71703805D01*
X153691063Y-71786769D01*
X153537309Y-71940255D01*
X153453995Y-72140897D01*
X153453805Y-72358149D01*
X141880462Y-72358149D01*
X141809745Y-72287309D01*
X141609103Y-72203995D01*
X141391851Y-72203805D01*
X141191063Y-72286769D01*
X141037309Y-72440255D01*
X140953995Y-72640897D01*
X140953805Y-72858149D01*
X133432270Y-72858149D01*
X133363231Y-72691063D01*
X133209745Y-72537309D01*
X133009103Y-72453995D01*
X132791851Y-72453805D01*
X132591063Y-72536769D01*
X132437309Y-72690255D01*
X132353995Y-72890897D01*
X132353805Y-73108149D01*
X129864115Y-73108149D01*
X129962691Y-73009745D01*
X130046005Y-72809103D01*
X130046195Y-72591851D01*
X129963231Y-72391063D01*
X129809745Y-72237309D01*
X129609103Y-72153995D01*
X129391851Y-72153805D01*
X129191063Y-72236769D01*
X129037309Y-72390255D01*
X128953995Y-72590897D01*
X128953805Y-72808149D01*
X118112429Y-72808149D01*
X118101502Y-72753217D01*
X117848420Y-72374453D01*
X117469656Y-72121371D01*
X117022873Y-72032500D01*
X116977127Y-72032500D01*
X116530344Y-72121371D01*
X116151580Y-72374453D01*
X115898498Y-72753217D01*
X115809627Y-73200000D01*
X113830200Y-73200000D01*
X113830200Y-70660000D01*
X115809627Y-70660000D01*
X115898498Y-71106783D01*
X116151580Y-71485547D01*
X116530344Y-71738629D01*
X116977127Y-71827500D01*
X117022873Y-71827500D01*
X117469656Y-71738629D01*
X117848420Y-71485547D01*
X118101502Y-71106783D01*
X118135701Y-70934852D01*
X129654951Y-70934852D01*
X129680300Y-71048061D01*
X129914370Y-71128687D01*
X130161476Y-71113600D01*
X130319700Y-71048061D01*
X130345049Y-70934852D01*
X131154951Y-70934852D01*
X131180300Y-71048061D01*
X131414370Y-71128687D01*
X131661476Y-71113600D01*
X131819700Y-71048061D01*
X131845049Y-70934852D01*
X132654951Y-70934852D01*
X132680300Y-71048061D01*
X132914370Y-71128687D01*
X133161476Y-71113600D01*
X133319700Y-71048061D01*
X133345049Y-70934852D01*
X133000000Y-70589803D01*
X132654951Y-70934852D01*
X131845049Y-70934852D01*
X131500000Y-70589803D01*
X131154951Y-70934852D01*
X130345049Y-70934852D01*
X130000000Y-70589803D01*
X129654951Y-70934852D01*
X118135701Y-70934852D01*
X118190373Y-70660000D01*
X118141514Y-70414370D01*
X129371313Y-70414370D01*
X129386400Y-70661476D01*
X129451939Y-70819700D01*
X129565148Y-70845049D01*
X129910197Y-70500000D01*
X130089803Y-70500000D01*
X130434852Y-70845049D01*
X130548061Y-70819700D01*
X130628687Y-70585630D01*
X130618231Y-70414370D01*
X130871313Y-70414370D01*
X130886400Y-70661476D01*
X130951939Y-70819700D01*
X131065148Y-70845049D01*
X131410197Y-70500000D01*
X131589803Y-70500000D01*
X131934852Y-70845049D01*
X132048061Y-70819700D01*
X132128687Y-70585630D01*
X132118231Y-70414370D01*
X132371313Y-70414370D01*
X132386400Y-70661476D01*
X132451939Y-70819700D01*
X132565148Y-70845049D01*
X132910197Y-70500000D01*
X133089803Y-70500000D01*
X133434852Y-70845049D01*
X133548061Y-70819700D01*
X133628687Y-70585630D01*
X133613600Y-70338524D01*
X133548061Y-70180300D01*
X133434852Y-70154951D01*
X133089803Y-70500000D01*
X132910197Y-70500000D01*
X132565148Y-70154951D01*
X132451939Y-70180300D01*
X132371313Y-70414370D01*
X132118231Y-70414370D01*
X132113600Y-70338524D01*
X132048061Y-70180300D01*
X131934852Y-70154951D01*
X131589803Y-70500000D01*
X131410197Y-70500000D01*
X131065148Y-70154951D01*
X130951939Y-70180300D01*
X130871313Y-70414370D01*
X130618231Y-70414370D01*
X130613600Y-70338524D01*
X130548061Y-70180300D01*
X130434852Y-70154951D01*
X130089803Y-70500000D01*
X129910197Y-70500000D01*
X129565148Y-70154951D01*
X129451939Y-70180300D01*
X129371313Y-70414370D01*
X118141514Y-70414370D01*
X118101502Y-70213217D01*
X118002566Y-70065148D01*
X129654951Y-70065148D01*
X130000000Y-70410197D01*
X130345049Y-70065148D01*
X131154951Y-70065148D01*
X131500000Y-70410197D01*
X131845049Y-70065148D01*
X132654951Y-70065148D01*
X133000000Y-70410197D01*
X133345049Y-70065148D01*
X133319700Y-69951939D01*
X133085630Y-69871313D01*
X132838524Y-69886400D01*
X132680300Y-69951939D01*
X132654951Y-70065148D01*
X131845049Y-70065148D01*
X131819700Y-69951939D01*
X131585630Y-69871313D01*
X131338524Y-69886400D01*
X131180300Y-69951939D01*
X131154951Y-70065148D01*
X130345049Y-70065148D01*
X130319700Y-69951939D01*
X130085630Y-69871313D01*
X129838524Y-69886400D01*
X129680300Y-69951939D01*
X129654951Y-70065148D01*
X118002566Y-70065148D01*
X117848420Y-69834453D01*
X117469656Y-69581371D01*
X117101546Y-69508149D01*
X126253805Y-69508149D01*
X126336769Y-69708937D01*
X126490255Y-69862691D01*
X126690897Y-69946005D01*
X126908149Y-69946195D01*
X127108937Y-69863231D01*
X127150024Y-69822215D01*
X127290255Y-69962691D01*
X127490897Y-70046005D01*
X127708149Y-70046195D01*
X127908937Y-69963231D01*
X128062691Y-69809745D01*
X128084115Y-69758149D01*
X134753805Y-69758149D01*
X134836769Y-69958937D01*
X134952610Y-70074980D01*
X134937309Y-70090255D01*
X134853995Y-70290897D01*
X134853805Y-70508149D01*
X134936769Y-70708937D01*
X135090255Y-70862691D01*
X135154611Y-70889414D01*
X135153995Y-70890897D01*
X135153805Y-71108149D01*
X135236769Y-71308937D01*
X135390255Y-71462691D01*
X135590897Y-71546005D01*
X135808149Y-71546195D01*
X136008937Y-71463231D01*
X136162691Y-71309745D01*
X136246005Y-71109103D01*
X136246195Y-70891851D01*
X136163231Y-70691063D01*
X136009745Y-70537309D01*
X135945389Y-70510586D01*
X135946005Y-70509103D01*
X135946195Y-70291851D01*
X135894365Y-70166412D01*
X155423390Y-70166412D01*
X155445603Y-70277000D01*
X155670448Y-70353373D01*
X155907403Y-70337887D01*
X156054397Y-70277000D01*
X156076610Y-70166412D01*
X156923390Y-70166412D01*
X156945603Y-70277000D01*
X157170448Y-70353373D01*
X157407403Y-70337887D01*
X157554397Y-70277000D01*
X157576610Y-70166412D01*
X158423390Y-70166412D01*
X158445603Y-70277000D01*
X158670448Y-70353373D01*
X158907403Y-70337887D01*
X159054397Y-70277000D01*
X159076610Y-70166412D01*
X158750000Y-69839803D01*
X158423390Y-70166412D01*
X157576610Y-70166412D01*
X157250000Y-69839803D01*
X156923390Y-70166412D01*
X156076610Y-70166412D01*
X155750000Y-69839803D01*
X155423390Y-70166412D01*
X135894365Y-70166412D01*
X135863231Y-70091063D01*
X135747390Y-69975020D01*
X135762691Y-69959745D01*
X135846005Y-69759103D01*
X135846082Y-69670448D01*
X155146627Y-69670448D01*
X155162113Y-69907403D01*
X155223000Y-70054397D01*
X155333588Y-70076610D01*
X155660197Y-69750000D01*
X155839803Y-69750000D01*
X156166412Y-70076610D01*
X156277000Y-70054397D01*
X156353373Y-69829552D01*
X156342975Y-69670448D01*
X156646627Y-69670448D01*
X156662113Y-69907403D01*
X156723000Y-70054397D01*
X156833588Y-70076610D01*
X157160197Y-69750000D01*
X157339803Y-69750000D01*
X157666412Y-70076610D01*
X157777000Y-70054397D01*
X157853373Y-69829552D01*
X157842975Y-69670448D01*
X158146627Y-69670448D01*
X158162113Y-69907403D01*
X158223000Y-70054397D01*
X158333588Y-70076610D01*
X158660197Y-69750000D01*
X158839803Y-69750000D01*
X159166412Y-70076610D01*
X159277000Y-70054397D01*
X159353373Y-69829552D01*
X159337887Y-69592597D01*
X159277000Y-69445603D01*
X159166412Y-69423390D01*
X158839803Y-69750000D01*
X158660197Y-69750000D01*
X158333588Y-69423390D01*
X158223000Y-69445603D01*
X158146627Y-69670448D01*
X157842975Y-69670448D01*
X157837887Y-69592597D01*
X157777000Y-69445603D01*
X157666412Y-69423390D01*
X157339803Y-69750000D01*
X157160197Y-69750000D01*
X156833588Y-69423390D01*
X156723000Y-69445603D01*
X156646627Y-69670448D01*
X156342975Y-69670448D01*
X156337887Y-69592597D01*
X156277000Y-69445603D01*
X156166412Y-69423390D01*
X155839803Y-69750000D01*
X155660197Y-69750000D01*
X155333588Y-69423390D01*
X155223000Y-69445603D01*
X155146627Y-69670448D01*
X135846082Y-69670448D01*
X135846195Y-69541851D01*
X135763231Y-69341063D01*
X135755770Y-69333588D01*
X155423390Y-69333588D01*
X155750000Y-69660197D01*
X156076610Y-69333588D01*
X156923390Y-69333588D01*
X157250000Y-69660197D01*
X157576610Y-69333588D01*
X158423390Y-69333588D01*
X158750000Y-69660197D01*
X159076610Y-69333588D01*
X159054397Y-69223000D01*
X158829552Y-69146627D01*
X158592597Y-69162113D01*
X158445603Y-69223000D01*
X158423390Y-69333588D01*
X157576610Y-69333588D01*
X157554397Y-69223000D01*
X157329552Y-69146627D01*
X157092597Y-69162113D01*
X156945603Y-69223000D01*
X156923390Y-69333588D01*
X156076610Y-69333588D01*
X156054397Y-69223000D01*
X155829552Y-69146627D01*
X155592597Y-69162113D01*
X155445603Y-69223000D01*
X155423390Y-69333588D01*
X135755770Y-69333588D01*
X135609745Y-69187309D01*
X135409103Y-69103995D01*
X135191851Y-69103805D01*
X134991063Y-69186769D01*
X134837309Y-69340255D01*
X134753995Y-69540897D01*
X134753805Y-69758149D01*
X128084115Y-69758149D01*
X128146005Y-69609103D01*
X128146157Y-69434852D01*
X129654951Y-69434852D01*
X129680300Y-69548061D01*
X129914370Y-69628687D01*
X130161476Y-69613600D01*
X130319700Y-69548061D01*
X130345049Y-69434852D01*
X131154951Y-69434852D01*
X131180300Y-69548061D01*
X131414370Y-69628687D01*
X131661476Y-69613600D01*
X131819700Y-69548061D01*
X131845049Y-69434852D01*
X132654951Y-69434852D01*
X132680300Y-69548061D01*
X132914370Y-69628687D01*
X133161476Y-69613600D01*
X133319700Y-69548061D01*
X133345049Y-69434852D01*
X133000000Y-69089803D01*
X132654951Y-69434852D01*
X131845049Y-69434852D01*
X131500000Y-69089803D01*
X131154951Y-69434852D01*
X130345049Y-69434852D01*
X130000000Y-69089803D01*
X129654951Y-69434852D01*
X128146157Y-69434852D01*
X128146195Y-69391851D01*
X128063231Y-69191063D01*
X127909745Y-69037309D01*
X127709103Y-68953995D01*
X127491851Y-68953805D01*
X127291063Y-69036769D01*
X127249976Y-69077785D01*
X127109745Y-68937309D01*
X127054502Y-68914370D01*
X129371313Y-68914370D01*
X129386400Y-69161476D01*
X129451939Y-69319700D01*
X129565148Y-69345049D01*
X129910197Y-69000000D01*
X130089803Y-69000000D01*
X130434852Y-69345049D01*
X130548061Y-69319700D01*
X130628687Y-69085630D01*
X130618231Y-68914370D01*
X130871313Y-68914370D01*
X130886400Y-69161476D01*
X130951939Y-69319700D01*
X131065148Y-69345049D01*
X131410197Y-69000000D01*
X131589803Y-69000000D01*
X131934852Y-69345049D01*
X132048061Y-69319700D01*
X132128687Y-69085630D01*
X132118231Y-68914370D01*
X132371313Y-68914370D01*
X132386400Y-69161476D01*
X132451939Y-69319700D01*
X132565148Y-69345049D01*
X132910197Y-69000000D01*
X133089803Y-69000000D01*
X133434852Y-69345049D01*
X133548061Y-69319700D01*
X133628687Y-69085630D01*
X133613600Y-68838524D01*
X133548061Y-68680300D01*
X133486037Y-68666412D01*
X155423390Y-68666412D01*
X155445603Y-68777000D01*
X155670448Y-68853373D01*
X155907403Y-68837887D01*
X156054397Y-68777000D01*
X156076610Y-68666412D01*
X156923390Y-68666412D01*
X156945603Y-68777000D01*
X157170448Y-68853373D01*
X157407403Y-68837887D01*
X157554397Y-68777000D01*
X157576610Y-68666412D01*
X158423390Y-68666412D01*
X158445603Y-68777000D01*
X158670448Y-68853373D01*
X158907403Y-68837887D01*
X159054397Y-68777000D01*
X159076610Y-68666412D01*
X158750000Y-68339803D01*
X158423390Y-68666412D01*
X157576610Y-68666412D01*
X157250000Y-68339803D01*
X156923390Y-68666412D01*
X156076610Y-68666412D01*
X155750000Y-68339803D01*
X155423390Y-68666412D01*
X133486037Y-68666412D01*
X133434852Y-68654951D01*
X133089803Y-69000000D01*
X132910197Y-69000000D01*
X132565148Y-68654951D01*
X132451939Y-68680300D01*
X132371313Y-68914370D01*
X132118231Y-68914370D01*
X132113600Y-68838524D01*
X132048061Y-68680300D01*
X131934852Y-68654951D01*
X131589803Y-69000000D01*
X131410197Y-69000000D01*
X131065148Y-68654951D01*
X130951939Y-68680300D01*
X130871313Y-68914370D01*
X130618231Y-68914370D01*
X130613600Y-68838524D01*
X130548061Y-68680300D01*
X130434852Y-68654951D01*
X130089803Y-69000000D01*
X129910197Y-69000000D01*
X129565148Y-68654951D01*
X129451939Y-68680300D01*
X129371313Y-68914370D01*
X127054502Y-68914370D01*
X126909103Y-68853995D01*
X126691851Y-68853805D01*
X126491063Y-68936769D01*
X126337309Y-69090255D01*
X126253995Y-69290897D01*
X126253805Y-69508149D01*
X117101546Y-69508149D01*
X117022873Y-69492500D01*
X116977127Y-69492500D01*
X116530344Y-69581371D01*
X116151580Y-69834453D01*
X115898498Y-70213217D01*
X115809627Y-70660000D01*
X113830200Y-70660000D01*
X113830200Y-68120000D01*
X115809627Y-68120000D01*
X115898498Y-68566783D01*
X116151580Y-68945547D01*
X116530344Y-69198629D01*
X116977127Y-69287500D01*
X117022873Y-69287500D01*
X117469656Y-69198629D01*
X117848420Y-68945547D01*
X118101502Y-68566783D01*
X118101827Y-68565148D01*
X129654951Y-68565148D01*
X130000000Y-68910197D01*
X130345049Y-68565148D01*
X131154951Y-68565148D01*
X131500000Y-68910197D01*
X131845049Y-68565148D01*
X132654951Y-68565148D01*
X133000000Y-68910197D01*
X133345049Y-68565148D01*
X133319700Y-68451939D01*
X133085630Y-68371313D01*
X132838524Y-68386400D01*
X132680300Y-68451939D01*
X132654951Y-68565148D01*
X131845049Y-68565148D01*
X131819700Y-68451939D01*
X131585630Y-68371313D01*
X131338524Y-68386400D01*
X131180300Y-68451939D01*
X131154951Y-68565148D01*
X130345049Y-68565148D01*
X130319700Y-68451939D01*
X130085630Y-68371313D01*
X129838524Y-68386400D01*
X129680300Y-68451939D01*
X129654951Y-68565148D01*
X118101827Y-68565148D01*
X118190373Y-68120000D01*
X118101502Y-67673217D01*
X118058025Y-67608149D01*
X127153805Y-67608149D01*
X127236769Y-67808937D01*
X127390255Y-67962691D01*
X127590897Y-68046005D01*
X127808149Y-68046195D01*
X128008937Y-67963231D01*
X128037365Y-67934852D01*
X129654951Y-67934852D01*
X129680300Y-68048061D01*
X129914370Y-68128687D01*
X130161476Y-68113600D01*
X130319700Y-68048061D01*
X130345049Y-67934852D01*
X131154951Y-67934852D01*
X131180300Y-68048061D01*
X131414370Y-68128687D01*
X131661476Y-68113600D01*
X131819700Y-68048061D01*
X131845049Y-67934852D01*
X132654951Y-67934852D01*
X132680300Y-68048061D01*
X132914370Y-68128687D01*
X133161476Y-68113600D01*
X133319700Y-68048061D01*
X133345049Y-67934852D01*
X133000000Y-67589803D01*
X132654951Y-67934852D01*
X131845049Y-67934852D01*
X131500000Y-67589803D01*
X131154951Y-67934852D01*
X130345049Y-67934852D01*
X130000000Y-67589803D01*
X129654951Y-67934852D01*
X128037365Y-67934852D01*
X128162691Y-67809745D01*
X128246005Y-67609103D01*
X128246175Y-67414370D01*
X129371313Y-67414370D01*
X129386400Y-67661476D01*
X129451939Y-67819700D01*
X129565148Y-67845049D01*
X129910197Y-67500000D01*
X130089803Y-67500000D01*
X130434852Y-67845049D01*
X130548061Y-67819700D01*
X130628687Y-67585630D01*
X130618231Y-67414370D01*
X130871313Y-67414370D01*
X130886400Y-67661476D01*
X130951939Y-67819700D01*
X131065148Y-67845049D01*
X131410197Y-67500000D01*
X131589803Y-67500000D01*
X131934852Y-67845049D01*
X132048061Y-67819700D01*
X132128687Y-67585630D01*
X132118231Y-67414370D01*
X132371313Y-67414370D01*
X132386400Y-67661476D01*
X132451939Y-67819700D01*
X132565148Y-67845049D01*
X132910197Y-67500000D01*
X133089803Y-67500000D01*
X133434852Y-67845049D01*
X133548061Y-67819700D01*
X133552039Y-67808149D01*
X134653805Y-67808149D01*
X134736769Y-68008937D01*
X134890255Y-68162691D01*
X135090897Y-68246005D01*
X135308149Y-68246195D01*
X135491470Y-68170448D01*
X155146627Y-68170448D01*
X155162113Y-68407403D01*
X155223000Y-68554397D01*
X155333588Y-68576610D01*
X155660197Y-68250000D01*
X155839803Y-68250000D01*
X156166412Y-68576610D01*
X156277000Y-68554397D01*
X156353373Y-68329552D01*
X156342975Y-68170448D01*
X156646627Y-68170448D01*
X156662113Y-68407403D01*
X156723000Y-68554397D01*
X156833588Y-68576610D01*
X157160197Y-68250000D01*
X157339803Y-68250000D01*
X157666412Y-68576610D01*
X157777000Y-68554397D01*
X157853373Y-68329552D01*
X157842975Y-68170448D01*
X158146627Y-68170448D01*
X158162113Y-68407403D01*
X158223000Y-68554397D01*
X158333588Y-68576610D01*
X158660197Y-68250000D01*
X158839803Y-68250000D01*
X159166412Y-68576610D01*
X159277000Y-68554397D01*
X159314018Y-68445412D01*
X166804391Y-68445412D01*
X166851884Y-68577283D01*
X167151312Y-68688038D01*
X167470330Y-68675777D01*
X167708116Y-68577283D01*
X167755609Y-68445412D01*
X167280000Y-67969803D01*
X166804391Y-68445412D01*
X159314018Y-68445412D01*
X159353373Y-68329552D01*
X159337887Y-68092597D01*
X159277000Y-67945603D01*
X159166412Y-67923390D01*
X158839803Y-68250000D01*
X158660197Y-68250000D01*
X158333588Y-67923390D01*
X158223000Y-67945603D01*
X158146627Y-68170448D01*
X157842975Y-68170448D01*
X157837887Y-68092597D01*
X157777000Y-67945603D01*
X157666412Y-67923390D01*
X157339803Y-68250000D01*
X157160197Y-68250000D01*
X156833588Y-67923390D01*
X156723000Y-67945603D01*
X156646627Y-68170448D01*
X156342975Y-68170448D01*
X156337887Y-68092597D01*
X156277000Y-67945603D01*
X156166412Y-67923390D01*
X155839803Y-68250000D01*
X155660197Y-68250000D01*
X155333588Y-67923390D01*
X155223000Y-67945603D01*
X155146627Y-68170448D01*
X135491470Y-68170448D01*
X135508937Y-68163231D01*
X135662691Y-68009745D01*
X135735837Y-67833588D01*
X155423390Y-67833588D01*
X155750000Y-68160197D01*
X156076610Y-67833588D01*
X156923390Y-67833588D01*
X157250000Y-68160197D01*
X157576610Y-67833588D01*
X158423390Y-67833588D01*
X158750000Y-68160197D01*
X159076610Y-67833588D01*
X159060084Y-67751312D01*
X166471962Y-67751312D01*
X166484223Y-68070330D01*
X166582717Y-68308116D01*
X166714588Y-68355609D01*
X167190197Y-67880000D01*
X167369803Y-67880000D01*
X167845412Y-68355609D01*
X167977283Y-68308116D01*
X168088038Y-68008688D01*
X168075777Y-67689670D01*
X167977283Y-67451884D01*
X167845412Y-67404391D01*
X167369803Y-67880000D01*
X167190197Y-67880000D01*
X166714588Y-67404391D01*
X166582717Y-67451884D01*
X166471962Y-67751312D01*
X159060084Y-67751312D01*
X159054397Y-67723000D01*
X158829552Y-67646627D01*
X158592597Y-67662113D01*
X158445603Y-67723000D01*
X158423390Y-67833588D01*
X157576610Y-67833588D01*
X157554397Y-67723000D01*
X157329552Y-67646627D01*
X157092597Y-67662113D01*
X156945603Y-67723000D01*
X156923390Y-67833588D01*
X156076610Y-67833588D01*
X156054397Y-67723000D01*
X155829552Y-67646627D01*
X155592597Y-67662113D01*
X155445603Y-67723000D01*
X155423390Y-67833588D01*
X135735837Y-67833588D01*
X135746005Y-67809103D01*
X135746195Y-67591851D01*
X135663231Y-67391063D01*
X135509745Y-67237309D01*
X135339007Y-67166412D01*
X155423390Y-67166412D01*
X155445603Y-67277000D01*
X155670448Y-67353373D01*
X155907403Y-67337887D01*
X156054397Y-67277000D01*
X156076610Y-67166412D01*
X156923390Y-67166412D01*
X156945603Y-67277000D01*
X157170448Y-67353373D01*
X157407403Y-67337887D01*
X157554397Y-67277000D01*
X157576610Y-67166412D01*
X158423390Y-67166412D01*
X158445603Y-67277000D01*
X158670448Y-67353373D01*
X158907403Y-67337887D01*
X158963651Y-67314588D01*
X166804391Y-67314588D01*
X167280000Y-67790197D01*
X167755609Y-67314588D01*
X167708116Y-67182717D01*
X167408688Y-67071962D01*
X167089670Y-67084223D01*
X166851884Y-67182717D01*
X166804391Y-67314588D01*
X158963651Y-67314588D01*
X159054397Y-67277000D01*
X159076610Y-67166412D01*
X158750000Y-66839803D01*
X158423390Y-67166412D01*
X157576610Y-67166412D01*
X157250000Y-66839803D01*
X156923390Y-67166412D01*
X156076610Y-67166412D01*
X155750000Y-66839803D01*
X155423390Y-67166412D01*
X135339007Y-67166412D01*
X135309103Y-67153995D01*
X135091851Y-67153805D01*
X134891063Y-67236769D01*
X134737309Y-67390255D01*
X134653995Y-67590897D01*
X134653805Y-67808149D01*
X133552039Y-67808149D01*
X133628687Y-67585630D01*
X133613600Y-67338524D01*
X133548061Y-67180300D01*
X133434852Y-67154951D01*
X133089803Y-67500000D01*
X132910197Y-67500000D01*
X132565148Y-67154951D01*
X132451939Y-67180300D01*
X132371313Y-67414370D01*
X132118231Y-67414370D01*
X132113600Y-67338524D01*
X132048061Y-67180300D01*
X131934852Y-67154951D01*
X131589803Y-67500000D01*
X131410197Y-67500000D01*
X131065148Y-67154951D01*
X130951939Y-67180300D01*
X130871313Y-67414370D01*
X130618231Y-67414370D01*
X130613600Y-67338524D01*
X130548061Y-67180300D01*
X130434852Y-67154951D01*
X130089803Y-67500000D01*
X129910197Y-67500000D01*
X129565148Y-67154951D01*
X129451939Y-67180300D01*
X129371313Y-67414370D01*
X128246175Y-67414370D01*
X128246195Y-67391851D01*
X128163231Y-67191063D01*
X128037536Y-67065148D01*
X129654951Y-67065148D01*
X130000000Y-67410197D01*
X130345049Y-67065148D01*
X131154951Y-67065148D01*
X131500000Y-67410197D01*
X131845049Y-67065148D01*
X132654951Y-67065148D01*
X133000000Y-67410197D01*
X133345049Y-67065148D01*
X133319700Y-66951939D01*
X133085630Y-66871313D01*
X132838524Y-66886400D01*
X132680300Y-66951939D01*
X132654951Y-67065148D01*
X131845049Y-67065148D01*
X131819700Y-66951939D01*
X131585630Y-66871313D01*
X131338524Y-66886400D01*
X131180300Y-66951939D01*
X131154951Y-67065148D01*
X130345049Y-67065148D01*
X130319700Y-66951939D01*
X130085630Y-66871313D01*
X129838524Y-66886400D01*
X129680300Y-66951939D01*
X129654951Y-67065148D01*
X128037536Y-67065148D01*
X128009745Y-67037309D01*
X127809103Y-66953995D01*
X127591851Y-66953805D01*
X127391063Y-67036769D01*
X127237309Y-67190255D01*
X127153995Y-67390897D01*
X127153805Y-67608149D01*
X118058025Y-67608149D01*
X117848420Y-67294453D01*
X117469656Y-67041371D01*
X117022873Y-66952500D01*
X116977127Y-66952500D01*
X116530344Y-67041371D01*
X116151580Y-67294453D01*
X115898498Y-67673217D01*
X115809627Y-68120000D01*
X113830200Y-68120000D01*
X113830200Y-65580000D01*
X115809627Y-65580000D01*
X115898498Y-66026783D01*
X116151580Y-66405547D01*
X116530344Y-66658629D01*
X116977127Y-66747500D01*
X117022873Y-66747500D01*
X117469656Y-66658629D01*
X117545204Y-66608149D01*
X152953805Y-66608149D01*
X153036769Y-66808937D01*
X153190255Y-66962691D01*
X153390897Y-67046005D01*
X153608149Y-67046195D01*
X153808937Y-66963231D01*
X153962691Y-66809745D01*
X154020532Y-66670448D01*
X155146627Y-66670448D01*
X155162113Y-66907403D01*
X155223000Y-67054397D01*
X155333588Y-67076610D01*
X155660197Y-66750000D01*
X155839803Y-66750000D01*
X156166412Y-67076610D01*
X156277000Y-67054397D01*
X156353373Y-66829552D01*
X156342975Y-66670448D01*
X156646627Y-66670448D01*
X156662113Y-66907403D01*
X156723000Y-67054397D01*
X156833588Y-67076610D01*
X157160197Y-66750000D01*
X157339803Y-66750000D01*
X157666412Y-67076610D01*
X157777000Y-67054397D01*
X157853373Y-66829552D01*
X157842975Y-66670448D01*
X158146627Y-66670448D01*
X158162113Y-66907403D01*
X158223000Y-67054397D01*
X158333588Y-67076610D01*
X158660197Y-66750000D01*
X158839803Y-66750000D01*
X159166412Y-67076610D01*
X159277000Y-67054397D01*
X159353373Y-66829552D01*
X159337887Y-66592597D01*
X159277000Y-66445603D01*
X159166412Y-66423390D01*
X158839803Y-66750000D01*
X158660197Y-66750000D01*
X158333588Y-66423390D01*
X158223000Y-66445603D01*
X158146627Y-66670448D01*
X157842975Y-66670448D01*
X157837887Y-66592597D01*
X157777000Y-66445603D01*
X157666412Y-66423390D01*
X157339803Y-66750000D01*
X157160197Y-66750000D01*
X156833588Y-66423390D01*
X156723000Y-66445603D01*
X156646627Y-66670448D01*
X156342975Y-66670448D01*
X156337887Y-66592597D01*
X156277000Y-66445603D01*
X156166412Y-66423390D01*
X155839803Y-66750000D01*
X155660197Y-66750000D01*
X155333588Y-66423390D01*
X155223000Y-66445603D01*
X155146627Y-66670448D01*
X154020532Y-66670448D01*
X154046005Y-66609103D01*
X154046195Y-66391851D01*
X154022122Y-66333588D01*
X155423390Y-66333588D01*
X155750000Y-66660197D01*
X156076610Y-66333588D01*
X156923390Y-66333588D01*
X157250000Y-66660197D01*
X157576610Y-66333588D01*
X158423390Y-66333588D01*
X158750000Y-66660197D01*
X159076610Y-66333588D01*
X159054397Y-66223000D01*
X158829552Y-66146627D01*
X158592597Y-66162113D01*
X158445603Y-66223000D01*
X158423390Y-66333588D01*
X157576610Y-66333588D01*
X157554397Y-66223000D01*
X157329552Y-66146627D01*
X157092597Y-66162113D01*
X156945603Y-66223000D01*
X156923390Y-66333588D01*
X156076610Y-66333588D01*
X156054397Y-66223000D01*
X155829552Y-66146627D01*
X155592597Y-66162113D01*
X155445603Y-66223000D01*
X155423390Y-66333588D01*
X154022122Y-66333588D01*
X153963231Y-66191063D01*
X153809745Y-66037309D01*
X153609103Y-65953995D01*
X153391851Y-65953805D01*
X153191063Y-66036769D01*
X153037309Y-66190255D01*
X152953995Y-66390897D01*
X152953805Y-66608149D01*
X117545204Y-66608149D01*
X117848420Y-66405547D01*
X118101502Y-66026783D01*
X118190373Y-65580000D01*
X118101502Y-65133217D01*
X117917708Y-64858149D01*
X121703805Y-64858149D01*
X121786769Y-65058937D01*
X121940255Y-65212691D01*
X122140897Y-65296005D01*
X122358149Y-65296195D01*
X122558937Y-65213231D01*
X122664202Y-65108149D01*
X128453805Y-65108149D01*
X128536769Y-65308937D01*
X128690255Y-65462691D01*
X128890897Y-65546005D01*
X129108149Y-65546195D01*
X129308937Y-65463231D01*
X129462691Y-65309745D01*
X129546005Y-65109103D01*
X129546060Y-65046141D01*
X129608149Y-65046195D01*
X129808937Y-64963231D01*
X129962691Y-64809745D01*
X130046005Y-64609103D01*
X130046005Y-64608149D01*
X130353805Y-64608149D01*
X130436769Y-64808937D01*
X130590255Y-64962691D01*
X130790897Y-65046005D01*
X130869475Y-65046074D01*
X130936769Y-65208937D01*
X131090255Y-65362691D01*
X131290897Y-65446005D01*
X131369475Y-65446074D01*
X131436769Y-65608937D01*
X131590255Y-65762691D01*
X131790897Y-65846005D01*
X132008149Y-65846195D01*
X132208937Y-65763231D01*
X132362691Y-65609745D01*
X132404877Y-65508149D01*
X132653805Y-65508149D01*
X132736769Y-65708937D01*
X132890255Y-65862691D01*
X133090897Y-65946005D01*
X133308149Y-65946195D01*
X133508937Y-65863231D01*
X133662691Y-65709745D01*
X133704877Y-65608149D01*
X134253805Y-65608149D01*
X134336769Y-65808937D01*
X134490255Y-65962691D01*
X134690897Y-66046005D01*
X134908149Y-66046195D01*
X135108937Y-65963231D01*
X135262691Y-65809745D01*
X135346005Y-65609103D01*
X135346195Y-65391851D01*
X135263231Y-65191063D01*
X135180462Y-65108149D01*
X145703805Y-65108149D01*
X145786769Y-65308937D01*
X145940255Y-65462691D01*
X146140897Y-65546005D01*
X146358149Y-65546195D01*
X146558937Y-65463231D01*
X146712691Y-65309745D01*
X146796005Y-65109103D01*
X146796195Y-64891851D01*
X146713231Y-64691063D01*
X146559745Y-64537309D01*
X146359103Y-64453995D01*
X146141851Y-64453805D01*
X145941063Y-64536769D01*
X145787309Y-64690255D01*
X145703995Y-64890897D01*
X145703805Y-65108149D01*
X135180462Y-65108149D01*
X135109745Y-65037309D01*
X134909103Y-64953995D01*
X134691851Y-64953805D01*
X134491063Y-65036769D01*
X134337309Y-65190255D01*
X134253995Y-65390897D01*
X134253805Y-65608149D01*
X133704877Y-65608149D01*
X133746005Y-65509103D01*
X133746195Y-65291851D01*
X133663231Y-65091063D01*
X133509745Y-64937309D01*
X133309103Y-64853995D01*
X133091851Y-64853805D01*
X132891063Y-64936769D01*
X132737309Y-65090255D01*
X132653995Y-65290897D01*
X132653805Y-65508149D01*
X132404877Y-65508149D01*
X132446005Y-65409103D01*
X132446195Y-65191851D01*
X132363231Y-64991063D01*
X132209745Y-64837309D01*
X132009103Y-64753995D01*
X131930525Y-64753926D01*
X131863231Y-64591063D01*
X131709745Y-64437309D01*
X131509103Y-64353995D01*
X131430525Y-64353926D01*
X131363231Y-64191063D01*
X131209745Y-64037309D01*
X131009103Y-63953995D01*
X130791851Y-63953805D01*
X130591063Y-64036769D01*
X130437309Y-64190255D01*
X130353995Y-64390897D01*
X130353805Y-64608149D01*
X130046005Y-64608149D01*
X130046195Y-64391851D01*
X129963231Y-64191063D01*
X129809745Y-64037309D01*
X129609103Y-63953995D01*
X129391851Y-63953805D01*
X129191063Y-64036769D01*
X129037309Y-64190255D01*
X128953995Y-64390897D01*
X128953940Y-64453859D01*
X128891851Y-64453805D01*
X128691063Y-64536769D01*
X128537309Y-64690255D01*
X128453995Y-64890897D01*
X128453805Y-65108149D01*
X122664202Y-65108149D01*
X122712691Y-65059745D01*
X122796005Y-64859103D01*
X122796195Y-64641851D01*
X122713231Y-64441063D01*
X122559745Y-64287309D01*
X122359103Y-64203995D01*
X122141851Y-64203805D01*
X121941063Y-64286769D01*
X121787309Y-64440255D01*
X121703995Y-64640897D01*
X121703805Y-64858149D01*
X117917708Y-64858149D01*
X117848420Y-64754453D01*
X117469656Y-64501371D01*
X117022873Y-64412500D01*
X116977127Y-64412500D01*
X116530344Y-64501371D01*
X116151580Y-64754453D01*
X115898498Y-65133217D01*
X115809627Y-65580000D01*
X113830200Y-65580000D01*
X113830200Y-63040000D01*
X115809627Y-63040000D01*
X115898498Y-63486783D01*
X116151580Y-63865547D01*
X116530344Y-64118629D01*
X116977127Y-64207500D01*
X117022873Y-64207500D01*
X117469656Y-64118629D01*
X117848420Y-63865547D01*
X118101502Y-63486783D01*
X118190373Y-63040000D01*
X118101502Y-62593217D01*
X117848420Y-62214453D01*
X117469656Y-61961371D01*
X117022873Y-61872500D01*
X116977127Y-61872500D01*
X116530344Y-61961371D01*
X116151580Y-62214453D01*
X115898498Y-62593217D01*
X115809627Y-63040000D01*
X113830200Y-63040000D01*
X113830200Y-61858149D01*
X128453805Y-61858149D01*
X128536769Y-62058937D01*
X128690255Y-62212691D01*
X128890897Y-62296005D01*
X128993360Y-62296095D01*
X128953995Y-62390897D01*
X128953805Y-62608149D01*
X129036769Y-62808937D01*
X129190255Y-62962691D01*
X129390897Y-63046005D01*
X129608149Y-63046195D01*
X129808937Y-62963231D01*
X129962691Y-62809745D01*
X130046005Y-62609103D01*
X130046195Y-62391851D01*
X129963231Y-62191063D01*
X129809745Y-62037309D01*
X129609103Y-61953995D01*
X129506640Y-61953905D01*
X129546005Y-61859103D01*
X129546195Y-61641851D01*
X129532270Y-61608149D01*
X129753805Y-61608149D01*
X129836769Y-61808937D01*
X129990255Y-61962691D01*
X130190897Y-62046005D01*
X130408149Y-62046195D01*
X130608937Y-61963231D01*
X130762691Y-61809745D01*
X130799989Y-61719922D01*
X130836769Y-61808937D01*
X130990255Y-61962691D01*
X131190897Y-62046005D01*
X131408149Y-62046195D01*
X131608937Y-61963231D01*
X131762691Y-61809745D01*
X131846005Y-61609103D01*
X131846005Y-61608149D01*
X132453805Y-61608149D01*
X132536769Y-61808937D01*
X132690255Y-61962691D01*
X132890897Y-62046005D01*
X133108149Y-62046195D01*
X133308937Y-61963231D01*
X133462691Y-61809745D01*
X133546005Y-61609103D01*
X133546195Y-61391851D01*
X133463231Y-61191063D01*
X133309745Y-61037309D01*
X133109103Y-60953995D01*
X132891851Y-60953805D01*
X132691063Y-61036769D01*
X132537309Y-61190255D01*
X132453995Y-61390897D01*
X132453805Y-61608149D01*
X131846005Y-61608149D01*
X131846195Y-61391851D01*
X131763231Y-61191063D01*
X131609745Y-61037309D01*
X131409103Y-60953995D01*
X131191851Y-60953805D01*
X130991063Y-61036769D01*
X130837309Y-61190255D01*
X130800011Y-61280078D01*
X130763231Y-61191063D01*
X130609745Y-61037309D01*
X130409103Y-60953995D01*
X130191851Y-60953805D01*
X129991063Y-61036769D01*
X129837309Y-61190255D01*
X129753995Y-61390897D01*
X129753805Y-61608149D01*
X129532270Y-61608149D01*
X129463231Y-61441063D01*
X129309745Y-61287309D01*
X129109103Y-61203995D01*
X128891851Y-61203805D01*
X128691063Y-61286769D01*
X128537309Y-61440255D01*
X128453995Y-61640897D01*
X128453805Y-61858149D01*
X113830200Y-61858149D01*
X113830200Y-60642875D01*
X115832500Y-60642875D01*
X115832500Y-61413154D01*
X115880836Y-61529849D01*
X115970150Y-61619163D01*
X116086845Y-61667500D01*
X116857125Y-61667500D01*
X116936500Y-61588125D01*
X116936500Y-60563500D01*
X117063500Y-60563500D01*
X117063500Y-61588125D01*
X117142875Y-61667500D01*
X117913155Y-61667500D01*
X118029850Y-61619163D01*
X118119164Y-61529849D01*
X118167500Y-61413154D01*
X118167500Y-60642875D01*
X118088125Y-60563500D01*
X117063500Y-60563500D01*
X116936500Y-60563500D01*
X115911875Y-60563500D01*
X115832500Y-60642875D01*
X113830200Y-60642875D01*
X113830200Y-60508149D01*
X133653805Y-60508149D01*
X133736769Y-60708937D01*
X133890255Y-60862691D01*
X134090897Y-60946005D01*
X134308149Y-60946195D01*
X134508937Y-60863231D01*
X134662691Y-60709745D01*
X134746005Y-60509103D01*
X134746195Y-60291851D01*
X134663231Y-60091063D01*
X134509745Y-59937309D01*
X134309103Y-59853995D01*
X134091851Y-59853805D01*
X133891063Y-59936769D01*
X133737309Y-60090255D01*
X133653995Y-60290897D01*
X133653805Y-60508149D01*
X113830200Y-60508149D01*
X113830200Y-59586846D01*
X115832500Y-59586846D01*
X115832500Y-60357125D01*
X115911875Y-60436500D01*
X116936500Y-60436500D01*
X116936500Y-59411875D01*
X117063500Y-59411875D01*
X117063500Y-60436500D01*
X118088125Y-60436500D01*
X118167500Y-60357125D01*
X118167500Y-59685412D01*
X166804391Y-59685412D01*
X166851884Y-59817283D01*
X167151312Y-59928038D01*
X167470330Y-59915777D01*
X167708116Y-59817283D01*
X167755609Y-59685412D01*
X167280000Y-59209803D01*
X166804391Y-59685412D01*
X118167500Y-59685412D01*
X118167500Y-59586846D01*
X118119164Y-59470151D01*
X118029850Y-59380837D01*
X117913155Y-59332500D01*
X117142875Y-59332500D01*
X117063500Y-59411875D01*
X116936500Y-59411875D01*
X116857125Y-59332500D01*
X116086845Y-59332500D01*
X115970150Y-59380837D01*
X115880836Y-59470151D01*
X115832500Y-59586846D01*
X113830200Y-59586846D01*
X113830200Y-58991312D01*
X166471962Y-58991312D01*
X166484223Y-59310330D01*
X166582717Y-59548116D01*
X166714588Y-59595609D01*
X167190197Y-59120000D01*
X167369803Y-59120000D01*
X167845412Y-59595609D01*
X167977283Y-59548116D01*
X168088038Y-59248688D01*
X168075777Y-58929670D01*
X167977283Y-58691884D01*
X167845412Y-58644391D01*
X167369803Y-59120000D01*
X167190197Y-59120000D01*
X166714588Y-58644391D01*
X166582717Y-58691884D01*
X166471962Y-58991312D01*
X113830200Y-58991312D01*
X113830200Y-58554588D01*
X166804391Y-58554588D01*
X167280000Y-59030197D01*
X167755609Y-58554588D01*
X167708116Y-58422717D01*
X167408688Y-58311962D01*
X167089670Y-58324223D01*
X166851884Y-58422717D01*
X166804391Y-58554588D01*
X113830200Y-58554588D01*
X113830200Y-58008149D01*
X132353805Y-58008149D01*
X132436769Y-58208937D01*
X132590255Y-58362691D01*
X132790897Y-58446005D01*
X133008149Y-58446195D01*
X133200225Y-58366831D01*
X133390897Y-58446005D01*
X133608149Y-58446195D01*
X133808937Y-58363231D01*
X133962691Y-58209745D01*
X134046005Y-58009103D01*
X134046195Y-57791851D01*
X133963231Y-57591063D01*
X133809745Y-57437309D01*
X133609103Y-57353995D01*
X133391851Y-57353805D01*
X133199775Y-57433169D01*
X133009103Y-57353995D01*
X132791851Y-57353805D01*
X132591063Y-57436769D01*
X132437309Y-57590255D01*
X132353995Y-57790897D01*
X132353805Y-58008149D01*
X113830200Y-58008149D01*
X113830200Y-57308149D01*
X127453805Y-57308149D01*
X127536769Y-57508937D01*
X127690255Y-57662691D01*
X127890897Y-57746005D01*
X128108149Y-57746195D01*
X128308937Y-57663231D01*
X128462691Y-57509745D01*
X128546005Y-57309103D01*
X128546195Y-57091851D01*
X128463231Y-56891063D01*
X128309745Y-56737309D01*
X128109103Y-56653995D01*
X127891851Y-56653805D01*
X127691063Y-56736769D01*
X127537309Y-56890255D01*
X127453995Y-57090897D01*
X127453805Y-57308149D01*
X113830200Y-57308149D01*
X113830200Y-56408149D01*
X145553805Y-56408149D01*
X145636769Y-56608937D01*
X145790255Y-56762691D01*
X145990897Y-56846005D01*
X146208149Y-56846195D01*
X146408937Y-56763231D01*
X146562691Y-56609745D01*
X146646005Y-56409103D01*
X146646005Y-56408149D01*
X147953805Y-56408149D01*
X148036769Y-56608937D01*
X148190255Y-56762691D01*
X148390897Y-56846005D01*
X148608149Y-56846195D01*
X148808937Y-56763231D01*
X148962691Y-56609745D01*
X149046005Y-56409103D01*
X149046195Y-56191851D01*
X148963231Y-55991063D01*
X148809745Y-55837309D01*
X148609103Y-55753995D01*
X148391851Y-55753805D01*
X148191063Y-55836769D01*
X148037309Y-55990255D01*
X147953995Y-56190897D01*
X147953805Y-56408149D01*
X146646005Y-56408149D01*
X146646195Y-56191851D01*
X146563231Y-55991063D01*
X146409745Y-55837309D01*
X146209103Y-55753995D01*
X145991851Y-55753805D01*
X145791063Y-55836769D01*
X145637309Y-55990255D01*
X145553995Y-56190897D01*
X145553805Y-56408149D01*
X113830200Y-56408149D01*
X113830200Y-55408149D01*
X136153805Y-55408149D01*
X136236769Y-55608937D01*
X136390255Y-55762691D01*
X136590897Y-55846005D01*
X136808149Y-55846195D01*
X137008937Y-55763231D01*
X137162691Y-55609745D01*
X137246005Y-55409103D01*
X137246195Y-55191851D01*
X137163231Y-54991063D01*
X137009745Y-54837309D01*
X136809103Y-54753995D01*
X136591851Y-54753805D01*
X136391063Y-54836769D01*
X136237309Y-54990255D01*
X136153995Y-55190897D01*
X136153805Y-55408149D01*
X113830200Y-55408149D01*
X113830200Y-54285085D01*
X115858514Y-54285085D01*
X116019541Y-54673855D01*
X116336740Y-55000811D01*
X116754914Y-55181492D01*
X116936500Y-55126403D01*
X116936500Y-54103500D01*
X117063500Y-54103500D01*
X117063500Y-55126403D01*
X117245086Y-55181492D01*
X117663260Y-55000811D01*
X117980459Y-54673855D01*
X118141486Y-54285085D01*
X118086271Y-54103500D01*
X117063500Y-54103500D01*
X116936500Y-54103500D01*
X115913729Y-54103500D01*
X115858514Y-54285085D01*
X113830200Y-54285085D01*
X113830200Y-53794915D01*
X115858514Y-53794915D01*
X115913729Y-53976500D01*
X116936500Y-53976500D01*
X116936500Y-52953597D01*
X117063500Y-52953597D01*
X117063500Y-53976500D01*
X118086271Y-53976500D01*
X118141486Y-53794915D01*
X117980459Y-53406145D01*
X117663260Y-53079189D01*
X117245086Y-52898508D01*
X117063500Y-52953597D01*
X116936500Y-52953597D01*
X116754914Y-52898508D01*
X116336740Y-53079189D01*
X116019541Y-53406145D01*
X115858514Y-53794915D01*
X113830200Y-53794915D01*
X113830200Y-50650000D01*
X115826280Y-50650000D01*
X115826280Y-52350000D01*
X115848419Y-52467658D01*
X115917955Y-52575721D01*
X116024055Y-52648215D01*
X116150000Y-52673720D01*
X117850000Y-52673720D01*
X117967658Y-52651581D01*
X118075721Y-52582045D01*
X118148215Y-52475945D01*
X118173720Y-52350000D01*
X118173720Y-52208149D01*
X133753805Y-52208149D01*
X133836769Y-52408937D01*
X133990255Y-52562691D01*
X134190897Y-52646005D01*
X134408149Y-52646195D01*
X134608937Y-52563231D01*
X134762691Y-52409745D01*
X134846005Y-52209103D01*
X134846195Y-51991851D01*
X134763231Y-51791063D01*
X134609745Y-51637309D01*
X134539521Y-51608149D01*
X149353805Y-51608149D01*
X149436769Y-51808937D01*
X149590255Y-51962691D01*
X149680078Y-51999989D01*
X149591063Y-52036769D01*
X149437309Y-52190255D01*
X149353995Y-52390897D01*
X149353805Y-52608149D01*
X149436769Y-52808937D01*
X149590255Y-52962691D01*
X149680078Y-52999989D01*
X149591063Y-53036769D01*
X149437309Y-53190255D01*
X149353995Y-53390897D01*
X149353805Y-53608149D01*
X149436769Y-53808937D01*
X149590255Y-53962691D01*
X149680078Y-53999989D01*
X149591063Y-54036769D01*
X149437309Y-54190255D01*
X149353995Y-54390897D01*
X149353805Y-54608149D01*
X149436769Y-54808937D01*
X149590255Y-54962691D01*
X149680078Y-54999989D01*
X149591063Y-55036769D01*
X149437309Y-55190255D01*
X149353995Y-55390897D01*
X149353805Y-55608149D01*
X149436769Y-55808937D01*
X149590255Y-55962691D01*
X149790897Y-56046005D01*
X150008149Y-56046195D01*
X150208937Y-55963231D01*
X150362691Y-55809745D01*
X150446005Y-55609103D01*
X150446195Y-55391851D01*
X150363231Y-55191063D01*
X150209745Y-55037309D01*
X150119922Y-55000011D01*
X150208937Y-54963231D01*
X150362691Y-54809745D01*
X150446005Y-54609103D01*
X150446195Y-54391851D01*
X150363231Y-54191063D01*
X150209745Y-54037309D01*
X150119922Y-54000011D01*
X150208937Y-53963231D01*
X150362691Y-53809745D01*
X150446005Y-53609103D01*
X150446195Y-53391851D01*
X150363231Y-53191063D01*
X150209745Y-53037309D01*
X150119922Y-53000011D01*
X150208937Y-52963231D01*
X150362691Y-52809745D01*
X150446005Y-52609103D01*
X150446195Y-52391851D01*
X150363231Y-52191063D01*
X150209745Y-52037309D01*
X150119922Y-52000011D01*
X150208937Y-51963231D01*
X150362691Y-51809745D01*
X150363353Y-51808149D01*
X161753805Y-51808149D01*
X161836769Y-52008937D01*
X161990255Y-52162691D01*
X162080078Y-52199989D01*
X161991063Y-52236769D01*
X161837309Y-52390255D01*
X161753995Y-52590897D01*
X161753805Y-52808149D01*
X161836769Y-53008937D01*
X161990255Y-53162691D01*
X162080078Y-53199989D01*
X161991063Y-53236769D01*
X161837309Y-53390255D01*
X161753995Y-53590897D01*
X161753805Y-53808149D01*
X161836769Y-54008937D01*
X161990255Y-54162691D01*
X162080078Y-54199989D01*
X161991063Y-54236769D01*
X161837309Y-54390255D01*
X161753995Y-54590897D01*
X161753805Y-54808149D01*
X161836769Y-55008937D01*
X161990255Y-55162691D01*
X162080078Y-55199989D01*
X161991063Y-55236769D01*
X161837309Y-55390255D01*
X161753995Y-55590897D01*
X161753805Y-55808149D01*
X161836769Y-56008937D01*
X161990255Y-56162691D01*
X162190897Y-56246005D01*
X162408149Y-56246195D01*
X162608937Y-56163231D01*
X162762691Y-56009745D01*
X162846005Y-55809103D01*
X162846195Y-55591851D01*
X162763231Y-55391063D01*
X162609745Y-55237309D01*
X162519922Y-55200011D01*
X162608937Y-55163231D01*
X162762691Y-55009745D01*
X162804877Y-54908149D01*
X166053805Y-54908149D01*
X166136769Y-55108937D01*
X166290255Y-55262691D01*
X166490897Y-55346005D01*
X166708149Y-55346195D01*
X166908937Y-55263231D01*
X167062691Y-55109745D01*
X167146005Y-54909103D01*
X167146195Y-54691851D01*
X167063231Y-54491063D01*
X166909745Y-54337309D01*
X166709103Y-54253995D01*
X166491851Y-54253805D01*
X166291063Y-54336769D01*
X166137309Y-54490255D01*
X166053995Y-54690897D01*
X166053805Y-54908149D01*
X162804877Y-54908149D01*
X162846005Y-54809103D01*
X162846195Y-54591851D01*
X162763231Y-54391063D01*
X162609745Y-54237309D01*
X162519922Y-54200011D01*
X162608937Y-54163231D01*
X162762691Y-54009745D01*
X162846005Y-53809103D01*
X162846195Y-53591851D01*
X162763231Y-53391063D01*
X162609745Y-53237309D01*
X162519922Y-53200011D01*
X162608937Y-53163231D01*
X162762691Y-53009745D01*
X162846005Y-52809103D01*
X162846195Y-52591851D01*
X162763231Y-52391063D01*
X162609745Y-52237309D01*
X162519922Y-52200011D01*
X162608937Y-52163231D01*
X162762691Y-52009745D01*
X162804877Y-51908149D01*
X165853805Y-51908149D01*
X165936769Y-52108937D01*
X166090255Y-52262691D01*
X166290897Y-52346005D01*
X166508149Y-52346195D01*
X166708937Y-52263231D01*
X166862691Y-52109745D01*
X166946005Y-51909103D01*
X166946195Y-51691851D01*
X166863231Y-51491063D01*
X166709745Y-51337309D01*
X166509103Y-51253995D01*
X166291851Y-51253805D01*
X166091063Y-51336769D01*
X165937309Y-51490255D01*
X165853995Y-51690897D01*
X165853805Y-51908149D01*
X162804877Y-51908149D01*
X162846005Y-51809103D01*
X162846195Y-51591851D01*
X162763231Y-51391063D01*
X162609745Y-51237309D01*
X162409103Y-51153995D01*
X162191851Y-51153805D01*
X161991063Y-51236769D01*
X161837309Y-51390255D01*
X161753995Y-51590897D01*
X161753805Y-51808149D01*
X150363353Y-51808149D01*
X150446005Y-51609103D01*
X150446195Y-51391851D01*
X150363231Y-51191063D01*
X150209745Y-51037309D01*
X150009103Y-50953995D01*
X149791851Y-50953805D01*
X149591063Y-51036769D01*
X149437309Y-51190255D01*
X149353995Y-51390897D01*
X149353805Y-51608149D01*
X134539521Y-51608149D01*
X134409103Y-51553995D01*
X134191851Y-51553805D01*
X133991063Y-51636769D01*
X133837309Y-51790255D01*
X133753995Y-51990897D01*
X133753805Y-52208149D01*
X118173720Y-52208149D01*
X118173720Y-50650000D01*
X118151581Y-50532342D01*
X118082045Y-50424279D01*
X117975945Y-50351785D01*
X117850000Y-50326280D01*
X116150000Y-50326280D01*
X116032342Y-50348419D01*
X115924279Y-50417955D01*
X115851785Y-50524055D01*
X115826280Y-50650000D01*
X113830200Y-50650000D01*
X113830200Y-44196604D01*
X114981891Y-44196604D01*
X115516270Y-45489901D01*
X116504895Y-46480253D01*
X117797256Y-47016888D01*
X119196604Y-47018109D01*
X120489901Y-46483730D01*
X120765963Y-46208149D01*
X122553805Y-46208149D01*
X122636769Y-46408937D01*
X122790255Y-46562691D01*
X122990897Y-46646005D01*
X123208149Y-46646195D01*
X123408937Y-46563231D01*
X123562691Y-46409745D01*
X123563353Y-46408149D01*
X134353805Y-46408149D01*
X134436769Y-46608937D01*
X134590255Y-46762691D01*
X134790897Y-46846005D01*
X135008149Y-46846195D01*
X135208937Y-46763231D01*
X135362691Y-46609745D01*
X135399989Y-46519922D01*
X135436769Y-46608937D01*
X135590255Y-46762691D01*
X135790897Y-46846005D01*
X136008149Y-46846195D01*
X136208937Y-46763231D01*
X136362691Y-46609745D01*
X136446005Y-46409103D01*
X136446195Y-46191851D01*
X136363231Y-45991063D01*
X136209745Y-45837309D01*
X136009103Y-45753995D01*
X135791851Y-45753805D01*
X135591063Y-45836769D01*
X135437309Y-45990255D01*
X135400011Y-46080078D01*
X135363231Y-45991063D01*
X135209745Y-45837309D01*
X135009103Y-45753995D01*
X134791851Y-45753805D01*
X134591063Y-45836769D01*
X134437309Y-45990255D01*
X134353995Y-46190897D01*
X134353805Y-46408149D01*
X123563353Y-46408149D01*
X123646005Y-46209103D01*
X123646195Y-45991851D01*
X123563231Y-45791063D01*
X123409745Y-45637309D01*
X123209103Y-45553995D01*
X122991851Y-45553805D01*
X122791063Y-45636769D01*
X122637309Y-45790255D01*
X122553995Y-45990897D01*
X122553805Y-46208149D01*
X120765963Y-46208149D01*
X121480253Y-45495105D01*
X121723978Y-44908149D01*
X122653805Y-44908149D01*
X122736769Y-45108937D01*
X122890255Y-45262691D01*
X123090897Y-45346005D01*
X123308149Y-45346195D01*
X123508937Y-45263231D01*
X123662691Y-45109745D01*
X123746005Y-44909103D01*
X123746049Y-44858149D01*
X130953805Y-44858149D01*
X131036769Y-45058937D01*
X131190255Y-45212691D01*
X131390897Y-45296005D01*
X131608149Y-45296195D01*
X131808937Y-45213231D01*
X131962691Y-45059745D01*
X132046005Y-44859103D01*
X132046195Y-44641851D01*
X131963231Y-44441063D01*
X131809745Y-44287309D01*
X131609103Y-44203995D01*
X131391851Y-44203805D01*
X131191063Y-44286769D01*
X131037309Y-44440255D01*
X130953995Y-44640897D01*
X130953805Y-44858149D01*
X123746049Y-44858149D01*
X123746195Y-44691851D01*
X123663231Y-44491063D01*
X123509745Y-44337309D01*
X123309103Y-44253995D01*
X123091851Y-44253805D01*
X122891063Y-44336769D01*
X122737309Y-44490255D01*
X122653995Y-44690897D01*
X122653805Y-44908149D01*
X121723978Y-44908149D01*
X122016888Y-44202744D01*
X122016893Y-44196604D01*
X164981891Y-44196604D01*
X165516270Y-45489901D01*
X166504895Y-46480253D01*
X167797256Y-47016888D01*
X169196604Y-47018109D01*
X170489901Y-46483730D01*
X171480253Y-45495105D01*
X172016888Y-44202744D01*
X172018109Y-42803396D01*
X171483730Y-41510099D01*
X170495105Y-40519747D01*
X169202744Y-39983112D01*
X167803396Y-39981891D01*
X166510099Y-40516270D01*
X165519747Y-41504895D01*
X164983112Y-42797256D01*
X164981891Y-44196604D01*
X122016893Y-44196604D01*
X122018104Y-42808149D01*
X133353805Y-42808149D01*
X133433169Y-43000225D01*
X133353995Y-43190897D01*
X133353805Y-43408149D01*
X133436769Y-43608937D01*
X133590255Y-43762691D01*
X133790897Y-43846005D01*
X134008149Y-43846195D01*
X134208937Y-43763231D01*
X134362691Y-43609745D01*
X134363353Y-43608149D01*
X142553805Y-43608149D01*
X142636769Y-43808937D01*
X142790255Y-43962691D01*
X142990897Y-44046005D01*
X143208149Y-44046195D01*
X143408937Y-43963231D01*
X143562691Y-43809745D01*
X143646005Y-43609103D01*
X143646195Y-43391851D01*
X143563231Y-43191063D01*
X143409745Y-43037309D01*
X143209103Y-42953995D01*
X142991851Y-42953805D01*
X142791063Y-43036769D01*
X142637309Y-43190255D01*
X142553995Y-43390897D01*
X142553805Y-43608149D01*
X134363353Y-43608149D01*
X134446005Y-43409103D01*
X134446195Y-43191851D01*
X134366831Y-42999775D01*
X134446005Y-42809103D01*
X134446195Y-42591851D01*
X134363231Y-42391063D01*
X134209745Y-42237309D01*
X134139521Y-42208149D01*
X156553805Y-42208149D01*
X156636769Y-42408937D01*
X156790255Y-42562691D01*
X156990897Y-42646005D01*
X157208149Y-42646195D01*
X157408937Y-42563231D01*
X157562691Y-42409745D01*
X157646005Y-42209103D01*
X157646195Y-41991851D01*
X157563231Y-41791063D01*
X157409745Y-41637309D01*
X157209103Y-41553995D01*
X156991851Y-41553805D01*
X156791063Y-41636769D01*
X156637309Y-41790255D01*
X156553995Y-41990897D01*
X156553805Y-42208149D01*
X134139521Y-42208149D01*
X134009103Y-42153995D01*
X133791851Y-42153805D01*
X133591063Y-42236769D01*
X133437309Y-42390255D01*
X133353995Y-42590897D01*
X133353805Y-42808149D01*
X122018104Y-42808149D01*
X122018109Y-42803396D01*
X121834137Y-42358149D01*
X130203805Y-42358149D01*
X130286769Y-42558937D01*
X130440255Y-42712691D01*
X130640897Y-42796005D01*
X130858149Y-42796195D01*
X131058937Y-42713231D01*
X131212691Y-42559745D01*
X131296005Y-42359103D01*
X131296195Y-42141851D01*
X131213231Y-41941063D01*
X131059745Y-41787309D01*
X130859103Y-41703995D01*
X130641851Y-41703805D01*
X130441063Y-41786769D01*
X130287309Y-41940255D01*
X130203995Y-42140897D01*
X130203805Y-42358149D01*
X121834137Y-42358149D01*
X121483730Y-41510099D01*
X120783005Y-40808149D01*
X134353805Y-40808149D01*
X134436769Y-41008937D01*
X134590255Y-41162691D01*
X134790897Y-41246005D01*
X135008149Y-41246195D01*
X135208937Y-41163231D01*
X135362691Y-41009745D01*
X135399989Y-40919922D01*
X135436769Y-41008937D01*
X135590255Y-41162691D01*
X135790897Y-41246005D01*
X136008149Y-41246195D01*
X136208937Y-41163231D01*
X136362691Y-41009745D01*
X136446005Y-40809103D01*
X136446195Y-40591851D01*
X136363231Y-40391063D01*
X136209745Y-40237309D01*
X136009103Y-40153995D01*
X135791851Y-40153805D01*
X135591063Y-40236769D01*
X135437309Y-40390255D01*
X135400011Y-40480078D01*
X135363231Y-40391063D01*
X135209745Y-40237309D01*
X135009103Y-40153995D01*
X134791851Y-40153805D01*
X134591063Y-40236769D01*
X134437309Y-40390255D01*
X134353995Y-40590897D01*
X134353805Y-40808149D01*
X120783005Y-40808149D01*
X120495105Y-40519747D01*
X119202744Y-39983112D01*
X117803396Y-39981891D01*
X116510099Y-40516270D01*
X115519747Y-41504895D01*
X114983112Y-42797256D01*
X114981891Y-44196604D01*
X113830200Y-44196604D01*
X113830200Y-43532521D01*
X114191643Y-41715420D01*
X115202528Y-40202526D01*
X116715422Y-39191643D01*
X118532521Y-38830200D01*
X155006961Y-38830200D01*
X154991063Y-38836769D01*
X154991063Y-38836769D01*
G37*
X154991063Y-38836769D02*
X154837309Y-38990255D01*
X154753995Y-39190897D01*
X154753805Y-39408149D01*
X154836769Y-39608937D01*
X154990255Y-39762691D01*
X155190897Y-39846005D01*
X155408149Y-39846195D01*
X155608937Y-39763231D01*
X155700024Y-39672303D01*
X155790255Y-39762691D01*
X155990897Y-39846005D01*
X156208149Y-39846195D01*
X156408937Y-39763231D01*
X156500024Y-39672303D01*
X156590255Y-39762691D01*
X156790897Y-39846005D01*
X157008149Y-39846195D01*
X157208937Y-39763231D01*
X157362691Y-39609745D01*
X157446005Y-39409103D01*
X157446195Y-39191851D01*
X157363231Y-38991063D01*
X157209745Y-38837309D01*
X157192625Y-38830200D01*
X168467479Y-38830200D01*
X170284580Y-39191643D01*
X171797474Y-40202528D01*
X172808357Y-41715422D01*
X173169800Y-43532521D01*
X173169800Y-83467479D01*
X172808357Y-85284578D01*
X171797474Y-86797472D01*
X170284580Y-87808357D01*
X168467479Y-88169800D01*
X118532521Y-88169800D01*
X116715422Y-87808357D01*
X115202528Y-86797474D01*
X114191643Y-85284580D01*
X113975232Y-84196604D01*
X114981891Y-84196604D01*
X115516270Y-85489901D01*
X116504895Y-86480253D01*
X117797256Y-87016888D01*
X119196604Y-87018109D01*
X120489901Y-86483730D01*
X121480253Y-85495105D01*
X121626511Y-85142875D01*
X123332500Y-85142875D01*
X123332500Y-85913155D01*
X123380837Y-86029850D01*
X123470151Y-86119164D01*
X123586846Y-86167500D01*
X124357125Y-86167500D01*
X124436500Y-86088125D01*
X124436500Y-85063500D01*
X124563500Y-85063500D01*
X124563500Y-86088125D01*
X124642875Y-86167500D01*
X125413154Y-86167500D01*
X125529849Y-86119164D01*
X125619163Y-86029850D01*
X125667500Y-85913155D01*
X125667500Y-85142875D01*
X125588125Y-85063500D01*
X124563500Y-85063500D01*
X124436500Y-85063500D01*
X123411875Y-85063500D01*
X123332500Y-85142875D01*
X121626511Y-85142875D01*
X121695335Y-84977127D01*
X125872500Y-84977127D01*
X125872500Y-85022873D01*
X125961371Y-85469656D01*
X126214453Y-85848420D01*
X126593217Y-86101502D01*
X127040000Y-86190373D01*
X127486783Y-86101502D01*
X127865547Y-85848420D01*
X128118629Y-85469656D01*
X128207500Y-85022873D01*
X128207500Y-84977127D01*
X128412500Y-84977127D01*
X128412500Y-85022873D01*
X128501371Y-85469656D01*
X128754453Y-85848420D01*
X129133217Y-86101502D01*
X129580000Y-86190373D01*
X130026783Y-86101502D01*
X130405547Y-85848420D01*
X130658629Y-85469656D01*
X130747500Y-85022873D01*
X130747500Y-84977127D01*
X130952500Y-84977127D01*
X130952500Y-85022873D01*
X131041371Y-85469656D01*
X131294453Y-85848420D01*
X131673217Y-86101502D01*
X132120000Y-86190373D01*
X132566783Y-86101502D01*
X132945547Y-85848420D01*
X133198629Y-85469656D01*
X133287500Y-85022873D01*
X133287500Y-84977127D01*
X133492500Y-84977127D01*
X133492500Y-85022873D01*
X133581371Y-85469656D01*
X133834453Y-85848420D01*
X134213217Y-86101502D01*
X134660000Y-86190373D01*
X135106783Y-86101502D01*
X135485547Y-85848420D01*
X135738629Y-85469656D01*
X135827500Y-85022873D01*
X135827500Y-84977127D01*
X136032500Y-84977127D01*
X136032500Y-85022873D01*
X136121371Y-85469656D01*
X136374453Y-85848420D01*
X136753217Y-86101502D01*
X137200000Y-86190373D01*
X137646783Y-86101502D01*
X138025547Y-85848420D01*
X138278629Y-85469656D01*
X138343630Y-85142875D01*
X140332500Y-85142875D01*
X140332500Y-85913155D01*
X140380837Y-86029850D01*
X140470151Y-86119164D01*
X140586846Y-86167500D01*
X141357125Y-86167500D01*
X141436500Y-86088125D01*
X141436500Y-85063500D01*
X141563500Y-85063500D01*
X141563500Y-86088125D01*
X141642875Y-86167500D01*
X142413154Y-86167500D01*
X142529849Y-86119164D01*
X142619163Y-86029850D01*
X142667500Y-85913155D01*
X142667500Y-85142875D01*
X142588125Y-85063500D01*
X141563500Y-85063500D01*
X141436500Y-85063500D01*
X140411875Y-85063500D01*
X140332500Y-85142875D01*
X138343630Y-85142875D01*
X138367500Y-85022873D01*
X138367500Y-84977127D01*
X142872500Y-84977127D01*
X142872500Y-85022873D01*
X142961371Y-85469656D01*
X143214453Y-85848420D01*
X143593217Y-86101502D01*
X144040000Y-86190373D01*
X144486783Y-86101502D01*
X144865547Y-85848420D01*
X145118629Y-85469656D01*
X145207500Y-85022873D01*
X145207500Y-84977127D01*
X145412500Y-84977127D01*
X145412500Y-85022873D01*
X145501371Y-85469656D01*
X145754453Y-85848420D01*
X146133217Y-86101502D01*
X146580000Y-86190373D01*
X147026783Y-86101502D01*
X147405547Y-85848420D01*
X147658629Y-85469656D01*
X147747500Y-85022873D01*
X147747500Y-84977127D01*
X147658629Y-84530344D01*
X147435632Y-84196604D01*
X164981891Y-84196604D01*
X165516270Y-85489901D01*
X166504895Y-86480253D01*
X167797256Y-87016888D01*
X169196604Y-87018109D01*
X170489901Y-86483730D01*
X171480253Y-85495105D01*
X172016888Y-84202744D01*
X172018109Y-82803396D01*
X171483730Y-81510099D01*
X170495105Y-80519747D01*
X169202744Y-79983112D01*
X167803396Y-79981891D01*
X166510099Y-80516270D01*
X165519747Y-81504895D01*
X164983112Y-82797256D01*
X164981891Y-84196604D01*
X147435632Y-84196604D01*
X147405547Y-84151580D01*
X147026783Y-83898498D01*
X146580000Y-83809627D01*
X146133217Y-83898498D01*
X145754453Y-84151580D01*
X145501371Y-84530344D01*
X145412500Y-84977127D01*
X145207500Y-84977127D01*
X145118629Y-84530344D01*
X144865547Y-84151580D01*
X144486783Y-83898498D01*
X144040000Y-83809627D01*
X143593217Y-83898498D01*
X143214453Y-84151580D01*
X142961371Y-84530344D01*
X142872500Y-84977127D01*
X138367500Y-84977127D01*
X138278629Y-84530344D01*
X138025547Y-84151580D01*
X137928665Y-84086845D01*
X140332500Y-84086845D01*
X140332500Y-84857125D01*
X140411875Y-84936500D01*
X141436500Y-84936500D01*
X141436500Y-83911875D01*
X141563500Y-83911875D01*
X141563500Y-84936500D01*
X142588125Y-84936500D01*
X142667500Y-84857125D01*
X142667500Y-84086845D01*
X142619163Y-83970150D01*
X142529849Y-83880836D01*
X142413154Y-83832500D01*
X141642875Y-83832500D01*
X141563500Y-83911875D01*
X141436500Y-83911875D01*
X141357125Y-83832500D01*
X140586846Y-83832500D01*
X140470151Y-83880836D01*
X140380837Y-83970150D01*
X140332500Y-84086845D01*
X137928665Y-84086845D01*
X137646783Y-83898498D01*
X137200000Y-83809627D01*
X136753217Y-83898498D01*
X136374453Y-84151580D01*
X136121371Y-84530344D01*
X136032500Y-84977127D01*
X135827500Y-84977127D01*
X135738629Y-84530344D01*
X135485547Y-84151580D01*
X135106783Y-83898498D01*
X134660000Y-83809627D01*
X134213217Y-83898498D01*
X133834453Y-84151580D01*
X133581371Y-84530344D01*
X133492500Y-84977127D01*
X133287500Y-84977127D01*
X133198629Y-84530344D01*
X132945547Y-84151580D01*
X132566783Y-83898498D01*
X132120000Y-83809627D01*
X131673217Y-83898498D01*
X131294453Y-84151580D01*
X131041371Y-84530344D01*
X130952500Y-84977127D01*
X130747500Y-84977127D01*
X130658629Y-84530344D01*
X130405547Y-84151580D01*
X130026783Y-83898498D01*
X129580000Y-83809627D01*
X129133217Y-83898498D01*
X128754453Y-84151580D01*
X128501371Y-84530344D01*
X128412500Y-84977127D01*
X128207500Y-84977127D01*
X128118629Y-84530344D01*
X127865547Y-84151580D01*
X127486783Y-83898498D01*
X127040000Y-83809627D01*
X126593217Y-83898498D01*
X126214453Y-84151580D01*
X125961371Y-84530344D01*
X125872500Y-84977127D01*
X121695335Y-84977127D01*
X122016888Y-84202744D01*
X122016989Y-84086845D01*
X123332500Y-84086845D01*
X123332500Y-84857125D01*
X123411875Y-84936500D01*
X124436500Y-84936500D01*
X124436500Y-83911875D01*
X124563500Y-83911875D01*
X124563500Y-84936500D01*
X125588125Y-84936500D01*
X125667500Y-84857125D01*
X125667500Y-84086845D01*
X125619163Y-83970150D01*
X125529849Y-83880836D01*
X125413154Y-83832500D01*
X124642875Y-83832500D01*
X124563500Y-83911875D01*
X124436500Y-83911875D01*
X124357125Y-83832500D01*
X123586846Y-83832500D01*
X123470151Y-83880836D01*
X123380837Y-83970150D01*
X123332500Y-84086845D01*
X122016989Y-84086845D01*
X122017755Y-83208149D01*
X156753805Y-83208149D01*
X156836769Y-83408937D01*
X156990255Y-83562691D01*
X157190897Y-83646005D01*
X157408149Y-83646195D01*
X157608937Y-83563231D01*
X157762691Y-83409745D01*
X157846005Y-83209103D01*
X157846195Y-82991851D01*
X157763231Y-82791063D01*
X157609745Y-82637309D01*
X157409103Y-82553995D01*
X157191851Y-82553805D01*
X156991063Y-82636769D01*
X156837309Y-82790255D01*
X156753995Y-82990897D01*
X156753805Y-83208149D01*
X122017755Y-83208149D01*
X122018109Y-82803396D01*
X121483730Y-81510099D01*
X121082481Y-81108149D01*
X126053805Y-81108149D01*
X126136769Y-81308937D01*
X126290255Y-81462691D01*
X126490897Y-81546005D01*
X126708149Y-81546195D01*
X126908937Y-81463231D01*
X127062691Y-81309745D01*
X127146005Y-81109103D01*
X127146180Y-80908149D01*
X127253805Y-80908149D01*
X127336769Y-81108937D01*
X127490255Y-81262691D01*
X127690897Y-81346005D01*
X127908149Y-81346195D01*
X128108937Y-81263231D01*
X128262691Y-81109745D01*
X128346005Y-80909103D01*
X128346005Y-80908149D01*
X134253805Y-80908149D01*
X134336769Y-81108937D01*
X134490255Y-81262691D01*
X134690897Y-81346005D01*
X134908149Y-81346195D01*
X135108937Y-81263231D01*
X135262691Y-81109745D01*
X135346005Y-80909103D01*
X135346195Y-80691851D01*
X135263231Y-80491063D01*
X135109745Y-80337309D01*
X134909103Y-80253995D01*
X134691851Y-80253805D01*
X134491063Y-80336769D01*
X134337309Y-80490255D01*
X134253995Y-80690897D01*
X134253805Y-80908149D01*
X128346005Y-80908149D01*
X128346195Y-80691851D01*
X128263231Y-80491063D01*
X128109745Y-80337309D01*
X127909103Y-80253995D01*
X127691851Y-80253805D01*
X127491063Y-80336769D01*
X127337309Y-80490255D01*
X127253995Y-80690897D01*
X127253805Y-80908149D01*
X127146180Y-80908149D01*
X127146195Y-80891851D01*
X127063231Y-80691063D01*
X126909745Y-80537309D01*
X126709103Y-80453995D01*
X126491851Y-80453805D01*
X126291063Y-80536769D01*
X126137309Y-80690255D01*
X126053995Y-80890897D01*
X126053805Y-81108149D01*
X121082481Y-81108149D01*
X120495105Y-80519747D01*
X119503867Y-80108149D01*
X136653805Y-80108149D01*
X136736769Y-80308937D01*
X136890255Y-80462691D01*
X137090897Y-80546005D01*
X137308149Y-80546195D01*
X137508937Y-80463231D01*
X137662691Y-80309745D01*
X137746005Y-80109103D01*
X137746195Y-79891851D01*
X137663231Y-79691063D01*
X137509745Y-79537309D01*
X137309103Y-79453995D01*
X137091851Y-79453805D01*
X136891063Y-79536769D01*
X136737309Y-79690255D01*
X136653995Y-79890897D01*
X136653805Y-80108149D01*
X119503867Y-80108149D01*
X119202744Y-79983112D01*
X117803396Y-79981891D01*
X116510099Y-80516270D01*
X115519747Y-81504895D01*
X114983112Y-82797256D01*
X114981891Y-84196604D01*
X113975232Y-84196604D01*
X113830200Y-83467479D01*
X113830200Y-78608149D01*
X123703805Y-78608149D01*
X123786769Y-78808937D01*
X123940255Y-78962691D01*
X124082675Y-79021829D01*
X124053995Y-79090897D01*
X124053805Y-79308149D01*
X124136769Y-79508937D01*
X124290255Y-79662691D01*
X124490897Y-79746005D01*
X124708149Y-79746195D01*
X124908937Y-79663231D01*
X124964115Y-79608149D01*
X132353805Y-79608149D01*
X132436769Y-79808937D01*
X132590255Y-79962691D01*
X132790897Y-80046005D01*
X133008149Y-80046195D01*
X133208937Y-79963231D01*
X133362691Y-79809745D01*
X133446005Y-79609103D01*
X133446195Y-79391851D01*
X133432270Y-79358149D01*
X153703805Y-79358149D01*
X153786769Y-79558937D01*
X153940255Y-79712691D01*
X154140897Y-79796005D01*
X154358149Y-79796195D01*
X154558937Y-79713231D01*
X154664202Y-79608149D01*
X156703805Y-79608149D01*
X156786769Y-79808937D01*
X156940255Y-79962691D01*
X157140897Y-80046005D01*
X157358149Y-80046195D01*
X157558937Y-79963231D01*
X157712691Y-79809745D01*
X157796005Y-79609103D01*
X157796195Y-79391851D01*
X157713231Y-79191063D01*
X157559745Y-79037309D01*
X157359103Y-78953995D01*
X157141851Y-78953805D01*
X156941063Y-79036769D01*
X156787309Y-79190255D01*
X156703995Y-79390897D01*
X156703805Y-79608149D01*
X154664202Y-79608149D01*
X154712691Y-79559745D01*
X154796005Y-79359103D01*
X154796195Y-79141851D01*
X154713231Y-78941063D01*
X154559745Y-78787309D01*
X154359103Y-78703995D01*
X154141851Y-78703805D01*
X153941063Y-78786769D01*
X153787309Y-78940255D01*
X153703995Y-79140897D01*
X153703805Y-79358149D01*
X133432270Y-79358149D01*
X133363231Y-79191063D01*
X133209745Y-79037309D01*
X133009103Y-78953995D01*
X132791851Y-78953805D01*
X132591063Y-79036769D01*
X132437309Y-79190255D01*
X132353995Y-79390897D01*
X132353805Y-79608149D01*
X124964115Y-79608149D01*
X125062691Y-79509745D01*
X125146005Y-79309103D01*
X125146195Y-79091851D01*
X125063231Y-78891063D01*
X124909745Y-78737309D01*
X124767325Y-78678171D01*
X124796005Y-78609103D01*
X124796005Y-78608149D01*
X159703805Y-78608149D01*
X159786769Y-78808937D01*
X159940255Y-78962691D01*
X160140897Y-79046005D01*
X160358149Y-79046195D01*
X160558937Y-78963231D01*
X160712691Y-78809745D01*
X160796005Y-78609103D01*
X160796195Y-78391851D01*
X160713231Y-78191063D01*
X160559745Y-78037309D01*
X160359103Y-77953995D01*
X160141851Y-77953805D01*
X159941063Y-78036769D01*
X159787309Y-78190255D01*
X159703995Y-78390897D01*
X159703805Y-78608149D01*
X124796005Y-78608149D01*
X124796195Y-78391851D01*
X124713231Y-78191063D01*
X124630462Y-78108149D01*
X158203805Y-78108149D01*
X158286769Y-78308937D01*
X158440255Y-78462691D01*
X158640897Y-78546005D01*
X158858149Y-78546195D01*
X159058937Y-78463231D01*
X159212691Y-78309745D01*
X159296005Y-78109103D01*
X159296195Y-77891851D01*
X159213231Y-77691063D01*
X159130462Y-77608149D01*
X163703805Y-77608149D01*
X163786769Y-77808937D01*
X163940255Y-77962691D01*
X164140897Y-78046005D01*
X164358149Y-78046195D01*
X164558937Y-77963231D01*
X164712691Y-77809745D01*
X164796005Y-77609103D01*
X164796195Y-77391851D01*
X164713231Y-77191063D01*
X164559745Y-77037309D01*
X164359103Y-76953995D01*
X164141851Y-76953805D01*
X163941063Y-77036769D01*
X163787309Y-77190255D01*
X163703995Y-77390897D01*
X163703805Y-77608149D01*
X159130462Y-77608149D01*
X159059745Y-77537309D01*
X158859103Y-77453995D01*
X158641851Y-77453805D01*
X158441063Y-77536769D01*
X158287309Y-77690255D01*
X158203995Y-77890897D01*
X158203805Y-78108149D01*
X124630462Y-78108149D01*
X124559745Y-78037309D01*
X124359103Y-77953995D01*
X124141851Y-77953805D01*
X123941063Y-78036769D01*
X123787309Y-78190255D01*
X123703995Y-78390897D01*
X123703805Y-78608149D01*
X113830200Y-78608149D01*
X113830200Y-76908149D01*
X123453805Y-76908149D01*
X123536769Y-77108937D01*
X123690255Y-77262691D01*
X123890897Y-77346005D01*
X124108149Y-77346195D01*
X124308937Y-77263231D01*
X124462691Y-77109745D01*
X124546005Y-76909103D01*
X124546195Y-76691851D01*
X124511611Y-76608149D01*
X126453805Y-76608149D01*
X126536769Y-76808937D01*
X126690255Y-76962691D01*
X126829954Y-77020699D01*
X126791063Y-77036769D01*
X126637309Y-77190255D01*
X126553995Y-77390897D01*
X126553805Y-77608149D01*
X126636769Y-77808937D01*
X126790255Y-77962691D01*
X126990897Y-78046005D01*
X127208149Y-78046195D01*
X127408937Y-77963231D01*
X127562691Y-77809745D01*
X127646005Y-77609103D01*
X127646005Y-77608149D01*
X137703805Y-77608149D01*
X137786769Y-77808937D01*
X137940255Y-77962691D01*
X138140897Y-78046005D01*
X138358149Y-78046195D01*
X138558937Y-77963231D01*
X138712691Y-77809745D01*
X138796005Y-77609103D01*
X138796195Y-77391851D01*
X138713231Y-77191063D01*
X138630462Y-77108149D01*
X142453805Y-77108149D01*
X142536769Y-77308937D01*
X142690255Y-77462691D01*
X142890897Y-77546005D01*
X143108149Y-77546195D01*
X143308937Y-77463231D01*
X143462691Y-77309745D01*
X143484638Y-77256890D01*
X143590255Y-77362691D01*
X143790897Y-77446005D01*
X144008149Y-77446195D01*
X144208937Y-77363231D01*
X144362691Y-77209745D01*
X144446005Y-77009103D01*
X144446195Y-76791851D01*
X144363231Y-76591063D01*
X144209745Y-76437309D01*
X144009103Y-76353995D01*
X143791851Y-76353805D01*
X143591063Y-76436769D01*
X143437309Y-76590255D01*
X143415362Y-76643110D01*
X143309745Y-76537309D01*
X143109103Y-76453995D01*
X142891851Y-76453805D01*
X142691063Y-76536769D01*
X142537309Y-76690255D01*
X142453995Y-76890897D01*
X142453805Y-77108149D01*
X138630462Y-77108149D01*
X138559745Y-77037309D01*
X138359103Y-76953995D01*
X138141851Y-76953805D01*
X137941063Y-77036769D01*
X137787309Y-77190255D01*
X137703995Y-77390897D01*
X137703805Y-77608149D01*
X127646005Y-77608149D01*
X127646195Y-77391851D01*
X127563231Y-77191063D01*
X127480462Y-77108149D01*
X135053805Y-77108149D01*
X135136769Y-77308937D01*
X135290255Y-77462691D01*
X135490897Y-77546005D01*
X135708149Y-77546195D01*
X135908937Y-77463231D01*
X136062691Y-77309745D01*
X136146005Y-77109103D01*
X136146005Y-77108149D01*
X136453805Y-77108149D01*
X136536769Y-77308937D01*
X136690255Y-77462691D01*
X136890897Y-77546005D01*
X137108149Y-77546195D01*
X137308937Y-77463231D01*
X137462691Y-77309745D01*
X137546005Y-77109103D01*
X137546195Y-76891851D01*
X137463231Y-76691063D01*
X137309745Y-76537309D01*
X137109103Y-76453995D01*
X136891851Y-76453805D01*
X136691063Y-76536769D01*
X136537309Y-76690255D01*
X136453995Y-76890897D01*
X136453805Y-77108149D01*
X136146005Y-77108149D01*
X136146195Y-76891851D01*
X136063231Y-76691063D01*
X135909745Y-76537309D01*
X135709103Y-76453995D01*
X135491851Y-76453805D01*
X135291063Y-76536769D01*
X135137309Y-76690255D01*
X135053995Y-76890897D01*
X135053805Y-77108149D01*
X127480462Y-77108149D01*
X127409745Y-77037309D01*
X127270046Y-76979301D01*
X127308937Y-76963231D01*
X127462691Y-76809745D01*
X127546005Y-76609103D01*
X127546195Y-76391851D01*
X127463231Y-76191063D01*
X127309745Y-76037309D01*
X127109103Y-75953995D01*
X126891851Y-75953805D01*
X126691063Y-76036769D01*
X126537309Y-76190255D01*
X126453995Y-76390897D01*
X126453805Y-76608149D01*
X124511611Y-76608149D01*
X124463231Y-76491063D01*
X124309745Y-76337309D01*
X124109103Y-76253995D01*
X123891851Y-76253805D01*
X123691063Y-76336769D01*
X123537309Y-76490255D01*
X123453995Y-76690897D01*
X123453805Y-76908149D01*
X113830200Y-76908149D01*
X113830200Y-75908149D01*
X134453805Y-75908149D01*
X134536769Y-76108937D01*
X134690255Y-76262691D01*
X134890897Y-76346005D01*
X135108149Y-76346195D01*
X135308937Y-76263231D01*
X135462691Y-76109745D01*
X135546005Y-75909103D01*
X135546195Y-75691851D01*
X135463231Y-75491063D01*
X135309745Y-75337309D01*
X135109103Y-75253995D01*
X134891851Y-75253805D01*
X134691063Y-75336769D01*
X134537309Y-75490255D01*
X134453995Y-75690897D01*
X134453805Y-75908149D01*
X113830200Y-75908149D01*
X113830200Y-74508149D01*
X129253805Y-74508149D01*
X129336769Y-74708937D01*
X129490255Y-74862691D01*
X129690897Y-74946005D01*
X129908149Y-74946195D01*
X130000227Y-74908149D01*
X130453805Y-74908149D01*
X130536769Y-75108937D01*
X130690255Y-75262691D01*
X130890897Y-75346005D01*
X131108149Y-75346195D01*
X131308937Y-75263231D01*
X131462691Y-75109745D01*
X131504877Y-75008149D01*
X166753805Y-75008149D01*
X166836769Y-75208937D01*
X166990255Y-75362691D01*
X167190897Y-75446005D01*
X167408149Y-75446195D01*
X167608937Y-75363231D01*
X167762691Y-75209745D01*
X167846005Y-75009103D01*
X167846195Y-74791851D01*
X167763231Y-74591063D01*
X167609745Y-74437309D01*
X167409103Y-74353995D01*
X167191851Y-74353805D01*
X166991063Y-74436769D01*
X166837309Y-74590255D01*
X166753995Y-74790897D01*
X166753805Y-75008149D01*
X131504877Y-75008149D01*
X131546005Y-74909103D01*
X131546195Y-74691851D01*
X131470291Y-74508149D01*
X133853805Y-74508149D01*
X133936769Y-74708937D01*
X134090255Y-74862691D01*
X134290897Y-74946005D01*
X134508149Y-74946195D01*
X134708937Y-74863231D01*
X134862691Y-74709745D01*
X134946005Y-74509103D01*
X134946093Y-74408149D01*
X151353805Y-74408149D01*
X151436769Y-74608937D01*
X151590255Y-74762691D01*
X151790897Y-74846005D01*
X152008149Y-74846195D01*
X152208937Y-74763231D01*
X152362691Y-74609745D01*
X152446005Y-74409103D01*
X152446195Y-74191851D01*
X152363231Y-73991063D01*
X152209745Y-73837309D01*
X152009103Y-73753995D01*
X151791851Y-73753805D01*
X151591063Y-73836769D01*
X151437309Y-73990255D01*
X151353995Y-74190897D01*
X151353805Y-74408149D01*
X134946093Y-74408149D01*
X134946195Y-74291851D01*
X134863231Y-74091063D01*
X134709745Y-73937309D01*
X134509103Y-73853995D01*
X134291851Y-73853805D01*
X134091063Y-73936769D01*
X133937309Y-74090255D01*
X133853995Y-74290897D01*
X133853805Y-74508149D01*
X131470291Y-74508149D01*
X131463231Y-74491063D01*
X131309745Y-74337309D01*
X131109103Y-74253995D01*
X130891851Y-74253805D01*
X130691063Y-74336769D01*
X130537309Y-74490255D01*
X130453995Y-74690897D01*
X130453805Y-74908149D01*
X130000227Y-74908149D01*
X130108937Y-74863231D01*
X130262691Y-74709745D01*
X130346005Y-74509103D01*
X130346195Y-74291851D01*
X130263231Y-74091063D01*
X130109745Y-73937309D01*
X129909103Y-73853995D01*
X129691851Y-73853805D01*
X129491063Y-73936769D01*
X129337309Y-74090255D01*
X129253995Y-74290897D01*
X129253805Y-74508149D01*
X113830200Y-74508149D01*
X113830200Y-73200000D01*
X115809627Y-73200000D01*
X115898498Y-73646783D01*
X116151580Y-74025547D01*
X116530344Y-74278629D01*
X116977127Y-74367500D01*
X117022873Y-74367500D01*
X117469656Y-74278629D01*
X117848420Y-74025547D01*
X118101502Y-73646783D01*
X118190373Y-73200000D01*
X118112429Y-72808149D01*
X128953805Y-72808149D01*
X129036769Y-73008937D01*
X129190255Y-73162691D01*
X129390897Y-73246005D01*
X129608149Y-73246195D01*
X129808937Y-73163231D01*
X129864115Y-73108149D01*
X132353805Y-73108149D01*
X132436769Y-73308937D01*
X132552610Y-73424980D01*
X132537309Y-73440255D01*
X132453995Y-73640897D01*
X132453805Y-73858149D01*
X132536769Y-74058937D01*
X132690255Y-74212691D01*
X132890897Y-74296005D01*
X133108149Y-74296195D01*
X133308937Y-74213231D01*
X133462691Y-74059745D01*
X133546005Y-73859103D01*
X133546195Y-73641851D01*
X133532270Y-73608149D01*
X147153805Y-73608149D01*
X147236769Y-73808937D01*
X147390255Y-73962691D01*
X147590897Y-74046005D01*
X147808149Y-74046195D01*
X148008937Y-73963231D01*
X148162691Y-73809745D01*
X148246005Y-73609103D01*
X148246195Y-73391851D01*
X148170291Y-73208149D01*
X154553805Y-73208149D01*
X154636769Y-73408937D01*
X154790255Y-73562691D01*
X154990897Y-73646005D01*
X155208149Y-73646195D01*
X155408937Y-73563231D01*
X155562691Y-73409745D01*
X155563353Y-73408149D01*
X159153805Y-73408149D01*
X159236769Y-73608937D01*
X159390255Y-73762691D01*
X159590897Y-73846005D01*
X159808149Y-73846195D01*
X160008937Y-73763231D01*
X160162691Y-73609745D01*
X160246005Y-73409103D01*
X160246195Y-73191851D01*
X160163231Y-72991063D01*
X160009745Y-72837309D01*
X159809103Y-72753995D01*
X159591851Y-72753805D01*
X159391063Y-72836769D01*
X159237309Y-72990255D01*
X159153995Y-73190897D01*
X159153805Y-73408149D01*
X155563353Y-73408149D01*
X155646005Y-73209103D01*
X155646195Y-72991851D01*
X155563231Y-72791063D01*
X155409745Y-72637309D01*
X155209103Y-72553995D01*
X154991851Y-72553805D01*
X154791063Y-72636769D01*
X154637309Y-72790255D01*
X154553995Y-72990897D01*
X154553805Y-73208149D01*
X148170291Y-73208149D01*
X148163231Y-73191063D01*
X148009745Y-73037309D01*
X147809103Y-72953995D01*
X147591851Y-72953805D01*
X147391063Y-73036769D01*
X147237309Y-73190255D01*
X147153995Y-73390897D01*
X147153805Y-73608149D01*
X133532270Y-73608149D01*
X133463231Y-73441063D01*
X133347390Y-73325020D01*
X133362691Y-73309745D01*
X133446005Y-73109103D01*
X133446195Y-72891851D01*
X133432270Y-72858149D01*
X140953805Y-72858149D01*
X141036769Y-73058937D01*
X141190255Y-73212691D01*
X141390897Y-73296005D01*
X141608149Y-73296195D01*
X141808937Y-73213231D01*
X141962691Y-73059745D01*
X142046005Y-72859103D01*
X142046195Y-72641851D01*
X141963231Y-72441063D01*
X141880462Y-72358149D01*
X153453805Y-72358149D01*
X153536769Y-72558937D01*
X153690255Y-72712691D01*
X153890897Y-72796005D01*
X154108149Y-72796195D01*
X154308937Y-72713231D01*
X154462691Y-72559745D01*
X154546005Y-72359103D01*
X154546137Y-72208149D01*
X155553805Y-72208149D01*
X155636769Y-72408937D01*
X155790255Y-72562691D01*
X155990897Y-72646005D01*
X156208149Y-72646195D01*
X156408937Y-72563231D01*
X156562691Y-72409745D01*
X156646005Y-72209103D01*
X156646005Y-72208149D01*
X157153805Y-72208149D01*
X157236769Y-72408937D01*
X157390255Y-72562691D01*
X157590897Y-72646005D01*
X157808149Y-72646195D01*
X158008937Y-72563231D01*
X158162691Y-72409745D01*
X158246005Y-72209103D01*
X158246195Y-71991851D01*
X158163231Y-71791063D01*
X158009745Y-71637309D01*
X157809103Y-71553995D01*
X157591851Y-71553805D01*
X157391063Y-71636769D01*
X157237309Y-71790255D01*
X157153995Y-71990897D01*
X157153805Y-72208149D01*
X156646005Y-72208149D01*
X156646195Y-71991851D01*
X156563231Y-71791063D01*
X156409745Y-71637309D01*
X156209103Y-71553995D01*
X155991851Y-71553805D01*
X155791063Y-71636769D01*
X155637309Y-71790255D01*
X155553995Y-71990897D01*
X155553805Y-72208149D01*
X154546137Y-72208149D01*
X154546195Y-72141851D01*
X154463231Y-71941063D01*
X154309745Y-71787309D01*
X154109103Y-71703995D01*
X153891851Y-71703805D01*
X153691063Y-71786769D01*
X153537309Y-71940255D01*
X153453995Y-72140897D01*
X153453805Y-72358149D01*
X141880462Y-72358149D01*
X141809745Y-72287309D01*
X141609103Y-72203995D01*
X141391851Y-72203805D01*
X141191063Y-72286769D01*
X141037309Y-72440255D01*
X140953995Y-72640897D01*
X140953805Y-72858149D01*
X133432270Y-72858149D01*
X133363231Y-72691063D01*
X133209745Y-72537309D01*
X133009103Y-72453995D01*
X132791851Y-72453805D01*
X132591063Y-72536769D01*
X132437309Y-72690255D01*
X132353995Y-72890897D01*
X132353805Y-73108149D01*
X129864115Y-73108149D01*
X129962691Y-73009745D01*
X130046005Y-72809103D01*
X130046195Y-72591851D01*
X129963231Y-72391063D01*
X129809745Y-72237309D01*
X129609103Y-72153995D01*
X129391851Y-72153805D01*
X129191063Y-72236769D01*
X129037309Y-72390255D01*
X128953995Y-72590897D01*
X128953805Y-72808149D01*
X118112429Y-72808149D01*
X118101502Y-72753217D01*
X117848420Y-72374453D01*
X117469656Y-72121371D01*
X117022873Y-72032500D01*
X116977127Y-72032500D01*
X116530344Y-72121371D01*
X116151580Y-72374453D01*
X115898498Y-72753217D01*
X115809627Y-73200000D01*
X113830200Y-73200000D01*
X113830200Y-70660000D01*
X115809627Y-70660000D01*
X115898498Y-71106783D01*
X116151580Y-71485547D01*
X116530344Y-71738629D01*
X116977127Y-71827500D01*
X117022873Y-71827500D01*
X117469656Y-71738629D01*
X117848420Y-71485547D01*
X118101502Y-71106783D01*
X118135701Y-70934852D01*
X129654951Y-70934852D01*
X129680300Y-71048061D01*
X129914370Y-71128687D01*
X130161476Y-71113600D01*
X130319700Y-71048061D01*
X130345049Y-70934852D01*
X131154951Y-70934852D01*
X131180300Y-71048061D01*
X131414370Y-71128687D01*
X131661476Y-71113600D01*
X131819700Y-71048061D01*
X131845049Y-70934852D01*
X132654951Y-70934852D01*
X132680300Y-71048061D01*
X132914370Y-71128687D01*
X133161476Y-71113600D01*
X133319700Y-71048061D01*
X133345049Y-70934852D01*
X133000000Y-70589803D01*
X132654951Y-70934852D01*
X131845049Y-70934852D01*
X131500000Y-70589803D01*
X131154951Y-70934852D01*
X130345049Y-70934852D01*
X130000000Y-70589803D01*
X129654951Y-70934852D01*
X118135701Y-70934852D01*
X118190373Y-70660000D01*
X118141514Y-70414370D01*
X129371313Y-70414370D01*
X129386400Y-70661476D01*
X129451939Y-70819700D01*
X129565148Y-70845049D01*
X129910197Y-70500000D01*
X130089803Y-70500000D01*
X130434852Y-70845049D01*
X130548061Y-70819700D01*
X130628687Y-70585630D01*
X130618231Y-70414370D01*
X130871313Y-70414370D01*
X130886400Y-70661476D01*
X130951939Y-70819700D01*
X131065148Y-70845049D01*
X131410197Y-70500000D01*
X131589803Y-70500000D01*
X131934852Y-70845049D01*
X132048061Y-70819700D01*
X132128687Y-70585630D01*
X132118231Y-70414370D01*
X132371313Y-70414370D01*
X132386400Y-70661476D01*
X132451939Y-70819700D01*
X132565148Y-70845049D01*
X132910197Y-70500000D01*
X133089803Y-70500000D01*
X133434852Y-70845049D01*
X133548061Y-70819700D01*
X133628687Y-70585630D01*
X133613600Y-70338524D01*
X133548061Y-70180300D01*
X133434852Y-70154951D01*
X133089803Y-70500000D01*
X132910197Y-70500000D01*
X132565148Y-70154951D01*
X132451939Y-70180300D01*
X132371313Y-70414370D01*
X132118231Y-70414370D01*
X132113600Y-70338524D01*
X132048061Y-70180300D01*
X131934852Y-70154951D01*
X131589803Y-70500000D01*
X131410197Y-70500000D01*
X131065148Y-70154951D01*
X130951939Y-70180300D01*
X130871313Y-70414370D01*
X130618231Y-70414370D01*
X130613600Y-70338524D01*
X130548061Y-70180300D01*
X130434852Y-70154951D01*
X130089803Y-70500000D01*
X129910197Y-70500000D01*
X129565148Y-70154951D01*
X129451939Y-70180300D01*
X129371313Y-70414370D01*
X118141514Y-70414370D01*
X118101502Y-70213217D01*
X118002566Y-70065148D01*
X129654951Y-70065148D01*
X130000000Y-70410197D01*
X130345049Y-70065148D01*
X131154951Y-70065148D01*
X131500000Y-70410197D01*
X131845049Y-70065148D01*
X132654951Y-70065148D01*
X133000000Y-70410197D01*
X133345049Y-70065148D01*
X133319700Y-69951939D01*
X133085630Y-69871313D01*
X132838524Y-69886400D01*
X132680300Y-69951939D01*
X132654951Y-70065148D01*
X131845049Y-70065148D01*
X131819700Y-69951939D01*
X131585630Y-69871313D01*
X131338524Y-69886400D01*
X131180300Y-69951939D01*
X131154951Y-70065148D01*
X130345049Y-70065148D01*
X130319700Y-69951939D01*
X130085630Y-69871313D01*
X129838524Y-69886400D01*
X129680300Y-69951939D01*
X129654951Y-70065148D01*
X118002566Y-70065148D01*
X117848420Y-69834453D01*
X117469656Y-69581371D01*
X117101546Y-69508149D01*
X126253805Y-69508149D01*
X126336769Y-69708937D01*
X126490255Y-69862691D01*
X126690897Y-69946005D01*
X126908149Y-69946195D01*
X127108937Y-69863231D01*
X127150024Y-69822215D01*
X127290255Y-69962691D01*
X127490897Y-70046005D01*
X127708149Y-70046195D01*
X127908937Y-69963231D01*
X128062691Y-69809745D01*
X128084115Y-69758149D01*
X134753805Y-69758149D01*
X134836769Y-69958937D01*
X134952610Y-70074980D01*
X134937309Y-70090255D01*
X134853995Y-70290897D01*
X134853805Y-70508149D01*
X134936769Y-70708937D01*
X135090255Y-70862691D01*
X135154611Y-70889414D01*
X135153995Y-70890897D01*
X135153805Y-71108149D01*
X135236769Y-71308937D01*
X135390255Y-71462691D01*
X135590897Y-71546005D01*
X135808149Y-71546195D01*
X136008937Y-71463231D01*
X136162691Y-71309745D01*
X136246005Y-71109103D01*
X136246195Y-70891851D01*
X136163231Y-70691063D01*
X136009745Y-70537309D01*
X135945389Y-70510586D01*
X135946005Y-70509103D01*
X135946195Y-70291851D01*
X135894365Y-70166412D01*
X155423390Y-70166412D01*
X155445603Y-70277000D01*
X155670448Y-70353373D01*
X155907403Y-70337887D01*
X156054397Y-70277000D01*
X156076610Y-70166412D01*
X156923390Y-70166412D01*
X156945603Y-70277000D01*
X157170448Y-70353373D01*
X157407403Y-70337887D01*
X157554397Y-70277000D01*
X157576610Y-70166412D01*
X158423390Y-70166412D01*
X158445603Y-70277000D01*
X158670448Y-70353373D01*
X158907403Y-70337887D01*
X159054397Y-70277000D01*
X159076610Y-70166412D01*
X158750000Y-69839803D01*
X158423390Y-70166412D01*
X157576610Y-70166412D01*
X157250000Y-69839803D01*
X156923390Y-70166412D01*
X156076610Y-70166412D01*
X155750000Y-69839803D01*
X155423390Y-70166412D01*
X135894365Y-70166412D01*
X135863231Y-70091063D01*
X135747390Y-69975020D01*
X135762691Y-69959745D01*
X135846005Y-69759103D01*
X135846082Y-69670448D01*
X155146627Y-69670448D01*
X155162113Y-69907403D01*
X155223000Y-70054397D01*
X155333588Y-70076610D01*
X155660197Y-69750000D01*
X155839803Y-69750000D01*
X156166412Y-70076610D01*
X156277000Y-70054397D01*
X156353373Y-69829552D01*
X156342975Y-69670448D01*
X156646627Y-69670448D01*
X156662113Y-69907403D01*
X156723000Y-70054397D01*
X156833588Y-70076610D01*
X157160197Y-69750000D01*
X157339803Y-69750000D01*
X157666412Y-70076610D01*
X157777000Y-70054397D01*
X157853373Y-69829552D01*
X157842975Y-69670448D01*
X158146627Y-69670448D01*
X158162113Y-69907403D01*
X158223000Y-70054397D01*
X158333588Y-70076610D01*
X158660197Y-69750000D01*
X158839803Y-69750000D01*
X159166412Y-70076610D01*
X159277000Y-70054397D01*
X159353373Y-69829552D01*
X159337887Y-69592597D01*
X159277000Y-69445603D01*
X159166412Y-69423390D01*
X158839803Y-69750000D01*
X158660197Y-69750000D01*
X158333588Y-69423390D01*
X158223000Y-69445603D01*
X158146627Y-69670448D01*
X157842975Y-69670448D01*
X157837887Y-69592597D01*
X157777000Y-69445603D01*
X157666412Y-69423390D01*
X157339803Y-69750000D01*
X157160197Y-69750000D01*
X156833588Y-69423390D01*
X156723000Y-69445603D01*
X156646627Y-69670448D01*
X156342975Y-69670448D01*
X156337887Y-69592597D01*
X156277000Y-69445603D01*
X156166412Y-69423390D01*
X155839803Y-69750000D01*
X155660197Y-69750000D01*
X155333588Y-69423390D01*
X155223000Y-69445603D01*
X155146627Y-69670448D01*
X135846082Y-69670448D01*
X135846195Y-69541851D01*
X135763231Y-69341063D01*
X135755770Y-69333588D01*
X155423390Y-69333588D01*
X155750000Y-69660197D01*
X156076610Y-69333588D01*
X156923390Y-69333588D01*
X157250000Y-69660197D01*
X157576610Y-69333588D01*
X158423390Y-69333588D01*
X158750000Y-69660197D01*
X159076610Y-69333588D01*
X159054397Y-69223000D01*
X158829552Y-69146627D01*
X158592597Y-69162113D01*
X158445603Y-69223000D01*
X158423390Y-69333588D01*
X157576610Y-69333588D01*
X157554397Y-69223000D01*
X157329552Y-69146627D01*
X157092597Y-69162113D01*
X156945603Y-69223000D01*
X156923390Y-69333588D01*
X156076610Y-69333588D01*
X156054397Y-69223000D01*
X155829552Y-69146627D01*
X155592597Y-69162113D01*
X155445603Y-69223000D01*
X155423390Y-69333588D01*
X135755770Y-69333588D01*
X135609745Y-69187309D01*
X135409103Y-69103995D01*
X135191851Y-69103805D01*
X134991063Y-69186769D01*
X134837309Y-69340255D01*
X134753995Y-69540897D01*
X134753805Y-69758149D01*
X128084115Y-69758149D01*
X128146005Y-69609103D01*
X128146157Y-69434852D01*
X129654951Y-69434852D01*
X129680300Y-69548061D01*
X129914370Y-69628687D01*
X130161476Y-69613600D01*
X130319700Y-69548061D01*
X130345049Y-69434852D01*
X131154951Y-69434852D01*
X131180300Y-69548061D01*
X131414370Y-69628687D01*
X131661476Y-69613600D01*
X131819700Y-69548061D01*
X131845049Y-69434852D01*
X132654951Y-69434852D01*
X132680300Y-69548061D01*
X132914370Y-69628687D01*
X133161476Y-69613600D01*
X133319700Y-69548061D01*
X133345049Y-69434852D01*
X133000000Y-69089803D01*
X132654951Y-69434852D01*
X131845049Y-69434852D01*
X131500000Y-69089803D01*
X131154951Y-69434852D01*
X130345049Y-69434852D01*
X130000000Y-69089803D01*
X129654951Y-69434852D01*
X128146157Y-69434852D01*
X128146195Y-69391851D01*
X128063231Y-69191063D01*
X127909745Y-69037309D01*
X127709103Y-68953995D01*
X127491851Y-68953805D01*
X127291063Y-69036769D01*
X127249976Y-69077785D01*
X127109745Y-68937309D01*
X127054502Y-68914370D01*
X129371313Y-68914370D01*
X129386400Y-69161476D01*
X129451939Y-69319700D01*
X129565148Y-69345049D01*
X129910197Y-69000000D01*
X130089803Y-69000000D01*
X130434852Y-69345049D01*
X130548061Y-69319700D01*
X130628687Y-69085630D01*
X130618231Y-68914370D01*
X130871313Y-68914370D01*
X130886400Y-69161476D01*
X130951939Y-69319700D01*
X131065148Y-69345049D01*
X131410197Y-69000000D01*
X131589803Y-69000000D01*
X131934852Y-69345049D01*
X132048061Y-69319700D01*
X132128687Y-69085630D01*
X132118231Y-68914370D01*
X132371313Y-68914370D01*
X132386400Y-69161476D01*
X132451939Y-69319700D01*
X132565148Y-69345049D01*
X132910197Y-69000000D01*
X133089803Y-69000000D01*
X133434852Y-69345049D01*
X133548061Y-69319700D01*
X133628687Y-69085630D01*
X133613600Y-68838524D01*
X133548061Y-68680300D01*
X133486037Y-68666412D01*
X155423390Y-68666412D01*
X155445603Y-68777000D01*
X155670448Y-68853373D01*
X155907403Y-68837887D01*
X156054397Y-68777000D01*
X156076610Y-68666412D01*
X156923390Y-68666412D01*
X156945603Y-68777000D01*
X157170448Y-68853373D01*
X157407403Y-68837887D01*
X157554397Y-68777000D01*
X157576610Y-68666412D01*
X158423390Y-68666412D01*
X158445603Y-68777000D01*
X158670448Y-68853373D01*
X158907403Y-68837887D01*
X159054397Y-68777000D01*
X159076610Y-68666412D01*
X158750000Y-68339803D01*
X158423390Y-68666412D01*
X157576610Y-68666412D01*
X157250000Y-68339803D01*
X156923390Y-68666412D01*
X156076610Y-68666412D01*
X155750000Y-68339803D01*
X155423390Y-68666412D01*
X133486037Y-68666412D01*
X133434852Y-68654951D01*
X133089803Y-69000000D01*
X132910197Y-69000000D01*
X132565148Y-68654951D01*
X132451939Y-68680300D01*
X132371313Y-68914370D01*
X132118231Y-68914370D01*
X132113600Y-68838524D01*
X132048061Y-68680300D01*
X131934852Y-68654951D01*
X131589803Y-69000000D01*
X131410197Y-69000000D01*
X131065148Y-68654951D01*
X130951939Y-68680300D01*
X130871313Y-68914370D01*
X130618231Y-68914370D01*
X130613600Y-68838524D01*
X130548061Y-68680300D01*
X130434852Y-68654951D01*
X130089803Y-69000000D01*
X129910197Y-69000000D01*
X129565148Y-68654951D01*
X129451939Y-68680300D01*
X129371313Y-68914370D01*
X127054502Y-68914370D01*
X126909103Y-68853995D01*
X126691851Y-68853805D01*
X126491063Y-68936769D01*
X126337309Y-69090255D01*
X126253995Y-69290897D01*
X126253805Y-69508149D01*
X117101546Y-69508149D01*
X117022873Y-69492500D01*
X116977127Y-69492500D01*
X116530344Y-69581371D01*
X116151580Y-69834453D01*
X115898498Y-70213217D01*
X115809627Y-70660000D01*
X113830200Y-70660000D01*
X113830200Y-68120000D01*
X115809627Y-68120000D01*
X115898498Y-68566783D01*
X116151580Y-68945547D01*
X116530344Y-69198629D01*
X116977127Y-69287500D01*
X117022873Y-69287500D01*
X117469656Y-69198629D01*
X117848420Y-68945547D01*
X118101502Y-68566783D01*
X118101827Y-68565148D01*
X129654951Y-68565148D01*
X130000000Y-68910197D01*
X130345049Y-68565148D01*
X131154951Y-68565148D01*
X131500000Y-68910197D01*
X131845049Y-68565148D01*
X132654951Y-68565148D01*
X133000000Y-68910197D01*
X133345049Y-68565148D01*
X133319700Y-68451939D01*
X133085630Y-68371313D01*
X132838524Y-68386400D01*
X132680300Y-68451939D01*
X132654951Y-68565148D01*
X131845049Y-68565148D01*
X131819700Y-68451939D01*
X131585630Y-68371313D01*
X131338524Y-68386400D01*
X131180300Y-68451939D01*
X131154951Y-68565148D01*
X130345049Y-68565148D01*
X130319700Y-68451939D01*
X130085630Y-68371313D01*
X129838524Y-68386400D01*
X129680300Y-68451939D01*
X129654951Y-68565148D01*
X118101827Y-68565148D01*
X118190373Y-68120000D01*
X118101502Y-67673217D01*
X118058025Y-67608149D01*
X127153805Y-67608149D01*
X127236769Y-67808937D01*
X127390255Y-67962691D01*
X127590897Y-68046005D01*
X127808149Y-68046195D01*
X128008937Y-67963231D01*
X128037365Y-67934852D01*
X129654951Y-67934852D01*
X129680300Y-68048061D01*
X129914370Y-68128687D01*
X130161476Y-68113600D01*
X130319700Y-68048061D01*
X130345049Y-67934852D01*
X131154951Y-67934852D01*
X131180300Y-68048061D01*
X131414370Y-68128687D01*
X131661476Y-68113600D01*
X131819700Y-68048061D01*
X131845049Y-67934852D01*
X132654951Y-67934852D01*
X132680300Y-68048061D01*
X132914370Y-68128687D01*
X133161476Y-68113600D01*
X133319700Y-68048061D01*
X133345049Y-67934852D01*
X133000000Y-67589803D01*
X132654951Y-67934852D01*
X131845049Y-67934852D01*
X131500000Y-67589803D01*
X131154951Y-67934852D01*
X130345049Y-67934852D01*
X130000000Y-67589803D01*
X129654951Y-67934852D01*
X128037365Y-67934852D01*
X128162691Y-67809745D01*
X128246005Y-67609103D01*
X128246175Y-67414370D01*
X129371313Y-67414370D01*
X129386400Y-67661476D01*
X129451939Y-67819700D01*
X129565148Y-67845049D01*
X129910197Y-67500000D01*
X130089803Y-67500000D01*
X130434852Y-67845049D01*
X130548061Y-67819700D01*
X130628687Y-67585630D01*
X130618231Y-67414370D01*
X130871313Y-67414370D01*
X130886400Y-67661476D01*
X130951939Y-67819700D01*
X131065148Y-67845049D01*
X131410197Y-67500000D01*
X131589803Y-67500000D01*
X131934852Y-67845049D01*
X132048061Y-67819700D01*
X132128687Y-67585630D01*
X132118231Y-67414370D01*
X132371313Y-67414370D01*
X132386400Y-67661476D01*
X132451939Y-67819700D01*
X132565148Y-67845049D01*
X132910197Y-67500000D01*
X133089803Y-67500000D01*
X133434852Y-67845049D01*
X133548061Y-67819700D01*
X133552039Y-67808149D01*
X134653805Y-67808149D01*
X134736769Y-68008937D01*
X134890255Y-68162691D01*
X135090897Y-68246005D01*
X135308149Y-68246195D01*
X135491470Y-68170448D01*
X155146627Y-68170448D01*
X155162113Y-68407403D01*
X155223000Y-68554397D01*
X155333588Y-68576610D01*
X155660197Y-68250000D01*
X155839803Y-68250000D01*
X156166412Y-68576610D01*
X156277000Y-68554397D01*
X156353373Y-68329552D01*
X156342975Y-68170448D01*
X156646627Y-68170448D01*
X156662113Y-68407403D01*
X156723000Y-68554397D01*
X156833588Y-68576610D01*
X157160197Y-68250000D01*
X157339803Y-68250000D01*
X157666412Y-68576610D01*
X157777000Y-68554397D01*
X157853373Y-68329552D01*
X157842975Y-68170448D01*
X158146627Y-68170448D01*
X158162113Y-68407403D01*
X158223000Y-68554397D01*
X158333588Y-68576610D01*
X158660197Y-68250000D01*
X158839803Y-68250000D01*
X159166412Y-68576610D01*
X159277000Y-68554397D01*
X159314018Y-68445412D01*
X166804391Y-68445412D01*
X166851884Y-68577283D01*
X167151312Y-68688038D01*
X167470330Y-68675777D01*
X167708116Y-68577283D01*
X167755609Y-68445412D01*
X167280000Y-67969803D01*
X166804391Y-68445412D01*
X159314018Y-68445412D01*
X159353373Y-68329552D01*
X159337887Y-68092597D01*
X159277000Y-67945603D01*
X159166412Y-67923390D01*
X158839803Y-68250000D01*
X158660197Y-68250000D01*
X158333588Y-67923390D01*
X158223000Y-67945603D01*
X158146627Y-68170448D01*
X157842975Y-68170448D01*
X157837887Y-68092597D01*
X157777000Y-67945603D01*
X157666412Y-67923390D01*
X157339803Y-68250000D01*
X157160197Y-68250000D01*
X156833588Y-67923390D01*
X156723000Y-67945603D01*
X156646627Y-68170448D01*
X156342975Y-68170448D01*
X156337887Y-68092597D01*
X156277000Y-67945603D01*
X156166412Y-67923390D01*
X155839803Y-68250000D01*
X155660197Y-68250000D01*
X155333588Y-67923390D01*
X155223000Y-67945603D01*
X155146627Y-68170448D01*
X135491470Y-68170448D01*
X135508937Y-68163231D01*
X135662691Y-68009745D01*
X135735837Y-67833588D01*
X155423390Y-67833588D01*
X155750000Y-68160197D01*
X156076610Y-67833588D01*
X156923390Y-67833588D01*
X157250000Y-68160197D01*
X157576610Y-67833588D01*
X158423390Y-67833588D01*
X158750000Y-68160197D01*
X159076610Y-67833588D01*
X159060084Y-67751312D01*
X166471962Y-67751312D01*
X166484223Y-68070330D01*
X166582717Y-68308116D01*
X166714588Y-68355609D01*
X167190197Y-67880000D01*
X167369803Y-67880000D01*
X167845412Y-68355609D01*
X167977283Y-68308116D01*
X168088038Y-68008688D01*
X168075777Y-67689670D01*
X167977283Y-67451884D01*
X167845412Y-67404391D01*
X167369803Y-67880000D01*
X167190197Y-67880000D01*
X166714588Y-67404391D01*
X166582717Y-67451884D01*
X166471962Y-67751312D01*
X159060084Y-67751312D01*
X159054397Y-67723000D01*
X158829552Y-67646627D01*
X158592597Y-67662113D01*
X158445603Y-67723000D01*
X158423390Y-67833588D01*
X157576610Y-67833588D01*
X157554397Y-67723000D01*
X157329552Y-67646627D01*
X157092597Y-67662113D01*
X156945603Y-67723000D01*
X156923390Y-67833588D01*
X156076610Y-67833588D01*
X156054397Y-67723000D01*
X155829552Y-67646627D01*
X155592597Y-67662113D01*
X155445603Y-67723000D01*
X155423390Y-67833588D01*
X135735837Y-67833588D01*
X135746005Y-67809103D01*
X135746195Y-67591851D01*
X135663231Y-67391063D01*
X135509745Y-67237309D01*
X135339007Y-67166412D01*
X155423390Y-67166412D01*
X155445603Y-67277000D01*
X155670448Y-67353373D01*
X155907403Y-67337887D01*
X156054397Y-67277000D01*
X156076610Y-67166412D01*
X156923390Y-67166412D01*
X156945603Y-67277000D01*
X157170448Y-67353373D01*
X157407403Y-67337887D01*
X157554397Y-67277000D01*
X157576610Y-67166412D01*
X158423390Y-67166412D01*
X158445603Y-67277000D01*
X158670448Y-67353373D01*
X158907403Y-67337887D01*
X158963651Y-67314588D01*
X166804391Y-67314588D01*
X167280000Y-67790197D01*
X167755609Y-67314588D01*
X167708116Y-67182717D01*
X167408688Y-67071962D01*
X167089670Y-67084223D01*
X166851884Y-67182717D01*
X166804391Y-67314588D01*
X158963651Y-67314588D01*
X159054397Y-67277000D01*
X159076610Y-67166412D01*
X158750000Y-66839803D01*
X158423390Y-67166412D01*
X157576610Y-67166412D01*
X157250000Y-66839803D01*
X156923390Y-67166412D01*
X156076610Y-67166412D01*
X155750000Y-66839803D01*
X155423390Y-67166412D01*
X135339007Y-67166412D01*
X135309103Y-67153995D01*
X135091851Y-67153805D01*
X134891063Y-67236769D01*
X134737309Y-67390255D01*
X134653995Y-67590897D01*
X134653805Y-67808149D01*
X133552039Y-67808149D01*
X133628687Y-67585630D01*
X133613600Y-67338524D01*
X133548061Y-67180300D01*
X133434852Y-67154951D01*
X133089803Y-67500000D01*
X132910197Y-67500000D01*
X132565148Y-67154951D01*
X132451939Y-67180300D01*
X132371313Y-67414370D01*
X132118231Y-67414370D01*
X132113600Y-67338524D01*
X132048061Y-67180300D01*
X131934852Y-67154951D01*
X131589803Y-67500000D01*
X131410197Y-67500000D01*
X131065148Y-67154951D01*
X130951939Y-67180300D01*
X130871313Y-67414370D01*
X130618231Y-67414370D01*
X130613600Y-67338524D01*
X130548061Y-67180300D01*
X130434852Y-67154951D01*
X130089803Y-67500000D01*
X129910197Y-67500000D01*
X129565148Y-67154951D01*
X129451939Y-67180300D01*
X129371313Y-67414370D01*
X128246175Y-67414370D01*
X128246195Y-67391851D01*
X128163231Y-67191063D01*
X128037536Y-67065148D01*
X129654951Y-67065148D01*
X130000000Y-67410197D01*
X130345049Y-67065148D01*
X131154951Y-67065148D01*
X131500000Y-67410197D01*
X131845049Y-67065148D01*
X132654951Y-67065148D01*
X133000000Y-67410197D01*
X133345049Y-67065148D01*
X133319700Y-66951939D01*
X133085630Y-66871313D01*
X132838524Y-66886400D01*
X132680300Y-66951939D01*
X132654951Y-67065148D01*
X131845049Y-67065148D01*
X131819700Y-66951939D01*
X131585630Y-66871313D01*
X131338524Y-66886400D01*
X131180300Y-66951939D01*
X131154951Y-67065148D01*
X130345049Y-67065148D01*
X130319700Y-66951939D01*
X130085630Y-66871313D01*
X129838524Y-66886400D01*
X129680300Y-66951939D01*
X129654951Y-67065148D01*
X128037536Y-67065148D01*
X128009745Y-67037309D01*
X127809103Y-66953995D01*
X127591851Y-66953805D01*
X127391063Y-67036769D01*
X127237309Y-67190255D01*
X127153995Y-67390897D01*
X127153805Y-67608149D01*
X118058025Y-67608149D01*
X117848420Y-67294453D01*
X117469656Y-67041371D01*
X117022873Y-66952500D01*
X116977127Y-66952500D01*
X116530344Y-67041371D01*
X116151580Y-67294453D01*
X115898498Y-67673217D01*
X115809627Y-68120000D01*
X113830200Y-68120000D01*
X113830200Y-65580000D01*
X115809627Y-65580000D01*
X115898498Y-66026783D01*
X116151580Y-66405547D01*
X116530344Y-66658629D01*
X116977127Y-66747500D01*
X117022873Y-66747500D01*
X117469656Y-66658629D01*
X117545204Y-66608149D01*
X152953805Y-66608149D01*
X153036769Y-66808937D01*
X153190255Y-66962691D01*
X153390897Y-67046005D01*
X153608149Y-67046195D01*
X153808937Y-66963231D01*
X153962691Y-66809745D01*
X154020532Y-66670448D01*
X155146627Y-66670448D01*
X155162113Y-66907403D01*
X155223000Y-67054397D01*
X155333588Y-67076610D01*
X155660197Y-66750000D01*
X155839803Y-66750000D01*
X156166412Y-67076610D01*
X156277000Y-67054397D01*
X156353373Y-66829552D01*
X156342975Y-66670448D01*
X156646627Y-66670448D01*
X156662113Y-66907403D01*
X156723000Y-67054397D01*
X156833588Y-67076610D01*
X157160197Y-66750000D01*
X157339803Y-66750000D01*
X157666412Y-67076610D01*
X157777000Y-67054397D01*
X157853373Y-66829552D01*
X157842975Y-66670448D01*
X158146627Y-66670448D01*
X158162113Y-66907403D01*
X158223000Y-67054397D01*
X158333588Y-67076610D01*
X158660197Y-66750000D01*
X158839803Y-66750000D01*
X159166412Y-67076610D01*
X159277000Y-67054397D01*
X159353373Y-66829552D01*
X159337887Y-66592597D01*
X159277000Y-66445603D01*
X159166412Y-66423390D01*
X158839803Y-66750000D01*
X158660197Y-66750000D01*
X158333588Y-66423390D01*
X158223000Y-66445603D01*
X158146627Y-66670448D01*
X157842975Y-66670448D01*
X157837887Y-66592597D01*
X157777000Y-66445603D01*
X157666412Y-66423390D01*
X157339803Y-66750000D01*
X157160197Y-66750000D01*
X156833588Y-66423390D01*
X156723000Y-66445603D01*
X156646627Y-66670448D01*
X156342975Y-66670448D01*
X156337887Y-66592597D01*
X156277000Y-66445603D01*
X156166412Y-66423390D01*
X155839803Y-66750000D01*
X155660197Y-66750000D01*
X155333588Y-66423390D01*
X155223000Y-66445603D01*
X155146627Y-66670448D01*
X154020532Y-66670448D01*
X154046005Y-66609103D01*
X154046195Y-66391851D01*
X154022122Y-66333588D01*
X155423390Y-66333588D01*
X155750000Y-66660197D01*
X156076610Y-66333588D01*
X156923390Y-66333588D01*
X157250000Y-66660197D01*
X157576610Y-66333588D01*
X158423390Y-66333588D01*
X158750000Y-66660197D01*
X159076610Y-66333588D01*
X159054397Y-66223000D01*
X158829552Y-66146627D01*
X158592597Y-66162113D01*
X158445603Y-66223000D01*
X158423390Y-66333588D01*
X157576610Y-66333588D01*
X157554397Y-66223000D01*
X157329552Y-66146627D01*
X157092597Y-66162113D01*
X156945603Y-66223000D01*
X156923390Y-66333588D01*
X156076610Y-66333588D01*
X156054397Y-66223000D01*
X155829552Y-66146627D01*
X155592597Y-66162113D01*
X155445603Y-66223000D01*
X155423390Y-66333588D01*
X154022122Y-66333588D01*
X153963231Y-66191063D01*
X153809745Y-66037309D01*
X153609103Y-65953995D01*
X153391851Y-65953805D01*
X153191063Y-66036769D01*
X153037309Y-66190255D01*
X152953995Y-66390897D01*
X152953805Y-66608149D01*
X117545204Y-66608149D01*
X117848420Y-66405547D01*
X118101502Y-66026783D01*
X118190373Y-65580000D01*
X118101502Y-65133217D01*
X117917708Y-64858149D01*
X121703805Y-64858149D01*
X121786769Y-65058937D01*
X121940255Y-65212691D01*
X122140897Y-65296005D01*
X122358149Y-65296195D01*
X122558937Y-65213231D01*
X122664202Y-65108149D01*
X128453805Y-65108149D01*
X128536769Y-65308937D01*
X128690255Y-65462691D01*
X128890897Y-65546005D01*
X129108149Y-65546195D01*
X129308937Y-65463231D01*
X129462691Y-65309745D01*
X129546005Y-65109103D01*
X129546060Y-65046141D01*
X129608149Y-65046195D01*
X129808937Y-64963231D01*
X129962691Y-64809745D01*
X130046005Y-64609103D01*
X130046005Y-64608149D01*
X130353805Y-64608149D01*
X130436769Y-64808937D01*
X130590255Y-64962691D01*
X130790897Y-65046005D01*
X130869475Y-65046074D01*
X130936769Y-65208937D01*
X131090255Y-65362691D01*
X131290897Y-65446005D01*
X131369475Y-65446074D01*
X131436769Y-65608937D01*
X131590255Y-65762691D01*
X131790897Y-65846005D01*
X132008149Y-65846195D01*
X132208937Y-65763231D01*
X132362691Y-65609745D01*
X132404877Y-65508149D01*
X132653805Y-65508149D01*
X132736769Y-65708937D01*
X132890255Y-65862691D01*
X133090897Y-65946005D01*
X133308149Y-65946195D01*
X133508937Y-65863231D01*
X133662691Y-65709745D01*
X133704877Y-65608149D01*
X134253805Y-65608149D01*
X134336769Y-65808937D01*
X134490255Y-65962691D01*
X134690897Y-66046005D01*
X134908149Y-66046195D01*
X135108937Y-65963231D01*
X135262691Y-65809745D01*
X135346005Y-65609103D01*
X135346195Y-65391851D01*
X135263231Y-65191063D01*
X135180462Y-65108149D01*
X145703805Y-65108149D01*
X145786769Y-65308937D01*
X145940255Y-65462691D01*
X146140897Y-65546005D01*
X146358149Y-65546195D01*
X146558937Y-65463231D01*
X146712691Y-65309745D01*
X146796005Y-65109103D01*
X146796195Y-64891851D01*
X146713231Y-64691063D01*
X146559745Y-64537309D01*
X146359103Y-64453995D01*
X146141851Y-64453805D01*
X145941063Y-64536769D01*
X145787309Y-64690255D01*
X145703995Y-64890897D01*
X145703805Y-65108149D01*
X135180462Y-65108149D01*
X135109745Y-65037309D01*
X134909103Y-64953995D01*
X134691851Y-64953805D01*
X134491063Y-65036769D01*
X134337309Y-65190255D01*
X134253995Y-65390897D01*
X134253805Y-65608149D01*
X133704877Y-65608149D01*
X133746005Y-65509103D01*
X133746195Y-65291851D01*
X133663231Y-65091063D01*
X133509745Y-64937309D01*
X133309103Y-64853995D01*
X133091851Y-64853805D01*
X132891063Y-64936769D01*
X132737309Y-65090255D01*
X132653995Y-65290897D01*
X132653805Y-65508149D01*
X132404877Y-65508149D01*
X132446005Y-65409103D01*
X132446195Y-65191851D01*
X132363231Y-64991063D01*
X132209745Y-64837309D01*
X132009103Y-64753995D01*
X131930525Y-64753926D01*
X131863231Y-64591063D01*
X131709745Y-64437309D01*
X131509103Y-64353995D01*
X131430525Y-64353926D01*
X131363231Y-64191063D01*
X131209745Y-64037309D01*
X131009103Y-63953995D01*
X130791851Y-63953805D01*
X130591063Y-64036769D01*
X130437309Y-64190255D01*
X130353995Y-64390897D01*
X130353805Y-64608149D01*
X130046005Y-64608149D01*
X130046195Y-64391851D01*
X129963231Y-64191063D01*
X129809745Y-64037309D01*
X129609103Y-63953995D01*
X129391851Y-63953805D01*
X129191063Y-64036769D01*
X129037309Y-64190255D01*
X128953995Y-64390897D01*
X128953940Y-64453859D01*
X128891851Y-64453805D01*
X128691063Y-64536769D01*
X128537309Y-64690255D01*
X128453995Y-64890897D01*
X128453805Y-65108149D01*
X122664202Y-65108149D01*
X122712691Y-65059745D01*
X122796005Y-64859103D01*
X122796195Y-64641851D01*
X122713231Y-64441063D01*
X122559745Y-64287309D01*
X122359103Y-64203995D01*
X122141851Y-64203805D01*
X121941063Y-64286769D01*
X121787309Y-64440255D01*
X121703995Y-64640897D01*
X121703805Y-64858149D01*
X117917708Y-64858149D01*
X117848420Y-64754453D01*
X117469656Y-64501371D01*
X117022873Y-64412500D01*
X116977127Y-64412500D01*
X116530344Y-64501371D01*
X116151580Y-64754453D01*
X115898498Y-65133217D01*
X115809627Y-65580000D01*
X113830200Y-65580000D01*
X113830200Y-63040000D01*
X115809627Y-63040000D01*
X115898498Y-63486783D01*
X116151580Y-63865547D01*
X116530344Y-64118629D01*
X116977127Y-64207500D01*
X117022873Y-64207500D01*
X117469656Y-64118629D01*
X117848420Y-63865547D01*
X118101502Y-63486783D01*
X118190373Y-63040000D01*
X118101502Y-62593217D01*
X117848420Y-62214453D01*
X117469656Y-61961371D01*
X117022873Y-61872500D01*
X116977127Y-61872500D01*
X116530344Y-61961371D01*
X116151580Y-62214453D01*
X115898498Y-62593217D01*
X115809627Y-63040000D01*
X113830200Y-63040000D01*
X113830200Y-61858149D01*
X128453805Y-61858149D01*
X128536769Y-62058937D01*
X128690255Y-62212691D01*
X128890897Y-62296005D01*
X128993360Y-62296095D01*
X128953995Y-62390897D01*
X128953805Y-62608149D01*
X129036769Y-62808937D01*
X129190255Y-62962691D01*
X129390897Y-63046005D01*
X129608149Y-63046195D01*
X129808937Y-62963231D01*
X129962691Y-62809745D01*
X130046005Y-62609103D01*
X130046195Y-62391851D01*
X129963231Y-62191063D01*
X129809745Y-62037309D01*
X129609103Y-61953995D01*
X129506640Y-61953905D01*
X129546005Y-61859103D01*
X129546195Y-61641851D01*
X129532270Y-61608149D01*
X129753805Y-61608149D01*
X129836769Y-61808937D01*
X129990255Y-61962691D01*
X130190897Y-62046005D01*
X130408149Y-62046195D01*
X130608937Y-61963231D01*
X130762691Y-61809745D01*
X130799989Y-61719922D01*
X130836769Y-61808937D01*
X130990255Y-61962691D01*
X131190897Y-62046005D01*
X131408149Y-62046195D01*
X131608937Y-61963231D01*
X131762691Y-61809745D01*
X131846005Y-61609103D01*
X131846005Y-61608149D01*
X132453805Y-61608149D01*
X132536769Y-61808937D01*
X132690255Y-61962691D01*
X132890897Y-62046005D01*
X133108149Y-62046195D01*
X133308937Y-61963231D01*
X133462691Y-61809745D01*
X133546005Y-61609103D01*
X133546195Y-61391851D01*
X133463231Y-61191063D01*
X133309745Y-61037309D01*
X133109103Y-60953995D01*
X132891851Y-60953805D01*
X132691063Y-61036769D01*
X132537309Y-61190255D01*
X132453995Y-61390897D01*
X132453805Y-61608149D01*
X131846005Y-61608149D01*
X131846195Y-61391851D01*
X131763231Y-61191063D01*
X131609745Y-61037309D01*
X131409103Y-60953995D01*
X131191851Y-60953805D01*
X130991063Y-61036769D01*
X130837309Y-61190255D01*
X130800011Y-61280078D01*
X130763231Y-61191063D01*
X130609745Y-61037309D01*
X130409103Y-60953995D01*
X130191851Y-60953805D01*
X129991063Y-61036769D01*
X129837309Y-61190255D01*
X129753995Y-61390897D01*
X129753805Y-61608149D01*
X129532270Y-61608149D01*
X129463231Y-61441063D01*
X129309745Y-61287309D01*
X129109103Y-61203995D01*
X128891851Y-61203805D01*
X128691063Y-61286769D01*
X128537309Y-61440255D01*
X128453995Y-61640897D01*
X128453805Y-61858149D01*
X113830200Y-61858149D01*
X113830200Y-60642875D01*
X115832500Y-60642875D01*
X115832500Y-61413154D01*
X115880836Y-61529849D01*
X115970150Y-61619163D01*
X116086845Y-61667500D01*
X116857125Y-61667500D01*
X116936500Y-61588125D01*
X116936500Y-60563500D01*
X117063500Y-60563500D01*
X117063500Y-61588125D01*
X117142875Y-61667500D01*
X117913155Y-61667500D01*
X118029850Y-61619163D01*
X118119164Y-61529849D01*
X118167500Y-61413154D01*
X118167500Y-60642875D01*
X118088125Y-60563500D01*
X117063500Y-60563500D01*
X116936500Y-60563500D01*
X115911875Y-60563500D01*
X115832500Y-60642875D01*
X113830200Y-60642875D01*
X113830200Y-60508149D01*
X133653805Y-60508149D01*
X133736769Y-60708937D01*
X133890255Y-60862691D01*
X134090897Y-60946005D01*
X134308149Y-60946195D01*
X134508937Y-60863231D01*
X134662691Y-60709745D01*
X134746005Y-60509103D01*
X134746195Y-60291851D01*
X134663231Y-60091063D01*
X134509745Y-59937309D01*
X134309103Y-59853995D01*
X134091851Y-59853805D01*
X133891063Y-59936769D01*
X133737309Y-60090255D01*
X133653995Y-60290897D01*
X133653805Y-60508149D01*
X113830200Y-60508149D01*
X113830200Y-59586846D01*
X115832500Y-59586846D01*
X115832500Y-60357125D01*
X115911875Y-60436500D01*
X116936500Y-60436500D01*
X116936500Y-59411875D01*
X117063500Y-59411875D01*
X117063500Y-60436500D01*
X118088125Y-60436500D01*
X118167500Y-60357125D01*
X118167500Y-59685412D01*
X166804391Y-59685412D01*
X166851884Y-59817283D01*
X167151312Y-59928038D01*
X167470330Y-59915777D01*
X167708116Y-59817283D01*
X167755609Y-59685412D01*
X167280000Y-59209803D01*
X166804391Y-59685412D01*
X118167500Y-59685412D01*
X118167500Y-59586846D01*
X118119164Y-59470151D01*
X118029850Y-59380837D01*
X117913155Y-59332500D01*
X117142875Y-59332500D01*
X117063500Y-59411875D01*
X116936500Y-59411875D01*
X116857125Y-59332500D01*
X116086845Y-59332500D01*
X115970150Y-59380837D01*
X115880836Y-59470151D01*
X115832500Y-59586846D01*
X113830200Y-59586846D01*
X113830200Y-58991312D01*
X166471962Y-58991312D01*
X166484223Y-59310330D01*
X166582717Y-59548116D01*
X166714588Y-59595609D01*
X167190197Y-59120000D01*
X167369803Y-59120000D01*
X167845412Y-59595609D01*
X167977283Y-59548116D01*
X168088038Y-59248688D01*
X168075777Y-58929670D01*
X167977283Y-58691884D01*
X167845412Y-58644391D01*
X167369803Y-59120000D01*
X167190197Y-59120000D01*
X166714588Y-58644391D01*
X166582717Y-58691884D01*
X166471962Y-58991312D01*
X113830200Y-58991312D01*
X113830200Y-58554588D01*
X166804391Y-58554588D01*
X167280000Y-59030197D01*
X167755609Y-58554588D01*
X167708116Y-58422717D01*
X167408688Y-58311962D01*
X167089670Y-58324223D01*
X166851884Y-58422717D01*
X166804391Y-58554588D01*
X113830200Y-58554588D01*
X113830200Y-58008149D01*
X132353805Y-58008149D01*
X132436769Y-58208937D01*
X132590255Y-58362691D01*
X132790897Y-58446005D01*
X133008149Y-58446195D01*
X133200225Y-58366831D01*
X133390897Y-58446005D01*
X133608149Y-58446195D01*
X133808937Y-58363231D01*
X133962691Y-58209745D01*
X134046005Y-58009103D01*
X134046195Y-57791851D01*
X133963231Y-57591063D01*
X133809745Y-57437309D01*
X133609103Y-57353995D01*
X133391851Y-57353805D01*
X133199775Y-57433169D01*
X133009103Y-57353995D01*
X132791851Y-57353805D01*
X132591063Y-57436769D01*
X132437309Y-57590255D01*
X132353995Y-57790897D01*
X132353805Y-58008149D01*
X113830200Y-58008149D01*
X113830200Y-57308149D01*
X127453805Y-57308149D01*
X127536769Y-57508937D01*
X127690255Y-57662691D01*
X127890897Y-57746005D01*
X128108149Y-57746195D01*
X128308937Y-57663231D01*
X128462691Y-57509745D01*
X128546005Y-57309103D01*
X128546195Y-57091851D01*
X128463231Y-56891063D01*
X128309745Y-56737309D01*
X128109103Y-56653995D01*
X127891851Y-56653805D01*
X127691063Y-56736769D01*
X127537309Y-56890255D01*
X127453995Y-57090897D01*
X127453805Y-57308149D01*
X113830200Y-57308149D01*
X113830200Y-56408149D01*
X145553805Y-56408149D01*
X145636769Y-56608937D01*
X145790255Y-56762691D01*
X145990897Y-56846005D01*
X146208149Y-56846195D01*
X146408937Y-56763231D01*
X146562691Y-56609745D01*
X146646005Y-56409103D01*
X146646005Y-56408149D01*
X147953805Y-56408149D01*
X148036769Y-56608937D01*
X148190255Y-56762691D01*
X148390897Y-56846005D01*
X148608149Y-56846195D01*
X148808937Y-56763231D01*
X148962691Y-56609745D01*
X149046005Y-56409103D01*
X149046195Y-56191851D01*
X148963231Y-55991063D01*
X148809745Y-55837309D01*
X148609103Y-55753995D01*
X148391851Y-55753805D01*
X148191063Y-55836769D01*
X148037309Y-55990255D01*
X147953995Y-56190897D01*
X147953805Y-56408149D01*
X146646005Y-56408149D01*
X146646195Y-56191851D01*
X146563231Y-55991063D01*
X146409745Y-55837309D01*
X146209103Y-55753995D01*
X145991851Y-55753805D01*
X145791063Y-55836769D01*
X145637309Y-55990255D01*
X145553995Y-56190897D01*
X145553805Y-56408149D01*
X113830200Y-56408149D01*
X113830200Y-55408149D01*
X136153805Y-55408149D01*
X136236769Y-55608937D01*
X136390255Y-55762691D01*
X136590897Y-55846005D01*
X136808149Y-55846195D01*
X137008937Y-55763231D01*
X137162691Y-55609745D01*
X137246005Y-55409103D01*
X137246195Y-55191851D01*
X137163231Y-54991063D01*
X137009745Y-54837309D01*
X136809103Y-54753995D01*
X136591851Y-54753805D01*
X136391063Y-54836769D01*
X136237309Y-54990255D01*
X136153995Y-55190897D01*
X136153805Y-55408149D01*
X113830200Y-55408149D01*
X113830200Y-54285085D01*
X115858514Y-54285085D01*
X116019541Y-54673855D01*
X116336740Y-55000811D01*
X116754914Y-55181492D01*
X116936500Y-55126403D01*
X116936500Y-54103500D01*
X117063500Y-54103500D01*
X117063500Y-55126403D01*
X117245086Y-55181492D01*
X117663260Y-55000811D01*
X117980459Y-54673855D01*
X118141486Y-54285085D01*
X118086271Y-54103500D01*
X117063500Y-54103500D01*
X116936500Y-54103500D01*
X115913729Y-54103500D01*
X115858514Y-54285085D01*
X113830200Y-54285085D01*
X113830200Y-53794915D01*
X115858514Y-53794915D01*
X115913729Y-53976500D01*
X116936500Y-53976500D01*
X116936500Y-52953597D01*
X117063500Y-52953597D01*
X117063500Y-53976500D01*
X118086271Y-53976500D01*
X118141486Y-53794915D01*
X117980459Y-53406145D01*
X117663260Y-53079189D01*
X117245086Y-52898508D01*
X117063500Y-52953597D01*
X116936500Y-52953597D01*
X116754914Y-52898508D01*
X116336740Y-53079189D01*
X116019541Y-53406145D01*
X115858514Y-53794915D01*
X113830200Y-53794915D01*
X113830200Y-50650000D01*
X115826280Y-50650000D01*
X115826280Y-52350000D01*
X115848419Y-52467658D01*
X115917955Y-52575721D01*
X116024055Y-52648215D01*
X116150000Y-52673720D01*
X117850000Y-52673720D01*
X117967658Y-52651581D01*
X118075721Y-52582045D01*
X118148215Y-52475945D01*
X118173720Y-52350000D01*
X118173720Y-52208149D01*
X133753805Y-52208149D01*
X133836769Y-52408937D01*
X133990255Y-52562691D01*
X134190897Y-52646005D01*
X134408149Y-52646195D01*
X134608937Y-52563231D01*
X134762691Y-52409745D01*
X134846005Y-52209103D01*
X134846195Y-51991851D01*
X134763231Y-51791063D01*
X134609745Y-51637309D01*
X134539521Y-51608149D01*
X149353805Y-51608149D01*
X149436769Y-51808937D01*
X149590255Y-51962691D01*
X149680078Y-51999989D01*
X149591063Y-52036769D01*
X149437309Y-52190255D01*
X149353995Y-52390897D01*
X149353805Y-52608149D01*
X149436769Y-52808937D01*
X149590255Y-52962691D01*
X149680078Y-52999989D01*
X149591063Y-53036769D01*
X149437309Y-53190255D01*
X149353995Y-53390897D01*
X149353805Y-53608149D01*
X149436769Y-53808937D01*
X149590255Y-53962691D01*
X149680078Y-53999989D01*
X149591063Y-54036769D01*
X149437309Y-54190255D01*
X149353995Y-54390897D01*
X149353805Y-54608149D01*
X149436769Y-54808937D01*
X149590255Y-54962691D01*
X149680078Y-54999989D01*
X149591063Y-55036769D01*
X149437309Y-55190255D01*
X149353995Y-55390897D01*
X149353805Y-55608149D01*
X149436769Y-55808937D01*
X149590255Y-55962691D01*
X149790897Y-56046005D01*
X150008149Y-56046195D01*
X150208937Y-55963231D01*
X150362691Y-55809745D01*
X150446005Y-55609103D01*
X150446195Y-55391851D01*
X150363231Y-55191063D01*
X150209745Y-55037309D01*
X150119922Y-55000011D01*
X150208937Y-54963231D01*
X150362691Y-54809745D01*
X150446005Y-54609103D01*
X150446195Y-54391851D01*
X150363231Y-54191063D01*
X150209745Y-54037309D01*
X150119922Y-54000011D01*
X150208937Y-53963231D01*
X150362691Y-53809745D01*
X150446005Y-53609103D01*
X150446195Y-53391851D01*
X150363231Y-53191063D01*
X150209745Y-53037309D01*
X150119922Y-53000011D01*
X150208937Y-52963231D01*
X150362691Y-52809745D01*
X150446005Y-52609103D01*
X150446195Y-52391851D01*
X150363231Y-52191063D01*
X150209745Y-52037309D01*
X150119922Y-52000011D01*
X150208937Y-51963231D01*
X150362691Y-51809745D01*
X150363353Y-51808149D01*
X161753805Y-51808149D01*
X161836769Y-52008937D01*
X161990255Y-52162691D01*
X162080078Y-52199989D01*
X161991063Y-52236769D01*
X161837309Y-52390255D01*
X161753995Y-52590897D01*
X161753805Y-52808149D01*
X161836769Y-53008937D01*
X161990255Y-53162691D01*
X162080078Y-53199989D01*
X161991063Y-53236769D01*
X161837309Y-53390255D01*
X161753995Y-53590897D01*
X161753805Y-53808149D01*
X161836769Y-54008937D01*
X161990255Y-54162691D01*
X162080078Y-54199989D01*
X161991063Y-54236769D01*
X161837309Y-54390255D01*
X161753995Y-54590897D01*
X161753805Y-54808149D01*
X161836769Y-55008937D01*
X161990255Y-55162691D01*
X162080078Y-55199989D01*
X161991063Y-55236769D01*
X161837309Y-55390255D01*
X161753995Y-55590897D01*
X161753805Y-55808149D01*
X161836769Y-56008937D01*
X161990255Y-56162691D01*
X162190897Y-56246005D01*
X162408149Y-56246195D01*
X162608937Y-56163231D01*
X162762691Y-56009745D01*
X162846005Y-55809103D01*
X162846195Y-55591851D01*
X162763231Y-55391063D01*
X162609745Y-55237309D01*
X162519922Y-55200011D01*
X162608937Y-55163231D01*
X162762691Y-55009745D01*
X162804877Y-54908149D01*
X166053805Y-54908149D01*
X166136769Y-55108937D01*
X166290255Y-55262691D01*
X166490897Y-55346005D01*
X166708149Y-55346195D01*
X166908937Y-55263231D01*
X167062691Y-55109745D01*
X167146005Y-54909103D01*
X167146195Y-54691851D01*
X167063231Y-54491063D01*
X166909745Y-54337309D01*
X166709103Y-54253995D01*
X166491851Y-54253805D01*
X166291063Y-54336769D01*
X166137309Y-54490255D01*
X166053995Y-54690897D01*
X166053805Y-54908149D01*
X162804877Y-54908149D01*
X162846005Y-54809103D01*
X162846195Y-54591851D01*
X162763231Y-54391063D01*
X162609745Y-54237309D01*
X162519922Y-54200011D01*
X162608937Y-54163231D01*
X162762691Y-54009745D01*
X162846005Y-53809103D01*
X162846195Y-53591851D01*
X162763231Y-53391063D01*
X162609745Y-53237309D01*
X162519922Y-53200011D01*
X162608937Y-53163231D01*
X162762691Y-53009745D01*
X162846005Y-52809103D01*
X162846195Y-52591851D01*
X162763231Y-52391063D01*
X162609745Y-52237309D01*
X162519922Y-52200011D01*
X162608937Y-52163231D01*
X162762691Y-52009745D01*
X162804877Y-51908149D01*
X165853805Y-51908149D01*
X165936769Y-52108937D01*
X166090255Y-52262691D01*
X166290897Y-52346005D01*
X166508149Y-52346195D01*
X166708937Y-52263231D01*
X166862691Y-52109745D01*
X166946005Y-51909103D01*
X166946195Y-51691851D01*
X166863231Y-51491063D01*
X166709745Y-51337309D01*
X166509103Y-51253995D01*
X166291851Y-51253805D01*
X166091063Y-51336769D01*
X165937309Y-51490255D01*
X165853995Y-51690897D01*
X165853805Y-51908149D01*
X162804877Y-51908149D01*
X162846005Y-51809103D01*
X162846195Y-51591851D01*
X162763231Y-51391063D01*
X162609745Y-51237309D01*
X162409103Y-51153995D01*
X162191851Y-51153805D01*
X161991063Y-51236769D01*
X161837309Y-51390255D01*
X161753995Y-51590897D01*
X161753805Y-51808149D01*
X150363353Y-51808149D01*
X150446005Y-51609103D01*
X150446195Y-51391851D01*
X150363231Y-51191063D01*
X150209745Y-51037309D01*
X150009103Y-50953995D01*
X149791851Y-50953805D01*
X149591063Y-51036769D01*
X149437309Y-51190255D01*
X149353995Y-51390897D01*
X149353805Y-51608149D01*
X134539521Y-51608149D01*
X134409103Y-51553995D01*
X134191851Y-51553805D01*
X133991063Y-51636769D01*
X133837309Y-51790255D01*
X133753995Y-51990897D01*
X133753805Y-52208149D01*
X118173720Y-52208149D01*
X118173720Y-50650000D01*
X118151581Y-50532342D01*
X118082045Y-50424279D01*
X117975945Y-50351785D01*
X117850000Y-50326280D01*
X116150000Y-50326280D01*
X116032342Y-50348419D01*
X115924279Y-50417955D01*
X115851785Y-50524055D01*
X115826280Y-50650000D01*
X113830200Y-50650000D01*
X113830200Y-44196604D01*
X114981891Y-44196604D01*
X115516270Y-45489901D01*
X116504895Y-46480253D01*
X117797256Y-47016888D01*
X119196604Y-47018109D01*
X120489901Y-46483730D01*
X120765963Y-46208149D01*
X122553805Y-46208149D01*
X122636769Y-46408937D01*
X122790255Y-46562691D01*
X122990897Y-46646005D01*
X123208149Y-46646195D01*
X123408937Y-46563231D01*
X123562691Y-46409745D01*
X123563353Y-46408149D01*
X134353805Y-46408149D01*
X134436769Y-46608937D01*
X134590255Y-46762691D01*
X134790897Y-46846005D01*
X135008149Y-46846195D01*
X135208937Y-46763231D01*
X135362691Y-46609745D01*
X135399989Y-46519922D01*
X135436769Y-46608937D01*
X135590255Y-46762691D01*
X135790897Y-46846005D01*
X136008149Y-46846195D01*
X136208937Y-46763231D01*
X136362691Y-46609745D01*
X136446005Y-46409103D01*
X136446195Y-46191851D01*
X136363231Y-45991063D01*
X136209745Y-45837309D01*
X136009103Y-45753995D01*
X135791851Y-45753805D01*
X135591063Y-45836769D01*
X135437309Y-45990255D01*
X135400011Y-46080078D01*
X135363231Y-45991063D01*
X135209745Y-45837309D01*
X135009103Y-45753995D01*
X134791851Y-45753805D01*
X134591063Y-45836769D01*
X134437309Y-45990255D01*
X134353995Y-46190897D01*
X134353805Y-46408149D01*
X123563353Y-46408149D01*
X123646005Y-46209103D01*
X123646195Y-45991851D01*
X123563231Y-45791063D01*
X123409745Y-45637309D01*
X123209103Y-45553995D01*
X122991851Y-45553805D01*
X122791063Y-45636769D01*
X122637309Y-45790255D01*
X122553995Y-45990897D01*
X122553805Y-46208149D01*
X120765963Y-46208149D01*
X121480253Y-45495105D01*
X121723978Y-44908149D01*
X122653805Y-44908149D01*
X122736769Y-45108937D01*
X122890255Y-45262691D01*
X123090897Y-45346005D01*
X123308149Y-45346195D01*
X123508937Y-45263231D01*
X123662691Y-45109745D01*
X123746005Y-44909103D01*
X123746049Y-44858149D01*
X130953805Y-44858149D01*
X131036769Y-45058937D01*
X131190255Y-45212691D01*
X131390897Y-45296005D01*
X131608149Y-45296195D01*
X131808937Y-45213231D01*
X131962691Y-45059745D01*
X132046005Y-44859103D01*
X132046195Y-44641851D01*
X131963231Y-44441063D01*
X131809745Y-44287309D01*
X131609103Y-44203995D01*
X131391851Y-44203805D01*
X131191063Y-44286769D01*
X131037309Y-44440255D01*
X130953995Y-44640897D01*
X130953805Y-44858149D01*
X123746049Y-44858149D01*
X123746195Y-44691851D01*
X123663231Y-44491063D01*
X123509745Y-44337309D01*
X123309103Y-44253995D01*
X123091851Y-44253805D01*
X122891063Y-44336769D01*
X122737309Y-44490255D01*
X122653995Y-44690897D01*
X122653805Y-44908149D01*
X121723978Y-44908149D01*
X122016888Y-44202744D01*
X122016893Y-44196604D01*
X164981891Y-44196604D01*
X165516270Y-45489901D01*
X166504895Y-46480253D01*
X167797256Y-47016888D01*
X169196604Y-47018109D01*
X170489901Y-46483730D01*
X171480253Y-45495105D01*
X172016888Y-44202744D01*
X172018109Y-42803396D01*
X171483730Y-41510099D01*
X170495105Y-40519747D01*
X169202744Y-39983112D01*
X167803396Y-39981891D01*
X166510099Y-40516270D01*
X165519747Y-41504895D01*
X164983112Y-42797256D01*
X164981891Y-44196604D01*
X122016893Y-44196604D01*
X122018104Y-42808149D01*
X133353805Y-42808149D01*
X133433169Y-43000225D01*
X133353995Y-43190897D01*
X133353805Y-43408149D01*
X133436769Y-43608937D01*
X133590255Y-43762691D01*
X133790897Y-43846005D01*
X134008149Y-43846195D01*
X134208937Y-43763231D01*
X134362691Y-43609745D01*
X134363353Y-43608149D01*
X142553805Y-43608149D01*
X142636769Y-43808937D01*
X142790255Y-43962691D01*
X142990897Y-44046005D01*
X143208149Y-44046195D01*
X143408937Y-43963231D01*
X143562691Y-43809745D01*
X143646005Y-43609103D01*
X143646195Y-43391851D01*
X143563231Y-43191063D01*
X143409745Y-43037309D01*
X143209103Y-42953995D01*
X142991851Y-42953805D01*
X142791063Y-43036769D01*
X142637309Y-43190255D01*
X142553995Y-43390897D01*
X142553805Y-43608149D01*
X134363353Y-43608149D01*
X134446005Y-43409103D01*
X134446195Y-43191851D01*
X134366831Y-42999775D01*
X134446005Y-42809103D01*
X134446195Y-42591851D01*
X134363231Y-42391063D01*
X134209745Y-42237309D01*
X134139521Y-42208149D01*
X156553805Y-42208149D01*
X156636769Y-42408937D01*
X156790255Y-42562691D01*
X156990897Y-42646005D01*
X157208149Y-42646195D01*
X157408937Y-42563231D01*
X157562691Y-42409745D01*
X157646005Y-42209103D01*
X157646195Y-41991851D01*
X157563231Y-41791063D01*
X157409745Y-41637309D01*
X157209103Y-41553995D01*
X156991851Y-41553805D01*
X156791063Y-41636769D01*
X156637309Y-41790255D01*
X156553995Y-41990897D01*
X156553805Y-42208149D01*
X134139521Y-42208149D01*
X134009103Y-42153995D01*
X133791851Y-42153805D01*
X133591063Y-42236769D01*
X133437309Y-42390255D01*
X133353995Y-42590897D01*
X133353805Y-42808149D01*
X122018104Y-42808149D01*
X122018109Y-42803396D01*
X121834137Y-42358149D01*
X130203805Y-42358149D01*
X130286769Y-42558937D01*
X130440255Y-42712691D01*
X130640897Y-42796005D01*
X130858149Y-42796195D01*
X131058937Y-42713231D01*
X131212691Y-42559745D01*
X131296005Y-42359103D01*
X131296195Y-42141851D01*
X131213231Y-41941063D01*
X131059745Y-41787309D01*
X130859103Y-41703995D01*
X130641851Y-41703805D01*
X130441063Y-41786769D01*
X130287309Y-41940255D01*
X130203995Y-42140897D01*
X130203805Y-42358149D01*
X121834137Y-42358149D01*
X121483730Y-41510099D01*
X120783005Y-40808149D01*
X134353805Y-40808149D01*
X134436769Y-41008937D01*
X134590255Y-41162691D01*
X134790897Y-41246005D01*
X135008149Y-41246195D01*
X135208937Y-41163231D01*
X135362691Y-41009745D01*
X135399989Y-40919922D01*
X135436769Y-41008937D01*
X135590255Y-41162691D01*
X135790897Y-41246005D01*
X136008149Y-41246195D01*
X136208937Y-41163231D01*
X136362691Y-41009745D01*
X136446005Y-40809103D01*
X136446195Y-40591851D01*
X136363231Y-40391063D01*
X136209745Y-40237309D01*
X136009103Y-40153995D01*
X135791851Y-40153805D01*
X135591063Y-40236769D01*
X135437309Y-40390255D01*
X135400011Y-40480078D01*
X135363231Y-40391063D01*
X135209745Y-40237309D01*
X135009103Y-40153995D01*
X134791851Y-40153805D01*
X134591063Y-40236769D01*
X134437309Y-40390255D01*
X134353995Y-40590897D01*
X134353805Y-40808149D01*
X120783005Y-40808149D01*
X120495105Y-40519747D01*
X119202744Y-39983112D01*
X117803396Y-39981891D01*
X116510099Y-40516270D01*
X115519747Y-41504895D01*
X114983112Y-42797256D01*
X114981891Y-44196604D01*
X113830200Y-44196604D01*
X113830200Y-43532521D01*
X114191643Y-41715420D01*
X115202528Y-40202526D01*
X116715422Y-39191643D01*
X118532521Y-38830200D01*
X155006961Y-38830200D01*
X154991063Y-38836769D01*
M02*
