G04 #@! TF.FileFunction,Soldermask,Bot*
%FSLAX46Y46*%
G04 Gerber Fmt 4.6, Leading zero omitted, Abs format (unit mm)*
G04 Created by KiCad (PCBNEW 4.0.7-e2-6376~58~ubuntu16.04.1) date Thu Aug  2 15:14:07 2018*
%MOMM*%
%LPD*%
G01*
G04 APERTURE LIST*
%ADD10C,0.100000*%
%ADD11R,1.801600X1.801600*%
%ADD12O,1.801600X1.801600*%
%ADD13C,0.711200*%
%ADD14C,0.660400*%
%ADD15R,5.181600X2.521600*%
%ADD16C,6.501600*%
%ADD17C,0.901600*%
G04 APERTURE END LIST*
D10*
D11*
X117000000Y-60500000D03*
D12*
X117000000Y-63040000D03*
X117000000Y-65580000D03*
X117000000Y-68120000D03*
X117000000Y-70660000D03*
X117000000Y-73200000D03*
D13*
X131500000Y-70500000D03*
X133000000Y-70500000D03*
X133000000Y-67500000D03*
X131500000Y-67500000D03*
X130000000Y-67500000D03*
X130000000Y-70500000D03*
X133000000Y-69000000D03*
X131500000Y-69000000D03*
X130000000Y-69000000D03*
D14*
X158750000Y-69750000D03*
X158750000Y-68250000D03*
X157250000Y-68250000D03*
X155750000Y-68250000D03*
X158750000Y-66750000D03*
X157250000Y-66750000D03*
X155750000Y-66750000D03*
X155750000Y-69750000D03*
X157250000Y-69750000D03*
D11*
X117000000Y-51500000D03*
D12*
X117000000Y-54040000D03*
D11*
X124500000Y-85000000D03*
D12*
X127040000Y-85000000D03*
X129580000Y-85000000D03*
X132120000Y-85000000D03*
X134660000Y-85000000D03*
X137200000Y-85000000D03*
D11*
X141500000Y-85000000D03*
D12*
X144040000Y-85000000D03*
X146580000Y-85000000D03*
D15*
X170720000Y-67880000D03*
X170720000Y-59120000D03*
D16*
X118500000Y-83500000D03*
D17*
X120900000Y-83500000D03*
X120197056Y-85197056D03*
X118500000Y-85900000D03*
X116802944Y-85197056D03*
X116100000Y-83500000D03*
X116802944Y-81802944D03*
X118500000Y-81100000D03*
X120197056Y-81802944D03*
D16*
X118500000Y-43500000D03*
D17*
X120900000Y-43500000D03*
X120197056Y-45197056D03*
X118500000Y-45900000D03*
X116802944Y-45197056D03*
X116100000Y-43500000D03*
X116802944Y-41802944D03*
X118500000Y-41100000D03*
X120197056Y-41802944D03*
D16*
X168500000Y-43500000D03*
D17*
X170900000Y-43500000D03*
X170197056Y-45197056D03*
X168500000Y-45900000D03*
X166802944Y-45197056D03*
X166100000Y-43500000D03*
X166802944Y-41802944D03*
X168500000Y-41100000D03*
X170197056Y-41802944D03*
D16*
X168500000Y-83500000D03*
D17*
X170900000Y-83500000D03*
X170197056Y-85197056D03*
X168500000Y-85900000D03*
X166802944Y-85197056D03*
X166100000Y-83500000D03*
X166802944Y-81802944D03*
X168500000Y-81100000D03*
X170197056Y-81802944D03*
M02*
