G04 #@! TF.FileFunction,Copper,L4,Bot,Signal*
%FSLAX46Y46*%
G04 Gerber Fmt 4.6, Leading zero omitted, Abs format (unit mm)*
G04 Created by KiCad (PCBNEW 4.0.7-e2-6376~58~ubuntu16.04.1) date Thu Aug  2 15:14:07 2018*
%MOMM*%
%LPD*%
G01*
G04 APERTURE LIST*
%ADD10C,0.100000*%
%ADD11R,1.700000X1.700000*%
%ADD12O,1.700000X1.700000*%
%ADD13C,0.457200*%
%ADD14C,0.609600*%
%ADD15C,0.558800*%
%ADD16R,5.080000X2.420000*%
%ADD17C,0.970000*%
%ADD18R,0.950000X0.460000*%
%ADD19C,6.400000*%
%ADD20C,0.800000*%
%ADD21C,0.203200*%
%ADD22C,0.127000*%
G04 APERTURE END LIST*
D10*
D11*
X117000000Y-60500000D03*
D12*
X117000000Y-63040000D03*
X117000000Y-65580000D03*
X117000000Y-68120000D03*
X117000000Y-70660000D03*
X117000000Y-73200000D03*
D13*
X137100000Y-70900000D03*
D14*
X131500000Y-70500000D03*
X133000000Y-70500000D03*
X133000000Y-67500000D03*
X131500000Y-67500000D03*
X130000000Y-67500000D03*
X130000000Y-70500000D03*
X133000000Y-69000000D03*
X131500000Y-69000000D03*
X130000000Y-69000000D03*
D13*
X133500000Y-57900000D03*
X124050000Y-56500000D03*
X125050000Y-56500000D03*
X126050000Y-56500000D03*
X134900000Y-46300000D03*
X135900000Y-46300000D03*
X134900000Y-40700000D03*
X135900000Y-40700000D03*
X141300000Y-47500000D03*
X142100000Y-47500000D03*
X143300000Y-46500000D03*
X143300000Y-45500000D03*
X159900000Y-40700000D03*
X159900000Y-43900000D03*
X159900000Y-43100000D03*
X159900000Y-42300000D03*
X159900000Y-41500000D03*
X155300000Y-39300000D03*
X156100000Y-39300000D03*
X156900000Y-39300000D03*
X153500000Y-66500000D03*
X157700000Y-72100000D03*
X156100000Y-72100000D03*
X155100000Y-73100000D03*
X159700000Y-73300000D03*
X149900000Y-55500000D03*
X162300000Y-55700000D03*
X149900000Y-54500000D03*
X162300000Y-54700000D03*
X149900000Y-53500000D03*
X162300000Y-53700000D03*
X149900000Y-52500000D03*
X162300000Y-52700000D03*
X149900000Y-51500000D03*
X162300000Y-51700000D03*
X164100000Y-67900000D03*
X165900000Y-61100000D03*
X163100000Y-63300000D03*
X162300000Y-59100000D03*
X154700000Y-57500000D03*
X151900000Y-58500000D03*
X151100000Y-62900000D03*
X138300000Y-70900000D03*
X139700000Y-70900000D03*
X140900000Y-70900000D03*
X142100000Y-70900000D03*
X148900000Y-70900000D03*
X150300000Y-70900000D03*
X151700000Y-70900000D03*
X153100000Y-70900000D03*
X136700000Y-65900000D03*
X137500000Y-65100000D03*
X139100000Y-65100000D03*
X140500000Y-65100000D03*
X141500000Y-66100000D03*
X143000000Y-66100000D03*
X144100000Y-66100000D03*
X145500000Y-66100000D03*
X146900000Y-66100000D03*
X148300000Y-66100000D03*
X149500000Y-66100000D03*
X157250000Y-63000000D03*
X151100000Y-59300000D03*
X160700000Y-57500000D03*
X162300000Y-64100000D03*
X166900000Y-66300000D03*
X164900000Y-67100000D03*
X162900000Y-67900000D03*
X161700000Y-67900000D03*
X164100000Y-61700000D03*
X159750000Y-57500000D03*
X163100000Y-59900000D03*
X163100000Y-60900000D03*
X163100000Y-62100000D03*
X161500000Y-64900000D03*
X153700000Y-57500000D03*
X152700000Y-57700000D03*
X166700000Y-60300000D03*
X161500000Y-58300000D03*
X151100000Y-60500000D03*
X151100000Y-61700000D03*
X151900000Y-63700000D03*
X152900000Y-64500000D03*
X157250000Y-64000000D03*
D15*
X158750000Y-69750000D03*
X158750000Y-68250000D03*
X157250000Y-68250000D03*
X155750000Y-68250000D03*
X158750000Y-66750000D03*
X157250000Y-66750000D03*
X155750000Y-66750000D03*
X155750000Y-69750000D03*
X157250000Y-69750000D03*
D11*
X117000000Y-51500000D03*
D12*
X117000000Y-54040000D03*
D11*
X124500000Y-85000000D03*
D12*
X127040000Y-85000000D03*
X129580000Y-85000000D03*
X132120000Y-85000000D03*
X134660000Y-85000000D03*
X137200000Y-85000000D03*
D11*
X141500000Y-85000000D03*
D12*
X144040000Y-85000000D03*
X146580000Y-85000000D03*
D16*
X170720000Y-67880000D03*
X170720000Y-59120000D03*
D17*
X167280000Y-67880000D03*
X167280000Y-59120000D03*
D18*
X167730000Y-67880000D03*
X167730000Y-59120000D03*
D19*
X118500000Y-83500000D03*
D20*
X120900000Y-83500000D03*
X120197056Y-85197056D03*
X118500000Y-85900000D03*
X116802944Y-85197056D03*
X116100000Y-83500000D03*
X116802944Y-81802944D03*
X118500000Y-81100000D03*
X120197056Y-81802944D03*
D19*
X118500000Y-43500000D03*
D20*
X120900000Y-43500000D03*
X120197056Y-45197056D03*
X118500000Y-45900000D03*
X116802944Y-45197056D03*
X116100000Y-43500000D03*
X116802944Y-41802944D03*
X118500000Y-41100000D03*
X120197056Y-41802944D03*
D19*
X168500000Y-43500000D03*
D20*
X170900000Y-43500000D03*
X170197056Y-45197056D03*
X168500000Y-45900000D03*
X166802944Y-45197056D03*
X166100000Y-43500000D03*
X166802944Y-41802944D03*
X168500000Y-41100000D03*
X170197056Y-41802944D03*
D19*
X168500000Y-83500000D03*
D20*
X170900000Y-83500000D03*
X170197056Y-85197056D03*
X168500000Y-85900000D03*
X166802944Y-85197056D03*
X166100000Y-83500000D03*
X166802944Y-81802944D03*
X168500000Y-81100000D03*
X170197056Y-81802944D03*
D13*
X135300000Y-69650000D03*
X129500000Y-72700000D03*
X127700000Y-67500000D03*
X133200000Y-65400000D03*
X134800000Y-65500000D03*
X135200000Y-67700000D03*
X135700000Y-71000000D03*
X131300000Y-61500000D03*
X130300000Y-61500000D03*
X133000000Y-61500000D03*
X138200000Y-66400000D03*
X146000000Y-47500000D03*
X141000000Y-63600000D03*
X135900000Y-61800000D03*
X134500000Y-61700000D03*
X126700000Y-63900000D03*
X126200000Y-73500000D03*
X137300000Y-71900000D03*
X116250000Y-49000000D03*
X171500000Y-54750000D03*
X129000000Y-47000000D03*
X148000000Y-48750000D03*
X144750000Y-45500000D03*
X146250000Y-40500000D03*
X163000000Y-45250000D03*
X131250000Y-58000000D03*
X129500000Y-58000000D03*
X136000000Y-66000000D03*
X165300000Y-74900000D03*
X169300000Y-74900000D03*
X162700000Y-81100000D03*
X160300000Y-83100000D03*
X142100000Y-58300000D03*
X148300000Y-52700000D03*
X139700000Y-50500000D03*
X141900000Y-50900000D03*
X171500000Y-52100000D03*
X134900000Y-76500000D03*
X131475000Y-62525000D03*
X127100000Y-75500000D03*
X121300000Y-78500000D03*
X133100000Y-46700000D03*
X133100000Y-39500000D03*
X150100000Y-65300000D03*
X152700000Y-74700000D03*
X157300000Y-74700000D03*
X159700000Y-74700000D03*
X158500000Y-71700000D03*
X143300000Y-70900000D03*
X149000000Y-68500000D03*
X157250000Y-62250000D03*
X155750000Y-57750000D03*
X157250000Y-57250000D03*
X158750000Y-57750000D03*
X158750000Y-61750000D03*
X155750000Y-61750000D03*
X153750000Y-68500000D03*
X153750000Y-70250000D03*
X154000000Y-71500000D03*
X159500000Y-71750000D03*
X160750000Y-67250000D03*
X157250000Y-64750000D03*
X159500000Y-64750000D03*
X160500000Y-65000000D03*
X154000000Y-65000000D03*
X148100000Y-76900000D03*
X122250000Y-64750000D03*
X126600000Y-81000000D03*
X154000000Y-72250000D03*
X157300000Y-83100000D03*
X146100000Y-56300000D03*
X123100000Y-46100000D03*
X127100000Y-77500000D03*
X132900000Y-79500000D03*
X132900000Y-57900000D03*
X143900000Y-76900000D03*
X147700000Y-73500000D03*
X148500000Y-56300000D03*
X143100000Y-43500000D03*
X133900000Y-42700000D03*
X133900000Y-43300000D03*
X157100000Y-42100000D03*
X167300000Y-74900000D03*
X131900000Y-65300000D03*
X129800000Y-74400000D03*
X132900000Y-73000000D03*
X131500000Y-44750000D03*
X123200000Y-44800000D03*
X133000000Y-73750000D03*
X130750000Y-42250000D03*
X127000000Y-76500000D03*
X131400000Y-64900000D03*
X134200000Y-60400000D03*
X141500000Y-72750000D03*
X146250000Y-65000000D03*
X166400000Y-51800000D03*
X135000000Y-75800000D03*
X137000000Y-77000000D03*
X166600000Y-54800000D03*
X137200000Y-80000000D03*
X124600000Y-79200000D03*
X134800000Y-80800000D03*
X127800000Y-80800000D03*
X135600000Y-77000000D03*
X131000000Y-74800000D03*
X129000000Y-61750000D03*
X129000000Y-65000000D03*
X129500000Y-64500000D03*
X129500000Y-62500000D03*
X124000000Y-76800000D03*
X158750000Y-78000000D03*
X154250000Y-79250000D03*
X157250000Y-79500000D03*
X134400000Y-74400000D03*
X151900000Y-74300000D03*
X136700000Y-55300000D03*
X135400000Y-70400000D03*
X128000000Y-57200000D03*
X126800000Y-69400000D03*
X134300000Y-52100000D03*
X127600000Y-69500000D03*
X124250000Y-78500000D03*
X160250000Y-78500000D03*
X164250000Y-77500000D03*
X138250000Y-77500000D03*
X130900000Y-64500000D03*
X143000000Y-77000000D03*
D21*
X126700000Y-63900000D02*
X126800000Y-63900000D01*
X132200000Y-65600000D02*
X132200000Y-72000000D01*
X131900000Y-65300000D02*
X132200000Y-65600000D01*
X132200000Y-72000000D02*
X129800000Y-74400000D01*
X131500000Y-46750000D02*
X131500000Y-44750000D01*
X139750000Y-55000000D02*
X131500000Y-46750000D01*
X139750000Y-65250000D02*
X139750000Y-55000000D01*
X140250000Y-65750000D02*
X139750000Y-65250000D01*
X140250000Y-71750000D02*
X140250000Y-65750000D01*
X139000000Y-73000000D02*
X140250000Y-71750000D01*
X132900000Y-73000000D02*
X139000000Y-73000000D01*
X141600000Y-67800000D02*
X142200000Y-67200000D01*
X142200000Y-67200000D02*
X142200000Y-62200000D01*
X142200000Y-62200000D02*
X140400000Y-60400000D01*
X140400000Y-60400000D02*
X140400000Y-53400000D01*
X140400000Y-53400000D02*
X133800000Y-46800000D01*
X133800000Y-46800000D02*
X133800000Y-45400000D01*
X133800000Y-45400000D02*
X132000000Y-43600000D01*
X132000000Y-43600000D02*
X124400000Y-43600000D01*
X124400000Y-43600000D02*
X123200000Y-44800000D01*
X141600000Y-67800000D02*
X141600000Y-71900000D01*
X139750000Y-73750000D02*
X141600000Y-71900000D01*
X141600000Y-71900000D02*
X141500000Y-72000000D01*
X139500000Y-73750000D02*
X139750000Y-73750000D01*
X133000000Y-73750000D02*
X139500000Y-73750000D01*
X124750000Y-42250000D02*
X130750000Y-42250000D01*
X121750000Y-45250000D02*
X124750000Y-42250000D01*
X121750000Y-46250000D02*
X121750000Y-45250000D01*
X121750000Y-46250000D02*
X121750000Y-46250000D01*
X121750000Y-65750000D02*
X121750000Y-46250000D01*
X124750000Y-68750000D02*
X121750000Y-65750000D01*
X124750000Y-74250000D02*
X124750000Y-68750000D01*
X127000000Y-76500000D02*
X124750000Y-74250000D01*
X133800000Y-62500000D02*
X131400000Y-64900000D01*
X133800000Y-60800000D02*
X133800000Y-62500000D01*
X134200000Y-60400000D02*
X133800000Y-60800000D01*
X141500000Y-72750000D02*
X142250000Y-72750000D01*
X142250000Y-72750000D02*
X146250000Y-68750000D01*
X146250000Y-68750000D02*
X146250000Y-65000000D01*
X166400000Y-51800000D02*
X164600000Y-53600000D01*
X164600000Y-53600000D02*
X164600000Y-61000000D01*
X164600000Y-61000000D02*
X164800000Y-61200000D01*
X164800000Y-61200000D02*
X164800000Y-64200000D01*
X164800000Y-64200000D02*
X165600000Y-65000000D01*
X165600000Y-65000000D02*
X165600000Y-73600000D01*
X165600000Y-73600000D02*
X163400000Y-75800000D01*
X163400000Y-75800000D02*
X135000000Y-75800000D01*
X164200000Y-76400000D02*
X164800000Y-76400000D01*
X137000000Y-77000000D02*
X137600000Y-76400000D01*
X137600000Y-76400000D02*
X164200000Y-76400000D01*
X165200000Y-56200000D02*
X166600000Y-54800000D01*
X165200000Y-61600000D02*
X165200000Y-56200000D01*
X166200000Y-62600000D02*
X165200000Y-61600000D01*
X166200000Y-75000000D02*
X166200000Y-62600000D01*
X164800000Y-76400000D02*
X166200000Y-75000000D01*
X125400000Y-80000000D02*
X137200000Y-80000000D01*
X124600000Y-79200000D02*
X125400000Y-80000000D01*
X127800000Y-80800000D02*
X134800000Y-80800000D01*
X133200000Y-77000000D02*
X135600000Y-77000000D01*
X131000000Y-74800000D02*
X133200000Y-77000000D01*
X129000000Y-65000000D02*
X129000000Y-61750000D01*
X129500000Y-62500000D02*
X129500000Y-64500000D01*
X124000000Y-76800000D02*
X125250000Y-78000000D01*
X158750000Y-78000000D02*
X125250000Y-78000000D01*
X157000000Y-79250000D02*
X154250000Y-79250000D01*
X157250000Y-79500000D02*
X157000000Y-79250000D01*
X139000000Y-74400000D02*
X150000000Y-74400000D01*
X134400000Y-74400000D02*
X138000000Y-74400000D01*
X138000000Y-74400000D02*
X139000000Y-74400000D01*
X150100000Y-74300000D02*
X151900000Y-74300000D01*
X150000000Y-74400000D02*
X150100000Y-74300000D01*
X134000000Y-69000000D02*
X134000000Y-65150000D01*
X134000000Y-65150000D02*
X135350000Y-63800000D01*
X135350000Y-63800000D02*
X135350000Y-56650000D01*
X135350000Y-56650000D02*
X136700000Y-55300000D01*
X135400000Y-70400000D02*
X134000000Y-69000000D01*
X128000000Y-64200000D02*
X128000000Y-57200000D01*
X126800000Y-65400000D02*
X128000000Y-64200000D01*
X126800000Y-69400000D02*
X126800000Y-65400000D01*
X128500000Y-57900000D02*
X134300000Y-52100000D01*
X128500000Y-64600000D02*
X128500000Y-57900000D01*
X128300000Y-64800000D02*
X128500000Y-64600000D01*
X128300000Y-68800000D02*
X128300000Y-64800000D01*
X127600000Y-69500000D02*
X128300000Y-68800000D01*
X124250000Y-78500000D02*
X160250000Y-78500000D01*
X138250000Y-77500000D02*
X164250000Y-77500000D01*
X130000000Y-76600000D02*
X131000000Y-77600000D01*
X130900000Y-66900000D02*
X130800000Y-67000000D01*
X130800000Y-67000000D02*
X130800000Y-72400000D01*
X130800000Y-72400000D02*
X129000000Y-74200000D01*
X129000000Y-74200000D02*
X129000000Y-75600000D01*
X129000000Y-75600000D02*
X130000000Y-76600000D01*
X130900000Y-64500000D02*
X130900000Y-66900000D01*
X137800000Y-77000000D02*
X143000000Y-77000000D01*
X137200000Y-77600000D02*
X137800000Y-77000000D01*
X131000000Y-77600000D02*
X137200000Y-77600000D01*
D22*
G36*
X154991063Y-38836769D02*
X154837309Y-38990255D01*
X154753995Y-39190897D01*
X154753805Y-39408149D01*
X154836769Y-39608937D01*
X154990255Y-39762691D01*
X155190897Y-39846005D01*
X155408149Y-39846195D01*
X155608937Y-39763231D01*
X155700024Y-39672303D01*
X155790255Y-39762691D01*
X155990897Y-39846005D01*
X156208149Y-39846195D01*
X156408937Y-39763231D01*
X156500024Y-39672303D01*
X156590255Y-39762691D01*
X156790897Y-39846005D01*
X157008149Y-39846195D01*
X157208937Y-39763231D01*
X157362691Y-39609745D01*
X157446005Y-39409103D01*
X157446195Y-39191851D01*
X157363231Y-38991063D01*
X157209745Y-38837309D01*
X157192625Y-38830200D01*
X168467479Y-38830200D01*
X170284580Y-39191643D01*
X171797474Y-40202528D01*
X172808357Y-41715422D01*
X173169800Y-43532521D01*
X173169800Y-57592500D01*
X171370875Y-57592500D01*
X171291500Y-57671875D01*
X171291500Y-58548500D01*
X171311500Y-58548500D01*
X171311500Y-59691500D01*
X171291500Y-59691500D01*
X171291500Y-60568125D01*
X171370875Y-60647500D01*
X173169800Y-60647500D01*
X173169800Y-66352500D01*
X171370875Y-66352500D01*
X171291500Y-66431875D01*
X171291500Y-67308500D01*
X171311500Y-67308500D01*
X171311500Y-68451500D01*
X171291500Y-68451500D01*
X171291500Y-69328125D01*
X171370875Y-69407500D01*
X173169800Y-69407500D01*
X173169800Y-83467479D01*
X172808357Y-85284578D01*
X171797474Y-86797472D01*
X170284580Y-87808357D01*
X168467479Y-88169800D01*
X118532521Y-88169800D01*
X116715422Y-87808357D01*
X115202528Y-86797474D01*
X114191643Y-85284580D01*
X113975232Y-84196604D01*
X114981891Y-84196604D01*
X115516270Y-85489901D01*
X116504895Y-86480253D01*
X117797256Y-87016888D01*
X119196604Y-87018109D01*
X120489901Y-86483730D01*
X121470966Y-85504375D01*
X123332500Y-85504375D01*
X123332500Y-85913155D01*
X123380837Y-86029850D01*
X123470151Y-86119164D01*
X123586846Y-86167500D01*
X123995625Y-86167500D01*
X124075000Y-86088125D01*
X124075000Y-85425000D01*
X124925000Y-85425000D01*
X124925000Y-86088125D01*
X125004375Y-86167500D01*
X125413154Y-86167500D01*
X125529849Y-86119164D01*
X125619163Y-86029850D01*
X125667500Y-85913155D01*
X125667500Y-85504375D01*
X125588125Y-85425000D01*
X124925000Y-85425000D01*
X124075000Y-85425000D01*
X123411875Y-85425000D01*
X123332500Y-85504375D01*
X121470966Y-85504375D01*
X121480253Y-85495105D01*
X121695336Y-84977127D01*
X125872500Y-84977127D01*
X125872500Y-85022873D01*
X125961371Y-85469656D01*
X126214453Y-85848420D01*
X126593217Y-86101502D01*
X127040000Y-86190373D01*
X127486783Y-86101502D01*
X127865547Y-85848420D01*
X128118629Y-85469656D01*
X128207500Y-85022873D01*
X128207500Y-84977127D01*
X128412500Y-84977127D01*
X128412500Y-85022873D01*
X128501371Y-85469656D01*
X128754453Y-85848420D01*
X129133217Y-86101502D01*
X129580000Y-86190373D01*
X130026783Y-86101502D01*
X130405547Y-85848420D01*
X130658629Y-85469656D01*
X130747500Y-85022873D01*
X130747500Y-84977127D01*
X130952500Y-84977127D01*
X130952500Y-85022873D01*
X131041371Y-85469656D01*
X131294453Y-85848420D01*
X131673217Y-86101502D01*
X132120000Y-86190373D01*
X132566783Y-86101502D01*
X132945547Y-85848420D01*
X133198629Y-85469656D01*
X133287500Y-85022873D01*
X133287500Y-84977127D01*
X133492500Y-84977127D01*
X133492500Y-85022873D01*
X133581371Y-85469656D01*
X133834453Y-85848420D01*
X134213217Y-86101502D01*
X134660000Y-86190373D01*
X135106783Y-86101502D01*
X135485547Y-85848420D01*
X135738629Y-85469656D01*
X135827500Y-85022873D01*
X135827500Y-84977127D01*
X136032500Y-84977127D01*
X136032500Y-85022873D01*
X136121371Y-85469656D01*
X136374453Y-85848420D01*
X136753217Y-86101502D01*
X137200000Y-86190373D01*
X137646783Y-86101502D01*
X138025547Y-85848420D01*
X138255430Y-85504375D01*
X140332500Y-85504375D01*
X140332500Y-85913155D01*
X140380837Y-86029850D01*
X140470151Y-86119164D01*
X140586846Y-86167500D01*
X140995625Y-86167500D01*
X141075000Y-86088125D01*
X141075000Y-85425000D01*
X141925000Y-85425000D01*
X141925000Y-86088125D01*
X142004375Y-86167500D01*
X142413154Y-86167500D01*
X142529849Y-86119164D01*
X142619163Y-86029850D01*
X142667500Y-85913155D01*
X142667500Y-85504375D01*
X142588125Y-85425000D01*
X141925000Y-85425000D01*
X141075000Y-85425000D01*
X140411875Y-85425000D01*
X140332500Y-85504375D01*
X138255430Y-85504375D01*
X138278629Y-85469656D01*
X138367500Y-85022873D01*
X138367500Y-84977127D01*
X142872500Y-84977127D01*
X142872500Y-85022873D01*
X142961371Y-85469656D01*
X143214453Y-85848420D01*
X143593217Y-86101502D01*
X144040000Y-86190373D01*
X144486783Y-86101502D01*
X144865547Y-85848420D01*
X145118629Y-85469656D01*
X145207500Y-85022873D01*
X145207500Y-84977127D01*
X145412500Y-84977127D01*
X145412500Y-85022873D01*
X145501371Y-85469656D01*
X145754453Y-85848420D01*
X146133217Y-86101502D01*
X146580000Y-86190373D01*
X147026783Y-86101502D01*
X147405547Y-85848420D01*
X147658629Y-85469656D01*
X147747500Y-85022873D01*
X147747500Y-84977127D01*
X147658629Y-84530344D01*
X147435632Y-84196604D01*
X164981891Y-84196604D01*
X165516270Y-85489901D01*
X166504895Y-86480253D01*
X167797256Y-87016888D01*
X169196604Y-87018109D01*
X170489901Y-86483730D01*
X171480253Y-85495105D01*
X172016888Y-84202744D01*
X172018109Y-82803396D01*
X171483730Y-81510099D01*
X170495105Y-80519747D01*
X169202744Y-79983112D01*
X167803396Y-79981891D01*
X166510099Y-80516270D01*
X165519747Y-81504895D01*
X164983112Y-82797256D01*
X164981891Y-84196604D01*
X147435632Y-84196604D01*
X147405547Y-84151580D01*
X147026783Y-83898498D01*
X146580000Y-83809627D01*
X146133217Y-83898498D01*
X145754453Y-84151580D01*
X145501371Y-84530344D01*
X145412500Y-84977127D01*
X145207500Y-84977127D01*
X145118629Y-84530344D01*
X144865547Y-84151580D01*
X144486783Y-83898498D01*
X144040000Y-83809627D01*
X143593217Y-83898498D01*
X143214453Y-84151580D01*
X142961371Y-84530344D01*
X142872500Y-84977127D01*
X138367500Y-84977127D01*
X138278629Y-84530344D01*
X138025547Y-84151580D01*
X137928665Y-84086845D01*
X140332500Y-84086845D01*
X140332500Y-84495625D01*
X140411875Y-84575000D01*
X141075000Y-84575000D01*
X141075000Y-83911875D01*
X141925000Y-83911875D01*
X141925000Y-84575000D01*
X142588125Y-84575000D01*
X142667500Y-84495625D01*
X142667500Y-84086845D01*
X142619163Y-83970150D01*
X142529849Y-83880836D01*
X142413154Y-83832500D01*
X142004375Y-83832500D01*
X141925000Y-83911875D01*
X141075000Y-83911875D01*
X140995625Y-83832500D01*
X140586846Y-83832500D01*
X140470151Y-83880836D01*
X140380837Y-83970150D01*
X140332500Y-84086845D01*
X137928665Y-84086845D01*
X137646783Y-83898498D01*
X137200000Y-83809627D01*
X136753217Y-83898498D01*
X136374453Y-84151580D01*
X136121371Y-84530344D01*
X136032500Y-84977127D01*
X135827500Y-84977127D01*
X135738629Y-84530344D01*
X135485547Y-84151580D01*
X135106783Y-83898498D01*
X134660000Y-83809627D01*
X134213217Y-83898498D01*
X133834453Y-84151580D01*
X133581371Y-84530344D01*
X133492500Y-84977127D01*
X133287500Y-84977127D01*
X133198629Y-84530344D01*
X132945547Y-84151580D01*
X132566783Y-83898498D01*
X132120000Y-83809627D01*
X131673217Y-83898498D01*
X131294453Y-84151580D01*
X131041371Y-84530344D01*
X130952500Y-84977127D01*
X130747500Y-84977127D01*
X130658629Y-84530344D01*
X130405547Y-84151580D01*
X130026783Y-83898498D01*
X129580000Y-83809627D01*
X129133217Y-83898498D01*
X128754453Y-84151580D01*
X128501371Y-84530344D01*
X128412500Y-84977127D01*
X128207500Y-84977127D01*
X128118629Y-84530344D01*
X127865547Y-84151580D01*
X127486783Y-83898498D01*
X127040000Y-83809627D01*
X126593217Y-83898498D01*
X126214453Y-84151580D01*
X125961371Y-84530344D01*
X125872500Y-84977127D01*
X121695336Y-84977127D01*
X122016888Y-84202744D01*
X122016989Y-84086845D01*
X123332500Y-84086845D01*
X123332500Y-84495625D01*
X123411875Y-84575000D01*
X124075000Y-84575000D01*
X124075000Y-83911875D01*
X124925000Y-83911875D01*
X124925000Y-84575000D01*
X125588125Y-84575000D01*
X125667500Y-84495625D01*
X125667500Y-84086845D01*
X125619163Y-83970150D01*
X125529849Y-83880836D01*
X125413154Y-83832500D01*
X125004375Y-83832500D01*
X124925000Y-83911875D01*
X124075000Y-83911875D01*
X123995625Y-83832500D01*
X123586846Y-83832500D01*
X123470151Y-83880836D01*
X123380837Y-83970150D01*
X123332500Y-84086845D01*
X122016989Y-84086845D01*
X122017755Y-83208149D01*
X156753805Y-83208149D01*
X156836769Y-83408937D01*
X156990255Y-83562691D01*
X157190897Y-83646005D01*
X157408149Y-83646195D01*
X157608937Y-83563231D01*
X157762691Y-83409745D01*
X157846005Y-83209103D01*
X157846195Y-82991851D01*
X157763231Y-82791063D01*
X157609745Y-82637309D01*
X157409103Y-82553995D01*
X157191851Y-82553805D01*
X156991063Y-82636769D01*
X156837309Y-82790255D01*
X156753995Y-82990897D01*
X156753805Y-83208149D01*
X122017755Y-83208149D01*
X122018109Y-82803396D01*
X121483730Y-81510099D01*
X121082481Y-81108149D01*
X126053805Y-81108149D01*
X126136769Y-81308937D01*
X126290255Y-81462691D01*
X126490897Y-81546005D01*
X126708149Y-81546195D01*
X126908937Y-81463231D01*
X127062691Y-81309745D01*
X127146005Y-81109103D01*
X127146195Y-80891851D01*
X127063231Y-80691063D01*
X126909745Y-80537309D01*
X126709103Y-80453995D01*
X126491851Y-80453805D01*
X126291063Y-80536769D01*
X126137309Y-80690255D01*
X126053995Y-80890897D01*
X126053805Y-81108149D01*
X121082481Y-81108149D01*
X120495105Y-80519747D01*
X119202744Y-79983112D01*
X117803396Y-79981891D01*
X116510099Y-80516270D01*
X115519747Y-81504895D01*
X114983112Y-82797256D01*
X114981891Y-84196604D01*
X113975232Y-84196604D01*
X113830200Y-83467479D01*
X113830200Y-73200000D01*
X115809627Y-73200000D01*
X115898498Y-73646783D01*
X116151580Y-74025547D01*
X116530344Y-74278629D01*
X116977127Y-74367500D01*
X117022873Y-74367500D01*
X117469656Y-74278629D01*
X117848420Y-74025547D01*
X118101502Y-73646783D01*
X118190373Y-73200000D01*
X118101502Y-72753217D01*
X117848420Y-72374453D01*
X117469656Y-72121371D01*
X117022873Y-72032500D01*
X116977127Y-72032500D01*
X116530344Y-72121371D01*
X116151580Y-72374453D01*
X115898498Y-72753217D01*
X115809627Y-73200000D01*
X113830200Y-73200000D01*
X113830200Y-70660000D01*
X115809627Y-70660000D01*
X115898498Y-71106783D01*
X116151580Y-71485547D01*
X116530344Y-71738629D01*
X116977127Y-71827500D01*
X117022873Y-71827500D01*
X117469656Y-71738629D01*
X117848420Y-71485547D01*
X118101502Y-71106783D01*
X118190373Y-70660000D01*
X118101502Y-70213217D01*
X117848420Y-69834453D01*
X117469656Y-69581371D01*
X117022873Y-69492500D01*
X116977127Y-69492500D01*
X116530344Y-69581371D01*
X116151580Y-69834453D01*
X115898498Y-70213217D01*
X115809627Y-70660000D01*
X113830200Y-70660000D01*
X113830200Y-68120000D01*
X115809627Y-68120000D01*
X115898498Y-68566783D01*
X116151580Y-68945547D01*
X116530344Y-69198629D01*
X116977127Y-69287500D01*
X117022873Y-69287500D01*
X117469656Y-69198629D01*
X117848420Y-68945547D01*
X118101502Y-68566783D01*
X118190373Y-68120000D01*
X118101502Y-67673217D01*
X117848420Y-67294453D01*
X117469656Y-67041371D01*
X117022873Y-66952500D01*
X116977127Y-66952500D01*
X116530344Y-67041371D01*
X116151580Y-67294453D01*
X115898498Y-67673217D01*
X115809627Y-68120000D01*
X113830200Y-68120000D01*
X113830200Y-65580000D01*
X115809627Y-65580000D01*
X115898498Y-66026783D01*
X116151580Y-66405547D01*
X116530344Y-66658629D01*
X116977127Y-66747500D01*
X117022873Y-66747500D01*
X117469656Y-66658629D01*
X117848420Y-66405547D01*
X118101502Y-66026783D01*
X118190373Y-65580000D01*
X118101502Y-65133217D01*
X117848420Y-64754453D01*
X117469656Y-64501371D01*
X117022873Y-64412500D01*
X116977127Y-64412500D01*
X116530344Y-64501371D01*
X116151580Y-64754453D01*
X115898498Y-65133217D01*
X115809627Y-65580000D01*
X113830200Y-65580000D01*
X113830200Y-63040000D01*
X115809627Y-63040000D01*
X115898498Y-63486783D01*
X116151580Y-63865547D01*
X116530344Y-64118629D01*
X116977127Y-64207500D01*
X117022873Y-64207500D01*
X117469656Y-64118629D01*
X117848420Y-63865547D01*
X118101502Y-63486783D01*
X118190373Y-63040000D01*
X118101502Y-62593217D01*
X117848420Y-62214453D01*
X117469656Y-61961371D01*
X117022873Y-61872500D01*
X116977127Y-61872500D01*
X116530344Y-61961371D01*
X116151580Y-62214453D01*
X115898498Y-62593217D01*
X115809627Y-63040000D01*
X113830200Y-63040000D01*
X113830200Y-61004375D01*
X115832500Y-61004375D01*
X115832500Y-61413154D01*
X115880836Y-61529849D01*
X115970150Y-61619163D01*
X116086845Y-61667500D01*
X116495625Y-61667500D01*
X116575000Y-61588125D01*
X116575000Y-60925000D01*
X117425000Y-60925000D01*
X117425000Y-61588125D01*
X117504375Y-61667500D01*
X117913155Y-61667500D01*
X118029850Y-61619163D01*
X118119164Y-61529849D01*
X118167500Y-61413154D01*
X118167500Y-61004375D01*
X118088125Y-60925000D01*
X117425000Y-60925000D01*
X116575000Y-60925000D01*
X115911875Y-60925000D01*
X115832500Y-61004375D01*
X113830200Y-61004375D01*
X113830200Y-59586846D01*
X115832500Y-59586846D01*
X115832500Y-59995625D01*
X115911875Y-60075000D01*
X116575000Y-60075000D01*
X116575000Y-59411875D01*
X117425000Y-59411875D01*
X117425000Y-60075000D01*
X118088125Y-60075000D01*
X118167500Y-59995625D01*
X118167500Y-59586846D01*
X118119164Y-59470151D01*
X118029850Y-59380837D01*
X117913155Y-59332500D01*
X117504375Y-59332500D01*
X117425000Y-59411875D01*
X116575000Y-59411875D01*
X116495625Y-59332500D01*
X116086845Y-59332500D01*
X115970150Y-59380837D01*
X115880836Y-59470151D01*
X115832500Y-59586846D01*
X113830200Y-59586846D01*
X113830200Y-54629874D01*
X115992475Y-54629874D01*
X116069441Y-54745134D01*
X116410119Y-55047568D01*
X116575000Y-55048066D01*
X116575000Y-54465000D01*
X117425000Y-54465000D01*
X117425000Y-55048066D01*
X117589881Y-55047568D01*
X117930559Y-54745134D01*
X118007525Y-54629874D01*
X118001694Y-54465000D01*
X117425000Y-54465000D01*
X116575000Y-54465000D01*
X115998306Y-54465000D01*
X115992475Y-54629874D01*
X113830200Y-54629874D01*
X113830200Y-53450126D01*
X115992475Y-53450126D01*
X115998306Y-53615000D01*
X116575000Y-53615000D01*
X117425000Y-53615000D01*
X118001694Y-53615000D01*
X118007525Y-53450126D01*
X117930559Y-53334866D01*
X117589881Y-53032432D01*
X117425000Y-53031934D01*
X117425000Y-53615000D01*
X116575000Y-53615000D01*
X116575000Y-53031934D01*
X116410119Y-53032432D01*
X116069441Y-53334866D01*
X115992475Y-53450126D01*
X113830200Y-53450126D01*
X113830200Y-50650000D01*
X115826280Y-50650000D01*
X115826280Y-52350000D01*
X115848419Y-52467658D01*
X115917955Y-52575721D01*
X116024055Y-52648215D01*
X116150000Y-52673720D01*
X117850000Y-52673720D01*
X117967658Y-52651581D01*
X118075721Y-52582045D01*
X118148215Y-52475945D01*
X118173720Y-52350000D01*
X118173720Y-50650000D01*
X118151581Y-50532342D01*
X118082045Y-50424279D01*
X117975945Y-50351785D01*
X117850000Y-50326280D01*
X116150000Y-50326280D01*
X116032342Y-50348419D01*
X115924279Y-50417955D01*
X115851785Y-50524055D01*
X115826280Y-50650000D01*
X113830200Y-50650000D01*
X113830200Y-44196604D01*
X114981891Y-44196604D01*
X115516270Y-45489901D01*
X116504895Y-46480253D01*
X117797256Y-47016888D01*
X119196604Y-47018109D01*
X120489901Y-46483730D01*
X121330900Y-45644198D01*
X121330900Y-65750000D01*
X121362802Y-65910383D01*
X121414129Y-65987198D01*
X121453652Y-66046348D01*
X124330900Y-68923597D01*
X124330900Y-74250000D01*
X124362802Y-74410383D01*
X124453652Y-74546348D01*
X126453859Y-76546556D01*
X126453805Y-76608149D01*
X126536769Y-76808937D01*
X126690255Y-76962691D01*
X126829954Y-77020699D01*
X126791063Y-77036769D01*
X126637309Y-77190255D01*
X126553995Y-77390897D01*
X126553829Y-77580900D01*
X125418609Y-77580900D01*
X124546150Y-76743340D01*
X124546195Y-76691851D01*
X124463231Y-76491063D01*
X124309745Y-76337309D01*
X124109103Y-76253995D01*
X123891851Y-76253805D01*
X123691063Y-76336769D01*
X123537309Y-76490255D01*
X123453995Y-76690897D01*
X123453805Y-76908149D01*
X123536769Y-77108937D01*
X123690255Y-77262691D01*
X123890897Y-77346005D01*
X123963651Y-77346069D01*
X124729101Y-78080900D01*
X124603260Y-78080900D01*
X124559745Y-78037309D01*
X124359103Y-77953995D01*
X124141851Y-77953805D01*
X123941063Y-78036769D01*
X123787309Y-78190255D01*
X123703995Y-78390897D01*
X123703805Y-78608149D01*
X123786769Y-78808937D01*
X123940255Y-78962691D01*
X124082675Y-79021829D01*
X124053995Y-79090897D01*
X124053805Y-79308149D01*
X124136769Y-79508937D01*
X124290255Y-79662691D01*
X124490897Y-79746005D01*
X124553363Y-79746060D01*
X125103652Y-80296349D01*
X125185157Y-80350809D01*
X125239617Y-80387198D01*
X125400000Y-80419100D01*
X127408588Y-80419100D01*
X127337309Y-80490255D01*
X127253995Y-80690897D01*
X127253805Y-80908149D01*
X127336769Y-81108937D01*
X127490255Y-81262691D01*
X127690897Y-81346005D01*
X127908149Y-81346195D01*
X128108937Y-81263231D01*
X128153145Y-81219100D01*
X134446740Y-81219100D01*
X134490255Y-81262691D01*
X134690897Y-81346005D01*
X134908149Y-81346195D01*
X135108937Y-81263231D01*
X135262691Y-81109745D01*
X135346005Y-80909103D01*
X135346195Y-80691851D01*
X135263231Y-80491063D01*
X135191393Y-80419100D01*
X136846740Y-80419100D01*
X136890255Y-80462691D01*
X137090897Y-80546005D01*
X137308149Y-80546195D01*
X137508937Y-80463231D01*
X137662691Y-80309745D01*
X137746005Y-80109103D01*
X137746195Y-79891851D01*
X137663231Y-79691063D01*
X137509745Y-79537309D01*
X137309103Y-79453995D01*
X137091851Y-79453805D01*
X136891063Y-79536769D01*
X136846855Y-79580900D01*
X133446030Y-79580900D01*
X133446195Y-79391851D01*
X133363231Y-79191063D01*
X133209745Y-79037309D01*
X133009103Y-78953995D01*
X132791851Y-78953805D01*
X132591063Y-79036769D01*
X132437309Y-79190255D01*
X132353995Y-79390897D01*
X132353829Y-79580900D01*
X125573597Y-79580900D01*
X125146141Y-79153445D01*
X125146195Y-79091851D01*
X125074816Y-78919100D01*
X153808501Y-78919100D01*
X153787309Y-78940255D01*
X153703995Y-79140897D01*
X153703805Y-79358149D01*
X153786769Y-79558937D01*
X153940255Y-79712691D01*
X154140897Y-79796005D01*
X154358149Y-79796195D01*
X154558937Y-79713231D01*
X154603145Y-79669100D01*
X156728989Y-79669100D01*
X156786769Y-79808937D01*
X156940255Y-79962691D01*
X157140897Y-80046005D01*
X157358149Y-80046195D01*
X157558937Y-79963231D01*
X157712691Y-79809745D01*
X157796005Y-79609103D01*
X157796195Y-79391851D01*
X157713231Y-79191063D01*
X157559745Y-79037309D01*
X157359103Y-78953995D01*
X157296636Y-78953940D01*
X157296348Y-78953652D01*
X157244638Y-78919100D01*
X159896740Y-78919100D01*
X159940255Y-78962691D01*
X160140897Y-79046005D01*
X160358149Y-79046195D01*
X160558937Y-78963231D01*
X160712691Y-78809745D01*
X160796005Y-78609103D01*
X160796195Y-78391851D01*
X160713231Y-78191063D01*
X160559745Y-78037309D01*
X160359103Y-77953995D01*
X160141851Y-77953805D01*
X159941063Y-78036769D01*
X159896855Y-78080900D01*
X159296030Y-78080900D01*
X159296171Y-77919100D01*
X163896740Y-77919100D01*
X163940255Y-77962691D01*
X164140897Y-78046005D01*
X164358149Y-78046195D01*
X164558937Y-77963231D01*
X164712691Y-77809745D01*
X164796005Y-77609103D01*
X164796195Y-77391851D01*
X164713231Y-77191063D01*
X164559745Y-77037309D01*
X164359103Y-76953995D01*
X164141851Y-76953805D01*
X163941063Y-77036769D01*
X163896855Y-77080900D01*
X144416192Y-77080900D01*
X144446005Y-77009103D01*
X144446171Y-76819100D01*
X164800000Y-76819100D01*
X164960383Y-76787198D01*
X165096348Y-76696348D01*
X166496348Y-75296348D01*
X166524648Y-75253995D01*
X166587198Y-75160383D01*
X166617479Y-75008149D01*
X166753805Y-75008149D01*
X166836769Y-75208937D01*
X166990255Y-75362691D01*
X167190897Y-75446005D01*
X167408149Y-75446195D01*
X167608937Y-75363231D01*
X167762691Y-75209745D01*
X167846005Y-75009103D01*
X167846195Y-74791851D01*
X167763231Y-74591063D01*
X167609745Y-74437309D01*
X167409103Y-74353995D01*
X167191851Y-74353805D01*
X166991063Y-74436769D01*
X166837309Y-74590255D01*
X166753995Y-74790897D01*
X166753805Y-75008149D01*
X166617479Y-75008149D01*
X166619100Y-75000000D01*
X166619100Y-68197953D01*
X166742678Y-68074375D01*
X166937500Y-68074375D01*
X166937500Y-68173154D01*
X166985836Y-68289849D01*
X167075150Y-68379163D01*
X167109539Y-68393408D01*
X166957972Y-68544975D01*
X167016855Y-68654754D01*
X167333372Y-68696480D01*
X167543145Y-68654754D01*
X167602028Y-68544975D01*
X167448839Y-68391786D01*
X167492500Y-68348125D01*
X167492500Y-67995000D01*
X167016875Y-67995000D01*
X166937500Y-68074375D01*
X166742678Y-68074375D01*
X166937053Y-67880000D01*
X167622947Y-67880000D01*
X167862500Y-68119553D01*
X167862500Y-68451502D01*
X167941873Y-68451502D01*
X167862500Y-68530875D01*
X167862500Y-69153154D01*
X167910836Y-69269849D01*
X168000150Y-69359163D01*
X168116845Y-69407500D01*
X170069125Y-69407500D01*
X170148500Y-69328125D01*
X170148500Y-68451500D01*
X170128500Y-68451500D01*
X170128500Y-67308500D01*
X170148500Y-67308500D01*
X170148500Y-66431875D01*
X170069125Y-66352500D01*
X168116845Y-66352500D01*
X168000150Y-66400837D01*
X167910836Y-66490151D01*
X167862500Y-66606846D01*
X167862500Y-67229125D01*
X167941873Y-67308498D01*
X167862500Y-67308498D01*
X167862500Y-67640447D01*
X167622947Y-67880000D01*
X166937053Y-67880000D01*
X166643899Y-67586846D01*
X166937500Y-67586846D01*
X166937500Y-67685625D01*
X167016875Y-67765000D01*
X167492500Y-67765000D01*
X167492500Y-67411875D01*
X167448839Y-67368214D01*
X167602028Y-67215025D01*
X167543145Y-67105246D01*
X167226628Y-67063520D01*
X167016855Y-67105246D01*
X166957972Y-67215025D01*
X167109539Y-67366592D01*
X167075150Y-67380837D01*
X166985836Y-67470151D01*
X166937500Y-67586846D01*
X166643899Y-67586846D01*
X166619100Y-67562047D01*
X166619100Y-62600000D01*
X166599209Y-62500000D01*
X166587199Y-62439618D01*
X166496349Y-62303652D01*
X165619100Y-61426404D01*
X165619100Y-59173372D01*
X166463520Y-59173372D01*
X166505246Y-59383145D01*
X166615025Y-59442028D01*
X166742678Y-59314375D01*
X166937500Y-59314375D01*
X166937500Y-59413154D01*
X166985836Y-59529849D01*
X167075150Y-59619163D01*
X167109539Y-59633408D01*
X166957972Y-59784975D01*
X167016855Y-59894754D01*
X167333372Y-59936480D01*
X167543145Y-59894754D01*
X167602028Y-59784975D01*
X167448839Y-59631786D01*
X167492500Y-59588125D01*
X167492500Y-59235000D01*
X167016875Y-59235000D01*
X166937500Y-59314375D01*
X166742678Y-59314375D01*
X166937053Y-59120000D01*
X167622947Y-59120000D01*
X167862500Y-59359553D01*
X167862500Y-59691502D01*
X167941873Y-59691502D01*
X167862500Y-59770875D01*
X167862500Y-60393154D01*
X167910836Y-60509849D01*
X168000150Y-60599163D01*
X168116845Y-60647500D01*
X170069125Y-60647500D01*
X170148500Y-60568125D01*
X170148500Y-59691500D01*
X170128500Y-59691500D01*
X170128500Y-58548500D01*
X170148500Y-58548500D01*
X170148500Y-57671875D01*
X170069125Y-57592500D01*
X168116845Y-57592500D01*
X168000150Y-57640837D01*
X167910836Y-57730151D01*
X167862500Y-57846846D01*
X167862500Y-58469125D01*
X167941873Y-58548498D01*
X167862500Y-58548498D01*
X167862500Y-58880447D01*
X167622947Y-59120000D01*
X166937053Y-59120000D01*
X166643899Y-58826846D01*
X166937500Y-58826846D01*
X166937500Y-58925625D01*
X167016875Y-59005000D01*
X167492500Y-59005000D01*
X167492500Y-58651875D01*
X167448839Y-58608214D01*
X167602028Y-58455025D01*
X167543145Y-58345246D01*
X167226628Y-58303520D01*
X167016855Y-58345246D01*
X166957972Y-58455025D01*
X167109539Y-58606592D01*
X167075150Y-58620837D01*
X166985836Y-58710151D01*
X166937500Y-58826846D01*
X166643899Y-58826846D01*
X166615025Y-58797972D01*
X166505246Y-58856855D01*
X166463520Y-59173372D01*
X165619100Y-59173372D01*
X165619100Y-56373596D01*
X166646555Y-55346141D01*
X166708149Y-55346195D01*
X166908937Y-55263231D01*
X167062691Y-55109745D01*
X167146005Y-54909103D01*
X167146195Y-54691851D01*
X167063231Y-54491063D01*
X166909745Y-54337309D01*
X166709103Y-54253995D01*
X166491851Y-54253805D01*
X166291063Y-54336769D01*
X166137309Y-54490255D01*
X166053995Y-54690897D01*
X166053940Y-54753364D01*
X165019100Y-55788204D01*
X165019100Y-53773596D01*
X166446556Y-52346141D01*
X166508149Y-52346195D01*
X166708937Y-52263231D01*
X166862691Y-52109745D01*
X166946005Y-51909103D01*
X166946195Y-51691851D01*
X166863231Y-51491063D01*
X166709745Y-51337309D01*
X166509103Y-51253995D01*
X166291851Y-51253805D01*
X166091063Y-51336769D01*
X165937309Y-51490255D01*
X165853995Y-51690897D01*
X165853940Y-51753363D01*
X164303652Y-53303652D01*
X164212802Y-53439617D01*
X164180900Y-53600000D01*
X164180900Y-61000000D01*
X164212802Y-61160383D01*
X164297251Y-61286769D01*
X164303652Y-61296348D01*
X164380900Y-61373596D01*
X164380900Y-64200000D01*
X164412802Y-64360383D01*
X164475352Y-64453995D01*
X164503652Y-64496348D01*
X165180900Y-65173597D01*
X165180900Y-73426403D01*
X163226404Y-75380900D01*
X135353260Y-75380900D01*
X135309745Y-75337309D01*
X135109103Y-75253995D01*
X134891851Y-75253805D01*
X134691063Y-75336769D01*
X134537309Y-75490255D01*
X134453995Y-75690897D01*
X134453805Y-75908149D01*
X134536769Y-76108937D01*
X134690255Y-76262691D01*
X134890897Y-76346005D01*
X135108149Y-76346195D01*
X135308937Y-76263231D01*
X135353145Y-76219100D01*
X137188203Y-76219100D01*
X136953445Y-76453859D01*
X136891851Y-76453805D01*
X136691063Y-76536769D01*
X136537309Y-76690255D01*
X136453995Y-76890897D01*
X136453805Y-77108149D01*
X136483865Y-77180900D01*
X136116192Y-77180900D01*
X136146005Y-77109103D01*
X136146195Y-76891851D01*
X136063231Y-76691063D01*
X135909745Y-76537309D01*
X135709103Y-76453995D01*
X135491851Y-76453805D01*
X135291063Y-76536769D01*
X135246855Y-76580900D01*
X133373597Y-76580900D01*
X131546141Y-74753445D01*
X131546195Y-74691851D01*
X131463231Y-74491063D01*
X131309745Y-74337309D01*
X131109103Y-74253995D01*
X130891851Y-74253805D01*
X130691063Y-74336769D01*
X130537309Y-74490255D01*
X130453995Y-74690897D01*
X130453805Y-74908149D01*
X130536769Y-75108937D01*
X130690255Y-75262691D01*
X130890897Y-75346005D01*
X130953364Y-75346060D01*
X132788203Y-77180900D01*
X131173597Y-77180900D01*
X130296351Y-76303655D01*
X130296349Y-76303652D01*
X129419100Y-75426404D01*
X129419100Y-74791412D01*
X129490255Y-74862691D01*
X129690897Y-74946005D01*
X129908149Y-74946195D01*
X130108937Y-74863231D01*
X130262691Y-74709745D01*
X130346005Y-74509103D01*
X130346060Y-74446636D01*
X132496349Y-72296348D01*
X132587199Y-72160382D01*
X132619100Y-72000000D01*
X132619100Y-71014648D01*
X132956339Y-71351887D01*
X133188587Y-71119639D01*
X133170405Y-71101457D01*
X133238733Y-71087865D01*
X133269682Y-70985208D01*
X133000000Y-70715526D01*
X132892237Y-70823289D01*
X132676711Y-70607763D01*
X132784474Y-70500000D01*
X133215526Y-70500000D01*
X133485208Y-70769682D01*
X133587865Y-70738733D01*
X133634476Y-70495594D01*
X133587865Y-70261267D01*
X133485208Y-70230318D01*
X133215526Y-70500000D01*
X132784474Y-70500000D01*
X132676711Y-70392237D01*
X132892237Y-70176711D01*
X133000000Y-70284474D01*
X133269682Y-70014792D01*
X133238733Y-69912135D01*
X133169991Y-69898957D01*
X133188587Y-69880361D01*
X133058226Y-69750000D01*
X133188587Y-69619639D01*
X133170405Y-69601457D01*
X133238733Y-69587865D01*
X133269682Y-69485208D01*
X133000000Y-69215526D01*
X132892237Y-69323289D01*
X132676711Y-69107763D01*
X132784474Y-69000000D01*
X132676711Y-68892237D01*
X132892237Y-68676711D01*
X133000000Y-68784474D01*
X133269682Y-68514792D01*
X133238733Y-68412135D01*
X133169991Y-68398957D01*
X133188587Y-68380361D01*
X133058226Y-68250000D01*
X133188587Y-68119639D01*
X133170405Y-68101457D01*
X133238733Y-68087865D01*
X133269682Y-67985208D01*
X133000000Y-67715526D01*
X132892237Y-67823289D01*
X132676711Y-67607763D01*
X132784474Y-67500000D01*
X132676711Y-67392237D01*
X132892237Y-67176711D01*
X133000000Y-67284474D01*
X133269682Y-67014792D01*
X133238733Y-66912135D01*
X133169991Y-66898957D01*
X133188587Y-66880361D01*
X132956339Y-66648113D01*
X132619100Y-66985352D01*
X132619100Y-65600000D01*
X132600830Y-65508149D01*
X132653805Y-65508149D01*
X132736769Y-65708937D01*
X132890255Y-65862691D01*
X133090897Y-65946005D01*
X133308149Y-65946195D01*
X133508937Y-65863231D01*
X133580900Y-65791393D01*
X133580900Y-67259167D01*
X133485208Y-67230318D01*
X133215526Y-67500000D01*
X133485208Y-67769682D01*
X133580900Y-67740833D01*
X133580900Y-68759167D01*
X133485208Y-68730318D01*
X133215526Y-69000000D01*
X133485208Y-69269682D01*
X133587865Y-69238733D01*
X133607752Y-69134995D01*
X133612802Y-69160383D01*
X133685834Y-69269682D01*
X133703652Y-69296348D01*
X134853859Y-70446555D01*
X134853805Y-70508149D01*
X134936769Y-70708937D01*
X135090255Y-70862691D01*
X135154611Y-70889414D01*
X135153995Y-70890897D01*
X135153805Y-71108149D01*
X135236769Y-71308937D01*
X135390255Y-71462691D01*
X135590897Y-71546005D01*
X135808149Y-71546195D01*
X136008937Y-71463231D01*
X136162691Y-71309745D01*
X136246005Y-71109103D01*
X136246195Y-70891851D01*
X136163231Y-70691063D01*
X136009745Y-70537309D01*
X135945389Y-70510586D01*
X135946005Y-70509103D01*
X135946195Y-70291851D01*
X135863231Y-70091063D01*
X135747390Y-69975020D01*
X135762691Y-69959745D01*
X135846005Y-69759103D01*
X135846195Y-69541851D01*
X135763231Y-69341063D01*
X135609745Y-69187309D01*
X135409103Y-69103995D01*
X135191851Y-69103805D01*
X134991063Y-69186769D01*
X134885172Y-69292476D01*
X134419100Y-68826404D01*
X134419100Y-67808149D01*
X134653805Y-67808149D01*
X134736769Y-68008937D01*
X134890255Y-68162691D01*
X135090897Y-68246005D01*
X135308149Y-68246195D01*
X135508937Y-68163231D01*
X135662691Y-68009745D01*
X135746005Y-67809103D01*
X135746195Y-67591851D01*
X135663231Y-67391063D01*
X135509745Y-67237309D01*
X135309103Y-67153995D01*
X135091851Y-67153805D01*
X134891063Y-67236769D01*
X134737309Y-67390255D01*
X134653995Y-67590897D01*
X134653805Y-67808149D01*
X134419100Y-67808149D01*
X134419100Y-65891412D01*
X134490255Y-65962691D01*
X134690897Y-66046005D01*
X134908149Y-66046195D01*
X135108937Y-65963231D01*
X135262691Y-65809745D01*
X135346005Y-65609103D01*
X135346195Y-65391851D01*
X135263231Y-65191063D01*
X135109745Y-65037309D01*
X134909103Y-64953995D01*
X134788807Y-64953890D01*
X135646348Y-64096349D01*
X135737198Y-63960383D01*
X135748482Y-63903652D01*
X135769100Y-63800000D01*
X135769100Y-56823596D01*
X136746556Y-55846141D01*
X136808149Y-55846195D01*
X137008937Y-55763231D01*
X137162691Y-55609745D01*
X137246005Y-55409103D01*
X137246195Y-55191851D01*
X137163231Y-54991063D01*
X137009745Y-54837309D01*
X136809103Y-54753995D01*
X136591851Y-54753805D01*
X136391063Y-54836769D01*
X136237309Y-54990255D01*
X136153995Y-55190897D01*
X136153940Y-55253363D01*
X135053652Y-56353652D01*
X134962802Y-56489617D01*
X134930900Y-56650000D01*
X134930900Y-63626403D01*
X133703652Y-64853652D01*
X133612802Y-64989617D01*
X133604355Y-65032084D01*
X133509745Y-64937309D01*
X133309103Y-64853995D01*
X133091851Y-64853805D01*
X132891063Y-64936769D01*
X132737309Y-65090255D01*
X132653995Y-65290897D01*
X132653805Y-65508149D01*
X132600830Y-65508149D01*
X132587198Y-65439617D01*
X132535797Y-65362691D01*
X132496348Y-65303651D01*
X132446141Y-65253444D01*
X132446195Y-65191851D01*
X132363231Y-64991063D01*
X132209745Y-64837309D01*
X132100676Y-64792020D01*
X134096349Y-62796348D01*
X134187199Y-62660382D01*
X134219100Y-62500000D01*
X134219100Y-60973596D01*
X134246555Y-60946141D01*
X134308149Y-60946195D01*
X134508937Y-60863231D01*
X134662691Y-60709745D01*
X134746005Y-60509103D01*
X134746195Y-60291851D01*
X134663231Y-60091063D01*
X134509745Y-59937309D01*
X134309103Y-59853995D01*
X134091851Y-59853805D01*
X133891063Y-59936769D01*
X133737309Y-60090255D01*
X133653995Y-60290897D01*
X133653940Y-60353363D01*
X133503652Y-60503652D01*
X133412802Y-60639617D01*
X133380900Y-60800000D01*
X133380900Y-61108588D01*
X133309745Y-61037309D01*
X133109103Y-60953995D01*
X132891851Y-60953805D01*
X132691063Y-61036769D01*
X132537309Y-61190255D01*
X132453995Y-61390897D01*
X132453805Y-61608149D01*
X132536769Y-61808937D01*
X132690255Y-61962691D01*
X132890897Y-62046005D01*
X133108149Y-62046195D01*
X133308937Y-61963231D01*
X133380900Y-61891393D01*
X133380900Y-62326403D01*
X131407968Y-64299336D01*
X131363231Y-64191063D01*
X131209745Y-64037309D01*
X131009103Y-63953995D01*
X130791851Y-63953805D01*
X130591063Y-64036769D01*
X130437309Y-64190255D01*
X130353995Y-64390897D01*
X130353805Y-64608149D01*
X130436769Y-64808937D01*
X130480900Y-64853145D01*
X130480900Y-66737702D01*
X130412802Y-66839617D01*
X130383330Y-66987782D01*
X130043661Y-66648113D01*
X129811413Y-66880361D01*
X129829595Y-66898543D01*
X129761267Y-66912135D01*
X129730318Y-67014792D01*
X130000000Y-67284474D01*
X130107763Y-67176711D01*
X130323289Y-67392237D01*
X130215526Y-67500000D01*
X130323289Y-67607763D01*
X130107763Y-67823289D01*
X130000000Y-67715526D01*
X129730318Y-67985208D01*
X129761267Y-68087865D01*
X129830009Y-68101043D01*
X129811413Y-68119639D01*
X129941774Y-68250000D01*
X129811413Y-68380361D01*
X129829595Y-68398543D01*
X129761267Y-68412135D01*
X129730318Y-68514792D01*
X130000000Y-68784474D01*
X130107763Y-68676711D01*
X130323289Y-68892237D01*
X130215526Y-69000000D01*
X130323289Y-69107763D01*
X130107763Y-69323289D01*
X130000000Y-69215526D01*
X129730318Y-69485208D01*
X129761267Y-69587865D01*
X129830009Y-69601043D01*
X129811413Y-69619639D01*
X129941774Y-69750000D01*
X129811413Y-69880361D01*
X129829595Y-69898543D01*
X129761267Y-69912135D01*
X129730318Y-70014792D01*
X130000000Y-70284474D01*
X130107763Y-70176711D01*
X130323289Y-70392237D01*
X130215526Y-70500000D01*
X130323289Y-70607763D01*
X130107763Y-70823289D01*
X130000000Y-70715526D01*
X129730318Y-70985208D01*
X129761267Y-71087865D01*
X129830009Y-71101043D01*
X129811413Y-71119639D01*
X130043661Y-71351887D01*
X130380900Y-71014648D01*
X130380900Y-72226403D01*
X130037206Y-72570097D01*
X129963231Y-72391063D01*
X129809745Y-72237309D01*
X129609103Y-72153995D01*
X129391851Y-72153805D01*
X129191063Y-72236769D01*
X129037309Y-72390255D01*
X128953995Y-72590897D01*
X128953805Y-72808149D01*
X129036769Y-73008937D01*
X129190255Y-73162691D01*
X129369983Y-73237321D01*
X128703652Y-73903652D01*
X128612802Y-74039617D01*
X128580900Y-74200000D01*
X128580900Y-75600000D01*
X128612802Y-75760383D01*
X128639274Y-75800000D01*
X128703652Y-75896348D01*
X129703652Y-76896349D01*
X129703655Y-76896351D01*
X130388203Y-77580900D01*
X127646030Y-77580900D01*
X127646195Y-77391851D01*
X127563231Y-77191063D01*
X127409745Y-77037309D01*
X127270046Y-76979301D01*
X127308937Y-76963231D01*
X127462691Y-76809745D01*
X127546005Y-76609103D01*
X127546195Y-76391851D01*
X127463231Y-76191063D01*
X127309745Y-76037309D01*
X127109103Y-75953995D01*
X127046637Y-75953940D01*
X125169100Y-74076404D01*
X125169100Y-70504406D01*
X129365524Y-70504406D01*
X129412135Y-70738733D01*
X129514792Y-70769682D01*
X129784474Y-70500000D01*
X129514792Y-70230318D01*
X129412135Y-70261267D01*
X129365524Y-70504406D01*
X125169100Y-70504406D01*
X125169100Y-69508149D01*
X126253805Y-69508149D01*
X126336769Y-69708937D01*
X126490255Y-69862691D01*
X126690897Y-69946005D01*
X126908149Y-69946195D01*
X127108937Y-69863231D01*
X127150024Y-69822215D01*
X127290255Y-69962691D01*
X127490897Y-70046005D01*
X127708149Y-70046195D01*
X127908937Y-69963231D01*
X128062691Y-69809745D01*
X128146005Y-69609103D01*
X128146060Y-69546637D01*
X128596348Y-69096349D01*
X128657782Y-69004406D01*
X129365524Y-69004406D01*
X129412135Y-69238733D01*
X129514792Y-69269682D01*
X129784474Y-69000000D01*
X129514792Y-68730318D01*
X129412135Y-68761267D01*
X129365524Y-69004406D01*
X128657782Y-69004406D01*
X128687198Y-68960383D01*
X128691895Y-68936769D01*
X128719100Y-68800000D01*
X128719100Y-67504406D01*
X129365524Y-67504406D01*
X129412135Y-67738733D01*
X129514792Y-67769682D01*
X129784474Y-67500000D01*
X129514792Y-67230318D01*
X129412135Y-67261267D01*
X129365524Y-67504406D01*
X128719100Y-67504406D01*
X128719100Y-65474669D01*
X128890897Y-65546005D01*
X129108149Y-65546195D01*
X129308937Y-65463231D01*
X129462691Y-65309745D01*
X129546005Y-65109103D01*
X129546060Y-65046141D01*
X129608149Y-65046195D01*
X129808937Y-64963231D01*
X129962691Y-64809745D01*
X130046005Y-64609103D01*
X130046195Y-64391851D01*
X129963231Y-64191063D01*
X129919100Y-64146855D01*
X129919100Y-62853260D01*
X129962691Y-62809745D01*
X130046005Y-62609103D01*
X130046195Y-62391851D01*
X129963231Y-62191063D01*
X129809745Y-62037309D01*
X129609103Y-61953995D01*
X129506640Y-61953905D01*
X129546005Y-61859103D01*
X129546195Y-61641851D01*
X129532270Y-61608149D01*
X129753805Y-61608149D01*
X129836769Y-61808937D01*
X129990255Y-61962691D01*
X130190897Y-62046005D01*
X130408149Y-62046195D01*
X130608937Y-61963231D01*
X130762691Y-61809745D01*
X130799989Y-61719922D01*
X130836769Y-61808937D01*
X130990255Y-61962691D01*
X131190897Y-62046005D01*
X131408149Y-62046195D01*
X131608937Y-61963231D01*
X131762691Y-61809745D01*
X131846005Y-61609103D01*
X131846195Y-61391851D01*
X131763231Y-61191063D01*
X131609745Y-61037309D01*
X131409103Y-60953995D01*
X131191851Y-60953805D01*
X130991063Y-61036769D01*
X130837309Y-61190255D01*
X130800011Y-61280078D01*
X130763231Y-61191063D01*
X130609745Y-61037309D01*
X130409103Y-60953995D01*
X130191851Y-60953805D01*
X129991063Y-61036769D01*
X129837309Y-61190255D01*
X129753995Y-61390897D01*
X129753805Y-61608149D01*
X129532270Y-61608149D01*
X129463231Y-61441063D01*
X129309745Y-61287309D01*
X129109103Y-61203995D01*
X128919100Y-61203829D01*
X128919100Y-58073596D01*
X128984547Y-58008149D01*
X132353805Y-58008149D01*
X132436769Y-58208937D01*
X132590255Y-58362691D01*
X132790897Y-58446005D01*
X133008149Y-58446195D01*
X133200225Y-58366831D01*
X133390897Y-58446005D01*
X133608149Y-58446195D01*
X133808937Y-58363231D01*
X133962691Y-58209745D01*
X134046005Y-58009103D01*
X134046195Y-57791851D01*
X133963231Y-57591063D01*
X133809745Y-57437309D01*
X133609103Y-57353995D01*
X133391851Y-57353805D01*
X133199775Y-57433169D01*
X133009103Y-57353995D01*
X132791851Y-57353805D01*
X132591063Y-57436769D01*
X132437309Y-57590255D01*
X132353995Y-57790897D01*
X132353805Y-58008149D01*
X128984547Y-58008149D01*
X134346556Y-52646141D01*
X134408149Y-52646195D01*
X134608937Y-52563231D01*
X134762691Y-52409745D01*
X134846005Y-52209103D01*
X134846195Y-51991851D01*
X134763231Y-51791063D01*
X134609745Y-51637309D01*
X134409103Y-51553995D01*
X134191851Y-51553805D01*
X133991063Y-51636769D01*
X133837309Y-51790255D01*
X133753995Y-51990897D01*
X133753940Y-52053363D01*
X128546047Y-57261257D01*
X128546195Y-57091851D01*
X128463231Y-56891063D01*
X128309745Y-56737309D01*
X128109103Y-56653995D01*
X127891851Y-56653805D01*
X127691063Y-56736769D01*
X127537309Y-56890255D01*
X127453995Y-57090897D01*
X127453805Y-57308149D01*
X127536769Y-57508937D01*
X127580900Y-57553145D01*
X127580900Y-64026403D01*
X126503652Y-65103652D01*
X126412802Y-65239617D01*
X126380900Y-65400000D01*
X126380900Y-69046740D01*
X126337309Y-69090255D01*
X126253995Y-69290897D01*
X126253805Y-69508149D01*
X125169100Y-69508149D01*
X125169100Y-68750000D01*
X125137198Y-68589617D01*
X125085441Y-68512158D01*
X125046349Y-68453652D01*
X122169100Y-65576404D01*
X122169100Y-65296030D01*
X122358149Y-65296195D01*
X122558937Y-65213231D01*
X122712691Y-65059745D01*
X122796005Y-64859103D01*
X122796195Y-64641851D01*
X122713231Y-64441063D01*
X122559745Y-64287309D01*
X122359103Y-64203995D01*
X122169100Y-64203829D01*
X122169100Y-46208149D01*
X122553805Y-46208149D01*
X122636769Y-46408937D01*
X122790255Y-46562691D01*
X122990897Y-46646005D01*
X123208149Y-46646195D01*
X123408937Y-46563231D01*
X123562691Y-46409745D01*
X123646005Y-46209103D01*
X123646195Y-45991851D01*
X123563231Y-45791063D01*
X123409745Y-45637309D01*
X123209103Y-45553995D01*
X122991851Y-45553805D01*
X122791063Y-45636769D01*
X122637309Y-45790255D01*
X122553995Y-45990897D01*
X122553805Y-46208149D01*
X122169100Y-46208149D01*
X122169100Y-45423596D01*
X122662793Y-44929903D01*
X122736769Y-45108937D01*
X122890255Y-45262691D01*
X123090897Y-45346005D01*
X123308149Y-45346195D01*
X123508937Y-45263231D01*
X123662691Y-45109745D01*
X123746005Y-44909103D01*
X123746060Y-44846637D01*
X124573597Y-44019100D01*
X131826404Y-44019100D01*
X133380900Y-45573597D01*
X133380900Y-46800000D01*
X133412802Y-46960383D01*
X133450558Y-47016888D01*
X133503652Y-47096348D01*
X139980900Y-53573597D01*
X139980900Y-54638203D01*
X131919100Y-46576404D01*
X131919100Y-45103260D01*
X131962691Y-45059745D01*
X132046005Y-44859103D01*
X132046195Y-44641851D01*
X131963231Y-44441063D01*
X131809745Y-44287309D01*
X131609103Y-44203995D01*
X131391851Y-44203805D01*
X131191063Y-44286769D01*
X131037309Y-44440255D01*
X130953995Y-44640897D01*
X130953805Y-44858149D01*
X131036769Y-45058937D01*
X131080900Y-45103145D01*
X131080900Y-46750000D01*
X131112802Y-46910383D01*
X131183967Y-47016888D01*
X131203652Y-47046348D01*
X139330900Y-55173597D01*
X139330900Y-65250000D01*
X139362802Y-65410383D01*
X139447538Y-65537198D01*
X139453652Y-65546348D01*
X139830900Y-65923597D01*
X139830900Y-71576404D01*
X138826404Y-72580900D01*
X133253260Y-72580900D01*
X133209745Y-72537309D01*
X133009103Y-72453995D01*
X132791851Y-72453805D01*
X132591063Y-72536769D01*
X132437309Y-72690255D01*
X132353995Y-72890897D01*
X132353805Y-73108149D01*
X132436769Y-73308937D01*
X132552610Y-73424980D01*
X132537309Y-73440255D01*
X132453995Y-73640897D01*
X132453805Y-73858149D01*
X132536769Y-74058937D01*
X132690255Y-74212691D01*
X132890897Y-74296005D01*
X133108149Y-74296195D01*
X133308937Y-74213231D01*
X133353145Y-74169100D01*
X133904570Y-74169100D01*
X133853995Y-74290897D01*
X133853805Y-74508149D01*
X133936769Y-74708937D01*
X134090255Y-74862691D01*
X134290897Y-74946005D01*
X134508149Y-74946195D01*
X134708937Y-74863231D01*
X134753145Y-74819100D01*
X150000000Y-74819100D01*
X150160383Y-74787198D01*
X150262298Y-74719100D01*
X151546740Y-74719100D01*
X151590255Y-74762691D01*
X151790897Y-74846005D01*
X152008149Y-74846195D01*
X152208937Y-74763231D01*
X152362691Y-74609745D01*
X152446005Y-74409103D01*
X152446195Y-74191851D01*
X152363231Y-73991063D01*
X152209745Y-73837309D01*
X152009103Y-73753995D01*
X151791851Y-73753805D01*
X151591063Y-73836769D01*
X151546855Y-73880900D01*
X150100000Y-73880900D01*
X149939617Y-73912802D01*
X149837702Y-73980900D01*
X147966175Y-73980900D01*
X148008937Y-73963231D01*
X148162691Y-73809745D01*
X148246005Y-73609103D01*
X148246195Y-73391851D01*
X148170291Y-73208149D01*
X154553805Y-73208149D01*
X154636769Y-73408937D01*
X154790255Y-73562691D01*
X154990897Y-73646005D01*
X155208149Y-73646195D01*
X155408937Y-73563231D01*
X155562691Y-73409745D01*
X155563353Y-73408149D01*
X159153805Y-73408149D01*
X159236769Y-73608937D01*
X159390255Y-73762691D01*
X159590897Y-73846005D01*
X159808149Y-73846195D01*
X160008937Y-73763231D01*
X160162691Y-73609745D01*
X160246005Y-73409103D01*
X160246195Y-73191851D01*
X160163231Y-72991063D01*
X160009745Y-72837309D01*
X159809103Y-72753995D01*
X159591851Y-72753805D01*
X159391063Y-72836769D01*
X159237309Y-72990255D01*
X159153995Y-73190897D01*
X159153805Y-73408149D01*
X155563353Y-73408149D01*
X155646005Y-73209103D01*
X155646195Y-72991851D01*
X155563231Y-72791063D01*
X155409745Y-72637309D01*
X155209103Y-72553995D01*
X154991851Y-72553805D01*
X154791063Y-72636769D01*
X154637309Y-72790255D01*
X154553995Y-72990897D01*
X154553805Y-73208149D01*
X148170291Y-73208149D01*
X148163231Y-73191063D01*
X148009745Y-73037309D01*
X147809103Y-72953995D01*
X147591851Y-72953805D01*
X147391063Y-73036769D01*
X147237309Y-73190255D01*
X147153995Y-73390897D01*
X147153805Y-73608149D01*
X147236769Y-73808937D01*
X147390255Y-73962691D01*
X147434107Y-73980900D01*
X140111796Y-73980900D01*
X141035889Y-73056807D01*
X141036769Y-73058937D01*
X141190255Y-73212691D01*
X141390897Y-73296005D01*
X141608149Y-73296195D01*
X141808937Y-73213231D01*
X141853145Y-73169100D01*
X142250000Y-73169100D01*
X142410383Y-73137198D01*
X142546348Y-73046348D01*
X143234547Y-72358149D01*
X153453805Y-72358149D01*
X153536769Y-72558937D01*
X153690255Y-72712691D01*
X153890897Y-72796005D01*
X154108149Y-72796195D01*
X154308937Y-72713231D01*
X154462691Y-72559745D01*
X154546005Y-72359103D01*
X154546137Y-72208149D01*
X155553805Y-72208149D01*
X155636769Y-72408937D01*
X155790255Y-72562691D01*
X155990897Y-72646005D01*
X156208149Y-72646195D01*
X156408937Y-72563231D01*
X156562691Y-72409745D01*
X156646005Y-72209103D01*
X156646005Y-72208149D01*
X157153805Y-72208149D01*
X157236769Y-72408937D01*
X157390255Y-72562691D01*
X157590897Y-72646005D01*
X157808149Y-72646195D01*
X158008937Y-72563231D01*
X158162691Y-72409745D01*
X158246005Y-72209103D01*
X158246195Y-71991851D01*
X158163231Y-71791063D01*
X158009745Y-71637309D01*
X157809103Y-71553995D01*
X157591851Y-71553805D01*
X157391063Y-71636769D01*
X157237309Y-71790255D01*
X157153995Y-71990897D01*
X157153805Y-72208149D01*
X156646005Y-72208149D01*
X156646195Y-71991851D01*
X156563231Y-71791063D01*
X156409745Y-71637309D01*
X156209103Y-71553995D01*
X155991851Y-71553805D01*
X155791063Y-71636769D01*
X155637309Y-71790255D01*
X155553995Y-71990897D01*
X155553805Y-72208149D01*
X154546137Y-72208149D01*
X154546195Y-72141851D01*
X154463231Y-71941063D01*
X154309745Y-71787309D01*
X154109103Y-71703995D01*
X153891851Y-71703805D01*
X153691063Y-71786769D01*
X153537309Y-71940255D01*
X153453995Y-72140897D01*
X153453805Y-72358149D01*
X143234547Y-72358149D01*
X145382972Y-70209724D01*
X155487842Y-70209724D01*
X155514850Y-70311329D01*
X155747560Y-70358588D01*
X155980643Y-70313196D01*
X155985150Y-70311329D01*
X156012158Y-70209724D01*
X156987842Y-70209724D01*
X157014850Y-70311329D01*
X157247560Y-70358588D01*
X157480643Y-70313196D01*
X157485150Y-70311329D01*
X157512158Y-70209724D01*
X158487842Y-70209724D01*
X158514850Y-70311329D01*
X158747560Y-70358588D01*
X158980643Y-70313196D01*
X158985150Y-70311329D01*
X159012158Y-70209724D01*
X158750000Y-69947566D01*
X158487842Y-70209724D01*
X157512158Y-70209724D01*
X157250000Y-69947566D01*
X156987842Y-70209724D01*
X156012158Y-70209724D01*
X155750000Y-69947566D01*
X155487842Y-70209724D01*
X145382972Y-70209724D01*
X145845136Y-69747560D01*
X155141412Y-69747560D01*
X155186804Y-69980643D01*
X155188671Y-69985150D01*
X155290276Y-70012158D01*
X155552434Y-69750000D01*
X155947566Y-69750000D01*
X156209724Y-70012158D01*
X156311329Y-69985150D01*
X156358588Y-69752440D01*
X156357638Y-69747560D01*
X156641412Y-69747560D01*
X156686804Y-69980643D01*
X156688671Y-69985150D01*
X156790276Y-70012158D01*
X157052434Y-69750000D01*
X157447566Y-69750000D01*
X157709724Y-70012158D01*
X157811329Y-69985150D01*
X157858588Y-69752440D01*
X157857638Y-69747560D01*
X158141412Y-69747560D01*
X158186804Y-69980643D01*
X158188671Y-69985150D01*
X158290276Y-70012158D01*
X158552434Y-69750000D01*
X158947566Y-69750000D01*
X159209724Y-70012158D01*
X159311329Y-69985150D01*
X159358588Y-69752440D01*
X159313196Y-69519357D01*
X159311329Y-69514850D01*
X159209724Y-69487842D01*
X158947566Y-69750000D01*
X158552434Y-69750000D01*
X158290276Y-69487842D01*
X158188671Y-69514850D01*
X158141412Y-69747560D01*
X157857638Y-69747560D01*
X157813196Y-69519357D01*
X157811329Y-69514850D01*
X157709724Y-69487842D01*
X157447566Y-69750000D01*
X157052434Y-69750000D01*
X156790276Y-69487842D01*
X156688671Y-69514850D01*
X156641412Y-69747560D01*
X156357638Y-69747560D01*
X156313196Y-69519357D01*
X156311329Y-69514850D01*
X156209724Y-69487842D01*
X155947566Y-69750000D01*
X155552434Y-69750000D01*
X155290276Y-69487842D01*
X155188671Y-69514850D01*
X155141412Y-69747560D01*
X145845136Y-69747560D01*
X146302420Y-69290276D01*
X155487842Y-69290276D01*
X155750000Y-69552434D01*
X156012158Y-69290276D01*
X156987842Y-69290276D01*
X157250000Y-69552434D01*
X157512158Y-69290276D01*
X158487842Y-69290276D01*
X158750000Y-69552434D01*
X159012158Y-69290276D01*
X158985150Y-69188671D01*
X158752440Y-69141412D01*
X158519357Y-69186804D01*
X158514850Y-69188671D01*
X158487842Y-69290276D01*
X157512158Y-69290276D01*
X157485150Y-69188671D01*
X157252440Y-69141412D01*
X157019357Y-69186804D01*
X157014850Y-69188671D01*
X156987842Y-69290276D01*
X156012158Y-69290276D01*
X155985150Y-69188671D01*
X155752440Y-69141412D01*
X155519357Y-69186804D01*
X155514850Y-69188671D01*
X155487842Y-69290276D01*
X146302420Y-69290276D01*
X146546348Y-69046349D01*
X146637198Y-68910383D01*
X146669100Y-68750000D01*
X146669100Y-68709724D01*
X155487842Y-68709724D01*
X155514850Y-68811329D01*
X155747560Y-68858588D01*
X155980643Y-68813196D01*
X155985150Y-68811329D01*
X156012158Y-68709724D01*
X156987842Y-68709724D01*
X157014850Y-68811329D01*
X157247560Y-68858588D01*
X157480643Y-68813196D01*
X157485150Y-68811329D01*
X157512158Y-68709724D01*
X158487842Y-68709724D01*
X158514850Y-68811329D01*
X158747560Y-68858588D01*
X158980643Y-68813196D01*
X158985150Y-68811329D01*
X159012158Y-68709724D01*
X158750000Y-68447566D01*
X158487842Y-68709724D01*
X157512158Y-68709724D01*
X157250000Y-68447566D01*
X156987842Y-68709724D01*
X156012158Y-68709724D01*
X155750000Y-68447566D01*
X155487842Y-68709724D01*
X146669100Y-68709724D01*
X146669100Y-68247560D01*
X155141412Y-68247560D01*
X155186804Y-68480643D01*
X155188671Y-68485150D01*
X155290276Y-68512158D01*
X155552434Y-68250000D01*
X155947566Y-68250000D01*
X156209724Y-68512158D01*
X156311329Y-68485150D01*
X156358588Y-68252440D01*
X156357638Y-68247560D01*
X156641412Y-68247560D01*
X156686804Y-68480643D01*
X156688671Y-68485150D01*
X156790276Y-68512158D01*
X157052434Y-68250000D01*
X157447566Y-68250000D01*
X157709724Y-68512158D01*
X157811329Y-68485150D01*
X157858588Y-68252440D01*
X157857638Y-68247560D01*
X158141412Y-68247560D01*
X158186804Y-68480643D01*
X158188671Y-68485150D01*
X158290276Y-68512158D01*
X158552434Y-68250000D01*
X158947566Y-68250000D01*
X159209724Y-68512158D01*
X159311329Y-68485150D01*
X159358588Y-68252440D01*
X159313196Y-68019357D01*
X159311329Y-68014850D01*
X159209724Y-67987842D01*
X158947566Y-68250000D01*
X158552434Y-68250000D01*
X158290276Y-67987842D01*
X158188671Y-68014850D01*
X158141412Y-68247560D01*
X157857638Y-68247560D01*
X157813196Y-68019357D01*
X157811329Y-68014850D01*
X157709724Y-67987842D01*
X157447566Y-68250000D01*
X157052434Y-68250000D01*
X156790276Y-67987842D01*
X156688671Y-68014850D01*
X156641412Y-68247560D01*
X156357638Y-68247560D01*
X156313196Y-68019357D01*
X156311329Y-68014850D01*
X156209724Y-67987842D01*
X155947566Y-68250000D01*
X155552434Y-68250000D01*
X155290276Y-67987842D01*
X155188671Y-68014850D01*
X155141412Y-68247560D01*
X146669100Y-68247560D01*
X146669100Y-67790276D01*
X155487842Y-67790276D01*
X155750000Y-68052434D01*
X156012158Y-67790276D01*
X156987842Y-67790276D01*
X157250000Y-68052434D01*
X157512158Y-67790276D01*
X158487842Y-67790276D01*
X158750000Y-68052434D01*
X159012158Y-67790276D01*
X158985150Y-67688671D01*
X158752440Y-67641412D01*
X158519357Y-67686804D01*
X158514850Y-67688671D01*
X158487842Y-67790276D01*
X157512158Y-67790276D01*
X157485150Y-67688671D01*
X157252440Y-67641412D01*
X157019357Y-67686804D01*
X157014850Y-67688671D01*
X156987842Y-67790276D01*
X156012158Y-67790276D01*
X155985150Y-67688671D01*
X155752440Y-67641412D01*
X155519357Y-67686804D01*
X155514850Y-67688671D01*
X155487842Y-67790276D01*
X146669100Y-67790276D01*
X146669100Y-67209724D01*
X155487842Y-67209724D01*
X155514850Y-67311329D01*
X155747560Y-67358588D01*
X155980643Y-67313196D01*
X155985150Y-67311329D01*
X156012158Y-67209724D01*
X156987842Y-67209724D01*
X157014850Y-67311329D01*
X157247560Y-67358588D01*
X157480643Y-67313196D01*
X157485150Y-67311329D01*
X157512158Y-67209724D01*
X158487842Y-67209724D01*
X158514850Y-67311329D01*
X158747560Y-67358588D01*
X158980643Y-67313196D01*
X158985150Y-67311329D01*
X159012158Y-67209724D01*
X158750000Y-66947566D01*
X158487842Y-67209724D01*
X157512158Y-67209724D01*
X157250000Y-66947566D01*
X156987842Y-67209724D01*
X156012158Y-67209724D01*
X155750000Y-66947566D01*
X155487842Y-67209724D01*
X146669100Y-67209724D01*
X146669100Y-66608149D01*
X152953805Y-66608149D01*
X153036769Y-66808937D01*
X153190255Y-66962691D01*
X153390897Y-67046005D01*
X153608149Y-67046195D01*
X153808937Y-66963231D01*
X153962691Y-66809745D01*
X153988512Y-66747560D01*
X155141412Y-66747560D01*
X155186804Y-66980643D01*
X155188671Y-66985150D01*
X155290276Y-67012158D01*
X155552434Y-66750000D01*
X155947566Y-66750000D01*
X156209724Y-67012158D01*
X156311329Y-66985150D01*
X156358588Y-66752440D01*
X156357638Y-66747560D01*
X156641412Y-66747560D01*
X156686804Y-66980643D01*
X156688671Y-66985150D01*
X156790276Y-67012158D01*
X157052434Y-66750000D01*
X157447566Y-66750000D01*
X157709724Y-67012158D01*
X157811329Y-66985150D01*
X157858588Y-66752440D01*
X157857638Y-66747560D01*
X158141412Y-66747560D01*
X158186804Y-66980643D01*
X158188671Y-66985150D01*
X158290276Y-67012158D01*
X158552434Y-66750000D01*
X158947566Y-66750000D01*
X159209724Y-67012158D01*
X159311329Y-66985150D01*
X159358588Y-66752440D01*
X159313196Y-66519357D01*
X159311329Y-66514850D01*
X159209724Y-66487842D01*
X158947566Y-66750000D01*
X158552434Y-66750000D01*
X158290276Y-66487842D01*
X158188671Y-66514850D01*
X158141412Y-66747560D01*
X157857638Y-66747560D01*
X157813196Y-66519357D01*
X157811329Y-66514850D01*
X157709724Y-66487842D01*
X157447566Y-66750000D01*
X157052434Y-66750000D01*
X156790276Y-66487842D01*
X156688671Y-66514850D01*
X156641412Y-66747560D01*
X156357638Y-66747560D01*
X156313196Y-66519357D01*
X156311329Y-66514850D01*
X156209724Y-66487842D01*
X155947566Y-66750000D01*
X155552434Y-66750000D01*
X155290276Y-66487842D01*
X155188671Y-66514850D01*
X155141412Y-66747560D01*
X153988512Y-66747560D01*
X154046005Y-66609103D01*
X154046195Y-66391851D01*
X154004226Y-66290276D01*
X155487842Y-66290276D01*
X155750000Y-66552434D01*
X156012158Y-66290276D01*
X156987842Y-66290276D01*
X157250000Y-66552434D01*
X157512158Y-66290276D01*
X158487842Y-66290276D01*
X158750000Y-66552434D01*
X159012158Y-66290276D01*
X158985150Y-66188671D01*
X158752440Y-66141412D01*
X158519357Y-66186804D01*
X158514850Y-66188671D01*
X158487842Y-66290276D01*
X157512158Y-66290276D01*
X157485150Y-66188671D01*
X157252440Y-66141412D01*
X157019357Y-66186804D01*
X157014850Y-66188671D01*
X156987842Y-66290276D01*
X156012158Y-66290276D01*
X155985150Y-66188671D01*
X155752440Y-66141412D01*
X155519357Y-66186804D01*
X155514850Y-66188671D01*
X155487842Y-66290276D01*
X154004226Y-66290276D01*
X153963231Y-66191063D01*
X153809745Y-66037309D01*
X153609103Y-65953995D01*
X153391851Y-65953805D01*
X153191063Y-66036769D01*
X153037309Y-66190255D01*
X152953995Y-66390897D01*
X152953805Y-66608149D01*
X146669100Y-66608149D01*
X146669100Y-65353260D01*
X146712691Y-65309745D01*
X146796005Y-65109103D01*
X146796195Y-64891851D01*
X146713231Y-64691063D01*
X146559745Y-64537309D01*
X146359103Y-64453995D01*
X146141851Y-64453805D01*
X145941063Y-64536769D01*
X145787309Y-64690255D01*
X145703995Y-64890897D01*
X145703805Y-65108149D01*
X145786769Y-65308937D01*
X145830900Y-65353145D01*
X145830900Y-68576403D01*
X142076404Y-72330900D01*
X141853260Y-72330900D01*
X141809745Y-72287309D01*
X141806666Y-72286031D01*
X141896348Y-72196349D01*
X141924775Y-72153805D01*
X141987198Y-72060383D01*
X141996662Y-72012802D01*
X142019100Y-71900000D01*
X142019100Y-67973596D01*
X142496348Y-67496349D01*
X142587198Y-67360383D01*
X142592744Y-67332500D01*
X142619100Y-67200000D01*
X142619100Y-62200000D01*
X142587198Y-62039617D01*
X142573489Y-62019100D01*
X142496348Y-61903651D01*
X140819100Y-60226404D01*
X140819100Y-56408149D01*
X145553805Y-56408149D01*
X145636769Y-56608937D01*
X145790255Y-56762691D01*
X145990897Y-56846005D01*
X146208149Y-56846195D01*
X146408937Y-56763231D01*
X146562691Y-56609745D01*
X146646005Y-56409103D01*
X146646005Y-56408149D01*
X147953805Y-56408149D01*
X148036769Y-56608937D01*
X148190255Y-56762691D01*
X148390897Y-56846005D01*
X148608149Y-56846195D01*
X148808937Y-56763231D01*
X148962691Y-56609745D01*
X149046005Y-56409103D01*
X149046195Y-56191851D01*
X148963231Y-55991063D01*
X148809745Y-55837309D01*
X148609103Y-55753995D01*
X148391851Y-55753805D01*
X148191063Y-55836769D01*
X148037309Y-55990255D01*
X147953995Y-56190897D01*
X147953805Y-56408149D01*
X146646005Y-56408149D01*
X146646195Y-56191851D01*
X146563231Y-55991063D01*
X146409745Y-55837309D01*
X146209103Y-55753995D01*
X145991851Y-55753805D01*
X145791063Y-55836769D01*
X145637309Y-55990255D01*
X145553995Y-56190897D01*
X145553805Y-56408149D01*
X140819100Y-56408149D01*
X140819100Y-53400000D01*
X140806144Y-53334866D01*
X140787199Y-53239618D01*
X140696349Y-53103652D01*
X139200846Y-51608149D01*
X149353805Y-51608149D01*
X149436769Y-51808937D01*
X149590255Y-51962691D01*
X149680078Y-51999989D01*
X149591063Y-52036769D01*
X149437309Y-52190255D01*
X149353995Y-52390897D01*
X149353805Y-52608149D01*
X149436769Y-52808937D01*
X149590255Y-52962691D01*
X149680078Y-52999989D01*
X149591063Y-53036769D01*
X149437309Y-53190255D01*
X149353995Y-53390897D01*
X149353805Y-53608149D01*
X149436769Y-53808937D01*
X149590255Y-53962691D01*
X149680078Y-53999989D01*
X149591063Y-54036769D01*
X149437309Y-54190255D01*
X149353995Y-54390897D01*
X149353805Y-54608149D01*
X149436769Y-54808937D01*
X149590255Y-54962691D01*
X149680078Y-54999989D01*
X149591063Y-55036769D01*
X149437309Y-55190255D01*
X149353995Y-55390897D01*
X149353805Y-55608149D01*
X149436769Y-55808937D01*
X149590255Y-55962691D01*
X149790897Y-56046005D01*
X150008149Y-56046195D01*
X150208937Y-55963231D01*
X150362691Y-55809745D01*
X150446005Y-55609103D01*
X150446195Y-55391851D01*
X150363231Y-55191063D01*
X150209745Y-55037309D01*
X150119922Y-55000011D01*
X150208937Y-54963231D01*
X150362691Y-54809745D01*
X150446005Y-54609103D01*
X150446195Y-54391851D01*
X150363231Y-54191063D01*
X150209745Y-54037309D01*
X150119922Y-54000011D01*
X150208937Y-53963231D01*
X150362691Y-53809745D01*
X150446005Y-53609103D01*
X150446195Y-53391851D01*
X150363231Y-53191063D01*
X150209745Y-53037309D01*
X150119922Y-53000011D01*
X150208937Y-52963231D01*
X150362691Y-52809745D01*
X150446005Y-52609103D01*
X150446195Y-52391851D01*
X150363231Y-52191063D01*
X150209745Y-52037309D01*
X150119922Y-52000011D01*
X150208937Y-51963231D01*
X150362691Y-51809745D01*
X150363353Y-51808149D01*
X161753805Y-51808149D01*
X161836769Y-52008937D01*
X161990255Y-52162691D01*
X162080078Y-52199989D01*
X161991063Y-52236769D01*
X161837309Y-52390255D01*
X161753995Y-52590897D01*
X161753805Y-52808149D01*
X161836769Y-53008937D01*
X161990255Y-53162691D01*
X162080078Y-53199989D01*
X161991063Y-53236769D01*
X161837309Y-53390255D01*
X161753995Y-53590897D01*
X161753805Y-53808149D01*
X161836769Y-54008937D01*
X161990255Y-54162691D01*
X162080078Y-54199989D01*
X161991063Y-54236769D01*
X161837309Y-54390255D01*
X161753995Y-54590897D01*
X161753805Y-54808149D01*
X161836769Y-55008937D01*
X161990255Y-55162691D01*
X162080078Y-55199989D01*
X161991063Y-55236769D01*
X161837309Y-55390255D01*
X161753995Y-55590897D01*
X161753805Y-55808149D01*
X161836769Y-56008937D01*
X161990255Y-56162691D01*
X162190897Y-56246005D01*
X162408149Y-56246195D01*
X162608937Y-56163231D01*
X162762691Y-56009745D01*
X162846005Y-55809103D01*
X162846195Y-55591851D01*
X162763231Y-55391063D01*
X162609745Y-55237309D01*
X162519922Y-55200011D01*
X162608937Y-55163231D01*
X162762691Y-55009745D01*
X162846005Y-54809103D01*
X162846195Y-54591851D01*
X162763231Y-54391063D01*
X162609745Y-54237309D01*
X162519922Y-54200011D01*
X162608937Y-54163231D01*
X162762691Y-54009745D01*
X162846005Y-53809103D01*
X162846195Y-53591851D01*
X162763231Y-53391063D01*
X162609745Y-53237309D01*
X162519922Y-53200011D01*
X162608937Y-53163231D01*
X162762691Y-53009745D01*
X162846005Y-52809103D01*
X162846195Y-52591851D01*
X162763231Y-52391063D01*
X162609745Y-52237309D01*
X162519922Y-52200011D01*
X162608937Y-52163231D01*
X162762691Y-52009745D01*
X162846005Y-51809103D01*
X162846195Y-51591851D01*
X162763231Y-51391063D01*
X162609745Y-51237309D01*
X162409103Y-51153995D01*
X162191851Y-51153805D01*
X161991063Y-51236769D01*
X161837309Y-51390255D01*
X161753995Y-51590897D01*
X161753805Y-51808149D01*
X150363353Y-51808149D01*
X150446005Y-51609103D01*
X150446195Y-51391851D01*
X150363231Y-51191063D01*
X150209745Y-51037309D01*
X150009103Y-50953995D01*
X149791851Y-50953805D01*
X149591063Y-51036769D01*
X149437309Y-51190255D01*
X149353995Y-51390897D01*
X149353805Y-51608149D01*
X139200846Y-51608149D01*
X134219100Y-46626404D01*
X134219100Y-46408149D01*
X134353805Y-46408149D01*
X134436769Y-46608937D01*
X134590255Y-46762691D01*
X134790897Y-46846005D01*
X135008149Y-46846195D01*
X135208937Y-46763231D01*
X135362691Y-46609745D01*
X135399989Y-46519922D01*
X135436769Y-46608937D01*
X135590255Y-46762691D01*
X135790897Y-46846005D01*
X136008149Y-46846195D01*
X136208937Y-46763231D01*
X136362691Y-46609745D01*
X136446005Y-46409103D01*
X136446195Y-46191851D01*
X136363231Y-45991063D01*
X136209745Y-45837309D01*
X136009103Y-45753995D01*
X135791851Y-45753805D01*
X135591063Y-45836769D01*
X135437309Y-45990255D01*
X135400011Y-46080078D01*
X135363231Y-45991063D01*
X135209745Y-45837309D01*
X135009103Y-45753995D01*
X134791851Y-45753805D01*
X134591063Y-45836769D01*
X134437309Y-45990255D01*
X134353995Y-46190897D01*
X134353805Y-46408149D01*
X134219100Y-46408149D01*
X134219100Y-45400000D01*
X134187198Y-45239617D01*
X134169567Y-45213231D01*
X134096348Y-45103651D01*
X133189301Y-44196604D01*
X164981891Y-44196604D01*
X165516270Y-45489901D01*
X166504895Y-46480253D01*
X167797256Y-47016888D01*
X169196604Y-47018109D01*
X170489901Y-46483730D01*
X171480253Y-45495105D01*
X172016888Y-44202744D01*
X172018109Y-42803396D01*
X171483730Y-41510099D01*
X170495105Y-40519747D01*
X169202744Y-39983112D01*
X167803396Y-39981891D01*
X166510099Y-40516270D01*
X165519747Y-41504895D01*
X164983112Y-42797256D01*
X164981891Y-44196604D01*
X133189301Y-44196604D01*
X132296348Y-43303652D01*
X132240766Y-43266513D01*
X132160383Y-43212802D01*
X132000000Y-43180900D01*
X124411797Y-43180900D01*
X124784548Y-42808149D01*
X133353805Y-42808149D01*
X133433169Y-43000225D01*
X133353995Y-43190897D01*
X133353805Y-43408149D01*
X133436769Y-43608937D01*
X133590255Y-43762691D01*
X133790897Y-43846005D01*
X134008149Y-43846195D01*
X134208937Y-43763231D01*
X134362691Y-43609745D01*
X134363353Y-43608149D01*
X142553805Y-43608149D01*
X142636769Y-43808937D01*
X142790255Y-43962691D01*
X142990897Y-44046005D01*
X143208149Y-44046195D01*
X143408937Y-43963231D01*
X143562691Y-43809745D01*
X143646005Y-43609103D01*
X143646195Y-43391851D01*
X143563231Y-43191063D01*
X143409745Y-43037309D01*
X143209103Y-42953995D01*
X142991851Y-42953805D01*
X142791063Y-43036769D01*
X142637309Y-43190255D01*
X142553995Y-43390897D01*
X142553805Y-43608149D01*
X134363353Y-43608149D01*
X134446005Y-43409103D01*
X134446195Y-43191851D01*
X134366831Y-42999775D01*
X134446005Y-42809103D01*
X134446195Y-42591851D01*
X134363231Y-42391063D01*
X134209745Y-42237309D01*
X134139521Y-42208149D01*
X156553805Y-42208149D01*
X156636769Y-42408937D01*
X156790255Y-42562691D01*
X156990897Y-42646005D01*
X157208149Y-42646195D01*
X157408937Y-42563231D01*
X157562691Y-42409745D01*
X157646005Y-42209103D01*
X157646195Y-41991851D01*
X157563231Y-41791063D01*
X157409745Y-41637309D01*
X157209103Y-41553995D01*
X156991851Y-41553805D01*
X156791063Y-41636769D01*
X156637309Y-41790255D01*
X156553995Y-41990897D01*
X156553805Y-42208149D01*
X134139521Y-42208149D01*
X134009103Y-42153995D01*
X133791851Y-42153805D01*
X133591063Y-42236769D01*
X133437309Y-42390255D01*
X133353995Y-42590897D01*
X133353805Y-42808149D01*
X124784548Y-42808149D01*
X124923597Y-42669100D01*
X130396740Y-42669100D01*
X130440255Y-42712691D01*
X130640897Y-42796005D01*
X130858149Y-42796195D01*
X131058937Y-42713231D01*
X131212691Y-42559745D01*
X131296005Y-42359103D01*
X131296195Y-42141851D01*
X131213231Y-41941063D01*
X131059745Y-41787309D01*
X130859103Y-41703995D01*
X130641851Y-41703805D01*
X130441063Y-41786769D01*
X130396855Y-41830900D01*
X124750000Y-41830900D01*
X124589617Y-41862802D01*
X124535157Y-41899191D01*
X124453652Y-41953651D01*
X121883624Y-44523680D01*
X122016888Y-44202744D01*
X122018109Y-42803396D01*
X121483730Y-41510099D01*
X120783005Y-40808149D01*
X134353805Y-40808149D01*
X134436769Y-41008937D01*
X134590255Y-41162691D01*
X134790897Y-41246005D01*
X135008149Y-41246195D01*
X135208937Y-41163231D01*
X135362691Y-41009745D01*
X135399989Y-40919922D01*
X135436769Y-41008937D01*
X135590255Y-41162691D01*
X135790897Y-41246005D01*
X136008149Y-41246195D01*
X136208937Y-41163231D01*
X136362691Y-41009745D01*
X136446005Y-40809103D01*
X136446195Y-40591851D01*
X136363231Y-40391063D01*
X136209745Y-40237309D01*
X136009103Y-40153995D01*
X135791851Y-40153805D01*
X135591063Y-40236769D01*
X135437309Y-40390255D01*
X135400011Y-40480078D01*
X135363231Y-40391063D01*
X135209745Y-40237309D01*
X135009103Y-40153995D01*
X134791851Y-40153805D01*
X134591063Y-40236769D01*
X134437309Y-40390255D01*
X134353995Y-40590897D01*
X134353805Y-40808149D01*
X120783005Y-40808149D01*
X120495105Y-40519747D01*
X119202744Y-39983112D01*
X117803396Y-39981891D01*
X116510099Y-40516270D01*
X115519747Y-41504895D01*
X114983112Y-42797256D01*
X114981891Y-44196604D01*
X113830200Y-44196604D01*
X113830200Y-43532521D01*
X114191643Y-41715420D01*
X115202528Y-40202526D01*
X116715422Y-39191643D01*
X118532521Y-38830200D01*
X155006961Y-38830200D01*
X154991063Y-38836769D01*
X154991063Y-38836769D01*
G37*
X154991063Y-38836769D02*
X154837309Y-38990255D01*
X154753995Y-39190897D01*
X154753805Y-39408149D01*
X154836769Y-39608937D01*
X154990255Y-39762691D01*
X155190897Y-39846005D01*
X155408149Y-39846195D01*
X155608937Y-39763231D01*
X155700024Y-39672303D01*
X155790255Y-39762691D01*
X155990897Y-39846005D01*
X156208149Y-39846195D01*
X156408937Y-39763231D01*
X156500024Y-39672303D01*
X156590255Y-39762691D01*
X156790897Y-39846005D01*
X157008149Y-39846195D01*
X157208937Y-39763231D01*
X157362691Y-39609745D01*
X157446005Y-39409103D01*
X157446195Y-39191851D01*
X157363231Y-38991063D01*
X157209745Y-38837309D01*
X157192625Y-38830200D01*
X168467479Y-38830200D01*
X170284580Y-39191643D01*
X171797474Y-40202528D01*
X172808357Y-41715422D01*
X173169800Y-43532521D01*
X173169800Y-57592500D01*
X171370875Y-57592500D01*
X171291500Y-57671875D01*
X171291500Y-58548500D01*
X171311500Y-58548500D01*
X171311500Y-59691500D01*
X171291500Y-59691500D01*
X171291500Y-60568125D01*
X171370875Y-60647500D01*
X173169800Y-60647500D01*
X173169800Y-66352500D01*
X171370875Y-66352500D01*
X171291500Y-66431875D01*
X171291500Y-67308500D01*
X171311500Y-67308500D01*
X171311500Y-68451500D01*
X171291500Y-68451500D01*
X171291500Y-69328125D01*
X171370875Y-69407500D01*
X173169800Y-69407500D01*
X173169800Y-83467479D01*
X172808357Y-85284578D01*
X171797474Y-86797472D01*
X170284580Y-87808357D01*
X168467479Y-88169800D01*
X118532521Y-88169800D01*
X116715422Y-87808357D01*
X115202528Y-86797474D01*
X114191643Y-85284580D01*
X113975232Y-84196604D01*
X114981891Y-84196604D01*
X115516270Y-85489901D01*
X116504895Y-86480253D01*
X117797256Y-87016888D01*
X119196604Y-87018109D01*
X120489901Y-86483730D01*
X121470966Y-85504375D01*
X123332500Y-85504375D01*
X123332500Y-85913155D01*
X123380837Y-86029850D01*
X123470151Y-86119164D01*
X123586846Y-86167500D01*
X123995625Y-86167500D01*
X124075000Y-86088125D01*
X124075000Y-85425000D01*
X124925000Y-85425000D01*
X124925000Y-86088125D01*
X125004375Y-86167500D01*
X125413154Y-86167500D01*
X125529849Y-86119164D01*
X125619163Y-86029850D01*
X125667500Y-85913155D01*
X125667500Y-85504375D01*
X125588125Y-85425000D01*
X124925000Y-85425000D01*
X124075000Y-85425000D01*
X123411875Y-85425000D01*
X123332500Y-85504375D01*
X121470966Y-85504375D01*
X121480253Y-85495105D01*
X121695336Y-84977127D01*
X125872500Y-84977127D01*
X125872500Y-85022873D01*
X125961371Y-85469656D01*
X126214453Y-85848420D01*
X126593217Y-86101502D01*
X127040000Y-86190373D01*
X127486783Y-86101502D01*
X127865547Y-85848420D01*
X128118629Y-85469656D01*
X128207500Y-85022873D01*
X128207500Y-84977127D01*
X128412500Y-84977127D01*
X128412500Y-85022873D01*
X128501371Y-85469656D01*
X128754453Y-85848420D01*
X129133217Y-86101502D01*
X129580000Y-86190373D01*
X130026783Y-86101502D01*
X130405547Y-85848420D01*
X130658629Y-85469656D01*
X130747500Y-85022873D01*
X130747500Y-84977127D01*
X130952500Y-84977127D01*
X130952500Y-85022873D01*
X131041371Y-85469656D01*
X131294453Y-85848420D01*
X131673217Y-86101502D01*
X132120000Y-86190373D01*
X132566783Y-86101502D01*
X132945547Y-85848420D01*
X133198629Y-85469656D01*
X133287500Y-85022873D01*
X133287500Y-84977127D01*
X133492500Y-84977127D01*
X133492500Y-85022873D01*
X133581371Y-85469656D01*
X133834453Y-85848420D01*
X134213217Y-86101502D01*
X134660000Y-86190373D01*
X135106783Y-86101502D01*
X135485547Y-85848420D01*
X135738629Y-85469656D01*
X135827500Y-85022873D01*
X135827500Y-84977127D01*
X136032500Y-84977127D01*
X136032500Y-85022873D01*
X136121371Y-85469656D01*
X136374453Y-85848420D01*
X136753217Y-86101502D01*
X137200000Y-86190373D01*
X137646783Y-86101502D01*
X138025547Y-85848420D01*
X138255430Y-85504375D01*
X140332500Y-85504375D01*
X140332500Y-85913155D01*
X140380837Y-86029850D01*
X140470151Y-86119164D01*
X140586846Y-86167500D01*
X140995625Y-86167500D01*
X141075000Y-86088125D01*
X141075000Y-85425000D01*
X141925000Y-85425000D01*
X141925000Y-86088125D01*
X142004375Y-86167500D01*
X142413154Y-86167500D01*
X142529849Y-86119164D01*
X142619163Y-86029850D01*
X142667500Y-85913155D01*
X142667500Y-85504375D01*
X142588125Y-85425000D01*
X141925000Y-85425000D01*
X141075000Y-85425000D01*
X140411875Y-85425000D01*
X140332500Y-85504375D01*
X138255430Y-85504375D01*
X138278629Y-85469656D01*
X138367500Y-85022873D01*
X138367500Y-84977127D01*
X142872500Y-84977127D01*
X142872500Y-85022873D01*
X142961371Y-85469656D01*
X143214453Y-85848420D01*
X143593217Y-86101502D01*
X144040000Y-86190373D01*
X144486783Y-86101502D01*
X144865547Y-85848420D01*
X145118629Y-85469656D01*
X145207500Y-85022873D01*
X145207500Y-84977127D01*
X145412500Y-84977127D01*
X145412500Y-85022873D01*
X145501371Y-85469656D01*
X145754453Y-85848420D01*
X146133217Y-86101502D01*
X146580000Y-86190373D01*
X147026783Y-86101502D01*
X147405547Y-85848420D01*
X147658629Y-85469656D01*
X147747500Y-85022873D01*
X147747500Y-84977127D01*
X147658629Y-84530344D01*
X147435632Y-84196604D01*
X164981891Y-84196604D01*
X165516270Y-85489901D01*
X166504895Y-86480253D01*
X167797256Y-87016888D01*
X169196604Y-87018109D01*
X170489901Y-86483730D01*
X171480253Y-85495105D01*
X172016888Y-84202744D01*
X172018109Y-82803396D01*
X171483730Y-81510099D01*
X170495105Y-80519747D01*
X169202744Y-79983112D01*
X167803396Y-79981891D01*
X166510099Y-80516270D01*
X165519747Y-81504895D01*
X164983112Y-82797256D01*
X164981891Y-84196604D01*
X147435632Y-84196604D01*
X147405547Y-84151580D01*
X147026783Y-83898498D01*
X146580000Y-83809627D01*
X146133217Y-83898498D01*
X145754453Y-84151580D01*
X145501371Y-84530344D01*
X145412500Y-84977127D01*
X145207500Y-84977127D01*
X145118629Y-84530344D01*
X144865547Y-84151580D01*
X144486783Y-83898498D01*
X144040000Y-83809627D01*
X143593217Y-83898498D01*
X143214453Y-84151580D01*
X142961371Y-84530344D01*
X142872500Y-84977127D01*
X138367500Y-84977127D01*
X138278629Y-84530344D01*
X138025547Y-84151580D01*
X137928665Y-84086845D01*
X140332500Y-84086845D01*
X140332500Y-84495625D01*
X140411875Y-84575000D01*
X141075000Y-84575000D01*
X141075000Y-83911875D01*
X141925000Y-83911875D01*
X141925000Y-84575000D01*
X142588125Y-84575000D01*
X142667500Y-84495625D01*
X142667500Y-84086845D01*
X142619163Y-83970150D01*
X142529849Y-83880836D01*
X142413154Y-83832500D01*
X142004375Y-83832500D01*
X141925000Y-83911875D01*
X141075000Y-83911875D01*
X140995625Y-83832500D01*
X140586846Y-83832500D01*
X140470151Y-83880836D01*
X140380837Y-83970150D01*
X140332500Y-84086845D01*
X137928665Y-84086845D01*
X137646783Y-83898498D01*
X137200000Y-83809627D01*
X136753217Y-83898498D01*
X136374453Y-84151580D01*
X136121371Y-84530344D01*
X136032500Y-84977127D01*
X135827500Y-84977127D01*
X135738629Y-84530344D01*
X135485547Y-84151580D01*
X135106783Y-83898498D01*
X134660000Y-83809627D01*
X134213217Y-83898498D01*
X133834453Y-84151580D01*
X133581371Y-84530344D01*
X133492500Y-84977127D01*
X133287500Y-84977127D01*
X133198629Y-84530344D01*
X132945547Y-84151580D01*
X132566783Y-83898498D01*
X132120000Y-83809627D01*
X131673217Y-83898498D01*
X131294453Y-84151580D01*
X131041371Y-84530344D01*
X130952500Y-84977127D01*
X130747500Y-84977127D01*
X130658629Y-84530344D01*
X130405547Y-84151580D01*
X130026783Y-83898498D01*
X129580000Y-83809627D01*
X129133217Y-83898498D01*
X128754453Y-84151580D01*
X128501371Y-84530344D01*
X128412500Y-84977127D01*
X128207500Y-84977127D01*
X128118629Y-84530344D01*
X127865547Y-84151580D01*
X127486783Y-83898498D01*
X127040000Y-83809627D01*
X126593217Y-83898498D01*
X126214453Y-84151580D01*
X125961371Y-84530344D01*
X125872500Y-84977127D01*
X121695336Y-84977127D01*
X122016888Y-84202744D01*
X122016989Y-84086845D01*
X123332500Y-84086845D01*
X123332500Y-84495625D01*
X123411875Y-84575000D01*
X124075000Y-84575000D01*
X124075000Y-83911875D01*
X124925000Y-83911875D01*
X124925000Y-84575000D01*
X125588125Y-84575000D01*
X125667500Y-84495625D01*
X125667500Y-84086845D01*
X125619163Y-83970150D01*
X125529849Y-83880836D01*
X125413154Y-83832500D01*
X125004375Y-83832500D01*
X124925000Y-83911875D01*
X124075000Y-83911875D01*
X123995625Y-83832500D01*
X123586846Y-83832500D01*
X123470151Y-83880836D01*
X123380837Y-83970150D01*
X123332500Y-84086845D01*
X122016989Y-84086845D01*
X122017755Y-83208149D01*
X156753805Y-83208149D01*
X156836769Y-83408937D01*
X156990255Y-83562691D01*
X157190897Y-83646005D01*
X157408149Y-83646195D01*
X157608937Y-83563231D01*
X157762691Y-83409745D01*
X157846005Y-83209103D01*
X157846195Y-82991851D01*
X157763231Y-82791063D01*
X157609745Y-82637309D01*
X157409103Y-82553995D01*
X157191851Y-82553805D01*
X156991063Y-82636769D01*
X156837309Y-82790255D01*
X156753995Y-82990897D01*
X156753805Y-83208149D01*
X122017755Y-83208149D01*
X122018109Y-82803396D01*
X121483730Y-81510099D01*
X121082481Y-81108149D01*
X126053805Y-81108149D01*
X126136769Y-81308937D01*
X126290255Y-81462691D01*
X126490897Y-81546005D01*
X126708149Y-81546195D01*
X126908937Y-81463231D01*
X127062691Y-81309745D01*
X127146005Y-81109103D01*
X127146195Y-80891851D01*
X127063231Y-80691063D01*
X126909745Y-80537309D01*
X126709103Y-80453995D01*
X126491851Y-80453805D01*
X126291063Y-80536769D01*
X126137309Y-80690255D01*
X126053995Y-80890897D01*
X126053805Y-81108149D01*
X121082481Y-81108149D01*
X120495105Y-80519747D01*
X119202744Y-79983112D01*
X117803396Y-79981891D01*
X116510099Y-80516270D01*
X115519747Y-81504895D01*
X114983112Y-82797256D01*
X114981891Y-84196604D01*
X113975232Y-84196604D01*
X113830200Y-83467479D01*
X113830200Y-73200000D01*
X115809627Y-73200000D01*
X115898498Y-73646783D01*
X116151580Y-74025547D01*
X116530344Y-74278629D01*
X116977127Y-74367500D01*
X117022873Y-74367500D01*
X117469656Y-74278629D01*
X117848420Y-74025547D01*
X118101502Y-73646783D01*
X118190373Y-73200000D01*
X118101502Y-72753217D01*
X117848420Y-72374453D01*
X117469656Y-72121371D01*
X117022873Y-72032500D01*
X116977127Y-72032500D01*
X116530344Y-72121371D01*
X116151580Y-72374453D01*
X115898498Y-72753217D01*
X115809627Y-73200000D01*
X113830200Y-73200000D01*
X113830200Y-70660000D01*
X115809627Y-70660000D01*
X115898498Y-71106783D01*
X116151580Y-71485547D01*
X116530344Y-71738629D01*
X116977127Y-71827500D01*
X117022873Y-71827500D01*
X117469656Y-71738629D01*
X117848420Y-71485547D01*
X118101502Y-71106783D01*
X118190373Y-70660000D01*
X118101502Y-70213217D01*
X117848420Y-69834453D01*
X117469656Y-69581371D01*
X117022873Y-69492500D01*
X116977127Y-69492500D01*
X116530344Y-69581371D01*
X116151580Y-69834453D01*
X115898498Y-70213217D01*
X115809627Y-70660000D01*
X113830200Y-70660000D01*
X113830200Y-68120000D01*
X115809627Y-68120000D01*
X115898498Y-68566783D01*
X116151580Y-68945547D01*
X116530344Y-69198629D01*
X116977127Y-69287500D01*
X117022873Y-69287500D01*
X117469656Y-69198629D01*
X117848420Y-68945547D01*
X118101502Y-68566783D01*
X118190373Y-68120000D01*
X118101502Y-67673217D01*
X117848420Y-67294453D01*
X117469656Y-67041371D01*
X117022873Y-66952500D01*
X116977127Y-66952500D01*
X116530344Y-67041371D01*
X116151580Y-67294453D01*
X115898498Y-67673217D01*
X115809627Y-68120000D01*
X113830200Y-68120000D01*
X113830200Y-65580000D01*
X115809627Y-65580000D01*
X115898498Y-66026783D01*
X116151580Y-66405547D01*
X116530344Y-66658629D01*
X116977127Y-66747500D01*
X117022873Y-66747500D01*
X117469656Y-66658629D01*
X117848420Y-66405547D01*
X118101502Y-66026783D01*
X118190373Y-65580000D01*
X118101502Y-65133217D01*
X117848420Y-64754453D01*
X117469656Y-64501371D01*
X117022873Y-64412500D01*
X116977127Y-64412500D01*
X116530344Y-64501371D01*
X116151580Y-64754453D01*
X115898498Y-65133217D01*
X115809627Y-65580000D01*
X113830200Y-65580000D01*
X113830200Y-63040000D01*
X115809627Y-63040000D01*
X115898498Y-63486783D01*
X116151580Y-63865547D01*
X116530344Y-64118629D01*
X116977127Y-64207500D01*
X117022873Y-64207500D01*
X117469656Y-64118629D01*
X117848420Y-63865547D01*
X118101502Y-63486783D01*
X118190373Y-63040000D01*
X118101502Y-62593217D01*
X117848420Y-62214453D01*
X117469656Y-61961371D01*
X117022873Y-61872500D01*
X116977127Y-61872500D01*
X116530344Y-61961371D01*
X116151580Y-62214453D01*
X115898498Y-62593217D01*
X115809627Y-63040000D01*
X113830200Y-63040000D01*
X113830200Y-61004375D01*
X115832500Y-61004375D01*
X115832500Y-61413154D01*
X115880836Y-61529849D01*
X115970150Y-61619163D01*
X116086845Y-61667500D01*
X116495625Y-61667500D01*
X116575000Y-61588125D01*
X116575000Y-60925000D01*
X117425000Y-60925000D01*
X117425000Y-61588125D01*
X117504375Y-61667500D01*
X117913155Y-61667500D01*
X118029850Y-61619163D01*
X118119164Y-61529849D01*
X118167500Y-61413154D01*
X118167500Y-61004375D01*
X118088125Y-60925000D01*
X117425000Y-60925000D01*
X116575000Y-60925000D01*
X115911875Y-60925000D01*
X115832500Y-61004375D01*
X113830200Y-61004375D01*
X113830200Y-59586846D01*
X115832500Y-59586846D01*
X115832500Y-59995625D01*
X115911875Y-60075000D01*
X116575000Y-60075000D01*
X116575000Y-59411875D01*
X117425000Y-59411875D01*
X117425000Y-60075000D01*
X118088125Y-60075000D01*
X118167500Y-59995625D01*
X118167500Y-59586846D01*
X118119164Y-59470151D01*
X118029850Y-59380837D01*
X117913155Y-59332500D01*
X117504375Y-59332500D01*
X117425000Y-59411875D01*
X116575000Y-59411875D01*
X116495625Y-59332500D01*
X116086845Y-59332500D01*
X115970150Y-59380837D01*
X115880836Y-59470151D01*
X115832500Y-59586846D01*
X113830200Y-59586846D01*
X113830200Y-54629874D01*
X115992475Y-54629874D01*
X116069441Y-54745134D01*
X116410119Y-55047568D01*
X116575000Y-55048066D01*
X116575000Y-54465000D01*
X117425000Y-54465000D01*
X117425000Y-55048066D01*
X117589881Y-55047568D01*
X117930559Y-54745134D01*
X118007525Y-54629874D01*
X118001694Y-54465000D01*
X117425000Y-54465000D01*
X116575000Y-54465000D01*
X115998306Y-54465000D01*
X115992475Y-54629874D01*
X113830200Y-54629874D01*
X113830200Y-53450126D01*
X115992475Y-53450126D01*
X115998306Y-53615000D01*
X116575000Y-53615000D01*
X117425000Y-53615000D01*
X118001694Y-53615000D01*
X118007525Y-53450126D01*
X117930559Y-53334866D01*
X117589881Y-53032432D01*
X117425000Y-53031934D01*
X117425000Y-53615000D01*
X116575000Y-53615000D01*
X116575000Y-53031934D01*
X116410119Y-53032432D01*
X116069441Y-53334866D01*
X115992475Y-53450126D01*
X113830200Y-53450126D01*
X113830200Y-50650000D01*
X115826280Y-50650000D01*
X115826280Y-52350000D01*
X115848419Y-52467658D01*
X115917955Y-52575721D01*
X116024055Y-52648215D01*
X116150000Y-52673720D01*
X117850000Y-52673720D01*
X117967658Y-52651581D01*
X118075721Y-52582045D01*
X118148215Y-52475945D01*
X118173720Y-52350000D01*
X118173720Y-50650000D01*
X118151581Y-50532342D01*
X118082045Y-50424279D01*
X117975945Y-50351785D01*
X117850000Y-50326280D01*
X116150000Y-50326280D01*
X116032342Y-50348419D01*
X115924279Y-50417955D01*
X115851785Y-50524055D01*
X115826280Y-50650000D01*
X113830200Y-50650000D01*
X113830200Y-44196604D01*
X114981891Y-44196604D01*
X115516270Y-45489901D01*
X116504895Y-46480253D01*
X117797256Y-47016888D01*
X119196604Y-47018109D01*
X120489901Y-46483730D01*
X121330900Y-45644198D01*
X121330900Y-65750000D01*
X121362802Y-65910383D01*
X121414129Y-65987198D01*
X121453652Y-66046348D01*
X124330900Y-68923597D01*
X124330900Y-74250000D01*
X124362802Y-74410383D01*
X124453652Y-74546348D01*
X126453859Y-76546556D01*
X126453805Y-76608149D01*
X126536769Y-76808937D01*
X126690255Y-76962691D01*
X126829954Y-77020699D01*
X126791063Y-77036769D01*
X126637309Y-77190255D01*
X126553995Y-77390897D01*
X126553829Y-77580900D01*
X125418609Y-77580900D01*
X124546150Y-76743340D01*
X124546195Y-76691851D01*
X124463231Y-76491063D01*
X124309745Y-76337309D01*
X124109103Y-76253995D01*
X123891851Y-76253805D01*
X123691063Y-76336769D01*
X123537309Y-76490255D01*
X123453995Y-76690897D01*
X123453805Y-76908149D01*
X123536769Y-77108937D01*
X123690255Y-77262691D01*
X123890897Y-77346005D01*
X123963651Y-77346069D01*
X124729101Y-78080900D01*
X124603260Y-78080900D01*
X124559745Y-78037309D01*
X124359103Y-77953995D01*
X124141851Y-77953805D01*
X123941063Y-78036769D01*
X123787309Y-78190255D01*
X123703995Y-78390897D01*
X123703805Y-78608149D01*
X123786769Y-78808937D01*
X123940255Y-78962691D01*
X124082675Y-79021829D01*
X124053995Y-79090897D01*
X124053805Y-79308149D01*
X124136769Y-79508937D01*
X124290255Y-79662691D01*
X124490897Y-79746005D01*
X124553363Y-79746060D01*
X125103652Y-80296349D01*
X125185157Y-80350809D01*
X125239617Y-80387198D01*
X125400000Y-80419100D01*
X127408588Y-80419100D01*
X127337309Y-80490255D01*
X127253995Y-80690897D01*
X127253805Y-80908149D01*
X127336769Y-81108937D01*
X127490255Y-81262691D01*
X127690897Y-81346005D01*
X127908149Y-81346195D01*
X128108937Y-81263231D01*
X128153145Y-81219100D01*
X134446740Y-81219100D01*
X134490255Y-81262691D01*
X134690897Y-81346005D01*
X134908149Y-81346195D01*
X135108937Y-81263231D01*
X135262691Y-81109745D01*
X135346005Y-80909103D01*
X135346195Y-80691851D01*
X135263231Y-80491063D01*
X135191393Y-80419100D01*
X136846740Y-80419100D01*
X136890255Y-80462691D01*
X137090897Y-80546005D01*
X137308149Y-80546195D01*
X137508937Y-80463231D01*
X137662691Y-80309745D01*
X137746005Y-80109103D01*
X137746195Y-79891851D01*
X137663231Y-79691063D01*
X137509745Y-79537309D01*
X137309103Y-79453995D01*
X137091851Y-79453805D01*
X136891063Y-79536769D01*
X136846855Y-79580900D01*
X133446030Y-79580900D01*
X133446195Y-79391851D01*
X133363231Y-79191063D01*
X133209745Y-79037309D01*
X133009103Y-78953995D01*
X132791851Y-78953805D01*
X132591063Y-79036769D01*
X132437309Y-79190255D01*
X132353995Y-79390897D01*
X132353829Y-79580900D01*
X125573597Y-79580900D01*
X125146141Y-79153445D01*
X125146195Y-79091851D01*
X125074816Y-78919100D01*
X153808501Y-78919100D01*
X153787309Y-78940255D01*
X153703995Y-79140897D01*
X153703805Y-79358149D01*
X153786769Y-79558937D01*
X153940255Y-79712691D01*
X154140897Y-79796005D01*
X154358149Y-79796195D01*
X154558937Y-79713231D01*
X154603145Y-79669100D01*
X156728989Y-79669100D01*
X156786769Y-79808937D01*
X156940255Y-79962691D01*
X157140897Y-80046005D01*
X157358149Y-80046195D01*
X157558937Y-79963231D01*
X157712691Y-79809745D01*
X157796005Y-79609103D01*
X157796195Y-79391851D01*
X157713231Y-79191063D01*
X157559745Y-79037309D01*
X157359103Y-78953995D01*
X157296636Y-78953940D01*
X157296348Y-78953652D01*
X157244638Y-78919100D01*
X159896740Y-78919100D01*
X159940255Y-78962691D01*
X160140897Y-79046005D01*
X160358149Y-79046195D01*
X160558937Y-78963231D01*
X160712691Y-78809745D01*
X160796005Y-78609103D01*
X160796195Y-78391851D01*
X160713231Y-78191063D01*
X160559745Y-78037309D01*
X160359103Y-77953995D01*
X160141851Y-77953805D01*
X159941063Y-78036769D01*
X159896855Y-78080900D01*
X159296030Y-78080900D01*
X159296171Y-77919100D01*
X163896740Y-77919100D01*
X163940255Y-77962691D01*
X164140897Y-78046005D01*
X164358149Y-78046195D01*
X164558937Y-77963231D01*
X164712691Y-77809745D01*
X164796005Y-77609103D01*
X164796195Y-77391851D01*
X164713231Y-77191063D01*
X164559745Y-77037309D01*
X164359103Y-76953995D01*
X164141851Y-76953805D01*
X163941063Y-77036769D01*
X163896855Y-77080900D01*
X144416192Y-77080900D01*
X144446005Y-77009103D01*
X144446171Y-76819100D01*
X164800000Y-76819100D01*
X164960383Y-76787198D01*
X165096348Y-76696348D01*
X166496348Y-75296348D01*
X166524648Y-75253995D01*
X166587198Y-75160383D01*
X166617479Y-75008149D01*
X166753805Y-75008149D01*
X166836769Y-75208937D01*
X166990255Y-75362691D01*
X167190897Y-75446005D01*
X167408149Y-75446195D01*
X167608937Y-75363231D01*
X167762691Y-75209745D01*
X167846005Y-75009103D01*
X167846195Y-74791851D01*
X167763231Y-74591063D01*
X167609745Y-74437309D01*
X167409103Y-74353995D01*
X167191851Y-74353805D01*
X166991063Y-74436769D01*
X166837309Y-74590255D01*
X166753995Y-74790897D01*
X166753805Y-75008149D01*
X166617479Y-75008149D01*
X166619100Y-75000000D01*
X166619100Y-68197953D01*
X166742678Y-68074375D01*
X166937500Y-68074375D01*
X166937500Y-68173154D01*
X166985836Y-68289849D01*
X167075150Y-68379163D01*
X167109539Y-68393408D01*
X166957972Y-68544975D01*
X167016855Y-68654754D01*
X167333372Y-68696480D01*
X167543145Y-68654754D01*
X167602028Y-68544975D01*
X167448839Y-68391786D01*
X167492500Y-68348125D01*
X167492500Y-67995000D01*
X167016875Y-67995000D01*
X166937500Y-68074375D01*
X166742678Y-68074375D01*
X166937053Y-67880000D01*
X167622947Y-67880000D01*
X167862500Y-68119553D01*
X167862500Y-68451502D01*
X167941873Y-68451502D01*
X167862500Y-68530875D01*
X167862500Y-69153154D01*
X167910836Y-69269849D01*
X168000150Y-69359163D01*
X168116845Y-69407500D01*
X170069125Y-69407500D01*
X170148500Y-69328125D01*
X170148500Y-68451500D01*
X170128500Y-68451500D01*
X170128500Y-67308500D01*
X170148500Y-67308500D01*
X170148500Y-66431875D01*
X170069125Y-66352500D01*
X168116845Y-66352500D01*
X168000150Y-66400837D01*
X167910836Y-66490151D01*
X167862500Y-66606846D01*
X167862500Y-67229125D01*
X167941873Y-67308498D01*
X167862500Y-67308498D01*
X167862500Y-67640447D01*
X167622947Y-67880000D01*
X166937053Y-67880000D01*
X166643899Y-67586846D01*
X166937500Y-67586846D01*
X166937500Y-67685625D01*
X167016875Y-67765000D01*
X167492500Y-67765000D01*
X167492500Y-67411875D01*
X167448839Y-67368214D01*
X167602028Y-67215025D01*
X167543145Y-67105246D01*
X167226628Y-67063520D01*
X167016855Y-67105246D01*
X166957972Y-67215025D01*
X167109539Y-67366592D01*
X167075150Y-67380837D01*
X166985836Y-67470151D01*
X166937500Y-67586846D01*
X166643899Y-67586846D01*
X166619100Y-67562047D01*
X166619100Y-62600000D01*
X166599209Y-62500000D01*
X166587199Y-62439618D01*
X166496349Y-62303652D01*
X165619100Y-61426404D01*
X165619100Y-59173372D01*
X166463520Y-59173372D01*
X166505246Y-59383145D01*
X166615025Y-59442028D01*
X166742678Y-59314375D01*
X166937500Y-59314375D01*
X166937500Y-59413154D01*
X166985836Y-59529849D01*
X167075150Y-59619163D01*
X167109539Y-59633408D01*
X166957972Y-59784975D01*
X167016855Y-59894754D01*
X167333372Y-59936480D01*
X167543145Y-59894754D01*
X167602028Y-59784975D01*
X167448839Y-59631786D01*
X167492500Y-59588125D01*
X167492500Y-59235000D01*
X167016875Y-59235000D01*
X166937500Y-59314375D01*
X166742678Y-59314375D01*
X166937053Y-59120000D01*
X167622947Y-59120000D01*
X167862500Y-59359553D01*
X167862500Y-59691502D01*
X167941873Y-59691502D01*
X167862500Y-59770875D01*
X167862500Y-60393154D01*
X167910836Y-60509849D01*
X168000150Y-60599163D01*
X168116845Y-60647500D01*
X170069125Y-60647500D01*
X170148500Y-60568125D01*
X170148500Y-59691500D01*
X170128500Y-59691500D01*
X170128500Y-58548500D01*
X170148500Y-58548500D01*
X170148500Y-57671875D01*
X170069125Y-57592500D01*
X168116845Y-57592500D01*
X168000150Y-57640837D01*
X167910836Y-57730151D01*
X167862500Y-57846846D01*
X167862500Y-58469125D01*
X167941873Y-58548498D01*
X167862500Y-58548498D01*
X167862500Y-58880447D01*
X167622947Y-59120000D01*
X166937053Y-59120000D01*
X166643899Y-58826846D01*
X166937500Y-58826846D01*
X166937500Y-58925625D01*
X167016875Y-59005000D01*
X167492500Y-59005000D01*
X167492500Y-58651875D01*
X167448839Y-58608214D01*
X167602028Y-58455025D01*
X167543145Y-58345246D01*
X167226628Y-58303520D01*
X167016855Y-58345246D01*
X166957972Y-58455025D01*
X167109539Y-58606592D01*
X167075150Y-58620837D01*
X166985836Y-58710151D01*
X166937500Y-58826846D01*
X166643899Y-58826846D01*
X166615025Y-58797972D01*
X166505246Y-58856855D01*
X166463520Y-59173372D01*
X165619100Y-59173372D01*
X165619100Y-56373596D01*
X166646555Y-55346141D01*
X166708149Y-55346195D01*
X166908937Y-55263231D01*
X167062691Y-55109745D01*
X167146005Y-54909103D01*
X167146195Y-54691851D01*
X167063231Y-54491063D01*
X166909745Y-54337309D01*
X166709103Y-54253995D01*
X166491851Y-54253805D01*
X166291063Y-54336769D01*
X166137309Y-54490255D01*
X166053995Y-54690897D01*
X166053940Y-54753364D01*
X165019100Y-55788204D01*
X165019100Y-53773596D01*
X166446556Y-52346141D01*
X166508149Y-52346195D01*
X166708937Y-52263231D01*
X166862691Y-52109745D01*
X166946005Y-51909103D01*
X166946195Y-51691851D01*
X166863231Y-51491063D01*
X166709745Y-51337309D01*
X166509103Y-51253995D01*
X166291851Y-51253805D01*
X166091063Y-51336769D01*
X165937309Y-51490255D01*
X165853995Y-51690897D01*
X165853940Y-51753363D01*
X164303652Y-53303652D01*
X164212802Y-53439617D01*
X164180900Y-53600000D01*
X164180900Y-61000000D01*
X164212802Y-61160383D01*
X164297251Y-61286769D01*
X164303652Y-61296348D01*
X164380900Y-61373596D01*
X164380900Y-64200000D01*
X164412802Y-64360383D01*
X164475352Y-64453995D01*
X164503652Y-64496348D01*
X165180900Y-65173597D01*
X165180900Y-73426403D01*
X163226404Y-75380900D01*
X135353260Y-75380900D01*
X135309745Y-75337309D01*
X135109103Y-75253995D01*
X134891851Y-75253805D01*
X134691063Y-75336769D01*
X134537309Y-75490255D01*
X134453995Y-75690897D01*
X134453805Y-75908149D01*
X134536769Y-76108937D01*
X134690255Y-76262691D01*
X134890897Y-76346005D01*
X135108149Y-76346195D01*
X135308937Y-76263231D01*
X135353145Y-76219100D01*
X137188203Y-76219100D01*
X136953445Y-76453859D01*
X136891851Y-76453805D01*
X136691063Y-76536769D01*
X136537309Y-76690255D01*
X136453995Y-76890897D01*
X136453805Y-77108149D01*
X136483865Y-77180900D01*
X136116192Y-77180900D01*
X136146005Y-77109103D01*
X136146195Y-76891851D01*
X136063231Y-76691063D01*
X135909745Y-76537309D01*
X135709103Y-76453995D01*
X135491851Y-76453805D01*
X135291063Y-76536769D01*
X135246855Y-76580900D01*
X133373597Y-76580900D01*
X131546141Y-74753445D01*
X131546195Y-74691851D01*
X131463231Y-74491063D01*
X131309745Y-74337309D01*
X131109103Y-74253995D01*
X130891851Y-74253805D01*
X130691063Y-74336769D01*
X130537309Y-74490255D01*
X130453995Y-74690897D01*
X130453805Y-74908149D01*
X130536769Y-75108937D01*
X130690255Y-75262691D01*
X130890897Y-75346005D01*
X130953364Y-75346060D01*
X132788203Y-77180900D01*
X131173597Y-77180900D01*
X130296351Y-76303655D01*
X130296349Y-76303652D01*
X129419100Y-75426404D01*
X129419100Y-74791412D01*
X129490255Y-74862691D01*
X129690897Y-74946005D01*
X129908149Y-74946195D01*
X130108937Y-74863231D01*
X130262691Y-74709745D01*
X130346005Y-74509103D01*
X130346060Y-74446636D01*
X132496349Y-72296348D01*
X132587199Y-72160382D01*
X132619100Y-72000000D01*
X132619100Y-71014648D01*
X132956339Y-71351887D01*
X133188587Y-71119639D01*
X133170405Y-71101457D01*
X133238733Y-71087865D01*
X133269682Y-70985208D01*
X133000000Y-70715526D01*
X132892237Y-70823289D01*
X132676711Y-70607763D01*
X132784474Y-70500000D01*
X133215526Y-70500000D01*
X133485208Y-70769682D01*
X133587865Y-70738733D01*
X133634476Y-70495594D01*
X133587865Y-70261267D01*
X133485208Y-70230318D01*
X133215526Y-70500000D01*
X132784474Y-70500000D01*
X132676711Y-70392237D01*
X132892237Y-70176711D01*
X133000000Y-70284474D01*
X133269682Y-70014792D01*
X133238733Y-69912135D01*
X133169991Y-69898957D01*
X133188587Y-69880361D01*
X133058226Y-69750000D01*
X133188587Y-69619639D01*
X133170405Y-69601457D01*
X133238733Y-69587865D01*
X133269682Y-69485208D01*
X133000000Y-69215526D01*
X132892237Y-69323289D01*
X132676711Y-69107763D01*
X132784474Y-69000000D01*
X132676711Y-68892237D01*
X132892237Y-68676711D01*
X133000000Y-68784474D01*
X133269682Y-68514792D01*
X133238733Y-68412135D01*
X133169991Y-68398957D01*
X133188587Y-68380361D01*
X133058226Y-68250000D01*
X133188587Y-68119639D01*
X133170405Y-68101457D01*
X133238733Y-68087865D01*
X133269682Y-67985208D01*
X133000000Y-67715526D01*
X132892237Y-67823289D01*
X132676711Y-67607763D01*
X132784474Y-67500000D01*
X132676711Y-67392237D01*
X132892237Y-67176711D01*
X133000000Y-67284474D01*
X133269682Y-67014792D01*
X133238733Y-66912135D01*
X133169991Y-66898957D01*
X133188587Y-66880361D01*
X132956339Y-66648113D01*
X132619100Y-66985352D01*
X132619100Y-65600000D01*
X132600830Y-65508149D01*
X132653805Y-65508149D01*
X132736769Y-65708937D01*
X132890255Y-65862691D01*
X133090897Y-65946005D01*
X133308149Y-65946195D01*
X133508937Y-65863231D01*
X133580900Y-65791393D01*
X133580900Y-67259167D01*
X133485208Y-67230318D01*
X133215526Y-67500000D01*
X133485208Y-67769682D01*
X133580900Y-67740833D01*
X133580900Y-68759167D01*
X133485208Y-68730318D01*
X133215526Y-69000000D01*
X133485208Y-69269682D01*
X133587865Y-69238733D01*
X133607752Y-69134995D01*
X133612802Y-69160383D01*
X133685834Y-69269682D01*
X133703652Y-69296348D01*
X134853859Y-70446555D01*
X134853805Y-70508149D01*
X134936769Y-70708937D01*
X135090255Y-70862691D01*
X135154611Y-70889414D01*
X135153995Y-70890897D01*
X135153805Y-71108149D01*
X135236769Y-71308937D01*
X135390255Y-71462691D01*
X135590897Y-71546005D01*
X135808149Y-71546195D01*
X136008937Y-71463231D01*
X136162691Y-71309745D01*
X136246005Y-71109103D01*
X136246195Y-70891851D01*
X136163231Y-70691063D01*
X136009745Y-70537309D01*
X135945389Y-70510586D01*
X135946005Y-70509103D01*
X135946195Y-70291851D01*
X135863231Y-70091063D01*
X135747390Y-69975020D01*
X135762691Y-69959745D01*
X135846005Y-69759103D01*
X135846195Y-69541851D01*
X135763231Y-69341063D01*
X135609745Y-69187309D01*
X135409103Y-69103995D01*
X135191851Y-69103805D01*
X134991063Y-69186769D01*
X134885172Y-69292476D01*
X134419100Y-68826404D01*
X134419100Y-67808149D01*
X134653805Y-67808149D01*
X134736769Y-68008937D01*
X134890255Y-68162691D01*
X135090897Y-68246005D01*
X135308149Y-68246195D01*
X135508937Y-68163231D01*
X135662691Y-68009745D01*
X135746005Y-67809103D01*
X135746195Y-67591851D01*
X135663231Y-67391063D01*
X135509745Y-67237309D01*
X135309103Y-67153995D01*
X135091851Y-67153805D01*
X134891063Y-67236769D01*
X134737309Y-67390255D01*
X134653995Y-67590897D01*
X134653805Y-67808149D01*
X134419100Y-67808149D01*
X134419100Y-65891412D01*
X134490255Y-65962691D01*
X134690897Y-66046005D01*
X134908149Y-66046195D01*
X135108937Y-65963231D01*
X135262691Y-65809745D01*
X135346005Y-65609103D01*
X135346195Y-65391851D01*
X135263231Y-65191063D01*
X135109745Y-65037309D01*
X134909103Y-64953995D01*
X134788807Y-64953890D01*
X135646348Y-64096349D01*
X135737198Y-63960383D01*
X135748482Y-63903652D01*
X135769100Y-63800000D01*
X135769100Y-56823596D01*
X136746556Y-55846141D01*
X136808149Y-55846195D01*
X137008937Y-55763231D01*
X137162691Y-55609745D01*
X137246005Y-55409103D01*
X137246195Y-55191851D01*
X137163231Y-54991063D01*
X137009745Y-54837309D01*
X136809103Y-54753995D01*
X136591851Y-54753805D01*
X136391063Y-54836769D01*
X136237309Y-54990255D01*
X136153995Y-55190897D01*
X136153940Y-55253363D01*
X135053652Y-56353652D01*
X134962802Y-56489617D01*
X134930900Y-56650000D01*
X134930900Y-63626403D01*
X133703652Y-64853652D01*
X133612802Y-64989617D01*
X133604355Y-65032084D01*
X133509745Y-64937309D01*
X133309103Y-64853995D01*
X133091851Y-64853805D01*
X132891063Y-64936769D01*
X132737309Y-65090255D01*
X132653995Y-65290897D01*
X132653805Y-65508149D01*
X132600830Y-65508149D01*
X132587198Y-65439617D01*
X132535797Y-65362691D01*
X132496348Y-65303651D01*
X132446141Y-65253444D01*
X132446195Y-65191851D01*
X132363231Y-64991063D01*
X132209745Y-64837309D01*
X132100676Y-64792020D01*
X134096349Y-62796348D01*
X134187199Y-62660382D01*
X134219100Y-62500000D01*
X134219100Y-60973596D01*
X134246555Y-60946141D01*
X134308149Y-60946195D01*
X134508937Y-60863231D01*
X134662691Y-60709745D01*
X134746005Y-60509103D01*
X134746195Y-60291851D01*
X134663231Y-60091063D01*
X134509745Y-59937309D01*
X134309103Y-59853995D01*
X134091851Y-59853805D01*
X133891063Y-59936769D01*
X133737309Y-60090255D01*
X133653995Y-60290897D01*
X133653940Y-60353363D01*
X133503652Y-60503652D01*
X133412802Y-60639617D01*
X133380900Y-60800000D01*
X133380900Y-61108588D01*
X133309745Y-61037309D01*
X133109103Y-60953995D01*
X132891851Y-60953805D01*
X132691063Y-61036769D01*
X132537309Y-61190255D01*
X132453995Y-61390897D01*
X132453805Y-61608149D01*
X132536769Y-61808937D01*
X132690255Y-61962691D01*
X132890897Y-62046005D01*
X133108149Y-62046195D01*
X133308937Y-61963231D01*
X133380900Y-61891393D01*
X133380900Y-62326403D01*
X131407968Y-64299336D01*
X131363231Y-64191063D01*
X131209745Y-64037309D01*
X131009103Y-63953995D01*
X130791851Y-63953805D01*
X130591063Y-64036769D01*
X130437309Y-64190255D01*
X130353995Y-64390897D01*
X130353805Y-64608149D01*
X130436769Y-64808937D01*
X130480900Y-64853145D01*
X130480900Y-66737702D01*
X130412802Y-66839617D01*
X130383330Y-66987782D01*
X130043661Y-66648113D01*
X129811413Y-66880361D01*
X129829595Y-66898543D01*
X129761267Y-66912135D01*
X129730318Y-67014792D01*
X130000000Y-67284474D01*
X130107763Y-67176711D01*
X130323289Y-67392237D01*
X130215526Y-67500000D01*
X130323289Y-67607763D01*
X130107763Y-67823289D01*
X130000000Y-67715526D01*
X129730318Y-67985208D01*
X129761267Y-68087865D01*
X129830009Y-68101043D01*
X129811413Y-68119639D01*
X129941774Y-68250000D01*
X129811413Y-68380361D01*
X129829595Y-68398543D01*
X129761267Y-68412135D01*
X129730318Y-68514792D01*
X130000000Y-68784474D01*
X130107763Y-68676711D01*
X130323289Y-68892237D01*
X130215526Y-69000000D01*
X130323289Y-69107763D01*
X130107763Y-69323289D01*
X130000000Y-69215526D01*
X129730318Y-69485208D01*
X129761267Y-69587865D01*
X129830009Y-69601043D01*
X129811413Y-69619639D01*
X129941774Y-69750000D01*
X129811413Y-69880361D01*
X129829595Y-69898543D01*
X129761267Y-69912135D01*
X129730318Y-70014792D01*
X130000000Y-70284474D01*
X130107763Y-70176711D01*
X130323289Y-70392237D01*
X130215526Y-70500000D01*
X130323289Y-70607763D01*
X130107763Y-70823289D01*
X130000000Y-70715526D01*
X129730318Y-70985208D01*
X129761267Y-71087865D01*
X129830009Y-71101043D01*
X129811413Y-71119639D01*
X130043661Y-71351887D01*
X130380900Y-71014648D01*
X130380900Y-72226403D01*
X130037206Y-72570097D01*
X129963231Y-72391063D01*
X129809745Y-72237309D01*
X129609103Y-72153995D01*
X129391851Y-72153805D01*
X129191063Y-72236769D01*
X129037309Y-72390255D01*
X128953995Y-72590897D01*
X128953805Y-72808149D01*
X129036769Y-73008937D01*
X129190255Y-73162691D01*
X129369983Y-73237321D01*
X128703652Y-73903652D01*
X128612802Y-74039617D01*
X128580900Y-74200000D01*
X128580900Y-75600000D01*
X128612802Y-75760383D01*
X128639274Y-75800000D01*
X128703652Y-75896348D01*
X129703652Y-76896349D01*
X129703655Y-76896351D01*
X130388203Y-77580900D01*
X127646030Y-77580900D01*
X127646195Y-77391851D01*
X127563231Y-77191063D01*
X127409745Y-77037309D01*
X127270046Y-76979301D01*
X127308937Y-76963231D01*
X127462691Y-76809745D01*
X127546005Y-76609103D01*
X127546195Y-76391851D01*
X127463231Y-76191063D01*
X127309745Y-76037309D01*
X127109103Y-75953995D01*
X127046637Y-75953940D01*
X125169100Y-74076404D01*
X125169100Y-70504406D01*
X129365524Y-70504406D01*
X129412135Y-70738733D01*
X129514792Y-70769682D01*
X129784474Y-70500000D01*
X129514792Y-70230318D01*
X129412135Y-70261267D01*
X129365524Y-70504406D01*
X125169100Y-70504406D01*
X125169100Y-69508149D01*
X126253805Y-69508149D01*
X126336769Y-69708937D01*
X126490255Y-69862691D01*
X126690897Y-69946005D01*
X126908149Y-69946195D01*
X127108937Y-69863231D01*
X127150024Y-69822215D01*
X127290255Y-69962691D01*
X127490897Y-70046005D01*
X127708149Y-70046195D01*
X127908937Y-69963231D01*
X128062691Y-69809745D01*
X128146005Y-69609103D01*
X128146060Y-69546637D01*
X128596348Y-69096349D01*
X128657782Y-69004406D01*
X129365524Y-69004406D01*
X129412135Y-69238733D01*
X129514792Y-69269682D01*
X129784474Y-69000000D01*
X129514792Y-68730318D01*
X129412135Y-68761267D01*
X129365524Y-69004406D01*
X128657782Y-69004406D01*
X128687198Y-68960383D01*
X128691895Y-68936769D01*
X128719100Y-68800000D01*
X128719100Y-67504406D01*
X129365524Y-67504406D01*
X129412135Y-67738733D01*
X129514792Y-67769682D01*
X129784474Y-67500000D01*
X129514792Y-67230318D01*
X129412135Y-67261267D01*
X129365524Y-67504406D01*
X128719100Y-67504406D01*
X128719100Y-65474669D01*
X128890897Y-65546005D01*
X129108149Y-65546195D01*
X129308937Y-65463231D01*
X129462691Y-65309745D01*
X129546005Y-65109103D01*
X129546060Y-65046141D01*
X129608149Y-65046195D01*
X129808937Y-64963231D01*
X129962691Y-64809745D01*
X130046005Y-64609103D01*
X130046195Y-64391851D01*
X129963231Y-64191063D01*
X129919100Y-64146855D01*
X129919100Y-62853260D01*
X129962691Y-62809745D01*
X130046005Y-62609103D01*
X130046195Y-62391851D01*
X129963231Y-62191063D01*
X129809745Y-62037309D01*
X129609103Y-61953995D01*
X129506640Y-61953905D01*
X129546005Y-61859103D01*
X129546195Y-61641851D01*
X129532270Y-61608149D01*
X129753805Y-61608149D01*
X129836769Y-61808937D01*
X129990255Y-61962691D01*
X130190897Y-62046005D01*
X130408149Y-62046195D01*
X130608937Y-61963231D01*
X130762691Y-61809745D01*
X130799989Y-61719922D01*
X130836769Y-61808937D01*
X130990255Y-61962691D01*
X131190897Y-62046005D01*
X131408149Y-62046195D01*
X131608937Y-61963231D01*
X131762691Y-61809745D01*
X131846005Y-61609103D01*
X131846195Y-61391851D01*
X131763231Y-61191063D01*
X131609745Y-61037309D01*
X131409103Y-60953995D01*
X131191851Y-60953805D01*
X130991063Y-61036769D01*
X130837309Y-61190255D01*
X130800011Y-61280078D01*
X130763231Y-61191063D01*
X130609745Y-61037309D01*
X130409103Y-60953995D01*
X130191851Y-60953805D01*
X129991063Y-61036769D01*
X129837309Y-61190255D01*
X129753995Y-61390897D01*
X129753805Y-61608149D01*
X129532270Y-61608149D01*
X129463231Y-61441063D01*
X129309745Y-61287309D01*
X129109103Y-61203995D01*
X128919100Y-61203829D01*
X128919100Y-58073596D01*
X128984547Y-58008149D01*
X132353805Y-58008149D01*
X132436769Y-58208937D01*
X132590255Y-58362691D01*
X132790897Y-58446005D01*
X133008149Y-58446195D01*
X133200225Y-58366831D01*
X133390897Y-58446005D01*
X133608149Y-58446195D01*
X133808937Y-58363231D01*
X133962691Y-58209745D01*
X134046005Y-58009103D01*
X134046195Y-57791851D01*
X133963231Y-57591063D01*
X133809745Y-57437309D01*
X133609103Y-57353995D01*
X133391851Y-57353805D01*
X133199775Y-57433169D01*
X133009103Y-57353995D01*
X132791851Y-57353805D01*
X132591063Y-57436769D01*
X132437309Y-57590255D01*
X132353995Y-57790897D01*
X132353805Y-58008149D01*
X128984547Y-58008149D01*
X134346556Y-52646141D01*
X134408149Y-52646195D01*
X134608937Y-52563231D01*
X134762691Y-52409745D01*
X134846005Y-52209103D01*
X134846195Y-51991851D01*
X134763231Y-51791063D01*
X134609745Y-51637309D01*
X134409103Y-51553995D01*
X134191851Y-51553805D01*
X133991063Y-51636769D01*
X133837309Y-51790255D01*
X133753995Y-51990897D01*
X133753940Y-52053363D01*
X128546047Y-57261257D01*
X128546195Y-57091851D01*
X128463231Y-56891063D01*
X128309745Y-56737309D01*
X128109103Y-56653995D01*
X127891851Y-56653805D01*
X127691063Y-56736769D01*
X127537309Y-56890255D01*
X127453995Y-57090897D01*
X127453805Y-57308149D01*
X127536769Y-57508937D01*
X127580900Y-57553145D01*
X127580900Y-64026403D01*
X126503652Y-65103652D01*
X126412802Y-65239617D01*
X126380900Y-65400000D01*
X126380900Y-69046740D01*
X126337309Y-69090255D01*
X126253995Y-69290897D01*
X126253805Y-69508149D01*
X125169100Y-69508149D01*
X125169100Y-68750000D01*
X125137198Y-68589617D01*
X125085441Y-68512158D01*
X125046349Y-68453652D01*
X122169100Y-65576404D01*
X122169100Y-65296030D01*
X122358149Y-65296195D01*
X122558937Y-65213231D01*
X122712691Y-65059745D01*
X122796005Y-64859103D01*
X122796195Y-64641851D01*
X122713231Y-64441063D01*
X122559745Y-64287309D01*
X122359103Y-64203995D01*
X122169100Y-64203829D01*
X122169100Y-46208149D01*
X122553805Y-46208149D01*
X122636769Y-46408937D01*
X122790255Y-46562691D01*
X122990897Y-46646005D01*
X123208149Y-46646195D01*
X123408937Y-46563231D01*
X123562691Y-46409745D01*
X123646005Y-46209103D01*
X123646195Y-45991851D01*
X123563231Y-45791063D01*
X123409745Y-45637309D01*
X123209103Y-45553995D01*
X122991851Y-45553805D01*
X122791063Y-45636769D01*
X122637309Y-45790255D01*
X122553995Y-45990897D01*
X122553805Y-46208149D01*
X122169100Y-46208149D01*
X122169100Y-45423596D01*
X122662793Y-44929903D01*
X122736769Y-45108937D01*
X122890255Y-45262691D01*
X123090897Y-45346005D01*
X123308149Y-45346195D01*
X123508937Y-45263231D01*
X123662691Y-45109745D01*
X123746005Y-44909103D01*
X123746060Y-44846637D01*
X124573597Y-44019100D01*
X131826404Y-44019100D01*
X133380900Y-45573597D01*
X133380900Y-46800000D01*
X133412802Y-46960383D01*
X133450558Y-47016888D01*
X133503652Y-47096348D01*
X139980900Y-53573597D01*
X139980900Y-54638203D01*
X131919100Y-46576404D01*
X131919100Y-45103260D01*
X131962691Y-45059745D01*
X132046005Y-44859103D01*
X132046195Y-44641851D01*
X131963231Y-44441063D01*
X131809745Y-44287309D01*
X131609103Y-44203995D01*
X131391851Y-44203805D01*
X131191063Y-44286769D01*
X131037309Y-44440255D01*
X130953995Y-44640897D01*
X130953805Y-44858149D01*
X131036769Y-45058937D01*
X131080900Y-45103145D01*
X131080900Y-46750000D01*
X131112802Y-46910383D01*
X131183967Y-47016888D01*
X131203652Y-47046348D01*
X139330900Y-55173597D01*
X139330900Y-65250000D01*
X139362802Y-65410383D01*
X139447538Y-65537198D01*
X139453652Y-65546348D01*
X139830900Y-65923597D01*
X139830900Y-71576404D01*
X138826404Y-72580900D01*
X133253260Y-72580900D01*
X133209745Y-72537309D01*
X133009103Y-72453995D01*
X132791851Y-72453805D01*
X132591063Y-72536769D01*
X132437309Y-72690255D01*
X132353995Y-72890897D01*
X132353805Y-73108149D01*
X132436769Y-73308937D01*
X132552610Y-73424980D01*
X132537309Y-73440255D01*
X132453995Y-73640897D01*
X132453805Y-73858149D01*
X132536769Y-74058937D01*
X132690255Y-74212691D01*
X132890897Y-74296005D01*
X133108149Y-74296195D01*
X133308937Y-74213231D01*
X133353145Y-74169100D01*
X133904570Y-74169100D01*
X133853995Y-74290897D01*
X133853805Y-74508149D01*
X133936769Y-74708937D01*
X134090255Y-74862691D01*
X134290897Y-74946005D01*
X134508149Y-74946195D01*
X134708937Y-74863231D01*
X134753145Y-74819100D01*
X150000000Y-74819100D01*
X150160383Y-74787198D01*
X150262298Y-74719100D01*
X151546740Y-74719100D01*
X151590255Y-74762691D01*
X151790897Y-74846005D01*
X152008149Y-74846195D01*
X152208937Y-74763231D01*
X152362691Y-74609745D01*
X152446005Y-74409103D01*
X152446195Y-74191851D01*
X152363231Y-73991063D01*
X152209745Y-73837309D01*
X152009103Y-73753995D01*
X151791851Y-73753805D01*
X151591063Y-73836769D01*
X151546855Y-73880900D01*
X150100000Y-73880900D01*
X149939617Y-73912802D01*
X149837702Y-73980900D01*
X147966175Y-73980900D01*
X148008937Y-73963231D01*
X148162691Y-73809745D01*
X148246005Y-73609103D01*
X148246195Y-73391851D01*
X148170291Y-73208149D01*
X154553805Y-73208149D01*
X154636769Y-73408937D01*
X154790255Y-73562691D01*
X154990897Y-73646005D01*
X155208149Y-73646195D01*
X155408937Y-73563231D01*
X155562691Y-73409745D01*
X155563353Y-73408149D01*
X159153805Y-73408149D01*
X159236769Y-73608937D01*
X159390255Y-73762691D01*
X159590897Y-73846005D01*
X159808149Y-73846195D01*
X160008937Y-73763231D01*
X160162691Y-73609745D01*
X160246005Y-73409103D01*
X160246195Y-73191851D01*
X160163231Y-72991063D01*
X160009745Y-72837309D01*
X159809103Y-72753995D01*
X159591851Y-72753805D01*
X159391063Y-72836769D01*
X159237309Y-72990255D01*
X159153995Y-73190897D01*
X159153805Y-73408149D01*
X155563353Y-73408149D01*
X155646005Y-73209103D01*
X155646195Y-72991851D01*
X155563231Y-72791063D01*
X155409745Y-72637309D01*
X155209103Y-72553995D01*
X154991851Y-72553805D01*
X154791063Y-72636769D01*
X154637309Y-72790255D01*
X154553995Y-72990897D01*
X154553805Y-73208149D01*
X148170291Y-73208149D01*
X148163231Y-73191063D01*
X148009745Y-73037309D01*
X147809103Y-72953995D01*
X147591851Y-72953805D01*
X147391063Y-73036769D01*
X147237309Y-73190255D01*
X147153995Y-73390897D01*
X147153805Y-73608149D01*
X147236769Y-73808937D01*
X147390255Y-73962691D01*
X147434107Y-73980900D01*
X140111796Y-73980900D01*
X141035889Y-73056807D01*
X141036769Y-73058937D01*
X141190255Y-73212691D01*
X141390897Y-73296005D01*
X141608149Y-73296195D01*
X141808937Y-73213231D01*
X141853145Y-73169100D01*
X142250000Y-73169100D01*
X142410383Y-73137198D01*
X142546348Y-73046348D01*
X143234547Y-72358149D01*
X153453805Y-72358149D01*
X153536769Y-72558937D01*
X153690255Y-72712691D01*
X153890897Y-72796005D01*
X154108149Y-72796195D01*
X154308937Y-72713231D01*
X154462691Y-72559745D01*
X154546005Y-72359103D01*
X154546137Y-72208149D01*
X155553805Y-72208149D01*
X155636769Y-72408937D01*
X155790255Y-72562691D01*
X155990897Y-72646005D01*
X156208149Y-72646195D01*
X156408937Y-72563231D01*
X156562691Y-72409745D01*
X156646005Y-72209103D01*
X156646005Y-72208149D01*
X157153805Y-72208149D01*
X157236769Y-72408937D01*
X157390255Y-72562691D01*
X157590897Y-72646005D01*
X157808149Y-72646195D01*
X158008937Y-72563231D01*
X158162691Y-72409745D01*
X158246005Y-72209103D01*
X158246195Y-71991851D01*
X158163231Y-71791063D01*
X158009745Y-71637309D01*
X157809103Y-71553995D01*
X157591851Y-71553805D01*
X157391063Y-71636769D01*
X157237309Y-71790255D01*
X157153995Y-71990897D01*
X157153805Y-72208149D01*
X156646005Y-72208149D01*
X156646195Y-71991851D01*
X156563231Y-71791063D01*
X156409745Y-71637309D01*
X156209103Y-71553995D01*
X155991851Y-71553805D01*
X155791063Y-71636769D01*
X155637309Y-71790255D01*
X155553995Y-71990897D01*
X155553805Y-72208149D01*
X154546137Y-72208149D01*
X154546195Y-72141851D01*
X154463231Y-71941063D01*
X154309745Y-71787309D01*
X154109103Y-71703995D01*
X153891851Y-71703805D01*
X153691063Y-71786769D01*
X153537309Y-71940255D01*
X153453995Y-72140897D01*
X153453805Y-72358149D01*
X143234547Y-72358149D01*
X145382972Y-70209724D01*
X155487842Y-70209724D01*
X155514850Y-70311329D01*
X155747560Y-70358588D01*
X155980643Y-70313196D01*
X155985150Y-70311329D01*
X156012158Y-70209724D01*
X156987842Y-70209724D01*
X157014850Y-70311329D01*
X157247560Y-70358588D01*
X157480643Y-70313196D01*
X157485150Y-70311329D01*
X157512158Y-70209724D01*
X158487842Y-70209724D01*
X158514850Y-70311329D01*
X158747560Y-70358588D01*
X158980643Y-70313196D01*
X158985150Y-70311329D01*
X159012158Y-70209724D01*
X158750000Y-69947566D01*
X158487842Y-70209724D01*
X157512158Y-70209724D01*
X157250000Y-69947566D01*
X156987842Y-70209724D01*
X156012158Y-70209724D01*
X155750000Y-69947566D01*
X155487842Y-70209724D01*
X145382972Y-70209724D01*
X145845136Y-69747560D01*
X155141412Y-69747560D01*
X155186804Y-69980643D01*
X155188671Y-69985150D01*
X155290276Y-70012158D01*
X155552434Y-69750000D01*
X155947566Y-69750000D01*
X156209724Y-70012158D01*
X156311329Y-69985150D01*
X156358588Y-69752440D01*
X156357638Y-69747560D01*
X156641412Y-69747560D01*
X156686804Y-69980643D01*
X156688671Y-69985150D01*
X156790276Y-70012158D01*
X157052434Y-69750000D01*
X157447566Y-69750000D01*
X157709724Y-70012158D01*
X157811329Y-69985150D01*
X157858588Y-69752440D01*
X157857638Y-69747560D01*
X158141412Y-69747560D01*
X158186804Y-69980643D01*
X158188671Y-69985150D01*
X158290276Y-70012158D01*
X158552434Y-69750000D01*
X158947566Y-69750000D01*
X159209724Y-70012158D01*
X159311329Y-69985150D01*
X159358588Y-69752440D01*
X159313196Y-69519357D01*
X159311329Y-69514850D01*
X159209724Y-69487842D01*
X158947566Y-69750000D01*
X158552434Y-69750000D01*
X158290276Y-69487842D01*
X158188671Y-69514850D01*
X158141412Y-69747560D01*
X157857638Y-69747560D01*
X157813196Y-69519357D01*
X157811329Y-69514850D01*
X157709724Y-69487842D01*
X157447566Y-69750000D01*
X157052434Y-69750000D01*
X156790276Y-69487842D01*
X156688671Y-69514850D01*
X156641412Y-69747560D01*
X156357638Y-69747560D01*
X156313196Y-69519357D01*
X156311329Y-69514850D01*
X156209724Y-69487842D01*
X155947566Y-69750000D01*
X155552434Y-69750000D01*
X155290276Y-69487842D01*
X155188671Y-69514850D01*
X155141412Y-69747560D01*
X145845136Y-69747560D01*
X146302420Y-69290276D01*
X155487842Y-69290276D01*
X155750000Y-69552434D01*
X156012158Y-69290276D01*
X156987842Y-69290276D01*
X157250000Y-69552434D01*
X157512158Y-69290276D01*
X158487842Y-69290276D01*
X158750000Y-69552434D01*
X159012158Y-69290276D01*
X158985150Y-69188671D01*
X158752440Y-69141412D01*
X158519357Y-69186804D01*
X158514850Y-69188671D01*
X158487842Y-69290276D01*
X157512158Y-69290276D01*
X157485150Y-69188671D01*
X157252440Y-69141412D01*
X157019357Y-69186804D01*
X157014850Y-69188671D01*
X156987842Y-69290276D01*
X156012158Y-69290276D01*
X155985150Y-69188671D01*
X155752440Y-69141412D01*
X155519357Y-69186804D01*
X155514850Y-69188671D01*
X155487842Y-69290276D01*
X146302420Y-69290276D01*
X146546348Y-69046349D01*
X146637198Y-68910383D01*
X146669100Y-68750000D01*
X146669100Y-68709724D01*
X155487842Y-68709724D01*
X155514850Y-68811329D01*
X155747560Y-68858588D01*
X155980643Y-68813196D01*
X155985150Y-68811329D01*
X156012158Y-68709724D01*
X156987842Y-68709724D01*
X157014850Y-68811329D01*
X157247560Y-68858588D01*
X157480643Y-68813196D01*
X157485150Y-68811329D01*
X157512158Y-68709724D01*
X158487842Y-68709724D01*
X158514850Y-68811329D01*
X158747560Y-68858588D01*
X158980643Y-68813196D01*
X158985150Y-68811329D01*
X159012158Y-68709724D01*
X158750000Y-68447566D01*
X158487842Y-68709724D01*
X157512158Y-68709724D01*
X157250000Y-68447566D01*
X156987842Y-68709724D01*
X156012158Y-68709724D01*
X155750000Y-68447566D01*
X155487842Y-68709724D01*
X146669100Y-68709724D01*
X146669100Y-68247560D01*
X155141412Y-68247560D01*
X155186804Y-68480643D01*
X155188671Y-68485150D01*
X155290276Y-68512158D01*
X155552434Y-68250000D01*
X155947566Y-68250000D01*
X156209724Y-68512158D01*
X156311329Y-68485150D01*
X156358588Y-68252440D01*
X156357638Y-68247560D01*
X156641412Y-68247560D01*
X156686804Y-68480643D01*
X156688671Y-68485150D01*
X156790276Y-68512158D01*
X157052434Y-68250000D01*
X157447566Y-68250000D01*
X157709724Y-68512158D01*
X157811329Y-68485150D01*
X157858588Y-68252440D01*
X157857638Y-68247560D01*
X158141412Y-68247560D01*
X158186804Y-68480643D01*
X158188671Y-68485150D01*
X158290276Y-68512158D01*
X158552434Y-68250000D01*
X158947566Y-68250000D01*
X159209724Y-68512158D01*
X159311329Y-68485150D01*
X159358588Y-68252440D01*
X159313196Y-68019357D01*
X159311329Y-68014850D01*
X159209724Y-67987842D01*
X158947566Y-68250000D01*
X158552434Y-68250000D01*
X158290276Y-67987842D01*
X158188671Y-68014850D01*
X158141412Y-68247560D01*
X157857638Y-68247560D01*
X157813196Y-68019357D01*
X157811329Y-68014850D01*
X157709724Y-67987842D01*
X157447566Y-68250000D01*
X157052434Y-68250000D01*
X156790276Y-67987842D01*
X156688671Y-68014850D01*
X156641412Y-68247560D01*
X156357638Y-68247560D01*
X156313196Y-68019357D01*
X156311329Y-68014850D01*
X156209724Y-67987842D01*
X155947566Y-68250000D01*
X155552434Y-68250000D01*
X155290276Y-67987842D01*
X155188671Y-68014850D01*
X155141412Y-68247560D01*
X146669100Y-68247560D01*
X146669100Y-67790276D01*
X155487842Y-67790276D01*
X155750000Y-68052434D01*
X156012158Y-67790276D01*
X156987842Y-67790276D01*
X157250000Y-68052434D01*
X157512158Y-67790276D01*
X158487842Y-67790276D01*
X158750000Y-68052434D01*
X159012158Y-67790276D01*
X158985150Y-67688671D01*
X158752440Y-67641412D01*
X158519357Y-67686804D01*
X158514850Y-67688671D01*
X158487842Y-67790276D01*
X157512158Y-67790276D01*
X157485150Y-67688671D01*
X157252440Y-67641412D01*
X157019357Y-67686804D01*
X157014850Y-67688671D01*
X156987842Y-67790276D01*
X156012158Y-67790276D01*
X155985150Y-67688671D01*
X155752440Y-67641412D01*
X155519357Y-67686804D01*
X155514850Y-67688671D01*
X155487842Y-67790276D01*
X146669100Y-67790276D01*
X146669100Y-67209724D01*
X155487842Y-67209724D01*
X155514850Y-67311329D01*
X155747560Y-67358588D01*
X155980643Y-67313196D01*
X155985150Y-67311329D01*
X156012158Y-67209724D01*
X156987842Y-67209724D01*
X157014850Y-67311329D01*
X157247560Y-67358588D01*
X157480643Y-67313196D01*
X157485150Y-67311329D01*
X157512158Y-67209724D01*
X158487842Y-67209724D01*
X158514850Y-67311329D01*
X158747560Y-67358588D01*
X158980643Y-67313196D01*
X158985150Y-67311329D01*
X159012158Y-67209724D01*
X158750000Y-66947566D01*
X158487842Y-67209724D01*
X157512158Y-67209724D01*
X157250000Y-66947566D01*
X156987842Y-67209724D01*
X156012158Y-67209724D01*
X155750000Y-66947566D01*
X155487842Y-67209724D01*
X146669100Y-67209724D01*
X146669100Y-66608149D01*
X152953805Y-66608149D01*
X153036769Y-66808937D01*
X153190255Y-66962691D01*
X153390897Y-67046005D01*
X153608149Y-67046195D01*
X153808937Y-66963231D01*
X153962691Y-66809745D01*
X153988512Y-66747560D01*
X155141412Y-66747560D01*
X155186804Y-66980643D01*
X155188671Y-66985150D01*
X155290276Y-67012158D01*
X155552434Y-66750000D01*
X155947566Y-66750000D01*
X156209724Y-67012158D01*
X156311329Y-66985150D01*
X156358588Y-66752440D01*
X156357638Y-66747560D01*
X156641412Y-66747560D01*
X156686804Y-66980643D01*
X156688671Y-66985150D01*
X156790276Y-67012158D01*
X157052434Y-66750000D01*
X157447566Y-66750000D01*
X157709724Y-67012158D01*
X157811329Y-66985150D01*
X157858588Y-66752440D01*
X157857638Y-66747560D01*
X158141412Y-66747560D01*
X158186804Y-66980643D01*
X158188671Y-66985150D01*
X158290276Y-67012158D01*
X158552434Y-66750000D01*
X158947566Y-66750000D01*
X159209724Y-67012158D01*
X159311329Y-66985150D01*
X159358588Y-66752440D01*
X159313196Y-66519357D01*
X159311329Y-66514850D01*
X159209724Y-66487842D01*
X158947566Y-66750000D01*
X158552434Y-66750000D01*
X158290276Y-66487842D01*
X158188671Y-66514850D01*
X158141412Y-66747560D01*
X157857638Y-66747560D01*
X157813196Y-66519357D01*
X157811329Y-66514850D01*
X157709724Y-66487842D01*
X157447566Y-66750000D01*
X157052434Y-66750000D01*
X156790276Y-66487842D01*
X156688671Y-66514850D01*
X156641412Y-66747560D01*
X156357638Y-66747560D01*
X156313196Y-66519357D01*
X156311329Y-66514850D01*
X156209724Y-66487842D01*
X155947566Y-66750000D01*
X155552434Y-66750000D01*
X155290276Y-66487842D01*
X155188671Y-66514850D01*
X155141412Y-66747560D01*
X153988512Y-66747560D01*
X154046005Y-66609103D01*
X154046195Y-66391851D01*
X154004226Y-66290276D01*
X155487842Y-66290276D01*
X155750000Y-66552434D01*
X156012158Y-66290276D01*
X156987842Y-66290276D01*
X157250000Y-66552434D01*
X157512158Y-66290276D01*
X158487842Y-66290276D01*
X158750000Y-66552434D01*
X159012158Y-66290276D01*
X158985150Y-66188671D01*
X158752440Y-66141412D01*
X158519357Y-66186804D01*
X158514850Y-66188671D01*
X158487842Y-66290276D01*
X157512158Y-66290276D01*
X157485150Y-66188671D01*
X157252440Y-66141412D01*
X157019357Y-66186804D01*
X157014850Y-66188671D01*
X156987842Y-66290276D01*
X156012158Y-66290276D01*
X155985150Y-66188671D01*
X155752440Y-66141412D01*
X155519357Y-66186804D01*
X155514850Y-66188671D01*
X155487842Y-66290276D01*
X154004226Y-66290276D01*
X153963231Y-66191063D01*
X153809745Y-66037309D01*
X153609103Y-65953995D01*
X153391851Y-65953805D01*
X153191063Y-66036769D01*
X153037309Y-66190255D01*
X152953995Y-66390897D01*
X152953805Y-66608149D01*
X146669100Y-66608149D01*
X146669100Y-65353260D01*
X146712691Y-65309745D01*
X146796005Y-65109103D01*
X146796195Y-64891851D01*
X146713231Y-64691063D01*
X146559745Y-64537309D01*
X146359103Y-64453995D01*
X146141851Y-64453805D01*
X145941063Y-64536769D01*
X145787309Y-64690255D01*
X145703995Y-64890897D01*
X145703805Y-65108149D01*
X145786769Y-65308937D01*
X145830900Y-65353145D01*
X145830900Y-68576403D01*
X142076404Y-72330900D01*
X141853260Y-72330900D01*
X141809745Y-72287309D01*
X141806666Y-72286031D01*
X141896348Y-72196349D01*
X141924775Y-72153805D01*
X141987198Y-72060383D01*
X141996662Y-72012802D01*
X142019100Y-71900000D01*
X142019100Y-67973596D01*
X142496348Y-67496349D01*
X142587198Y-67360383D01*
X142592744Y-67332500D01*
X142619100Y-67200000D01*
X142619100Y-62200000D01*
X142587198Y-62039617D01*
X142573489Y-62019100D01*
X142496348Y-61903651D01*
X140819100Y-60226404D01*
X140819100Y-56408149D01*
X145553805Y-56408149D01*
X145636769Y-56608937D01*
X145790255Y-56762691D01*
X145990897Y-56846005D01*
X146208149Y-56846195D01*
X146408937Y-56763231D01*
X146562691Y-56609745D01*
X146646005Y-56409103D01*
X146646005Y-56408149D01*
X147953805Y-56408149D01*
X148036769Y-56608937D01*
X148190255Y-56762691D01*
X148390897Y-56846005D01*
X148608149Y-56846195D01*
X148808937Y-56763231D01*
X148962691Y-56609745D01*
X149046005Y-56409103D01*
X149046195Y-56191851D01*
X148963231Y-55991063D01*
X148809745Y-55837309D01*
X148609103Y-55753995D01*
X148391851Y-55753805D01*
X148191063Y-55836769D01*
X148037309Y-55990255D01*
X147953995Y-56190897D01*
X147953805Y-56408149D01*
X146646005Y-56408149D01*
X146646195Y-56191851D01*
X146563231Y-55991063D01*
X146409745Y-55837309D01*
X146209103Y-55753995D01*
X145991851Y-55753805D01*
X145791063Y-55836769D01*
X145637309Y-55990255D01*
X145553995Y-56190897D01*
X145553805Y-56408149D01*
X140819100Y-56408149D01*
X140819100Y-53400000D01*
X140806144Y-53334866D01*
X140787199Y-53239618D01*
X140696349Y-53103652D01*
X139200846Y-51608149D01*
X149353805Y-51608149D01*
X149436769Y-51808937D01*
X149590255Y-51962691D01*
X149680078Y-51999989D01*
X149591063Y-52036769D01*
X149437309Y-52190255D01*
X149353995Y-52390897D01*
X149353805Y-52608149D01*
X149436769Y-52808937D01*
X149590255Y-52962691D01*
X149680078Y-52999989D01*
X149591063Y-53036769D01*
X149437309Y-53190255D01*
X149353995Y-53390897D01*
X149353805Y-53608149D01*
X149436769Y-53808937D01*
X149590255Y-53962691D01*
X149680078Y-53999989D01*
X149591063Y-54036769D01*
X149437309Y-54190255D01*
X149353995Y-54390897D01*
X149353805Y-54608149D01*
X149436769Y-54808937D01*
X149590255Y-54962691D01*
X149680078Y-54999989D01*
X149591063Y-55036769D01*
X149437309Y-55190255D01*
X149353995Y-55390897D01*
X149353805Y-55608149D01*
X149436769Y-55808937D01*
X149590255Y-55962691D01*
X149790897Y-56046005D01*
X150008149Y-56046195D01*
X150208937Y-55963231D01*
X150362691Y-55809745D01*
X150446005Y-55609103D01*
X150446195Y-55391851D01*
X150363231Y-55191063D01*
X150209745Y-55037309D01*
X150119922Y-55000011D01*
X150208937Y-54963231D01*
X150362691Y-54809745D01*
X150446005Y-54609103D01*
X150446195Y-54391851D01*
X150363231Y-54191063D01*
X150209745Y-54037309D01*
X150119922Y-54000011D01*
X150208937Y-53963231D01*
X150362691Y-53809745D01*
X150446005Y-53609103D01*
X150446195Y-53391851D01*
X150363231Y-53191063D01*
X150209745Y-53037309D01*
X150119922Y-53000011D01*
X150208937Y-52963231D01*
X150362691Y-52809745D01*
X150446005Y-52609103D01*
X150446195Y-52391851D01*
X150363231Y-52191063D01*
X150209745Y-52037309D01*
X150119922Y-52000011D01*
X150208937Y-51963231D01*
X150362691Y-51809745D01*
X150363353Y-51808149D01*
X161753805Y-51808149D01*
X161836769Y-52008937D01*
X161990255Y-52162691D01*
X162080078Y-52199989D01*
X161991063Y-52236769D01*
X161837309Y-52390255D01*
X161753995Y-52590897D01*
X161753805Y-52808149D01*
X161836769Y-53008937D01*
X161990255Y-53162691D01*
X162080078Y-53199989D01*
X161991063Y-53236769D01*
X161837309Y-53390255D01*
X161753995Y-53590897D01*
X161753805Y-53808149D01*
X161836769Y-54008937D01*
X161990255Y-54162691D01*
X162080078Y-54199989D01*
X161991063Y-54236769D01*
X161837309Y-54390255D01*
X161753995Y-54590897D01*
X161753805Y-54808149D01*
X161836769Y-55008937D01*
X161990255Y-55162691D01*
X162080078Y-55199989D01*
X161991063Y-55236769D01*
X161837309Y-55390255D01*
X161753995Y-55590897D01*
X161753805Y-55808149D01*
X161836769Y-56008937D01*
X161990255Y-56162691D01*
X162190897Y-56246005D01*
X162408149Y-56246195D01*
X162608937Y-56163231D01*
X162762691Y-56009745D01*
X162846005Y-55809103D01*
X162846195Y-55591851D01*
X162763231Y-55391063D01*
X162609745Y-55237309D01*
X162519922Y-55200011D01*
X162608937Y-55163231D01*
X162762691Y-55009745D01*
X162846005Y-54809103D01*
X162846195Y-54591851D01*
X162763231Y-54391063D01*
X162609745Y-54237309D01*
X162519922Y-54200011D01*
X162608937Y-54163231D01*
X162762691Y-54009745D01*
X162846005Y-53809103D01*
X162846195Y-53591851D01*
X162763231Y-53391063D01*
X162609745Y-53237309D01*
X162519922Y-53200011D01*
X162608937Y-53163231D01*
X162762691Y-53009745D01*
X162846005Y-52809103D01*
X162846195Y-52591851D01*
X162763231Y-52391063D01*
X162609745Y-52237309D01*
X162519922Y-52200011D01*
X162608937Y-52163231D01*
X162762691Y-52009745D01*
X162846005Y-51809103D01*
X162846195Y-51591851D01*
X162763231Y-51391063D01*
X162609745Y-51237309D01*
X162409103Y-51153995D01*
X162191851Y-51153805D01*
X161991063Y-51236769D01*
X161837309Y-51390255D01*
X161753995Y-51590897D01*
X161753805Y-51808149D01*
X150363353Y-51808149D01*
X150446005Y-51609103D01*
X150446195Y-51391851D01*
X150363231Y-51191063D01*
X150209745Y-51037309D01*
X150009103Y-50953995D01*
X149791851Y-50953805D01*
X149591063Y-51036769D01*
X149437309Y-51190255D01*
X149353995Y-51390897D01*
X149353805Y-51608149D01*
X139200846Y-51608149D01*
X134219100Y-46626404D01*
X134219100Y-46408149D01*
X134353805Y-46408149D01*
X134436769Y-46608937D01*
X134590255Y-46762691D01*
X134790897Y-46846005D01*
X135008149Y-46846195D01*
X135208937Y-46763231D01*
X135362691Y-46609745D01*
X135399989Y-46519922D01*
X135436769Y-46608937D01*
X135590255Y-46762691D01*
X135790897Y-46846005D01*
X136008149Y-46846195D01*
X136208937Y-46763231D01*
X136362691Y-46609745D01*
X136446005Y-46409103D01*
X136446195Y-46191851D01*
X136363231Y-45991063D01*
X136209745Y-45837309D01*
X136009103Y-45753995D01*
X135791851Y-45753805D01*
X135591063Y-45836769D01*
X135437309Y-45990255D01*
X135400011Y-46080078D01*
X135363231Y-45991063D01*
X135209745Y-45837309D01*
X135009103Y-45753995D01*
X134791851Y-45753805D01*
X134591063Y-45836769D01*
X134437309Y-45990255D01*
X134353995Y-46190897D01*
X134353805Y-46408149D01*
X134219100Y-46408149D01*
X134219100Y-45400000D01*
X134187198Y-45239617D01*
X134169567Y-45213231D01*
X134096348Y-45103651D01*
X133189301Y-44196604D01*
X164981891Y-44196604D01*
X165516270Y-45489901D01*
X166504895Y-46480253D01*
X167797256Y-47016888D01*
X169196604Y-47018109D01*
X170489901Y-46483730D01*
X171480253Y-45495105D01*
X172016888Y-44202744D01*
X172018109Y-42803396D01*
X171483730Y-41510099D01*
X170495105Y-40519747D01*
X169202744Y-39983112D01*
X167803396Y-39981891D01*
X166510099Y-40516270D01*
X165519747Y-41504895D01*
X164983112Y-42797256D01*
X164981891Y-44196604D01*
X133189301Y-44196604D01*
X132296348Y-43303652D01*
X132240766Y-43266513D01*
X132160383Y-43212802D01*
X132000000Y-43180900D01*
X124411797Y-43180900D01*
X124784548Y-42808149D01*
X133353805Y-42808149D01*
X133433169Y-43000225D01*
X133353995Y-43190897D01*
X133353805Y-43408149D01*
X133436769Y-43608937D01*
X133590255Y-43762691D01*
X133790897Y-43846005D01*
X134008149Y-43846195D01*
X134208937Y-43763231D01*
X134362691Y-43609745D01*
X134363353Y-43608149D01*
X142553805Y-43608149D01*
X142636769Y-43808937D01*
X142790255Y-43962691D01*
X142990897Y-44046005D01*
X143208149Y-44046195D01*
X143408937Y-43963231D01*
X143562691Y-43809745D01*
X143646005Y-43609103D01*
X143646195Y-43391851D01*
X143563231Y-43191063D01*
X143409745Y-43037309D01*
X143209103Y-42953995D01*
X142991851Y-42953805D01*
X142791063Y-43036769D01*
X142637309Y-43190255D01*
X142553995Y-43390897D01*
X142553805Y-43608149D01*
X134363353Y-43608149D01*
X134446005Y-43409103D01*
X134446195Y-43191851D01*
X134366831Y-42999775D01*
X134446005Y-42809103D01*
X134446195Y-42591851D01*
X134363231Y-42391063D01*
X134209745Y-42237309D01*
X134139521Y-42208149D01*
X156553805Y-42208149D01*
X156636769Y-42408937D01*
X156790255Y-42562691D01*
X156990897Y-42646005D01*
X157208149Y-42646195D01*
X157408937Y-42563231D01*
X157562691Y-42409745D01*
X157646005Y-42209103D01*
X157646195Y-41991851D01*
X157563231Y-41791063D01*
X157409745Y-41637309D01*
X157209103Y-41553995D01*
X156991851Y-41553805D01*
X156791063Y-41636769D01*
X156637309Y-41790255D01*
X156553995Y-41990897D01*
X156553805Y-42208149D01*
X134139521Y-42208149D01*
X134009103Y-42153995D01*
X133791851Y-42153805D01*
X133591063Y-42236769D01*
X133437309Y-42390255D01*
X133353995Y-42590897D01*
X133353805Y-42808149D01*
X124784548Y-42808149D01*
X124923597Y-42669100D01*
X130396740Y-42669100D01*
X130440255Y-42712691D01*
X130640897Y-42796005D01*
X130858149Y-42796195D01*
X131058937Y-42713231D01*
X131212691Y-42559745D01*
X131296005Y-42359103D01*
X131296195Y-42141851D01*
X131213231Y-41941063D01*
X131059745Y-41787309D01*
X130859103Y-41703995D01*
X130641851Y-41703805D01*
X130441063Y-41786769D01*
X130396855Y-41830900D01*
X124750000Y-41830900D01*
X124589617Y-41862802D01*
X124535157Y-41899191D01*
X124453652Y-41953651D01*
X121883624Y-44523680D01*
X122016888Y-44202744D01*
X122018109Y-42803396D01*
X121483730Y-41510099D01*
X120783005Y-40808149D01*
X134353805Y-40808149D01*
X134436769Y-41008937D01*
X134590255Y-41162691D01*
X134790897Y-41246005D01*
X135008149Y-41246195D01*
X135208937Y-41163231D01*
X135362691Y-41009745D01*
X135399989Y-40919922D01*
X135436769Y-41008937D01*
X135590255Y-41162691D01*
X135790897Y-41246005D01*
X136008149Y-41246195D01*
X136208937Y-41163231D01*
X136362691Y-41009745D01*
X136446005Y-40809103D01*
X136446195Y-40591851D01*
X136363231Y-40391063D01*
X136209745Y-40237309D01*
X136009103Y-40153995D01*
X135791851Y-40153805D01*
X135591063Y-40236769D01*
X135437309Y-40390255D01*
X135400011Y-40480078D01*
X135363231Y-40391063D01*
X135209745Y-40237309D01*
X135009103Y-40153995D01*
X134791851Y-40153805D01*
X134591063Y-40236769D01*
X134437309Y-40390255D01*
X134353995Y-40590897D01*
X134353805Y-40808149D01*
X120783005Y-40808149D01*
X120495105Y-40519747D01*
X119202744Y-39983112D01*
X117803396Y-39981891D01*
X116510099Y-40516270D01*
X115519747Y-41504895D01*
X114983112Y-42797256D01*
X114981891Y-44196604D01*
X113830200Y-44196604D01*
X113830200Y-43532521D01*
X114191643Y-41715420D01*
X115202528Y-40202526D01*
X116715422Y-39191643D01*
X118532521Y-38830200D01*
X155006961Y-38830200D01*
X154991063Y-38836769D01*
G36*
X165780900Y-74826404D02*
X164626404Y-75980900D01*
X163811796Y-75980900D01*
X165780900Y-74011797D01*
X165780900Y-74826404D01*
X165780900Y-74826404D01*
G37*
X165780900Y-74826404D02*
X164626404Y-75980900D01*
X163811796Y-75980900D01*
X165780900Y-74011797D01*
X165780900Y-74826404D01*
G36*
X141780900Y-62373597D02*
X141780900Y-67026403D01*
X141303652Y-67503652D01*
X141212802Y-67639617D01*
X141180900Y-67800000D01*
X141180900Y-71726403D01*
X139576404Y-73330900D01*
X139244638Y-73330900D01*
X139296348Y-73296348D01*
X140546348Y-72046348D01*
X140582762Y-71991851D01*
X140637198Y-71910383D01*
X140669100Y-71750000D01*
X140669100Y-65750000D01*
X140637198Y-65589617D01*
X140583400Y-65509103D01*
X140546349Y-65453652D01*
X140169100Y-65076404D01*
X140169100Y-60761796D01*
X141780900Y-62373597D01*
X141780900Y-62373597D01*
G37*
X141780900Y-62373597D02*
X141780900Y-67026403D01*
X141303652Y-67503652D01*
X141212802Y-67639617D01*
X141180900Y-67800000D01*
X141180900Y-71726403D01*
X139576404Y-73330900D01*
X139244638Y-73330900D01*
X139296348Y-73296348D01*
X140546348Y-72046348D01*
X140582762Y-71991851D01*
X140637198Y-71910383D01*
X140669100Y-71750000D01*
X140669100Y-65750000D01*
X140637198Y-65589617D01*
X140583400Y-65509103D01*
X140546349Y-65453652D01*
X140169100Y-65076404D01*
X140169100Y-60761796D01*
X141780900Y-62373597D01*
G36*
X131780900Y-70349848D02*
X131780900Y-70434626D01*
X131715526Y-70500000D01*
X131780900Y-70565374D01*
X131780900Y-70650152D01*
X131607763Y-70823289D01*
X131500000Y-70715526D01*
X131392237Y-70823289D01*
X131219100Y-70650152D01*
X131219100Y-70565374D01*
X131284474Y-70500000D01*
X131219100Y-70434626D01*
X131219100Y-70349848D01*
X131392237Y-70176711D01*
X131500000Y-70284474D01*
X131607763Y-70176711D01*
X131780900Y-70349848D01*
X131780900Y-70349848D01*
G37*
X131780900Y-70349848D02*
X131780900Y-70434626D01*
X131715526Y-70500000D01*
X131780900Y-70565374D01*
X131780900Y-70650152D01*
X131607763Y-70823289D01*
X131500000Y-70715526D01*
X131392237Y-70823289D01*
X131219100Y-70650152D01*
X131219100Y-70565374D01*
X131284474Y-70500000D01*
X131219100Y-70434626D01*
X131219100Y-70349848D01*
X131392237Y-70176711D01*
X131500000Y-70284474D01*
X131607763Y-70176711D01*
X131780900Y-70349848D01*
G36*
X131780900Y-68849848D02*
X131780900Y-68934626D01*
X131715526Y-69000000D01*
X131780900Y-69065374D01*
X131780900Y-69150152D01*
X131607763Y-69323289D01*
X131500000Y-69215526D01*
X131392237Y-69323289D01*
X131219100Y-69150152D01*
X131219100Y-69065374D01*
X131284474Y-69000000D01*
X131219100Y-68934626D01*
X131219100Y-68849848D01*
X131392237Y-68676711D01*
X131500000Y-68784474D01*
X131607763Y-68676711D01*
X131780900Y-68849848D01*
X131780900Y-68849848D01*
G37*
X131780900Y-68849848D02*
X131780900Y-68934626D01*
X131715526Y-69000000D01*
X131780900Y-69065374D01*
X131780900Y-69150152D01*
X131607763Y-69323289D01*
X131500000Y-69215526D01*
X131392237Y-69323289D01*
X131219100Y-69150152D01*
X131219100Y-69065374D01*
X131284474Y-69000000D01*
X131219100Y-68934626D01*
X131219100Y-68849848D01*
X131392237Y-68676711D01*
X131500000Y-68784474D01*
X131607763Y-68676711D01*
X131780900Y-68849848D01*
G36*
X131780900Y-67349848D02*
X131780900Y-67434626D01*
X131715526Y-67500000D01*
X131780900Y-67565374D01*
X131780900Y-67650152D01*
X131607763Y-67823289D01*
X131500000Y-67715526D01*
X131392237Y-67823289D01*
X131219100Y-67650152D01*
X131219100Y-67565374D01*
X131284474Y-67500000D01*
X131219100Y-67434626D01*
X131219100Y-67349848D01*
X131392237Y-67176711D01*
X131500000Y-67284474D01*
X131607763Y-67176711D01*
X131780900Y-67349848D01*
X131780900Y-67349848D01*
G37*
X131780900Y-67349848D02*
X131780900Y-67434626D01*
X131715526Y-67500000D01*
X131780900Y-67565374D01*
X131780900Y-67650152D01*
X131607763Y-67823289D01*
X131500000Y-67715526D01*
X131392237Y-67823289D01*
X131219100Y-67650152D01*
X131219100Y-67565374D01*
X131284474Y-67500000D01*
X131219100Y-67434626D01*
X131219100Y-67349848D01*
X131392237Y-67176711D01*
X131500000Y-67284474D01*
X131607763Y-67176711D01*
X131780900Y-67349848D01*
M02*
