M48
;DRILL file {KiCad 4.0.7-e2-6376~58~ubuntu16.04.1} date Thu Aug  2 15:14:09 2018
;FORMAT={-:-/ absolute / inch / decimal}
FMAT,2
INCH,TZ
T1C0.010
T2C0.014
T3C0.018
T4C0.020
T5C0.039
T6C0.126
%
G90
G05
M72
T1
X4.5768Y-1.9291
X4.7756Y-3.0906
X4.813Y-2.5492
X4.8465Y-1.815
X4.8504Y-1.7638
X4.8819Y-3.0236
X4.8839Y-2.2244
X4.8917Y-3.0906
X4.9055Y-3.1181
X4.9232Y-2.2244
X4.9626Y-2.2244
X4.9685Y-2.8937
X4.9843Y-3.189
X4.9882Y-2.5157
X4.9921Y-2.7323
X5.Y-3.0118
X5.0039Y-2.9724
X5.0039Y-3.0512
X5.0236Y-2.7362
X5.0276Y-2.6575
X5.0315Y-3.1811
X5.0394Y-2.252
X5.0787Y-1.8504
X5.0787Y-2.4311
X5.0787Y-2.5591
X5.0984Y-2.2835
X5.0984Y-2.4606
X5.0984Y-2.5394
X5.0984Y-2.8622
X5.1102Y-2.9291
X5.1299Y-2.4213
X5.1476Y-1.6634
X5.1535Y-2.5394
X5.1575Y-2.9449
X5.1673Y-2.2835
X5.1693Y-2.4213
X5.1732Y-2.5551
X5.1762Y-2.4616
X5.1772Y-1.7618
X5.1929Y-2.5709
X5.2323Y-2.2795
X5.2323Y-2.874
X5.2323Y-3.1299
X5.2362Y-2.4213
X5.2362Y-2.9035
X5.2402Y-1.5551
X5.2402Y-1.8386
X5.2441Y-2.5748
X5.2559Y-2.2795
X5.2717Y-1.6811
X5.2717Y-1.7047
X5.2835Y-2.378
X5.2874Y-2.0512
X5.2913Y-2.9291
X5.2953Y-2.4291
X5.3071Y-2.5787
X5.3071Y-3.1811
X5.311Y-1.6024
X5.311Y-1.8228
X5.311Y-3.0118
X5.315Y-2.9843
X5.3228Y-2.6654
X5.3268Y-2.7421
X5.3307Y-2.7717
X5.3386Y-3.0315
X5.3425Y-2.7953
X5.3504Y-1.6024
X5.3504Y-1.8228
X5.3504Y-2.4331
X5.3543Y-2.5984
X5.3819Y-2.1772
X5.3819Y-2.5945
X5.3937Y-3.0315
X5.3976Y-2.7913
X5.4016Y-3.1496
X5.4055Y-2.8307
X5.4134Y-2.563
X5.4409Y-2.6142
X5.4429Y-3.0512
X5.4449Y-2.7913
X5.4764Y-2.563
X5.5Y-1.9882
X5.5Y-2.7913
X5.5315Y-2.563
X5.5472Y-2.7913
X5.5512Y-2.5039
X5.563Y-1.8701
X5.5709Y-2.6024
X5.5709Y-2.8642
X5.5866Y-2.0039
X5.5945Y-1.8701
X5.5945Y-2.2953
X5.5945Y-2.7913
X5.6299Y-2.6024
X5.6299Y-3.0315
X5.6339Y-1.7126
X5.6417Y-1.7913
X5.6417Y-1.8307
X5.6417Y-2.7913
X5.6654Y-3.0276
X5.6732Y-2.6024
X5.6988Y-1.7913
X5.7283Y-2.6024
X5.748Y-1.8701
X5.752Y-2.2165
X5.7579Y-1.5945
X5.7579Y-2.5591
X5.7835Y-2.6024
X5.815Y-2.8937
X5.8268Y-1.9193
X5.8307Y-3.0276
X5.8386Y-2.0748
X5.8386Y-2.6024
X5.8465Y-2.2165
X5.8622Y-2.7913
X5.8661Y-2.6969
X5.8858Y-2.6024
X5.9016Y-2.0276
X5.9016Y-2.0669
X5.9016Y-2.1063
X5.9016Y-2.1457
X5.9016Y-2.185
X5.9094Y-2.5709
X5.9173Y-2.7913
X5.9488Y-2.3346
X5.9488Y-2.3819
X5.9488Y-2.4291
X5.9488Y-2.4764
X5.9724Y-2.7913
X5.9803Y-2.3031
X5.9803Y-2.5079
X5.9803Y-2.9252
X6.0118Y-2.2717
X6.0118Y-2.9409
X6.0197Y-2.5394
X6.0276Y-2.7913
X6.0433Y-2.6181
X6.0512Y-2.2638
X6.0531Y-2.6969
X6.0531Y-2.7657
X6.063Y-2.5591
X6.063Y-2.815
X6.063Y-2.8445
X6.0728Y-3.1201
X6.0906Y-2.2638
X6.1063Y-2.878
X6.1142Y-1.5472
X6.1319Y-2.2736
X6.1319Y-2.4311
X6.1319Y-2.628
X6.1319Y-2.687
X6.1319Y-2.7461
X6.1457Y-1.5472
X6.1457Y-2.8386
X6.1772Y-1.5472
X6.185Y-1.6575
X6.1909Y-2.2539
X6.1909Y-2.4508
X6.1909Y-2.4803
X6.1909Y-2.5197
X6.1909Y-2.5492
X6.1909Y-2.628
X6.1909Y-2.687
X6.1909Y-2.7461
X6.1909Y-3.1299
X6.1929Y-2.9409
X6.1929Y-3.2717
X6.2087Y-2.8386
X6.2402Y-2.8228
X6.25Y-2.2736
X6.25Y-2.4311
X6.25Y-2.628
X6.25Y-2.687
X6.25Y-2.7461
X6.25Y-3.0709
X6.2795Y-2.5492
X6.2795Y-2.8248
X6.2874Y-2.8858
X6.2874Y-2.9409
X6.2894Y-2.2638
X6.2953Y-1.6024
X6.2953Y-1.6339
X6.2953Y-1.6654
X6.2953Y-1.6969
X6.2953Y-1.7283
X6.3091Y-3.0906
X6.311Y-3.2717
X6.3189Y-2.5591
X6.3268Y-2.2638
X6.3287Y-2.6476
X6.3583Y-2.2953
X6.3583Y-2.5551
X6.3661Y-2.6732
X6.3898Y-2.0354
X6.3898Y-2.0748
X6.3898Y-2.1142
X6.3898Y-2.1535
X6.3898Y-2.1929
X6.3898Y-2.3268
X6.3898Y-2.5236
X6.4055Y-3.1929
X6.4134Y-2.6732
X6.4173Y-1.7815
X6.4213Y-2.3583
X6.4213Y-2.3976
X6.4213Y-2.4449
X6.4213Y-2.4921
X6.4606Y-2.4291
X6.4606Y-2.6732
X6.4665Y-3.0512
X6.4921Y-2.6417
X6.5079Y-2.9488
X6.5315Y-2.4055
X6.5512Y-2.0394
X6.5591Y-2.1575
X6.563Y-2.374
X6.5709Y-2.6102
X6.5866Y-2.9488
X6.6654Y-2.9488
X6.752Y-2.0512
X6.752Y-2.1555
T2
X5.1181Y-2.6575
X5.1181Y-2.7165
X5.1181Y-2.7756
X5.1772Y-2.6575
X5.1772Y-2.7165
X5.1772Y-2.7756
X5.2362Y-2.6575
X5.2362Y-2.7165
X5.2362Y-2.7756
T3
X6.5858Y-2.3276
X6.5858Y-2.6724
T4
X4.5709Y-1.7126
X4.5709Y-3.2874
X4.5985Y-1.6458
X4.5985Y-1.7794
X4.5985Y-3.2206
X4.5985Y-3.3542
X4.6654Y-1.6181
X4.6654Y-1.8071
X4.6654Y-3.1929
X4.6654Y-3.3819
X4.7322Y-1.6458
X4.7322Y-1.7794
X4.7322Y-3.2206
X4.7322Y-3.3542
X4.7598Y-1.7126
X4.7598Y-3.2874
X6.5394Y-1.7126
X6.5394Y-3.2874
X6.567Y-1.6458
X6.567Y-1.7794
X6.567Y-3.2206
X6.567Y-3.3542
X6.6339Y-1.6181
X6.6339Y-1.8071
X6.6339Y-3.1929
X6.6339Y-3.3819
X6.7007Y-1.6458
X6.7007Y-1.7794
X6.7007Y-3.2206
X6.7007Y-3.3542
X6.7283Y-1.7126
X6.7283Y-3.2874
T5
X4.6063Y-2.0276
X4.6063Y-2.1276
X4.6063Y-2.3819
X4.6063Y-2.4819
X4.6063Y-2.5819
X4.6063Y-2.6819
X4.6063Y-2.7819
X4.6063Y-2.8819
X4.9016Y-3.3465
X5.0016Y-3.3465
X5.1016Y-3.3465
X5.2016Y-3.3465
X5.3016Y-3.3465
X5.4016Y-3.3465
X5.5709Y-3.3465
X5.6709Y-3.3465
X5.7709Y-3.3465
T6
X4.6654Y-1.7126
X4.6654Y-3.2874
X6.6339Y-1.7126
X6.6339Y-3.2874
T0
M30
