G04 #@! TF.FileFunction,Legend,Bot*
%FSLAX46Y46*%
G04 Gerber Fmt 4.6, Leading zero omitted, Abs format (unit mm)*
G04 Created by KiCad (PCBNEW 4.0.7-e2-6376~58~ubuntu16.04.1) date Thu Aug  2 15:14:07 2018*
%MOMM*%
%LPD*%
G01*
G04 APERTURE LIST*
%ADD10C,0.100000*%
%ADD11C,0.150000*%
%ADD12C,0.450000*%
G04 APERTURE END LIST*
D10*
D11*
X161904762Y-41302381D02*
X161333333Y-41302381D01*
X161619048Y-42302381D02*
X161619048Y-41302381D01*
X161000000Y-42302381D02*
X161000000Y-41302381D01*
X160571428Y-42302381D02*
X160571428Y-41778571D01*
X160619047Y-41683333D01*
X160714285Y-41635714D01*
X160857143Y-41635714D01*
X160952381Y-41683333D01*
X161000000Y-41730952D01*
X160095238Y-42302381D02*
X160095238Y-41635714D01*
X160095238Y-41302381D02*
X160142857Y-41350000D01*
X160095238Y-41397619D01*
X160047619Y-41350000D01*
X160095238Y-41302381D01*
X160095238Y-41397619D01*
X159666667Y-42254762D02*
X159571429Y-42302381D01*
X159380953Y-42302381D01*
X159285714Y-42254762D01*
X159238095Y-42159524D01*
X159238095Y-42111905D01*
X159285714Y-42016667D01*
X159380953Y-41969048D01*
X159523810Y-41969048D01*
X159619048Y-41921429D01*
X159666667Y-41826190D01*
X159666667Y-41778571D01*
X159619048Y-41683333D01*
X159523810Y-41635714D01*
X159380953Y-41635714D01*
X159285714Y-41683333D01*
X158142857Y-41635714D02*
X157952381Y-42302381D01*
X157761904Y-41826190D01*
X157571428Y-42302381D01*
X157380952Y-41635714D01*
X156857143Y-42302381D02*
X156952381Y-42254762D01*
X157000000Y-42207143D01*
X157047619Y-42111905D01*
X157047619Y-41826190D01*
X157000000Y-41730952D01*
X156952381Y-41683333D01*
X156857143Y-41635714D01*
X156714285Y-41635714D01*
X156619047Y-41683333D01*
X156571428Y-41730952D01*
X156523809Y-41826190D01*
X156523809Y-42111905D01*
X156571428Y-42207143D01*
X156619047Y-42254762D01*
X156714285Y-42302381D01*
X156857143Y-42302381D01*
X156095238Y-42302381D02*
X156095238Y-41635714D01*
X156095238Y-41826190D02*
X156047619Y-41730952D01*
X156000000Y-41683333D01*
X155904762Y-41635714D01*
X155809523Y-41635714D01*
X155476190Y-42302381D02*
X155476190Y-41302381D01*
X155380952Y-41921429D02*
X155095237Y-42302381D01*
X155095237Y-41635714D02*
X155476190Y-42016667D01*
X153904761Y-42302381D02*
X153904761Y-41635714D01*
X153904761Y-41302381D02*
X153952380Y-41350000D01*
X153904761Y-41397619D01*
X153857142Y-41350000D01*
X153904761Y-41302381D01*
X153904761Y-41397619D01*
X153476190Y-42254762D02*
X153380952Y-42302381D01*
X153190476Y-42302381D01*
X153095237Y-42254762D01*
X153047618Y-42159524D01*
X153047618Y-42111905D01*
X153095237Y-42016667D01*
X153190476Y-41969048D01*
X153333333Y-41969048D01*
X153428571Y-41921429D01*
X153476190Y-41826190D01*
X153476190Y-41778571D01*
X153428571Y-41683333D01*
X153333333Y-41635714D01*
X153190476Y-41635714D01*
X153095237Y-41683333D01*
X151714285Y-42302381D02*
X151809523Y-42254762D01*
X151857142Y-42159524D01*
X151857142Y-41302381D01*
X151333332Y-42302381D02*
X151333332Y-41635714D01*
X151333332Y-41302381D02*
X151380951Y-41350000D01*
X151333332Y-41397619D01*
X151285713Y-41350000D01*
X151333332Y-41302381D01*
X151333332Y-41397619D01*
X150428570Y-42254762D02*
X150523808Y-42302381D01*
X150714285Y-42302381D01*
X150809523Y-42254762D01*
X150857142Y-42207143D01*
X150904761Y-42111905D01*
X150904761Y-41826190D01*
X150857142Y-41730952D01*
X150809523Y-41683333D01*
X150714285Y-41635714D01*
X150523808Y-41635714D01*
X150428570Y-41683333D01*
X149619046Y-42254762D02*
X149714284Y-42302381D01*
X149904761Y-42302381D01*
X149999999Y-42254762D01*
X150047618Y-42159524D01*
X150047618Y-41778571D01*
X149999999Y-41683333D01*
X149904761Y-41635714D01*
X149714284Y-41635714D01*
X149619046Y-41683333D01*
X149571427Y-41778571D01*
X149571427Y-41873810D01*
X150047618Y-41969048D01*
X149142856Y-41635714D02*
X149142856Y-42302381D01*
X149142856Y-41730952D02*
X149095237Y-41683333D01*
X148999999Y-41635714D01*
X148857141Y-41635714D01*
X148761903Y-41683333D01*
X148714284Y-41778571D01*
X148714284Y-42302381D01*
X148285713Y-42254762D02*
X148190475Y-42302381D01*
X147999999Y-42302381D01*
X147904760Y-42254762D01*
X147857141Y-42159524D01*
X147857141Y-42111905D01*
X147904760Y-42016667D01*
X147999999Y-41969048D01*
X148142856Y-41969048D01*
X148238094Y-41921429D01*
X148285713Y-41826190D01*
X148285713Y-41778571D01*
X148238094Y-41683333D01*
X148142856Y-41635714D01*
X147999999Y-41635714D01*
X147904760Y-41683333D01*
X147047617Y-42254762D02*
X147142855Y-42302381D01*
X147333332Y-42302381D01*
X147428570Y-42254762D01*
X147476189Y-42159524D01*
X147476189Y-41778571D01*
X147428570Y-41683333D01*
X147333332Y-41635714D01*
X147142855Y-41635714D01*
X147047617Y-41683333D01*
X146999998Y-41778571D01*
X146999998Y-41873810D01*
X147476189Y-41969048D01*
X146142855Y-42302381D02*
X146142855Y-41302381D01*
X146142855Y-42254762D02*
X146238093Y-42302381D01*
X146428570Y-42302381D01*
X146523808Y-42254762D01*
X146571427Y-42207143D01*
X146619046Y-42111905D01*
X146619046Y-41826190D01*
X146571427Y-41730952D01*
X146523808Y-41683333D01*
X146428570Y-41635714D01*
X146238093Y-41635714D01*
X146142855Y-41683333D01*
X144476188Y-41635714D02*
X144476188Y-42302381D01*
X144904760Y-41635714D02*
X144904760Y-42159524D01*
X144857141Y-42254762D01*
X144761903Y-42302381D01*
X144619045Y-42302381D01*
X144523807Y-42254762D01*
X144476188Y-42207143D01*
X143999998Y-41635714D02*
X143999998Y-42302381D01*
X143999998Y-41730952D02*
X143952379Y-41683333D01*
X143857141Y-41635714D01*
X143714283Y-41635714D01*
X143619045Y-41683333D01*
X143571426Y-41778571D01*
X143571426Y-42302381D01*
X142666664Y-42302381D02*
X142666664Y-41302381D01*
X142666664Y-42254762D02*
X142761902Y-42302381D01*
X142952379Y-42302381D01*
X143047617Y-42254762D01*
X143095236Y-42207143D01*
X143142855Y-42111905D01*
X143142855Y-41826190D01*
X143095236Y-41730952D01*
X143047617Y-41683333D01*
X142952379Y-41635714D01*
X142761902Y-41635714D01*
X142666664Y-41683333D01*
X141809521Y-42254762D02*
X141904759Y-42302381D01*
X142095236Y-42302381D01*
X142190474Y-42254762D01*
X142238093Y-42159524D01*
X142238093Y-41778571D01*
X142190474Y-41683333D01*
X142095236Y-41635714D01*
X141904759Y-41635714D01*
X141809521Y-41683333D01*
X141761902Y-41778571D01*
X141761902Y-41873810D01*
X142238093Y-41969048D01*
X141333331Y-42302381D02*
X141333331Y-41635714D01*
X141333331Y-41826190D02*
X141285712Y-41730952D01*
X141238093Y-41683333D01*
X141142855Y-41635714D01*
X141047616Y-41635714D01*
X139523806Y-42302381D02*
X139523806Y-41778571D01*
X139571425Y-41683333D01*
X139666663Y-41635714D01*
X139857140Y-41635714D01*
X139952378Y-41683333D01*
X139523806Y-42254762D02*
X139619044Y-42302381D01*
X139857140Y-42302381D01*
X139952378Y-42254762D01*
X139999997Y-42159524D01*
X139999997Y-42064286D01*
X139952378Y-41969048D01*
X139857140Y-41921429D01*
X139619044Y-41921429D01*
X139523806Y-41873810D01*
X161190476Y-43857143D02*
X161238095Y-43904762D01*
X161380952Y-43952381D01*
X161476190Y-43952381D01*
X161619048Y-43904762D01*
X161714286Y-43809524D01*
X161761905Y-43714286D01*
X161809524Y-43523810D01*
X161809524Y-43380952D01*
X161761905Y-43190476D01*
X161714286Y-43095238D01*
X161619048Y-43000000D01*
X161476190Y-42952381D01*
X161380952Y-42952381D01*
X161238095Y-43000000D01*
X161190476Y-43047619D01*
X160761905Y-43952381D02*
X160761905Y-43285714D01*
X160761905Y-43476190D02*
X160714286Y-43380952D01*
X160666667Y-43333333D01*
X160571429Y-43285714D01*
X160476190Y-43285714D01*
X159761904Y-43904762D02*
X159857142Y-43952381D01*
X160047619Y-43952381D01*
X160142857Y-43904762D01*
X160190476Y-43809524D01*
X160190476Y-43428571D01*
X160142857Y-43333333D01*
X160047619Y-43285714D01*
X159857142Y-43285714D01*
X159761904Y-43333333D01*
X159714285Y-43428571D01*
X159714285Y-43523810D01*
X160190476Y-43619048D01*
X158857142Y-43952381D02*
X158857142Y-43428571D01*
X158904761Y-43333333D01*
X158999999Y-43285714D01*
X159190476Y-43285714D01*
X159285714Y-43333333D01*
X158857142Y-43904762D02*
X158952380Y-43952381D01*
X159190476Y-43952381D01*
X159285714Y-43904762D01*
X159333333Y-43809524D01*
X159333333Y-43714286D01*
X159285714Y-43619048D01*
X159190476Y-43571429D01*
X158952380Y-43571429D01*
X158857142Y-43523810D01*
X158523809Y-43285714D02*
X158142857Y-43285714D01*
X158380952Y-42952381D02*
X158380952Y-43809524D01*
X158333333Y-43904762D01*
X158238095Y-43952381D01*
X158142857Y-43952381D01*
X157809523Y-43952381D02*
X157809523Y-43285714D01*
X157809523Y-42952381D02*
X157857142Y-43000000D01*
X157809523Y-43047619D01*
X157761904Y-43000000D01*
X157809523Y-42952381D01*
X157809523Y-43047619D01*
X157428571Y-43285714D02*
X157190476Y-43952381D01*
X156952380Y-43285714D01*
X156190475Y-43904762D02*
X156285713Y-43952381D01*
X156476190Y-43952381D01*
X156571428Y-43904762D01*
X156619047Y-43809524D01*
X156619047Y-43428571D01*
X156571428Y-43333333D01*
X156476190Y-43285714D01*
X156285713Y-43285714D01*
X156190475Y-43333333D01*
X156142856Y-43428571D01*
X156142856Y-43523810D01*
X156619047Y-43619048D01*
X154380951Y-43857143D02*
X154428570Y-43904762D01*
X154571427Y-43952381D01*
X154666665Y-43952381D01*
X154809523Y-43904762D01*
X154904761Y-43809524D01*
X154952380Y-43714286D01*
X154999999Y-43523810D01*
X154999999Y-43380952D01*
X154952380Y-43190476D01*
X154904761Y-43095238D01*
X154809523Y-43000000D01*
X154666665Y-42952381D01*
X154571427Y-42952381D01*
X154428570Y-43000000D01*
X154380951Y-43047619D01*
X153809523Y-43952381D02*
X153904761Y-43904762D01*
X153952380Y-43857143D01*
X153999999Y-43761905D01*
X153999999Y-43476190D01*
X153952380Y-43380952D01*
X153904761Y-43333333D01*
X153809523Y-43285714D01*
X153666665Y-43285714D01*
X153571427Y-43333333D01*
X153523808Y-43380952D01*
X153476189Y-43476190D01*
X153476189Y-43761905D01*
X153523808Y-43857143D01*
X153571427Y-43904762D01*
X153666665Y-43952381D01*
X153809523Y-43952381D01*
X153047618Y-43952381D02*
X153047618Y-43285714D01*
X153047618Y-43380952D02*
X152999999Y-43333333D01*
X152904761Y-43285714D01*
X152761903Y-43285714D01*
X152666665Y-43333333D01*
X152619046Y-43428571D01*
X152619046Y-43952381D01*
X152619046Y-43428571D02*
X152571427Y-43333333D01*
X152476189Y-43285714D01*
X152333332Y-43285714D01*
X152238094Y-43333333D01*
X152190475Y-43428571D01*
X152190475Y-43952381D01*
X151714285Y-43952381D02*
X151714285Y-43285714D01*
X151714285Y-43380952D02*
X151666666Y-43333333D01*
X151571428Y-43285714D01*
X151428570Y-43285714D01*
X151333332Y-43333333D01*
X151285713Y-43428571D01*
X151285713Y-43952381D01*
X151285713Y-43428571D02*
X151238094Y-43333333D01*
X151142856Y-43285714D01*
X150999999Y-43285714D01*
X150904761Y-43333333D01*
X150857142Y-43428571D01*
X150857142Y-43952381D01*
X150238095Y-43952381D02*
X150333333Y-43904762D01*
X150380952Y-43857143D01*
X150428571Y-43761905D01*
X150428571Y-43476190D01*
X150380952Y-43380952D01*
X150333333Y-43333333D01*
X150238095Y-43285714D01*
X150095237Y-43285714D01*
X149999999Y-43333333D01*
X149952380Y-43380952D01*
X149904761Y-43476190D01*
X149904761Y-43761905D01*
X149952380Y-43857143D01*
X149999999Y-43904762D01*
X150095237Y-43952381D01*
X150238095Y-43952381D01*
X149476190Y-43285714D02*
X149476190Y-43952381D01*
X149476190Y-43380952D02*
X149428571Y-43333333D01*
X149333333Y-43285714D01*
X149190475Y-43285714D01*
X149095237Y-43333333D01*
X149047618Y-43428571D01*
X149047618Y-43952381D01*
X148619047Y-43904762D02*
X148523809Y-43952381D01*
X148333333Y-43952381D01*
X148238094Y-43904762D01*
X148190475Y-43809524D01*
X148190475Y-43761905D01*
X148238094Y-43666667D01*
X148333333Y-43619048D01*
X148476190Y-43619048D01*
X148571428Y-43571429D01*
X148619047Y-43476190D01*
X148619047Y-43428571D01*
X148571428Y-43333333D01*
X148476190Y-43285714D01*
X148333333Y-43285714D01*
X148238094Y-43333333D01*
X147047618Y-43666667D02*
X146571427Y-43666667D01*
X147142856Y-43952381D02*
X146809523Y-42952381D01*
X146476189Y-43952381D01*
X146285713Y-43285714D02*
X145904761Y-43285714D01*
X146142856Y-42952381D02*
X146142856Y-43809524D01*
X146095237Y-43904762D01*
X145999999Y-43952381D01*
X145904761Y-43952381D01*
X145714284Y-43285714D02*
X145333332Y-43285714D01*
X145571427Y-42952381D02*
X145571427Y-43809524D01*
X145523808Y-43904762D01*
X145428570Y-43952381D01*
X145333332Y-43952381D01*
X144999998Y-43952381D02*
X144999998Y-43285714D01*
X144999998Y-43476190D02*
X144952379Y-43380952D01*
X144904760Y-43333333D01*
X144809522Y-43285714D01*
X144714283Y-43285714D01*
X144380950Y-43952381D02*
X144380950Y-43285714D01*
X144380950Y-42952381D02*
X144428569Y-43000000D01*
X144380950Y-43047619D01*
X144333331Y-43000000D01*
X144380950Y-42952381D01*
X144380950Y-43047619D01*
X143904760Y-43952381D02*
X143904760Y-42952381D01*
X143904760Y-43333333D02*
X143809522Y-43285714D01*
X143619045Y-43285714D01*
X143523807Y-43333333D01*
X143476188Y-43380952D01*
X143428569Y-43476190D01*
X143428569Y-43761905D01*
X143476188Y-43857143D01*
X143523807Y-43904762D01*
X143619045Y-43952381D01*
X143809522Y-43952381D01*
X143904760Y-43904762D01*
X142571426Y-43285714D02*
X142571426Y-43952381D01*
X142999998Y-43285714D02*
X142999998Y-43809524D01*
X142952379Y-43904762D01*
X142857141Y-43952381D01*
X142714283Y-43952381D01*
X142619045Y-43904762D01*
X142571426Y-43857143D01*
X142238093Y-43285714D02*
X141857141Y-43285714D01*
X142095236Y-42952381D02*
X142095236Y-43809524D01*
X142047617Y-43904762D01*
X141952379Y-43952381D01*
X141857141Y-43952381D01*
X141523807Y-43952381D02*
X141523807Y-43285714D01*
X141523807Y-42952381D02*
X141571426Y-43000000D01*
X141523807Y-43047619D01*
X141476188Y-43000000D01*
X141523807Y-42952381D01*
X141523807Y-43047619D01*
X140904760Y-43952381D02*
X140999998Y-43904762D01*
X141047617Y-43857143D01*
X141095236Y-43761905D01*
X141095236Y-43476190D01*
X141047617Y-43380952D01*
X140999998Y-43333333D01*
X140904760Y-43285714D01*
X140761902Y-43285714D01*
X140666664Y-43333333D01*
X140619045Y-43380952D01*
X140571426Y-43476190D01*
X140571426Y-43761905D01*
X140619045Y-43857143D01*
X140666664Y-43904762D01*
X140761902Y-43952381D01*
X140904760Y-43952381D01*
X140142855Y-43285714D02*
X140142855Y-43952381D01*
X140142855Y-43380952D02*
X140095236Y-43333333D01*
X139999998Y-43285714D01*
X139857140Y-43285714D01*
X139761902Y-43333333D01*
X139714283Y-43428571D01*
X139714283Y-43952381D01*
X139238093Y-43571429D02*
X138476188Y-43571429D01*
X138047617Y-43904762D02*
X137904760Y-43952381D01*
X137666664Y-43952381D01*
X137571426Y-43904762D01*
X137523807Y-43857143D01*
X137476188Y-43761905D01*
X137476188Y-43666667D01*
X137523807Y-43571429D01*
X137571426Y-43523810D01*
X137666664Y-43476190D01*
X137857141Y-43428571D01*
X137952379Y-43380952D01*
X137999998Y-43333333D01*
X138047617Y-43238095D01*
X138047617Y-43142857D01*
X137999998Y-43047619D01*
X137952379Y-43000000D01*
X137857141Y-42952381D01*
X137619045Y-42952381D01*
X137476188Y-43000000D01*
X137047617Y-43952381D02*
X137047617Y-42952381D01*
X136619045Y-43952381D02*
X136619045Y-43428571D01*
X136666664Y-43333333D01*
X136761902Y-43285714D01*
X136904760Y-43285714D01*
X136999998Y-43333333D01*
X137047617Y-43380952D01*
X135714283Y-43952381D02*
X135714283Y-43428571D01*
X135761902Y-43333333D01*
X135857140Y-43285714D01*
X136047617Y-43285714D01*
X136142855Y-43333333D01*
X135714283Y-43904762D02*
X135809521Y-43952381D01*
X136047617Y-43952381D01*
X136142855Y-43904762D01*
X136190474Y-43809524D01*
X136190474Y-43714286D01*
X136142855Y-43619048D01*
X136047617Y-43571429D01*
X135809521Y-43571429D01*
X135714283Y-43523810D01*
X135238093Y-43952381D02*
X135238093Y-43285714D01*
X135238093Y-43476190D02*
X135190474Y-43380952D01*
X135142855Y-43333333D01*
X135047617Y-43285714D01*
X134952378Y-43285714D01*
X134238092Y-43904762D02*
X134333330Y-43952381D01*
X134523807Y-43952381D01*
X134619045Y-43904762D01*
X134666664Y-43809524D01*
X134666664Y-43428571D01*
X134619045Y-43333333D01*
X134523807Y-43285714D01*
X134333330Y-43285714D01*
X134238092Y-43333333D01*
X134190473Y-43428571D01*
X134190473Y-43523810D01*
X134666664Y-43619048D01*
X133809521Y-43666667D02*
X133333330Y-43666667D01*
X133904759Y-43952381D02*
X133571426Y-42952381D01*
X133238092Y-43952381D01*
X132761902Y-43952381D02*
X132857140Y-43904762D01*
X132904759Y-43809524D01*
X132904759Y-42952381D01*
X132380949Y-43952381D02*
X132380949Y-43285714D01*
X132380949Y-42952381D02*
X132428568Y-43000000D01*
X132380949Y-43047619D01*
X132333330Y-43000000D01*
X132380949Y-42952381D01*
X132380949Y-43047619D01*
X131904759Y-43952381D02*
X131904759Y-42952381D01*
X131809521Y-43571429D02*
X131523806Y-43952381D01*
X131523806Y-43285714D02*
X131904759Y-43666667D01*
X130714282Y-43904762D02*
X130809520Y-43952381D01*
X130999997Y-43952381D01*
X131095235Y-43904762D01*
X131142854Y-43809524D01*
X131142854Y-43428571D01*
X131095235Y-43333333D01*
X130999997Y-43285714D01*
X130809520Y-43285714D01*
X130714282Y-43333333D01*
X130666663Y-43428571D01*
X130666663Y-43523810D01*
X131142854Y-43619048D01*
X129047615Y-43285714D02*
X129047615Y-43952381D01*
X129285711Y-42904762D02*
X129523806Y-43619048D01*
X128904758Y-43619048D01*
X128523806Y-43857143D02*
X128476187Y-43904762D01*
X128523806Y-43952381D01*
X128571425Y-43904762D01*
X128523806Y-43857143D01*
X128523806Y-43952381D01*
X127857140Y-42952381D02*
X127761901Y-42952381D01*
X127666663Y-43000000D01*
X127619044Y-43047619D01*
X127571425Y-43142857D01*
X127523806Y-43333333D01*
X127523806Y-43571429D01*
X127571425Y-43761905D01*
X127619044Y-43857143D01*
X127666663Y-43904762D01*
X127761901Y-43952381D01*
X127857140Y-43952381D01*
X127952378Y-43904762D01*
X127999997Y-43857143D01*
X128047616Y-43761905D01*
X128095235Y-43571429D01*
X128095235Y-43333333D01*
X128047616Y-43142857D01*
X127999997Y-43047619D01*
X127952378Y-43000000D01*
X127857140Y-42952381D01*
X161761905Y-45602381D02*
X161761905Y-44602381D01*
X161285715Y-44935714D02*
X161285715Y-45602381D01*
X161285715Y-45030952D02*
X161238096Y-44983333D01*
X161142858Y-44935714D01*
X161000000Y-44935714D01*
X160904762Y-44983333D01*
X160857143Y-45078571D01*
X160857143Y-45602381D01*
X160523810Y-44935714D02*
X160142858Y-44935714D01*
X160380953Y-44602381D02*
X160380953Y-45459524D01*
X160333334Y-45554762D01*
X160238096Y-45602381D01*
X160142858Y-45602381D01*
X159428571Y-45554762D02*
X159523809Y-45602381D01*
X159714286Y-45602381D01*
X159809524Y-45554762D01*
X159857143Y-45459524D01*
X159857143Y-45078571D01*
X159809524Y-44983333D01*
X159714286Y-44935714D01*
X159523809Y-44935714D01*
X159428571Y-44983333D01*
X159380952Y-45078571D01*
X159380952Y-45173810D01*
X159857143Y-45269048D01*
X158952381Y-45602381D02*
X158952381Y-44935714D01*
X158952381Y-45126190D02*
X158904762Y-45030952D01*
X158857143Y-44983333D01*
X158761905Y-44935714D01*
X158666666Y-44935714D01*
X158333333Y-44935714D02*
X158333333Y-45602381D01*
X158333333Y-45030952D02*
X158285714Y-44983333D01*
X158190476Y-44935714D01*
X158047618Y-44935714D01*
X157952380Y-44983333D01*
X157904761Y-45078571D01*
X157904761Y-45602381D01*
X156999999Y-45602381D02*
X156999999Y-45078571D01*
X157047618Y-44983333D01*
X157142856Y-44935714D01*
X157333333Y-44935714D01*
X157428571Y-44983333D01*
X156999999Y-45554762D02*
X157095237Y-45602381D01*
X157333333Y-45602381D01*
X157428571Y-45554762D01*
X157476190Y-45459524D01*
X157476190Y-45364286D01*
X157428571Y-45269048D01*
X157333333Y-45221429D01*
X157095237Y-45221429D01*
X156999999Y-45173810D01*
X156666666Y-44935714D02*
X156285714Y-44935714D01*
X156523809Y-44602381D02*
X156523809Y-45459524D01*
X156476190Y-45554762D01*
X156380952Y-45602381D01*
X156285714Y-45602381D01*
X155952380Y-45602381D02*
X155952380Y-44935714D01*
X155952380Y-44602381D02*
X155999999Y-44650000D01*
X155952380Y-44697619D01*
X155904761Y-44650000D01*
X155952380Y-44602381D01*
X155952380Y-44697619D01*
X155333333Y-45602381D02*
X155428571Y-45554762D01*
X155476190Y-45507143D01*
X155523809Y-45411905D01*
X155523809Y-45126190D01*
X155476190Y-45030952D01*
X155428571Y-44983333D01*
X155333333Y-44935714D01*
X155190475Y-44935714D01*
X155095237Y-44983333D01*
X155047618Y-45030952D01*
X154999999Y-45126190D01*
X154999999Y-45411905D01*
X155047618Y-45507143D01*
X155095237Y-45554762D01*
X155190475Y-45602381D01*
X155333333Y-45602381D01*
X154571428Y-44935714D02*
X154571428Y-45602381D01*
X154571428Y-45030952D02*
X154523809Y-44983333D01*
X154428571Y-44935714D01*
X154285713Y-44935714D01*
X154190475Y-44983333D01*
X154142856Y-45078571D01*
X154142856Y-45602381D01*
X153238094Y-45602381D02*
X153238094Y-45078571D01*
X153285713Y-44983333D01*
X153380951Y-44935714D01*
X153571428Y-44935714D01*
X153666666Y-44983333D01*
X153238094Y-45554762D02*
X153333332Y-45602381D01*
X153571428Y-45602381D01*
X153666666Y-45554762D01*
X153714285Y-45459524D01*
X153714285Y-45364286D01*
X153666666Y-45269048D01*
X153571428Y-45221429D01*
X153333332Y-45221429D01*
X153238094Y-45173810D01*
X152619047Y-45602381D02*
X152714285Y-45554762D01*
X152761904Y-45459524D01*
X152761904Y-44602381D01*
X150999998Y-45602381D02*
X151476189Y-45602381D01*
X151476189Y-44602381D01*
X150666665Y-45602381D02*
X150666665Y-44935714D01*
X150666665Y-44602381D02*
X150714284Y-44650000D01*
X150666665Y-44697619D01*
X150619046Y-44650000D01*
X150666665Y-44602381D01*
X150666665Y-44697619D01*
X149761903Y-45554762D02*
X149857141Y-45602381D01*
X150047618Y-45602381D01*
X150142856Y-45554762D01*
X150190475Y-45507143D01*
X150238094Y-45411905D01*
X150238094Y-45126190D01*
X150190475Y-45030952D01*
X150142856Y-44983333D01*
X150047618Y-44935714D01*
X149857141Y-44935714D01*
X149761903Y-44983333D01*
X148952379Y-45554762D02*
X149047617Y-45602381D01*
X149238094Y-45602381D01*
X149333332Y-45554762D01*
X149380951Y-45459524D01*
X149380951Y-45078571D01*
X149333332Y-44983333D01*
X149238094Y-44935714D01*
X149047617Y-44935714D01*
X148952379Y-44983333D01*
X148904760Y-45078571D01*
X148904760Y-45173810D01*
X149380951Y-45269048D01*
X148476189Y-44935714D02*
X148476189Y-45602381D01*
X148476189Y-45030952D02*
X148428570Y-44983333D01*
X148333332Y-44935714D01*
X148190474Y-44935714D01*
X148095236Y-44983333D01*
X148047617Y-45078571D01*
X148047617Y-45602381D01*
X147619046Y-45554762D02*
X147523808Y-45602381D01*
X147333332Y-45602381D01*
X147238093Y-45554762D01*
X147190474Y-45459524D01*
X147190474Y-45411905D01*
X147238093Y-45316667D01*
X147333332Y-45269048D01*
X147476189Y-45269048D01*
X147571427Y-45221429D01*
X147619046Y-45126190D01*
X147619046Y-45078571D01*
X147571427Y-44983333D01*
X147476189Y-44935714D01*
X147333332Y-44935714D01*
X147238093Y-44983333D01*
X146380950Y-45554762D02*
X146476188Y-45602381D01*
X146666665Y-45602381D01*
X146761903Y-45554762D01*
X146809522Y-45459524D01*
X146809522Y-45078571D01*
X146761903Y-44983333D01*
X146666665Y-44935714D01*
X146476188Y-44935714D01*
X146380950Y-44983333D01*
X146333331Y-45078571D01*
X146333331Y-45173810D01*
X146809522Y-45269048D01*
X144857140Y-45983333D02*
X144904760Y-45935714D01*
X144999998Y-45792857D01*
X145047617Y-45697619D01*
X145095236Y-45554762D01*
X145142855Y-45316667D01*
X145142855Y-45126190D01*
X145095236Y-44888095D01*
X145047617Y-44745238D01*
X144999998Y-44650000D01*
X144904760Y-44507143D01*
X144857140Y-44459524D01*
X143904759Y-45507143D02*
X143952378Y-45554762D01*
X144095235Y-45602381D01*
X144190473Y-45602381D01*
X144333331Y-45554762D01*
X144428569Y-45459524D01*
X144476188Y-45364286D01*
X144523807Y-45173810D01*
X144523807Y-45030952D01*
X144476188Y-44840476D01*
X144428569Y-44745238D01*
X144333331Y-44650000D01*
X144190473Y-44602381D01*
X144095235Y-44602381D01*
X143952378Y-44650000D01*
X143904759Y-44697619D01*
X142904759Y-45507143D02*
X142952378Y-45554762D01*
X143095235Y-45602381D01*
X143190473Y-45602381D01*
X143333331Y-45554762D01*
X143428569Y-45459524D01*
X143476188Y-45364286D01*
X143523807Y-45173810D01*
X143523807Y-45030952D01*
X143476188Y-44840476D01*
X143428569Y-44745238D01*
X143333331Y-44650000D01*
X143190473Y-44602381D01*
X143095235Y-44602381D01*
X142952378Y-44650000D01*
X142904759Y-44697619D01*
X142476188Y-45221429D02*
X141714283Y-45221429D01*
X140904759Y-45078571D02*
X140761902Y-45126190D01*
X140714283Y-45173810D01*
X140666664Y-45269048D01*
X140666664Y-45411905D01*
X140714283Y-45507143D01*
X140761902Y-45554762D01*
X140857140Y-45602381D01*
X141238093Y-45602381D01*
X141238093Y-44602381D01*
X140904759Y-44602381D01*
X140809521Y-44650000D01*
X140761902Y-44697619D01*
X140714283Y-44792857D01*
X140714283Y-44888095D01*
X140761902Y-44983333D01*
X140809521Y-45030952D01*
X140904759Y-45078571D01*
X141238093Y-45078571D01*
X140047617Y-45126190D02*
X140047617Y-45602381D01*
X140380950Y-44602381D02*
X140047617Y-45126190D01*
X139714283Y-44602381D01*
X139380950Y-45221429D02*
X138619045Y-45221429D01*
X138190474Y-45554762D02*
X138047617Y-45602381D01*
X137809521Y-45602381D01*
X137714283Y-45554762D01*
X137666664Y-45507143D01*
X137619045Y-45411905D01*
X137619045Y-45316667D01*
X137666664Y-45221429D01*
X137714283Y-45173810D01*
X137809521Y-45126190D01*
X137999998Y-45078571D01*
X138095236Y-45030952D01*
X138142855Y-44983333D01*
X138190474Y-44888095D01*
X138190474Y-44792857D01*
X138142855Y-44697619D01*
X138095236Y-44650000D01*
X137999998Y-44602381D01*
X137761902Y-44602381D01*
X137619045Y-44650000D01*
X137238093Y-45316667D02*
X136761902Y-45316667D01*
X137333331Y-45602381D02*
X136999998Y-44602381D01*
X136666664Y-45602381D01*
X135142854Y-44935714D02*
X135142854Y-45602381D01*
X135380950Y-44554762D02*
X135619045Y-45269048D01*
X134999997Y-45269048D01*
X134619045Y-45507143D02*
X134571426Y-45554762D01*
X134619045Y-45602381D01*
X134666664Y-45554762D01*
X134619045Y-45507143D01*
X134619045Y-45602381D01*
X133952379Y-44602381D02*
X133857140Y-44602381D01*
X133761902Y-44650000D01*
X133714283Y-44697619D01*
X133666664Y-44792857D01*
X133619045Y-44983333D01*
X133619045Y-45221429D01*
X133666664Y-45411905D01*
X133714283Y-45507143D01*
X133761902Y-45554762D01*
X133857140Y-45602381D01*
X133952379Y-45602381D01*
X134047617Y-45554762D01*
X134095236Y-45507143D01*
X134142855Y-45411905D01*
X134190474Y-45221429D01*
X134190474Y-44983333D01*
X134142855Y-44792857D01*
X134095236Y-44697619D01*
X134047617Y-44650000D01*
X133952379Y-44602381D01*
X133285712Y-45983333D02*
X133238093Y-45935714D01*
X133142855Y-45792857D01*
X133095236Y-45697619D01*
X133047617Y-45554762D01*
X132999998Y-45316667D01*
X132999998Y-45126190D01*
X133047617Y-44888095D01*
X133095236Y-44745238D01*
X133142855Y-44650000D01*
X133238093Y-44507143D01*
X133285712Y-44459524D01*
X132523807Y-45507143D02*
X132476188Y-45554762D01*
X132523807Y-45602381D01*
X132571426Y-45554762D01*
X132523807Y-45507143D01*
X132523807Y-45602381D01*
X172202381Y-78000000D02*
X171535714Y-78000000D01*
X171726190Y-78000000D02*
X171630952Y-78047619D01*
X171583333Y-78095238D01*
X171535714Y-78190476D01*
X171535714Y-78285715D01*
X171535714Y-78523810D02*
X172202381Y-78714286D01*
X171726190Y-78904763D01*
X172202381Y-79095239D01*
X171535714Y-79285715D01*
X172202381Y-79666667D02*
X171202381Y-79666667D01*
X171821429Y-79761905D02*
X172202381Y-80047620D01*
X171535714Y-80047620D02*
X171916667Y-79666667D01*
D12*
X163255059Y-83130952D02*
X162778869Y-83130952D01*
X162555655Y-83250000D01*
X162347321Y-83488095D01*
X162287798Y-83964286D01*
X162391964Y-84797619D01*
X162570535Y-85273810D01*
X162838393Y-85511905D01*
X163091369Y-85630952D01*
X163567559Y-85630952D01*
X163790774Y-85511905D01*
X163999107Y-85273810D01*
X164058631Y-84797619D01*
X163954465Y-83964286D01*
X163775893Y-83488095D01*
X163508036Y-83250000D01*
X163255059Y-83130952D01*
X161216369Y-83964286D02*
X161528869Y-86464286D01*
X161231250Y-84083333D02*
X160978274Y-83964286D01*
X160502083Y-83964286D01*
X160278869Y-84083333D01*
X160174702Y-84202381D01*
X160085416Y-84440476D01*
X160174702Y-85154762D01*
X160323511Y-85392857D01*
X160457440Y-85511905D01*
X160710416Y-85630952D01*
X161186607Y-85630952D01*
X161409821Y-85511905D01*
X158195535Y-85511905D02*
X158448511Y-85630952D01*
X158924702Y-85630952D01*
X159147916Y-85511905D01*
X159237202Y-85273810D01*
X159118155Y-84321429D01*
X158969345Y-84083333D01*
X158716369Y-83964286D01*
X158240178Y-83964286D01*
X158016964Y-84083333D01*
X157927678Y-84321429D01*
X157957439Y-84559524D01*
X159177678Y-84797619D01*
X156811607Y-83964286D02*
X157019940Y-85630952D01*
X156841369Y-84202381D02*
X156707440Y-84083333D01*
X156454464Y-83964286D01*
X156097321Y-83964286D01*
X155874107Y-84083333D01*
X155784821Y-84321429D01*
X155948511Y-85630952D01*
X153567559Y-85630952D02*
X154758035Y-85630952D01*
X154445535Y-83130952D01*
X152838392Y-85511905D02*
X152496130Y-85630952D01*
X151900892Y-85630952D01*
X151647915Y-85511905D01*
X151513987Y-85392857D01*
X151365177Y-85154762D01*
X151335415Y-84916667D01*
X151424701Y-84678571D01*
X151528867Y-84559524D01*
X151752082Y-84440476D01*
X152213392Y-84321429D01*
X152436606Y-84202381D01*
X152540773Y-84083333D01*
X152630059Y-83845238D01*
X152600297Y-83607143D01*
X152451487Y-83369048D01*
X152317558Y-83250000D01*
X152064582Y-83130952D01*
X151469344Y-83130952D01*
X151127082Y-83250000D01*
X150397916Y-83130952D02*
X148969344Y-83130952D01*
X149996130Y-85630952D02*
X149683630Y-83130952D01*
M02*
