G04 #@! TF.FileFunction,Paste,Top*
%FSLAX46Y46*%
G04 Gerber Fmt 4.6, Leading zero omitted, Abs format (unit mm)*
G04 Created by KiCad (PCBNEW 4.0.7-e2-6376~58~ubuntu16.04.1) date Thu Aug  2 15:14:07 2018*
%MOMM*%
%LPD*%
G01*
G04 APERTURE LIST*
%ADD10C,0.100000*%
%ADD11C,0.200000*%
%ADD12R,0.280000X0.750000*%
%ADD13R,0.750000X0.280000*%
%ADD14R,1.200000X0.600000*%
%ADD15R,0.600000X1.200000*%
%ADD16R,0.600000X1.700000*%
%ADD17R,3.500000X0.600000*%
%ADD18R,0.600000X3.500000*%
%ADD19R,0.400000X0.550000*%
%ADD20R,0.550000X0.500000*%
%ADD21R,0.550000X0.400000*%
%ADD22R,0.820000X1.000000*%
%ADD23R,0.650000X0.575000*%
%ADD24R,1.000000X0.820000*%
%ADD25R,0.575000X0.650000*%
%ADD26R,2.400000X1.460000*%
%ADD27R,2.300000X2.500000*%
%ADD28R,2.400000X0.740000*%
%ADD29R,5.080000X2.290000*%
%ADD30R,5.080000X2.420000*%
%ADD31R,1.220000X1.800000*%
%ADD32R,2.000000X3.800000*%
%ADD33R,2.000000X1.500000*%
%ADD34R,1.100000X4.600000*%
%ADD35R,5.250000X4.550000*%
%ADD36R,1.500000X1.200000*%
%ADD37R,0.800000X0.900000*%
%ADD38R,0.650000X0.400000*%
G04 APERTURE END LIST*
D10*
D11*
X132350000Y-70500000D02*
G75*
G03X132350000Y-70500000I-100000J0D01*
G01*
X132350000Y-69000000D02*
G75*
G03X132350000Y-69000000I-100000J0D01*
G01*
X132350000Y-67500000D02*
G75*
G03X132350000Y-67500000I-100000J0D01*
G01*
X130850000Y-67500000D02*
G75*
G03X130850000Y-67500000I-100000J0D01*
G01*
X130850000Y-69000000D02*
G75*
G03X130850000Y-69000000I-100000J0D01*
G01*
X130850000Y-70500000D02*
G75*
G03X130850000Y-70500000I-100000J0D01*
G01*
X130100000Y-69750000D02*
G75*
G03X130100000Y-69750000I-100000J0D01*
G01*
X130850000Y-69750000D02*
G75*
G03X130850000Y-69750000I-100000J0D01*
G01*
X132350000Y-69750000D02*
G75*
G03X132350000Y-69750000I-100000J0D01*
G01*
X131600000Y-69750000D02*
G75*
G03X131600000Y-69750000I-100000J0D01*
G01*
X133100000Y-69750000D02*
G75*
G03X133100000Y-69750000I-100000J0D01*
G01*
X133100000Y-68250000D02*
G75*
G03X133100000Y-68250000I-100000J0D01*
G01*
X131600000Y-68250000D02*
G75*
G03X131600000Y-68250000I-100000J0D01*
G01*
X132350000Y-68250000D02*
G75*
G03X132350000Y-68250000I-100000J0D01*
G01*
X130850000Y-68250000D02*
G75*
G03X130850000Y-68250000I-100000J0D01*
G01*
X130100000Y-68250000D02*
G75*
G03X130100000Y-68250000I-100000J0D01*
G01*
D12*
X131500000Y-66220000D03*
X132000000Y-66220000D03*
X132500000Y-66220000D03*
X133000000Y-66220000D03*
X133500000Y-66220000D03*
X131000000Y-66220000D03*
X130500000Y-66220000D03*
X130000000Y-66220000D03*
X129500000Y-66220000D03*
D13*
X134280000Y-69000000D03*
X134280000Y-69500000D03*
X134280000Y-70000000D03*
X134280000Y-70500000D03*
X134280000Y-71000000D03*
X134280000Y-67000000D03*
X134280000Y-67500000D03*
X134280000Y-68000000D03*
X134280000Y-68500000D03*
D12*
X131500000Y-71780000D03*
X131000000Y-71780000D03*
X130500000Y-71780000D03*
X130000000Y-71780000D03*
X129500000Y-71780000D03*
X133500000Y-71780000D03*
X133000000Y-71780000D03*
X132500000Y-71780000D03*
X132000000Y-71780000D03*
D13*
X128720000Y-69000000D03*
X128720000Y-68500000D03*
X128720000Y-68000000D03*
X128720000Y-67500000D03*
X128720000Y-67000000D03*
X128720000Y-71000000D03*
X128720000Y-70500000D03*
X128720000Y-70000000D03*
X128720000Y-69500000D03*
D14*
X158750000Y-61020000D03*
X158750000Y-59750000D03*
X158750000Y-58480000D03*
D15*
X157250000Y-58250000D03*
D14*
X155750000Y-58480000D03*
X155750000Y-59750000D03*
X155750000Y-61020000D03*
D16*
X157250000Y-61000000D03*
D17*
X157250000Y-67500000D03*
X157250000Y-69000000D03*
D18*
X156500000Y-68250000D03*
X158000000Y-68250000D03*
D19*
X155437000Y-70875000D03*
D20*
X154625000Y-70900000D03*
D21*
X154625000Y-66375000D03*
D20*
X154625000Y-65600000D03*
X159875000Y-65600000D03*
X159875000Y-70900000D03*
D21*
X159875000Y-70125000D03*
X159875000Y-69375000D03*
X159875000Y-68625000D03*
X159875000Y-67875000D03*
X159875000Y-67125000D03*
X159875000Y-66375000D03*
D19*
X159063000Y-65625000D03*
X158338000Y-65625000D03*
X157613000Y-65625000D03*
X156887000Y-65625000D03*
X156162000Y-65625000D03*
X155437000Y-65625000D03*
D21*
X154625000Y-67125000D03*
X154625000Y-67875000D03*
X154625000Y-68625000D03*
X154625000Y-69375000D03*
X154625000Y-70125000D03*
D19*
X156162000Y-70875000D03*
X156887000Y-70875000D03*
X157613000Y-70875000D03*
X158338000Y-70875000D03*
X159063000Y-70875000D03*
D22*
X128800000Y-73500000D03*
X127200000Y-73500000D03*
D23*
X136100000Y-67487500D03*
X136100000Y-66712500D03*
D24*
X135800000Y-64400000D03*
X135800000Y-62800000D03*
X144900000Y-42900000D03*
X144900000Y-44500000D03*
X134100000Y-64400000D03*
X134100000Y-62800000D03*
X165250000Y-72200000D03*
X165250000Y-73800000D03*
D25*
X135712500Y-71900000D03*
X136487500Y-71900000D03*
D22*
X152550000Y-66250000D03*
X150950000Y-66250000D03*
D24*
X129500000Y-58950000D03*
X129500000Y-60550000D03*
X126750000Y-66550000D03*
X126750000Y-64950000D03*
X133000000Y-44200000D03*
X133000000Y-45800000D03*
D26*
X148000000Y-44520000D03*
X148000000Y-47480000D03*
D24*
X133000000Y-41800000D03*
X133000000Y-40200000D03*
D22*
X148800000Y-40500000D03*
X147200000Y-40500000D03*
D24*
X132375000Y-64225000D03*
X132375000Y-62625000D03*
X163000000Y-47800000D03*
X163000000Y-46200000D03*
D25*
X139587500Y-70000000D03*
X138812500Y-70000000D03*
D22*
X129800000Y-75500000D03*
X128200000Y-75500000D03*
D23*
X137600000Y-66812500D03*
X137600000Y-67587500D03*
D25*
X138812500Y-68800000D03*
X139587500Y-68800000D03*
X141012500Y-68500000D03*
X141787500Y-68500000D03*
D22*
X145900000Y-70900000D03*
X144300000Y-70900000D03*
D24*
X148500000Y-55300000D03*
X148500000Y-53700000D03*
X153900000Y-73100000D03*
X153900000Y-74700000D03*
D25*
X151862500Y-67750000D03*
X152637500Y-67750000D03*
X151862500Y-69250000D03*
X152637500Y-69250000D03*
D24*
X156300000Y-73100000D03*
X156300000Y-74700000D03*
D25*
X162387500Y-66250000D03*
X161612500Y-66250000D03*
D24*
X158500000Y-73100000D03*
X158500000Y-74700000D03*
X131250000Y-58950000D03*
X131250000Y-60550000D03*
D22*
X171550000Y-50500000D03*
X169950000Y-50500000D03*
X171550000Y-53500000D03*
X169950000Y-53500000D03*
D27*
X125100000Y-50150000D03*
X125100000Y-54450000D03*
D28*
X128950000Y-46040000D03*
X125050000Y-46040000D03*
X128950000Y-44770000D03*
X125050000Y-44770000D03*
X128950000Y-43500000D03*
X125050000Y-43500000D03*
X128950000Y-42230000D03*
X125050000Y-42230000D03*
X128950000Y-40960000D03*
X125050000Y-40960000D03*
D29*
X170720000Y-63500000D03*
D30*
X170720000Y-67880000D03*
X170720000Y-59120000D03*
D31*
X131930000Y-49500000D03*
X129070000Y-49500000D03*
D24*
X133000000Y-58950000D03*
X133000000Y-60550000D03*
D23*
X137600000Y-69587500D03*
X137600000Y-68812500D03*
D25*
X138812500Y-67600000D03*
X139587500Y-67600000D03*
D24*
X147500000Y-72500000D03*
X147500000Y-70900000D03*
D22*
X143800000Y-78000000D03*
X142200000Y-78000000D03*
X148050000Y-78000000D03*
X146450000Y-78000000D03*
X168300000Y-50500000D03*
X166700000Y-50500000D03*
X168300000Y-53500000D03*
X166700000Y-53500000D03*
X137200000Y-82000000D03*
X138800000Y-82000000D03*
D24*
X124500000Y-80450000D03*
X124500000Y-82050000D03*
D22*
X133700000Y-82000000D03*
X135300000Y-82000000D03*
X130200000Y-82000000D03*
X131800000Y-82000000D03*
X121550000Y-73500000D03*
X119950000Y-73500000D03*
X121550000Y-63000000D03*
X119950000Y-63000000D03*
X121550000Y-68250000D03*
X119950000Y-68250000D03*
X121550000Y-70750000D03*
X119950000Y-70750000D03*
X146450000Y-80000000D03*
X148050000Y-80000000D03*
X142200000Y-80000000D03*
X143800000Y-80000000D03*
D24*
X154250000Y-80450000D03*
X154250000Y-82050000D03*
D22*
X140100000Y-63600000D03*
X138500000Y-63600000D03*
X139500000Y-55300000D03*
X137900000Y-55300000D03*
X129800000Y-79500000D03*
X128200000Y-79500000D03*
X121550000Y-65500000D03*
X119950000Y-65500000D03*
X126700000Y-82000000D03*
X128300000Y-82000000D03*
X146300000Y-58300000D03*
X147900000Y-58300000D03*
X143100000Y-58300000D03*
X144700000Y-58300000D03*
X135300000Y-50600000D03*
X133700000Y-50600000D03*
X138800000Y-50600000D03*
X137200000Y-50600000D03*
D24*
X171250000Y-72200000D03*
X171250000Y-73800000D03*
X157250000Y-82050000D03*
X157250000Y-80450000D03*
D22*
X129800000Y-77500000D03*
X128200000Y-77500000D03*
D24*
X160250000Y-80450000D03*
X160250000Y-82050000D03*
D22*
X120300000Y-78500000D03*
X118700000Y-78500000D03*
X116200000Y-48000000D03*
X117800000Y-48000000D03*
D24*
X163000000Y-44300000D03*
X163000000Y-42700000D03*
D22*
X162700000Y-80000000D03*
X164300000Y-80000000D03*
D24*
X169250000Y-72200000D03*
X169250000Y-73800000D03*
X167250000Y-73800000D03*
X167250000Y-72200000D03*
D32*
X135350000Y-43500000D03*
D33*
X141650000Y-43500000D03*
X141650000Y-41200000D03*
X141650000Y-45800000D03*
D34*
X158540000Y-42225000D03*
X156000000Y-42225000D03*
X153460000Y-42225000D03*
D35*
X153225000Y-53800000D03*
X158775000Y-48950000D03*
X158775000Y-53800000D03*
X153225000Y-48950000D03*
D36*
X146050000Y-52350000D03*
X141950000Y-52350000D03*
X141950000Y-55150000D03*
X146050000Y-55150000D03*
D37*
X133950000Y-76500000D03*
X132050000Y-76500000D03*
X133000000Y-78500000D03*
D38*
X148200000Y-69150000D03*
X148200000Y-67850000D03*
X146300000Y-68500000D03*
X148200000Y-68500000D03*
X146300000Y-67850000D03*
X146300000Y-69150000D03*
M02*
